M48
; DRILL file {KiCad (5.1.4-0-10_14)} date Friday, November 22, 2019 at 04:33:31 AM
; FORMAT={-:-/ absolute / inch / decimal}
; #@! TF.CreationDate,2019-11-22T04:33:31-05:00
; #@! TF.GenerationSoftware,Kicad,Pcbnew,(5.1.4-0-10_14)
; #@! TF.FileFunction,Plated,1,2,PTH
FMAT,2
INCH
T1C0.0120
T2C0.0310
T3C0.0394
T4C0.0400
T5C0.1285
%
G90
G05
T1
X1.076Y-2.83
X1.147Y-3.219
X1.149Y-3.166
X1.343Y-2.892
X1.387Y-3.038
X1.401Y-3.075
X1.439Y-2.985
X1.447Y-3.154
X1.461Y-3.016
X1.651Y-2.672
X1.651Y-2.894
X1.674Y-2.95
X1.695Y-2.985
X1.728Y-2.618
X1.777Y-3.707
X1.777Y-3.959
X1.799Y-2.544
X1.864Y-3.028
X1.87Y-2.935
X1.953Y-2.466
X1.953Y-2.546
X1.953Y-2.616
X1.973Y-3.754
X1.993Y-2.426
X1.993Y-2.506
X1.993Y-2.576
X1.998Y-3.04
X1.999Y-3.003
X2.003Y-2.616
X2.033Y-2.87
X2.034Y-2.983
X2.0594Y-2.8557
X2.072Y-2.988
X2.073Y-2.246
X2.147Y-3.2
X2.153Y-2.366
X2.168Y-3.077
X2.173Y-2.896
X2.1734Y-3.1065
X2.1895Y-2.2578
X2.1915Y-2.3598
X2.21Y-3.269
X2.23Y-3.645
X2.255Y-3.674
X2.273Y-3.331
X2.3083Y-3.0367
X2.319Y-3.378
X2.3373Y-3.0657
X2.352Y-3.634
X2.353Y-2.116
X2.375Y-3.661
X2.393Y-2.046
X2.471Y-3.374
X2.535Y-3.432
X2.563Y-2.956
X2.5683Y-3.0267
X2.585Y-3.059
X2.593Y-2.166
X2.593Y-2.236
X2.668Y-3.021
X2.673Y-3.058
X2.683Y-2.166
X2.683Y-2.236
X2.773Y-3.839
X2.783Y-2.656
X2.793Y-2.876
X2.832Y-3.104
X2.842Y-3.2046
X2.875Y-3.098
X2.897Y-3.2046
X3.006Y-3.461
X3.064Y-3.025
X3.069Y-3.396
X3.125Y-3.345
X3.358Y-3.432
X3.375Y-3.491
X3.851Y-2.901
X4.056Y-2.72
X4.214Y-3.018
X4.357Y-3.302
X4.359Y-3.167
X4.598Y-3.273
T2
X3.056Y-3.548
X3.154Y-3.548
X3.252Y-3.548
X0.984Y-3.429
X0.984Y-3.527
X0.984Y-3.625
X1.597Y-2.211
X1.695Y-2.211
X1.793Y-2.211
X3.058Y-3.703
X3.156Y-3.703
X3.254Y-3.703
X0.982Y-3.122
X0.982Y-3.22
X0.982Y-3.318
X1.296Y-2.211
X1.394Y-2.211
X1.492Y-2.211
X4.618Y-2.563
X4.618Y-2.661
X4.618Y-2.759
X0.995Y-2.21
X1.093Y-2.21
X1.191Y-2.21
X4.618Y-2.864
X4.618Y-2.962
X4.618Y-3.06
T3
X3.024Y-2.487
X3.024Y-2.587
X1.25Y-2.454
X1.25Y-2.554
X1.25Y-2.654
X1.25Y-2.754
X1.25Y-2.854
X1.25Y-2.954
X1.25Y-3.054
X1.25Y-3.154
X1.25Y-3.254
X1.25Y-3.354
X1.25Y-3.454
X1.25Y-3.554
X1.25Y-3.654
X1.25Y-3.754
X1.25Y-3.854
X1.25Y-3.954
T4
X3.224Y-3.138
X3.224Y-3.238
X3.224Y-3.338
X3.324Y-3.138
X3.324Y-3.238
X3.324Y-3.338
X2.628Y-3.154
X2.628Y-3.254
X2.628Y-3.354
X2.728Y-3.154
X2.728Y-3.254
X2.728Y-3.354
T5
X4.56Y-2.146
X3.199Y-2.151
X0.995Y-2.522
X3.648Y-3.882
T0
M30
