G04 #@! TF.GenerationSoftware,KiCad,Pcbnew,(5.1.4-0-10_14)*
G04 #@! TF.CreationDate,2019-11-22T04:33:24-05:00*
G04 #@! TF.ProjectId,controllerBoard,636f6e74-726f-46c6-9c65-72426f617264,rev?*
G04 #@! TF.SameCoordinates,Original*
G04 #@! TF.FileFunction,Legend,Top*
G04 #@! TF.FilePolarity,Positive*
%FSLAX46Y46*%
G04 Gerber Fmt 4.6, Leading zero omitted, Abs format (unit mm)*
G04 Created by KiCad (PCBNEW (5.1.4-0-10_14)) date 2019-11-22 04:33:24*
%MOMM*%
%LPD*%
G04 APERTURE LIST*
%ADD10C,0.300000*%
%ADD11C,0.152400*%
%ADD12C,0.010000*%
%ADD13C,0.120000*%
%ADD14C,0.100000*%
%ADD15C,0.200000*%
%ADD16C,0.150000*%
G04 APERTURE END LIST*
D10*
X94872028Y-54617942D02*
X95086314Y-54689371D01*
X95443457Y-54689371D01*
X95586314Y-54617942D01*
X95657742Y-54546514D01*
X95729171Y-54403657D01*
X95729171Y-54260800D01*
X95657742Y-54117942D01*
X95586314Y-54046514D01*
X95443457Y-53975085D01*
X95157742Y-53903657D01*
X95014885Y-53832228D01*
X94943457Y-53760800D01*
X94872028Y-53617942D01*
X94872028Y-53475085D01*
X94943457Y-53332228D01*
X95014885Y-53260800D01*
X95157742Y-53189371D01*
X95514885Y-53189371D01*
X95729171Y-53260800D01*
X96372028Y-54689371D02*
X96372028Y-53189371D01*
X96943457Y-53189371D01*
X97086314Y-53260800D01*
X97157742Y-53332228D01*
X97229171Y-53475085D01*
X97229171Y-53689371D01*
X97157742Y-53832228D01*
X97086314Y-53903657D01*
X96943457Y-53975085D01*
X96372028Y-53975085D01*
X97872028Y-53903657D02*
X98372028Y-53903657D01*
X98586314Y-54689371D02*
X97872028Y-54689371D01*
X97872028Y-53189371D01*
X98586314Y-53189371D01*
X99229171Y-53903657D02*
X99729171Y-53903657D01*
X99943457Y-54689371D02*
X99229171Y-54689371D01*
X99229171Y-53189371D01*
X99943457Y-53189371D01*
X100586314Y-54689371D02*
X100586314Y-53189371D01*
X100943457Y-53189371D01*
X101157742Y-53260800D01*
X101300600Y-53403657D01*
X101372028Y-53546514D01*
X101443457Y-53832228D01*
X101443457Y-54046514D01*
X101372028Y-54332228D01*
X101300600Y-54475085D01*
X101157742Y-54617942D01*
X100943457Y-54689371D01*
X100586314Y-54689371D01*
X103229171Y-53903657D02*
X103729171Y-53903657D01*
X103943457Y-54689371D02*
X103229171Y-54689371D01*
X103229171Y-53189371D01*
X103943457Y-53189371D01*
X104372028Y-53189371D02*
X104872028Y-54689371D01*
X105372028Y-53189371D01*
X89943457Y-57096514D02*
X89872028Y-57167942D01*
X89657742Y-57239371D01*
X89514885Y-57239371D01*
X89300600Y-57167942D01*
X89157742Y-57025085D01*
X89086314Y-56882228D01*
X89014885Y-56596514D01*
X89014885Y-56382228D01*
X89086314Y-56096514D01*
X89157742Y-55953657D01*
X89300600Y-55810800D01*
X89514885Y-55739371D01*
X89657742Y-55739371D01*
X89872028Y-55810800D01*
X89943457Y-55882228D01*
X90872028Y-55739371D02*
X91157742Y-55739371D01*
X91300600Y-55810800D01*
X91443457Y-55953657D01*
X91514885Y-56239371D01*
X91514885Y-56739371D01*
X91443457Y-57025085D01*
X91300600Y-57167942D01*
X91157742Y-57239371D01*
X90872028Y-57239371D01*
X90729171Y-57167942D01*
X90586314Y-57025085D01*
X90514885Y-56739371D01*
X90514885Y-56239371D01*
X90586314Y-55953657D01*
X90729171Y-55810800D01*
X90872028Y-55739371D01*
X92157742Y-57239371D02*
X92157742Y-55739371D01*
X93014885Y-57239371D01*
X93014885Y-55739371D01*
X93514885Y-55739371D02*
X94372028Y-55739371D01*
X93943457Y-57239371D02*
X93943457Y-55739371D01*
X95729171Y-57239371D02*
X95229171Y-56525085D01*
X94872028Y-57239371D02*
X94872028Y-55739371D01*
X95443457Y-55739371D01*
X95586314Y-55810800D01*
X95657742Y-55882228D01*
X95729171Y-56025085D01*
X95729171Y-56239371D01*
X95657742Y-56382228D01*
X95586314Y-56453657D01*
X95443457Y-56525085D01*
X94872028Y-56525085D01*
X96657742Y-55739371D02*
X96943457Y-55739371D01*
X97086314Y-55810800D01*
X97229171Y-55953657D01*
X97300600Y-56239371D01*
X97300600Y-56739371D01*
X97229171Y-57025085D01*
X97086314Y-57167942D01*
X96943457Y-57239371D01*
X96657742Y-57239371D01*
X96514885Y-57167942D01*
X96372028Y-57025085D01*
X96300600Y-56739371D01*
X96300600Y-56239371D01*
X96372028Y-55953657D01*
X96514885Y-55810800D01*
X96657742Y-55739371D01*
X98657742Y-57239371D02*
X97943457Y-57239371D01*
X97943457Y-55739371D01*
X99872028Y-57239371D02*
X99157742Y-57239371D01*
X99157742Y-55739371D01*
X100372028Y-56453657D02*
X100872028Y-56453657D01*
X101086314Y-57239371D02*
X100372028Y-57239371D01*
X100372028Y-55739371D01*
X101086314Y-55739371D01*
X102586314Y-57239371D02*
X102086314Y-56525085D01*
X101729171Y-57239371D02*
X101729171Y-55739371D01*
X102300600Y-55739371D01*
X102443457Y-55810800D01*
X102514885Y-55882228D01*
X102586314Y-56025085D01*
X102586314Y-56239371D01*
X102514885Y-56382228D01*
X102443457Y-56453657D01*
X102300600Y-56525085D01*
X101729171Y-56525085D01*
X104872028Y-56453657D02*
X105086314Y-56525085D01*
X105157742Y-56596514D01*
X105229171Y-56739371D01*
X105229171Y-56953657D01*
X105157742Y-57096514D01*
X105086314Y-57167942D01*
X104943457Y-57239371D01*
X104372028Y-57239371D01*
X104372028Y-55739371D01*
X104872028Y-55739371D01*
X105014885Y-55810800D01*
X105086314Y-55882228D01*
X105157742Y-56025085D01*
X105157742Y-56167942D01*
X105086314Y-56310800D01*
X105014885Y-56382228D01*
X104872028Y-56453657D01*
X104372028Y-56453657D01*
X106157742Y-55739371D02*
X106443457Y-55739371D01*
X106586314Y-55810800D01*
X106729171Y-55953657D01*
X106800600Y-56239371D01*
X106800600Y-56739371D01*
X106729171Y-57025085D01*
X106586314Y-57167942D01*
X106443457Y-57239371D01*
X106157742Y-57239371D01*
X106014885Y-57167942D01*
X105872028Y-57025085D01*
X105800600Y-56739371D01*
X105800600Y-56239371D01*
X105872028Y-55953657D01*
X106014885Y-55810800D01*
X106157742Y-55739371D01*
X107372028Y-56810800D02*
X108086314Y-56810800D01*
X107229171Y-57239371D02*
X107729171Y-55739371D01*
X108229171Y-57239371D01*
X109586314Y-57239371D02*
X109086314Y-56525085D01*
X108729171Y-57239371D02*
X108729171Y-55739371D01*
X109300600Y-55739371D01*
X109443457Y-55810800D01*
X109514885Y-55882228D01*
X109586314Y-56025085D01*
X109586314Y-56239371D01*
X109514885Y-56382228D01*
X109443457Y-56453657D01*
X109300600Y-56525085D01*
X108729171Y-56525085D01*
X110229171Y-57239371D02*
X110229171Y-55739371D01*
X110586314Y-55739371D01*
X110800600Y-55810800D01*
X110943457Y-55953657D01*
X111014885Y-56096514D01*
X111086314Y-56382228D01*
X111086314Y-56596514D01*
X111014885Y-56882228D01*
X110943457Y-57025085D01*
X110800600Y-57167942D01*
X110586314Y-57239371D01*
X110229171Y-57239371D01*
X97764885Y-58289371D02*
X98264885Y-59789371D01*
X98764885Y-58289371D01*
X99193457Y-58432228D02*
X99264885Y-58360800D01*
X99407742Y-58289371D01*
X99764885Y-58289371D01*
X99907742Y-58360800D01*
X99979171Y-58432228D01*
X100050600Y-58575085D01*
X100050600Y-58717942D01*
X99979171Y-58932228D01*
X99122028Y-59789371D01*
X100050600Y-59789371D01*
X100693457Y-59646514D02*
X100764885Y-59717942D01*
X100693457Y-59789371D01*
X100622028Y-59717942D01*
X100693457Y-59646514D01*
X100693457Y-59789371D01*
X101693457Y-58289371D02*
X101836314Y-58289371D01*
X101979171Y-58360800D01*
X102050600Y-58432228D01*
X102122028Y-58575085D01*
X102193457Y-58860800D01*
X102193457Y-59217942D01*
X102122028Y-59503657D01*
X102050600Y-59646514D01*
X101979171Y-59717942D01*
X101836314Y-59789371D01*
X101693457Y-59789371D01*
X101550600Y-59717942D01*
X101479171Y-59646514D01*
X101407742Y-59503657D01*
X101336314Y-59217942D01*
X101336314Y-58860800D01*
X101407742Y-58575085D01*
X101479171Y-58432228D01*
X101550600Y-58360800D01*
X101693457Y-58289371D01*
X90336314Y-61910800D02*
X91050600Y-61910800D01*
X90193457Y-62339371D02*
X90693457Y-60839371D01*
X91193457Y-62339371D01*
X91693457Y-62339371D02*
X91693457Y-60839371D01*
X92050600Y-60839371D01*
X92264885Y-60910800D01*
X92407742Y-61053657D01*
X92479171Y-61196514D01*
X92550600Y-61482228D01*
X92550600Y-61696514D01*
X92479171Y-61982228D01*
X92407742Y-62125085D01*
X92264885Y-62267942D01*
X92050600Y-62339371D01*
X91693457Y-62339371D01*
X93193457Y-62339371D02*
X93193457Y-60839371D01*
X93693457Y-60839371D02*
X94550600Y-60839371D01*
X94122028Y-62339371D02*
X94122028Y-60839371D01*
X95336314Y-61625085D02*
X95336314Y-62339371D01*
X94836314Y-60839371D02*
X95336314Y-61625085D01*
X95836314Y-60839371D01*
X96264885Y-61910800D02*
X96979171Y-61910800D01*
X96122028Y-62339371D02*
X96622028Y-60839371D01*
X97122028Y-62339371D01*
X98693457Y-62267942D02*
X98907742Y-62339371D01*
X99264885Y-62339371D01*
X99407742Y-62267942D01*
X99479171Y-62196514D01*
X99550600Y-62053657D01*
X99550600Y-61910800D01*
X99479171Y-61767942D01*
X99407742Y-61696514D01*
X99264885Y-61625085D01*
X98979171Y-61553657D01*
X98836314Y-61482228D01*
X98764885Y-61410800D01*
X98693457Y-61267942D01*
X98693457Y-61125085D01*
X98764885Y-60982228D01*
X98836314Y-60910800D01*
X98979171Y-60839371D01*
X99336314Y-60839371D01*
X99550600Y-60910800D01*
X100193457Y-60839371D02*
X100193457Y-62053657D01*
X100264885Y-62196514D01*
X100336314Y-62267942D01*
X100479171Y-62339371D01*
X100764885Y-62339371D01*
X100907742Y-62267942D01*
X100979171Y-62196514D01*
X101050600Y-62053657D01*
X101050600Y-60839371D01*
X101764885Y-62339371D02*
X101764885Y-60839371D01*
X102122028Y-60839371D01*
X102336314Y-60910800D01*
X102479171Y-61053657D01*
X102550600Y-61196514D01*
X102622028Y-61482228D01*
X102622028Y-61696514D01*
X102550600Y-61982228D01*
X102479171Y-62125085D01*
X102336314Y-62267942D01*
X102122028Y-62339371D01*
X101764885Y-62339371D01*
X103264885Y-62339371D02*
X103264885Y-60839371D01*
X103264885Y-61553657D02*
X104122028Y-61553657D01*
X104122028Y-62339371D02*
X104122028Y-60839371D01*
X104764885Y-61910800D02*
X105479171Y-61910800D01*
X104622028Y-62339371D02*
X105122028Y-60839371D01*
X105622028Y-62339371D01*
X106122028Y-62339371D02*
X106122028Y-60839371D01*
X106979171Y-62339371D02*
X106336314Y-61482228D01*
X106979171Y-60839371D02*
X106122028Y-61696514D01*
X107550600Y-61910800D02*
X108264885Y-61910800D01*
X107407742Y-62339371D02*
X107907742Y-60839371D01*
X108407742Y-62339371D01*
X109764885Y-62339371D02*
X109264885Y-61625085D01*
X108907742Y-62339371D02*
X108907742Y-60839371D01*
X109479171Y-60839371D01*
X109622028Y-60910800D01*
X109693457Y-60982228D01*
X109764885Y-61125085D01*
X109764885Y-61339371D01*
X109693457Y-61482228D01*
X109622028Y-61553657D01*
X109479171Y-61625085D01*
X108907742Y-61625085D01*
D11*
X54190295Y-71072223D02*
X53585533Y-71072223D01*
X53525057Y-71676985D01*
X53585533Y-71616509D01*
X53706485Y-71556033D01*
X54008866Y-71556033D01*
X54129819Y-71616509D01*
X54190295Y-71676985D01*
X54250771Y-71797938D01*
X54250771Y-72100319D01*
X54190295Y-72221271D01*
X54129819Y-72281747D01*
X54008866Y-72342223D01*
X53706485Y-72342223D01*
X53585533Y-72281747D01*
X53525057Y-72221271D01*
X54613628Y-71072223D02*
X55036961Y-72342223D01*
X55460295Y-71072223D01*
X53615771Y-74399623D02*
X53011009Y-74399623D01*
X53011009Y-73129623D01*
X54039104Y-73734385D02*
X54462438Y-73734385D01*
X54643866Y-74399623D02*
X54039104Y-74399623D01*
X54039104Y-73129623D01*
X54643866Y-73129623D01*
X55188152Y-74399623D02*
X55188152Y-73129623D01*
X55490533Y-73129623D01*
X55671961Y-73190100D01*
X55792914Y-73311052D01*
X55853390Y-73432004D01*
X55913866Y-73673909D01*
X55913866Y-73855338D01*
X55853390Y-74097242D01*
X55792914Y-74218195D01*
X55671961Y-74339147D01*
X55490533Y-74399623D01*
X55188152Y-74399623D01*
X74818723Y-64867971D02*
X74818723Y-65593685D01*
X74818723Y-65230828D02*
X73548723Y-65230828D01*
X73730152Y-65351780D01*
X73851104Y-65472733D01*
X73911580Y-65593685D01*
X73669676Y-64384161D02*
X73609200Y-64323685D01*
X73548723Y-64202733D01*
X73548723Y-63900352D01*
X73609200Y-63779400D01*
X73669676Y-63718923D01*
X73790628Y-63658447D01*
X73911580Y-63658447D01*
X74093009Y-63718923D01*
X74818723Y-64444638D01*
X74818723Y-63658447D01*
X73548723Y-63295590D02*
X74818723Y-62872257D01*
X73548723Y-62448923D01*
X74818723Y-60453209D02*
X74818723Y-61057971D01*
X73548723Y-61057971D01*
X74153485Y-60029876D02*
X74153485Y-59606542D01*
X74818723Y-59425114D02*
X74818723Y-60029876D01*
X73548723Y-60029876D01*
X73548723Y-59425114D01*
X74818723Y-58880828D02*
X73548723Y-58880828D01*
X73548723Y-58578447D01*
X73609200Y-58397019D01*
X73730152Y-58276066D01*
X73851104Y-58215590D01*
X74093009Y-58155114D01*
X74274438Y-58155114D01*
X74516342Y-58215590D01*
X74637295Y-58276066D01*
X74758247Y-58397019D01*
X74818723Y-58578447D01*
X74818723Y-58880828D01*
D12*
G36*
X110288470Y-93154474D02*
G01*
X109796569Y-93484909D01*
X109249746Y-93918295D01*
X108688400Y-94417627D01*
X108152929Y-94945900D01*
X107683733Y-95466109D01*
X107463363Y-95742269D01*
X107006096Y-96408864D01*
X106633257Y-97074745D01*
X106350873Y-97720252D01*
X106164970Y-98325723D01*
X106081575Y-98871497D01*
X106106713Y-99337911D01*
X106246411Y-99705304D01*
X106247949Y-99707700D01*
X106330128Y-99845394D01*
X106347519Y-99894037D01*
X106261043Y-99872285D01*
X106048168Y-99817369D01*
X105746316Y-99738966D01*
X105562400Y-99691027D01*
X104569597Y-99389484D01*
X103737283Y-99044054D01*
X103061825Y-98652539D01*
X102539592Y-98212743D01*
X102166951Y-97722466D01*
X102098540Y-97595376D01*
X101916808Y-97064633D01*
X101895147Y-96539232D01*
X102024297Y-96024926D01*
X102294997Y-95527469D01*
X102697984Y-95052615D01*
X103223999Y-94606118D01*
X103863780Y-94193731D01*
X104608066Y-93821209D01*
X105447595Y-93494306D01*
X106373107Y-93218774D01*
X107375340Y-93000369D01*
X108445033Y-92844845D01*
X109572926Y-92757954D01*
X109902882Y-92746582D01*
X111026031Y-92718415D01*
X110288470Y-93154474D01*
X110288470Y-93154474D01*
G37*
X110288470Y-93154474D02*
X109796569Y-93484909D01*
X109249746Y-93918295D01*
X108688400Y-94417627D01*
X108152929Y-94945900D01*
X107683733Y-95466109D01*
X107463363Y-95742269D01*
X107006096Y-96408864D01*
X106633257Y-97074745D01*
X106350873Y-97720252D01*
X106164970Y-98325723D01*
X106081575Y-98871497D01*
X106106713Y-99337911D01*
X106246411Y-99705304D01*
X106247949Y-99707700D01*
X106330128Y-99845394D01*
X106347519Y-99894037D01*
X106261043Y-99872285D01*
X106048168Y-99817369D01*
X105746316Y-99738966D01*
X105562400Y-99691027D01*
X104569597Y-99389484D01*
X103737283Y-99044054D01*
X103061825Y-98652539D01*
X102539592Y-98212743D01*
X102166951Y-97722466D01*
X102098540Y-97595376D01*
X101916808Y-97064633D01*
X101895147Y-96539232D01*
X102024297Y-96024926D01*
X102294997Y-95527469D01*
X102697984Y-95052615D01*
X103223999Y-94606118D01*
X103863780Y-94193731D01*
X104608066Y-93821209D01*
X105447595Y-93494306D01*
X106373107Y-93218774D01*
X107375340Y-93000369D01*
X108445033Y-92844845D01*
X109572926Y-92757954D01*
X109902882Y-92746582D01*
X111026031Y-92718415D01*
X110288470Y-93154474D01*
G36*
X112942383Y-92899057D02*
G01*
X113092857Y-92939071D01*
X113359028Y-93007376D01*
X113692229Y-93091525D01*
X113817400Y-93122847D01*
X114449923Y-93316788D01*
X115088566Y-93576834D01*
X115687109Y-93880126D01*
X116199328Y-94203801D01*
X116505864Y-94452569D01*
X116927128Y-94935650D01*
X117186610Y-95432495D01*
X117290608Y-95936317D01*
X117245421Y-96440328D01*
X117057349Y-96937741D01*
X116732690Y-97421769D01*
X116277743Y-97885626D01*
X115698808Y-98322524D01*
X115002183Y-98725676D01*
X114194167Y-99088296D01*
X113281060Y-99403595D01*
X112269159Y-99664788D01*
X111536925Y-99806498D01*
X111079389Y-99880073D01*
X110762627Y-99920452D01*
X110561688Y-99929226D01*
X110451625Y-99907983D01*
X110416388Y-99877888D01*
X110357474Y-99824128D01*
X110347363Y-99867933D01*
X110265719Y-99927604D01*
X110036925Y-99967173D01*
X109816900Y-99980038D01*
X109450019Y-99991254D01*
X109078867Y-100003466D01*
X108885542Y-100010306D01*
X108651224Y-100007514D01*
X108506263Y-99983698D01*
X108483375Y-99964357D01*
X108417694Y-99934579D01*
X108335234Y-99950197D01*
X108327737Y-99937062D01*
X108444523Y-99859353D01*
X108660998Y-99733185D01*
X108698118Y-99712427D01*
X109490452Y-99202340D01*
X110273364Y-98555776D01*
X110855872Y-97982966D01*
X111532945Y-97217463D01*
X112077475Y-96471863D01*
X112516151Y-95708456D01*
X112625549Y-95482285D01*
X112913604Y-94776234D01*
X113072357Y-94170850D01*
X113102705Y-93658535D01*
X113005550Y-93231692D01*
X112912905Y-93053381D01*
X112833894Y-92914795D01*
X112857977Y-92879975D01*
X112942383Y-92899057D01*
X112942383Y-92899057D01*
G37*
X112942383Y-92899057D02*
X113092857Y-92939071D01*
X113359028Y-93007376D01*
X113692229Y-93091525D01*
X113817400Y-93122847D01*
X114449923Y-93316788D01*
X115088566Y-93576834D01*
X115687109Y-93880126D01*
X116199328Y-94203801D01*
X116505864Y-94452569D01*
X116927128Y-94935650D01*
X117186610Y-95432495D01*
X117290608Y-95936317D01*
X117245421Y-96440328D01*
X117057349Y-96937741D01*
X116732690Y-97421769D01*
X116277743Y-97885626D01*
X115698808Y-98322524D01*
X115002183Y-98725676D01*
X114194167Y-99088296D01*
X113281060Y-99403595D01*
X112269159Y-99664788D01*
X111536925Y-99806498D01*
X111079389Y-99880073D01*
X110762627Y-99920452D01*
X110561688Y-99929226D01*
X110451625Y-99907983D01*
X110416388Y-99877888D01*
X110357474Y-99824128D01*
X110347363Y-99867933D01*
X110265719Y-99927604D01*
X110036925Y-99967173D01*
X109816900Y-99980038D01*
X109450019Y-99991254D01*
X109078867Y-100003466D01*
X108885542Y-100010306D01*
X108651224Y-100007514D01*
X108506263Y-99983698D01*
X108483375Y-99964357D01*
X108417694Y-99934579D01*
X108335234Y-99950197D01*
X108327737Y-99937062D01*
X108444523Y-99859353D01*
X108660998Y-99733185D01*
X108698118Y-99712427D01*
X109490452Y-99202340D01*
X110273364Y-98555776D01*
X110855872Y-97982966D01*
X111532945Y-97217463D01*
X112077475Y-96471863D01*
X112516151Y-95708456D01*
X112625549Y-95482285D01*
X112913604Y-94776234D01*
X113072357Y-94170850D01*
X113102705Y-93658535D01*
X113005550Y-93231692D01*
X112912905Y-93053381D01*
X112833894Y-92914795D01*
X112857977Y-92879975D01*
X112942383Y-92899057D01*
D13*
X58330200Y-56532400D02*
X58330200Y-55532400D01*
X56630200Y-55532400D02*
X56630200Y-56532400D01*
X53170200Y-65518400D02*
X54170200Y-65518400D01*
X54170200Y-63818400D02*
X53170200Y-63818400D01*
X53170200Y-63232400D02*
X54170200Y-63232400D01*
X54170200Y-61532400D02*
X53170200Y-61532400D01*
D14*
X57788200Y-73908400D02*
X57788200Y-73558400D01*
X57788200Y-73558400D02*
X57788200Y-73208400D01*
X58138200Y-73908400D02*
X57788200Y-73558400D01*
X58138200Y-73858400D02*
X58138200Y-73908400D01*
X58138200Y-73908400D02*
X58138200Y-73858400D01*
X58138200Y-73208400D02*
X58138200Y-73858400D01*
X58088200Y-73258400D02*
X58138200Y-73208400D01*
X57788200Y-73558400D02*
X58088200Y-73258400D01*
D13*
X56188200Y-72858400D02*
X56188200Y-74258400D01*
X56188200Y-74258400D02*
X58988200Y-74258400D01*
X56188200Y-72858400D02*
X58988200Y-72858400D01*
X68250700Y-62265900D02*
X68250700Y-64265900D01*
X65290700Y-64265900D02*
X65290700Y-62265900D01*
X70526200Y-61738400D02*
X69326200Y-61738400D01*
X69326200Y-59978400D02*
X70526200Y-59978400D01*
X70526200Y-59706400D02*
X69326200Y-59706400D01*
X69326200Y-57946400D02*
X70526200Y-57946400D01*
X61452200Y-72678400D02*
X62652200Y-72678400D01*
X62652200Y-74438400D02*
X61452200Y-74438400D01*
X62100100Y-58265900D02*
X62100100Y-56465900D01*
X58880100Y-56465900D02*
X58880100Y-58915900D01*
X62810200Y-56048400D02*
X62810200Y-58048400D01*
X64850200Y-58048400D02*
X64850200Y-56048400D01*
X53170200Y-67550400D02*
X54170200Y-67550400D01*
X54170200Y-65850400D02*
X53170200Y-65850400D01*
D14*
X71038200Y-64614400D02*
X70688200Y-64614400D01*
X70688200Y-64614400D02*
X70338200Y-64614400D01*
X71038200Y-64264400D02*
X70688200Y-64614400D01*
X70988200Y-64264400D02*
X71038200Y-64264400D01*
X71038200Y-64264400D02*
X70988200Y-64264400D01*
X70338200Y-64264400D02*
X70988200Y-64264400D01*
X70388200Y-64314400D02*
X70338200Y-64264400D01*
X70688200Y-64614400D02*
X70388200Y-64314400D01*
D13*
X69988200Y-66214400D02*
X71388200Y-66214400D01*
X71388200Y-66214400D02*
X71388200Y-63414400D01*
X69988200Y-66214400D02*
X69988200Y-63414400D01*
D15*
X67148200Y-71618400D02*
X68048200Y-70518400D01*
X68848200Y-71618400D02*
X67148200Y-71618400D01*
X68048200Y-70518400D02*
X68848200Y-71618400D01*
X68848200Y-70518400D02*
X67148200Y-70518400D01*
D13*
X69481700Y-67843400D02*
X66814700Y-67843400D01*
X66814700Y-67843400D02*
X66814700Y-71018400D01*
X69481700Y-67843400D02*
X69481700Y-71018400D01*
X58055200Y-68563400D02*
X63255200Y-68563400D01*
X63255200Y-72203400D02*
X58055200Y-72203400D01*
X62906200Y-54626400D02*
X61706200Y-54626400D01*
X61706200Y-52866400D02*
X62906200Y-52866400D01*
X53298200Y-56378400D02*
X53298200Y-55178400D01*
X55058200Y-55178400D02*
X55058200Y-56378400D01*
X45601000Y-93306000D02*
X46601000Y-93306000D01*
X46601000Y-91606000D02*
X45601000Y-91606000D01*
X44209600Y-96959800D02*
X44209600Y-97959800D01*
X45909600Y-97959800D02*
X45909600Y-96959800D01*
X104275000Y-77507200D02*
X105275000Y-77507200D01*
X105275000Y-75807200D02*
X104275000Y-75807200D01*
X99830000Y-69938000D02*
X100830000Y-69938000D01*
X100830000Y-68238000D02*
X99830000Y-68238000D01*
X47328200Y-101383200D02*
X48328200Y-101383200D01*
X48328200Y-99683200D02*
X47328200Y-99683200D01*
X102197800Y-71661400D02*
X102197800Y-72661400D01*
X103897800Y-72661400D02*
X103897800Y-71661400D01*
D14*
X78743200Y-71470000D02*
X78743200Y-71120000D01*
X78743200Y-71120000D02*
X78743200Y-70770000D01*
X79093200Y-71470000D02*
X78743200Y-71120000D01*
X79093200Y-71420000D02*
X79093200Y-71470000D01*
X79093200Y-71470000D02*
X79093200Y-71420000D01*
X79093200Y-70770000D02*
X79093200Y-71420000D01*
X79043200Y-70820000D02*
X79093200Y-70770000D01*
X78743200Y-71120000D02*
X79043200Y-70820000D01*
D13*
X77143200Y-70420000D02*
X77143200Y-71820000D01*
X77143200Y-71820000D02*
X79943200Y-71820000D01*
X77143200Y-70420000D02*
X79943200Y-70420000D01*
D14*
X78743200Y-73552800D02*
X78743200Y-73202800D01*
X78743200Y-73202800D02*
X78743200Y-72852800D01*
X79093200Y-73552800D02*
X78743200Y-73202800D01*
X79093200Y-73502800D02*
X79093200Y-73552800D01*
X79093200Y-73552800D02*
X79093200Y-73502800D01*
X79093200Y-72852800D02*
X79093200Y-73502800D01*
X79043200Y-72902800D02*
X79093200Y-72852800D01*
X78743200Y-73202800D02*
X79043200Y-72902800D01*
D13*
X77143200Y-72502800D02*
X77143200Y-73902800D01*
X77143200Y-73902800D02*
X79943200Y-73902800D01*
X77143200Y-72502800D02*
X79943200Y-72502800D01*
X77143200Y-74560200D02*
X79943200Y-74560200D01*
X77143200Y-75960200D02*
X79943200Y-75960200D01*
X77143200Y-74560200D02*
X77143200Y-75960200D01*
D14*
X78743200Y-75260200D02*
X79043200Y-74960200D01*
X79043200Y-74960200D02*
X79093200Y-74910200D01*
X79093200Y-74910200D02*
X79093200Y-75560200D01*
X79093200Y-75610200D02*
X79093200Y-75560200D01*
X79093200Y-75560200D02*
X79093200Y-75610200D01*
X79093200Y-75610200D02*
X78743200Y-75260200D01*
X78743200Y-75260200D02*
X78743200Y-74910200D01*
X78743200Y-75610200D02*
X78743200Y-75260200D01*
D13*
X71116600Y-96635800D02*
X68316600Y-96635800D01*
X71116600Y-95235800D02*
X68316600Y-95235800D01*
X71116600Y-96635800D02*
X71116600Y-95235800D01*
D14*
X69516600Y-95935800D02*
X69216600Y-96235800D01*
X69216600Y-96235800D02*
X69166600Y-96285800D01*
X69166600Y-96285800D02*
X69166600Y-95635800D01*
X69166600Y-95585800D02*
X69166600Y-95635800D01*
X69166600Y-95635800D02*
X69166600Y-95585800D01*
X69166600Y-95585800D02*
X69516600Y-95935800D01*
X69516600Y-95935800D02*
X69516600Y-96285800D01*
X69516600Y-95585800D02*
X69516600Y-95935800D01*
X69516600Y-93731600D02*
X69516600Y-94081600D01*
X69516600Y-94081600D02*
X69516600Y-94431600D01*
X69166600Y-93731600D02*
X69516600Y-94081600D01*
X69166600Y-93781600D02*
X69166600Y-93731600D01*
X69166600Y-93731600D02*
X69166600Y-93781600D01*
X69166600Y-94431600D02*
X69166600Y-93781600D01*
X69216600Y-94381600D02*
X69166600Y-94431600D01*
X69516600Y-94081600D02*
X69216600Y-94381600D01*
D13*
X71116600Y-94781600D02*
X71116600Y-93381600D01*
X71116600Y-93381600D02*
X68316600Y-93381600D01*
X71116600Y-94781600D02*
X68316600Y-94781600D01*
D16*
X70561200Y-81381600D02*
X70561200Y-78841600D01*
X70561200Y-78841600D02*
X68021200Y-78841600D01*
X65201200Y-78561600D02*
X65201200Y-80111600D01*
X70561200Y-86461600D02*
X70561200Y-81381600D01*
X65481200Y-86461600D02*
X70561200Y-86461600D01*
X68021200Y-81381600D02*
X65481200Y-81381600D01*
X68021200Y-78841600D02*
X68021200Y-81381600D01*
X65201200Y-78561600D02*
X66751200Y-78561600D01*
X65481200Y-81381600D02*
X65481200Y-86461600D01*
D13*
X30420000Y-63601600D02*
X33080000Y-63601600D01*
X30420000Y-63601600D02*
X30420000Y-101761600D01*
X30420000Y-101761600D02*
X33080000Y-101761600D01*
X33080000Y-63601600D02*
X33080000Y-101761600D01*
X33080000Y-61001600D02*
X33080000Y-62331600D01*
X31750000Y-61001600D02*
X33080000Y-61001600D01*
D16*
X85699600Y-83515200D02*
X85699600Y-78435200D01*
X85979600Y-86335200D02*
X84429600Y-86335200D01*
X83159600Y-86055200D02*
X83159600Y-83515200D01*
X83159600Y-83515200D02*
X85699600Y-83515200D01*
X85699600Y-78435200D02*
X80619600Y-78435200D01*
X80619600Y-78435200D02*
X80619600Y-83515200D01*
X85979600Y-86335200D02*
X85979600Y-84785200D01*
X80619600Y-86055200D02*
X83159600Y-86055200D01*
X80619600Y-83515200D02*
X80619600Y-86055200D01*
X115519200Y-63271400D02*
X115519200Y-71780400D01*
X115570000Y-71780400D02*
X119075200Y-71780400D01*
X115544600Y-63271400D02*
X119049800Y-63271400D01*
X119075200Y-63271400D02*
X119075200Y-71780400D01*
X119075200Y-70916800D02*
X119075200Y-79425800D01*
X115544600Y-70916800D02*
X119049800Y-70916800D01*
X115570000Y-79425800D02*
X119075200Y-79425800D01*
X115519200Y-70916800D02*
X115519200Y-79425800D01*
X47371000Y-54381400D02*
X38862000Y-54381400D01*
X38862000Y-54432200D02*
X38862000Y-57937400D01*
X47371000Y-54406800D02*
X47371000Y-57912000D01*
X47371000Y-57937400D02*
X38862000Y-57937400D01*
X39725600Y-54381400D02*
X31216600Y-54381400D01*
X31216600Y-54432200D02*
X31216600Y-57937400D01*
X39725600Y-54406800D02*
X39725600Y-57912000D01*
X39725600Y-57937400D02*
X31216600Y-57937400D01*
X32080200Y-57912000D02*
X23571200Y-57912000D01*
X32080200Y-54381400D02*
X32080200Y-57886600D01*
X23571200Y-54406800D02*
X23571200Y-57912000D01*
X32080200Y-54356000D02*
X23571200Y-54356000D01*
X84429600Y-91897200D02*
X75920600Y-91897200D01*
X84429600Y-88366600D02*
X84429600Y-91871800D01*
X75920600Y-88392000D02*
X75920600Y-91897200D01*
X84429600Y-88341200D02*
X75920600Y-88341200D01*
X84480400Y-92278200D02*
X75971400Y-92278200D01*
X75971400Y-92329000D02*
X75971400Y-95834200D01*
X84480400Y-92303600D02*
X84480400Y-95808800D01*
X84480400Y-95834200D02*
X75971400Y-95834200D01*
D13*
X78139600Y-61839800D02*
X75479600Y-61839800D01*
X78139600Y-64439800D02*
X78139600Y-61839800D01*
X75479600Y-64439800D02*
X75479600Y-61839800D01*
X78139600Y-64439800D02*
X75479600Y-64439800D01*
X78139600Y-65709800D02*
X78139600Y-67039800D01*
X78139600Y-67039800D02*
X76809600Y-67039800D01*
X66106600Y-96866600D02*
X64906600Y-96866600D01*
X64906600Y-95106600D02*
X66106600Y-95106600D01*
X45862800Y-73016000D02*
X44662800Y-73016000D01*
X44662800Y-71256000D02*
X45862800Y-71256000D01*
X45888200Y-85131800D02*
X44688200Y-85131800D01*
X44688200Y-83371800D02*
X45888200Y-83371800D01*
X41564000Y-87258000D02*
X42764000Y-87258000D01*
X42764000Y-89018000D02*
X41564000Y-89018000D01*
X53857000Y-97729600D02*
X53857000Y-96529600D01*
X55617000Y-96529600D02*
X55617000Y-97729600D01*
X57572800Y-96529600D02*
X57572800Y-97729600D01*
X55812800Y-97729600D02*
X55812800Y-96529600D01*
X44688200Y-77275800D02*
X45888200Y-77275800D01*
X45888200Y-79035800D02*
X44688200Y-79035800D01*
X44662800Y-73288000D02*
X45862800Y-73288000D01*
X45862800Y-75048000D02*
X44662800Y-75048000D01*
X45888200Y-77029200D02*
X44688200Y-77029200D01*
X44688200Y-75269200D02*
X45888200Y-75269200D01*
X44673000Y-79333200D02*
X45873000Y-79333200D01*
X45873000Y-81093200D02*
X44673000Y-81093200D01*
X39538200Y-81017000D02*
X38338200Y-81017000D01*
X38338200Y-79257000D02*
X39538200Y-79257000D01*
X84998000Y-70189200D02*
X86198000Y-70189200D01*
X86198000Y-71949200D02*
X84998000Y-71949200D01*
X86223400Y-73879600D02*
X85023400Y-73879600D01*
X85023400Y-72119600D02*
X86223400Y-72119600D01*
X84998000Y-74227800D02*
X86198000Y-74227800D01*
X86198000Y-75987800D02*
X84998000Y-75987800D01*
X107248400Y-80400000D02*
X108448400Y-80400000D01*
X108448400Y-82160000D02*
X107248400Y-82160000D01*
X107273800Y-84337000D02*
X108473800Y-84337000D01*
X108473800Y-86097000D02*
X107273800Y-86097000D01*
X107273800Y-88274000D02*
X108473800Y-88274000D01*
X108473800Y-90034000D02*
X107273800Y-90034000D01*
X108473800Y-88078200D02*
X107273800Y-88078200D01*
X107273800Y-86318200D02*
X108473800Y-86318200D01*
X107273800Y-82381200D02*
X108473800Y-82381200D01*
X108473800Y-84141200D02*
X107273800Y-84141200D01*
X114823800Y-84014200D02*
X113623800Y-84014200D01*
X113623800Y-82254200D02*
X114823800Y-82254200D01*
X64906600Y-93176200D02*
X66106600Y-93176200D01*
X66106600Y-94936200D02*
X64906600Y-94936200D01*
X58435800Y-82363200D02*
X57235800Y-82363200D01*
X57235800Y-80603200D02*
X58435800Y-80603200D01*
X57261200Y-78596600D02*
X58461200Y-78596600D01*
X58461200Y-80356600D02*
X57261200Y-80356600D01*
X44662800Y-69224000D02*
X45862800Y-69224000D01*
X45862800Y-70984000D02*
X44662800Y-70984000D01*
X44688200Y-81339800D02*
X45888200Y-81339800D01*
X45888200Y-83099800D02*
X44688200Y-83099800D01*
X42713200Y-91126200D02*
X41513200Y-91126200D01*
X41513200Y-89366200D02*
X42713200Y-89366200D01*
D16*
X47476876Y-87960200D02*
X47635975Y-88119299D01*
X52603400Y-82833676D02*
X52833210Y-83063486D01*
X57729924Y-87960200D02*
X57500114Y-87730390D01*
X52603400Y-93086724D02*
X52373590Y-92856914D01*
X47476876Y-87960200D02*
X47706686Y-87730390D01*
X52603400Y-93086724D02*
X52833210Y-92856914D01*
X57729924Y-87960200D02*
X57500114Y-88190010D01*
X52603400Y-82833676D02*
X52373590Y-83063486D01*
X47635975Y-88119299D02*
X46628348Y-89126926D01*
X100869625Y-80390301D02*
X101877252Y-79382674D01*
X95902200Y-85675924D02*
X96132010Y-85446114D01*
X90775676Y-80549400D02*
X91005486Y-80319590D01*
X95902200Y-75422876D02*
X95672390Y-75652686D01*
X101028724Y-80549400D02*
X100798914Y-80779210D01*
X95902200Y-75422876D02*
X96132010Y-75652686D01*
X90775676Y-80549400D02*
X91005486Y-80779210D01*
X95902200Y-85675924D02*
X95672390Y-85446114D01*
X101028724Y-80549400D02*
X100869625Y-80390301D01*
D14*
X49326600Y-95459800D02*
X49326600Y-97459800D01*
X49326600Y-95459800D02*
X47726600Y-95459800D01*
X98755400Y-74136000D02*
X100355400Y-74136000D01*
X98755400Y-74136000D02*
X98755400Y-72136000D01*
D16*
X23215600Y-93903800D02*
X23215600Y-85394800D01*
X26746200Y-93903800D02*
X23241000Y-93903800D01*
X26720800Y-85394800D02*
X23215600Y-85394800D01*
X26771600Y-93903800D02*
X26771600Y-85394800D01*
X26720800Y-86106000D02*
X26720800Y-77597000D01*
X26670000Y-77597000D02*
X23164800Y-77597000D01*
X26695400Y-86106000D02*
X23190200Y-86106000D01*
X23164800Y-86106000D02*
X23164800Y-77597000D01*
X57837342Y-53151066D02*
X57884961Y-53198685D01*
X57932580Y-53341542D01*
X57932580Y-53436780D01*
X57884961Y-53579638D01*
X57789723Y-53674876D01*
X57694485Y-53722495D01*
X57504009Y-53770114D01*
X57361152Y-53770114D01*
X57170676Y-53722495D01*
X57075438Y-53674876D01*
X56980200Y-53579638D01*
X56932580Y-53436780D01*
X56932580Y-53341542D01*
X56980200Y-53198685D01*
X57027819Y-53151066D01*
X56932580Y-52246304D02*
X56932580Y-52722495D01*
X57408771Y-52770114D01*
X57361152Y-52722495D01*
X57313533Y-52627257D01*
X57313533Y-52389161D01*
X57361152Y-52293923D01*
X57408771Y-52246304D01*
X57504009Y-52198685D01*
X57742104Y-52198685D01*
X57837342Y-52246304D01*
X57884961Y-52293923D01*
X57932580Y-52389161D01*
X57932580Y-52627257D01*
X57884961Y-52722495D01*
X57837342Y-52770114D01*
X49471342Y-65025542D02*
X49423723Y-65073161D01*
X49280866Y-65120780D01*
X49185628Y-65120780D01*
X49042771Y-65073161D01*
X48947533Y-64977923D01*
X48899914Y-64882685D01*
X48852295Y-64692209D01*
X48852295Y-64549352D01*
X48899914Y-64358876D01*
X48947533Y-64263638D01*
X49042771Y-64168400D01*
X49185628Y-64120780D01*
X49280866Y-64120780D01*
X49423723Y-64168400D01*
X49471342Y-64216019D01*
X50423723Y-65120780D02*
X49852295Y-65120780D01*
X50138009Y-65120780D02*
X50138009Y-64120780D01*
X50042771Y-64263638D01*
X49947533Y-64358876D01*
X49852295Y-64406495D01*
X51376104Y-65120780D02*
X50804676Y-65120780D01*
X51090390Y-65120780D02*
X51090390Y-64120780D01*
X50995152Y-64263638D01*
X50899914Y-64358876D01*
X50804676Y-64406495D01*
X49725342Y-62993542D02*
X49677723Y-63041161D01*
X49534866Y-63088780D01*
X49439628Y-63088780D01*
X49296771Y-63041161D01*
X49201533Y-62945923D01*
X49153914Y-62850685D01*
X49106295Y-62660209D01*
X49106295Y-62517352D01*
X49153914Y-62326876D01*
X49201533Y-62231638D01*
X49296771Y-62136400D01*
X49439628Y-62088780D01*
X49534866Y-62088780D01*
X49677723Y-62136400D01*
X49725342Y-62184019D01*
X50677723Y-63088780D02*
X50106295Y-63088780D01*
X50392009Y-63088780D02*
X50392009Y-62088780D01*
X50296771Y-62231638D01*
X50201533Y-62326876D01*
X50106295Y-62374495D01*
X51058676Y-62184019D02*
X51106295Y-62136400D01*
X51201533Y-62088780D01*
X51439628Y-62088780D01*
X51534866Y-62136400D01*
X51582485Y-62184019D01*
X51630104Y-62279257D01*
X51630104Y-62374495D01*
X51582485Y-62517352D01*
X51011057Y-63088780D01*
X51630104Y-63088780D01*
X56996104Y-75788780D02*
X56996104Y-74788780D01*
X57234200Y-74788780D01*
X57377057Y-74836400D01*
X57472295Y-74931638D01*
X57519914Y-75026876D01*
X57567533Y-75217352D01*
X57567533Y-75360209D01*
X57519914Y-75550685D01*
X57472295Y-75645923D01*
X57377057Y-75741161D01*
X57234200Y-75788780D01*
X56996104Y-75788780D01*
X57948485Y-74884019D02*
X57996104Y-74836400D01*
X58091342Y-74788780D01*
X58329438Y-74788780D01*
X58424676Y-74836400D01*
X58472295Y-74884019D01*
X58519914Y-74979257D01*
X58519914Y-75074495D01*
X58472295Y-75217352D01*
X57900866Y-75788780D01*
X58519914Y-75788780D01*
X68838771Y-63985733D02*
X68838771Y-64319066D01*
X69362580Y-64319066D02*
X68362580Y-64319066D01*
X68362580Y-63842876D01*
X69362580Y-62938114D02*
X69362580Y-63509542D01*
X69362580Y-63223828D02*
X68362580Y-63223828D01*
X68505438Y-63319066D01*
X68600676Y-63414304D01*
X68648295Y-63509542D01*
X66060580Y-67375066D02*
X66060580Y-67851257D01*
X65060580Y-67851257D01*
X66060580Y-66517923D02*
X66060580Y-67089352D01*
X66060580Y-66803638D02*
X65060580Y-66803638D01*
X65203438Y-66898876D01*
X65298676Y-66994114D01*
X65346295Y-67089352D01*
X72299533Y-61564780D02*
X71966200Y-61088590D01*
X71728104Y-61564780D02*
X71728104Y-60564780D01*
X72109057Y-60564780D01*
X72204295Y-60612400D01*
X72251914Y-60660019D01*
X72299533Y-60755257D01*
X72299533Y-60898114D01*
X72251914Y-60993352D01*
X72204295Y-61040971D01*
X72109057Y-61088590D01*
X71728104Y-61088590D01*
X72680485Y-60660019D02*
X72728104Y-60612400D01*
X72823342Y-60564780D01*
X73061438Y-60564780D01*
X73156676Y-60612400D01*
X73204295Y-60660019D01*
X73251914Y-60755257D01*
X73251914Y-60850495D01*
X73204295Y-60993352D01*
X72632866Y-61564780D01*
X73251914Y-61564780D01*
X72045533Y-59278780D02*
X71712200Y-58802590D01*
X71474104Y-59278780D02*
X71474104Y-58278780D01*
X71855057Y-58278780D01*
X71950295Y-58326400D01*
X71997914Y-58374019D01*
X72045533Y-58469257D01*
X72045533Y-58612114D01*
X71997914Y-58707352D01*
X71950295Y-58754971D01*
X71855057Y-58802590D01*
X71474104Y-58802590D01*
X72378866Y-58278780D02*
X72997914Y-58278780D01*
X72664580Y-58659733D01*
X72807438Y-58659733D01*
X72902676Y-58707352D01*
X72950295Y-58754971D01*
X72997914Y-58850209D01*
X72997914Y-59088304D01*
X72950295Y-59183542D01*
X72902676Y-59231161D01*
X72807438Y-59278780D01*
X72521723Y-59278780D01*
X72426485Y-59231161D01*
X72378866Y-59183542D01*
X61409342Y-75660780D02*
X61076009Y-75184590D01*
X60837914Y-75660780D02*
X60837914Y-74660780D01*
X61218866Y-74660780D01*
X61314104Y-74708400D01*
X61361723Y-74756019D01*
X61409342Y-74851257D01*
X61409342Y-74994114D01*
X61361723Y-75089352D01*
X61314104Y-75136971D01*
X61218866Y-75184590D01*
X60837914Y-75184590D01*
X62361723Y-75660780D02*
X61790295Y-75660780D01*
X62076009Y-75660780D02*
X62076009Y-74660780D01*
X61980771Y-74803638D01*
X61885533Y-74898876D01*
X61790295Y-74946495D01*
X62742676Y-74756019D02*
X62790295Y-74708400D01*
X62885533Y-74660780D01*
X63123628Y-74660780D01*
X63218866Y-74708400D01*
X63266485Y-74756019D01*
X63314104Y-74851257D01*
X63314104Y-74946495D01*
X63266485Y-75089352D01*
X62695057Y-75660780D01*
X63314104Y-75660780D01*
X59004295Y-53960780D02*
X59004295Y-54770304D01*
X59051914Y-54865542D01*
X59099533Y-54913161D01*
X59194771Y-54960780D01*
X59385247Y-54960780D01*
X59480485Y-54913161D01*
X59528104Y-54865542D01*
X59575723Y-54770304D01*
X59575723Y-53960780D01*
X60004295Y-54056019D02*
X60051914Y-54008400D01*
X60147152Y-53960780D01*
X60385247Y-53960780D01*
X60480485Y-54008400D01*
X60528104Y-54056019D01*
X60575723Y-54151257D01*
X60575723Y-54246495D01*
X60528104Y-54389352D01*
X59956676Y-54960780D01*
X60575723Y-54960780D01*
X65965342Y-57215066D02*
X66012961Y-57262685D01*
X66060580Y-57405542D01*
X66060580Y-57500780D01*
X66012961Y-57643638D01*
X65917723Y-57738876D01*
X65822485Y-57786495D01*
X65632009Y-57834114D01*
X65489152Y-57834114D01*
X65298676Y-57786495D01*
X65203438Y-57738876D01*
X65108200Y-57643638D01*
X65060580Y-57500780D01*
X65060580Y-57405542D01*
X65108200Y-57262685D01*
X65155819Y-57215066D01*
X65060580Y-56881733D02*
X65060580Y-56262685D01*
X65441533Y-56596019D01*
X65441533Y-56453161D01*
X65489152Y-56357923D01*
X65536771Y-56310304D01*
X65632009Y-56262685D01*
X65870104Y-56262685D01*
X65965342Y-56310304D01*
X66012961Y-56357923D01*
X66060580Y-56453161D01*
X66060580Y-56738876D01*
X66012961Y-56834114D01*
X65965342Y-56881733D01*
X50451533Y-66874542D02*
X50403914Y-66922161D01*
X50261057Y-66969780D01*
X50165819Y-66969780D01*
X50022961Y-66922161D01*
X49927723Y-66826923D01*
X49880104Y-66731685D01*
X49832485Y-66541209D01*
X49832485Y-66398352D01*
X49880104Y-66207876D01*
X49927723Y-66112638D01*
X50022961Y-66017400D01*
X50165819Y-65969780D01*
X50261057Y-65969780D01*
X50403914Y-66017400D01*
X50451533Y-66065019D01*
X50784866Y-65969780D02*
X51451533Y-65969780D01*
X51022961Y-66969780D01*
X72918580Y-65406495D02*
X71918580Y-65406495D01*
X71918580Y-65168400D01*
X71966200Y-65025542D01*
X72061438Y-64930304D01*
X72156676Y-64882685D01*
X72347152Y-64835066D01*
X72490009Y-64835066D01*
X72680485Y-64882685D01*
X72775723Y-64930304D01*
X72870961Y-65025542D01*
X72918580Y-65168400D01*
X72918580Y-65406495D01*
X72918580Y-63882685D02*
X72918580Y-64454114D01*
X72918580Y-64168400D02*
X71918580Y-64168400D01*
X72061438Y-64263638D01*
X72156676Y-64358876D01*
X72204295Y-64454114D01*
X70850580Y-72056495D02*
X69850580Y-72056495D01*
X69850580Y-71818400D01*
X69898200Y-71675542D01*
X69993438Y-71580304D01*
X70088676Y-71532685D01*
X70279152Y-71485066D01*
X70422009Y-71485066D01*
X70612485Y-71532685D01*
X70707723Y-71580304D01*
X70802961Y-71675542D01*
X70850580Y-71818400D01*
X70850580Y-72056495D01*
X69850580Y-71151733D02*
X69850580Y-70485066D01*
X70850580Y-70913638D01*
X56154580Y-70423066D02*
X55678390Y-70756400D01*
X56154580Y-70994495D02*
X55154580Y-70994495D01*
X55154580Y-70613542D01*
X55202200Y-70518304D01*
X55249819Y-70470685D01*
X55345057Y-70423066D01*
X55487914Y-70423066D01*
X55583152Y-70470685D01*
X55630771Y-70518304D01*
X55678390Y-70613542D01*
X55678390Y-70994495D01*
X56154580Y-69946876D02*
X56154580Y-69756400D01*
X56106961Y-69661161D01*
X56059342Y-69613542D01*
X55916485Y-69518304D01*
X55726009Y-69470685D01*
X55345057Y-69470685D01*
X55249819Y-69518304D01*
X55202200Y-69565923D01*
X55154580Y-69661161D01*
X55154580Y-69851638D01*
X55202200Y-69946876D01*
X55249819Y-69994495D01*
X55345057Y-70042114D01*
X55583152Y-70042114D01*
X55678390Y-69994495D01*
X55726009Y-69946876D01*
X55773628Y-69851638D01*
X55773628Y-69661161D01*
X55726009Y-69565923D01*
X55678390Y-69518304D01*
X55583152Y-69470685D01*
X62139533Y-52548780D02*
X61806200Y-52072590D01*
X61568104Y-52548780D02*
X61568104Y-51548780D01*
X61949057Y-51548780D01*
X62044295Y-51596400D01*
X62091914Y-51644019D01*
X62139533Y-51739257D01*
X62139533Y-51882114D01*
X62091914Y-51977352D01*
X62044295Y-52024971D01*
X61949057Y-52072590D01*
X61568104Y-52072590D01*
X62996676Y-51882114D02*
X62996676Y-52548780D01*
X62758580Y-51501161D02*
X62520485Y-52215447D01*
X63139533Y-52215447D01*
X54630580Y-53151066D02*
X54154390Y-53484400D01*
X54630580Y-53722495D02*
X53630580Y-53722495D01*
X53630580Y-53341542D01*
X53678200Y-53246304D01*
X53725819Y-53198685D01*
X53821057Y-53151066D01*
X53963914Y-53151066D01*
X54059152Y-53198685D01*
X54106771Y-53246304D01*
X54154390Y-53341542D01*
X54154390Y-53722495D01*
X53630580Y-52246304D02*
X53630580Y-52722495D01*
X54106771Y-52770114D01*
X54059152Y-52722495D01*
X54011533Y-52627257D01*
X54011533Y-52389161D01*
X54059152Y-52293923D01*
X54106771Y-52246304D01*
X54202009Y-52198685D01*
X54440104Y-52198685D01*
X54535342Y-52246304D01*
X54582961Y-52293923D01*
X54630580Y-52389161D01*
X54630580Y-52627257D01*
X54582961Y-52722495D01*
X54535342Y-52770114D01*
X45959733Y-94565742D02*
X45912114Y-94613361D01*
X45769257Y-94660980D01*
X45674019Y-94660980D01*
X45531161Y-94613361D01*
X45435923Y-94518123D01*
X45388304Y-94422885D01*
X45340685Y-94232409D01*
X45340685Y-94089552D01*
X45388304Y-93899076D01*
X45435923Y-93803838D01*
X45531161Y-93708600D01*
X45674019Y-93660980D01*
X45769257Y-93660980D01*
X45912114Y-93708600D01*
X45959733Y-93756219D01*
X46912114Y-94660980D02*
X46340685Y-94660980D01*
X46626400Y-94660980D02*
X46626400Y-93660980D01*
X46531161Y-93803838D01*
X46435923Y-93899076D01*
X46340685Y-93946695D01*
X42987933Y-97842342D02*
X42940314Y-97889961D01*
X42797457Y-97937580D01*
X42702219Y-97937580D01*
X42559361Y-97889961D01*
X42464123Y-97794723D01*
X42416504Y-97699485D01*
X42368885Y-97509009D01*
X42368885Y-97366152D01*
X42416504Y-97175676D01*
X42464123Y-97080438D01*
X42559361Y-96985200D01*
X42702219Y-96937580D01*
X42797457Y-96937580D01*
X42940314Y-96985200D01*
X42987933Y-97032819D01*
X43368885Y-97032819D02*
X43416504Y-96985200D01*
X43511742Y-96937580D01*
X43749838Y-96937580D01*
X43845076Y-96985200D01*
X43892695Y-97032819D01*
X43940314Y-97128057D01*
X43940314Y-97223295D01*
X43892695Y-97366152D01*
X43321266Y-97937580D01*
X43940314Y-97937580D01*
X104608333Y-75514342D02*
X104560714Y-75561961D01*
X104417857Y-75609580D01*
X104322619Y-75609580D01*
X104179761Y-75561961D01*
X104084523Y-75466723D01*
X104036904Y-75371485D01*
X103989285Y-75181009D01*
X103989285Y-75038152D01*
X104036904Y-74847676D01*
X104084523Y-74752438D01*
X104179761Y-74657200D01*
X104322619Y-74609580D01*
X104417857Y-74609580D01*
X104560714Y-74657200D01*
X104608333Y-74704819D01*
X105465476Y-74942914D02*
X105465476Y-75609580D01*
X105227380Y-74561961D02*
X104989285Y-75276247D01*
X105608333Y-75276247D01*
X100137933Y-67667142D02*
X100090314Y-67714761D01*
X99947457Y-67762380D01*
X99852219Y-67762380D01*
X99709361Y-67714761D01*
X99614123Y-67619523D01*
X99566504Y-67524285D01*
X99518885Y-67333809D01*
X99518885Y-67190952D01*
X99566504Y-67000476D01*
X99614123Y-66905238D01*
X99709361Y-66810000D01*
X99852219Y-66762380D01*
X99947457Y-66762380D01*
X100090314Y-66810000D01*
X100137933Y-66857619D01*
X100995076Y-66762380D02*
X100804600Y-66762380D01*
X100709361Y-66810000D01*
X100661742Y-66857619D01*
X100566504Y-67000476D01*
X100518885Y-67190952D01*
X100518885Y-67571904D01*
X100566504Y-67667142D01*
X100614123Y-67714761D01*
X100709361Y-67762380D01*
X100899838Y-67762380D01*
X100995076Y-67714761D01*
X101042695Y-67667142D01*
X101090314Y-67571904D01*
X101090314Y-67333809D01*
X101042695Y-67238571D01*
X100995076Y-67190952D01*
X100899838Y-67143333D01*
X100709361Y-67143333D01*
X100614123Y-67190952D01*
X100566504Y-67238571D01*
X100518885Y-67333809D01*
X47610733Y-102719142D02*
X47563114Y-102766761D01*
X47420257Y-102814380D01*
X47325019Y-102814380D01*
X47182161Y-102766761D01*
X47086923Y-102671523D01*
X47039304Y-102576285D01*
X46991685Y-102385809D01*
X46991685Y-102242952D01*
X47039304Y-102052476D01*
X47086923Y-101957238D01*
X47182161Y-101862000D01*
X47325019Y-101814380D01*
X47420257Y-101814380D01*
X47563114Y-101862000D01*
X47610733Y-101909619D01*
X48182161Y-102242952D02*
X48086923Y-102195333D01*
X48039304Y-102147714D01*
X47991685Y-102052476D01*
X47991685Y-102004857D01*
X48039304Y-101909619D01*
X48086923Y-101862000D01*
X48182161Y-101814380D01*
X48372638Y-101814380D01*
X48467876Y-101862000D01*
X48515495Y-101909619D01*
X48563114Y-102004857D01*
X48563114Y-102052476D01*
X48515495Y-102147714D01*
X48467876Y-102195333D01*
X48372638Y-102242952D01*
X48182161Y-102242952D01*
X48086923Y-102290571D01*
X48039304Y-102338190D01*
X47991685Y-102433428D01*
X47991685Y-102623904D01*
X48039304Y-102719142D01*
X48086923Y-102766761D01*
X48182161Y-102814380D01*
X48372638Y-102814380D01*
X48467876Y-102766761D01*
X48515495Y-102719142D01*
X48563114Y-102623904D01*
X48563114Y-102433428D01*
X48515495Y-102338190D01*
X48467876Y-102290571D01*
X48372638Y-102242952D01*
X104836933Y-72467742D02*
X104789314Y-72515361D01*
X104646457Y-72562980D01*
X104551219Y-72562980D01*
X104408361Y-72515361D01*
X104313123Y-72420123D01*
X104265504Y-72324885D01*
X104217885Y-72134409D01*
X104217885Y-71991552D01*
X104265504Y-71801076D01*
X104313123Y-71705838D01*
X104408361Y-71610600D01*
X104551219Y-71562980D01*
X104646457Y-71562980D01*
X104789314Y-71610600D01*
X104836933Y-71658219D01*
X105313123Y-72562980D02*
X105503600Y-72562980D01*
X105598838Y-72515361D01*
X105646457Y-72467742D01*
X105741695Y-72324885D01*
X105789314Y-72134409D01*
X105789314Y-71753457D01*
X105741695Y-71658219D01*
X105694076Y-71610600D01*
X105598838Y-71562980D01*
X105408361Y-71562980D01*
X105313123Y-71610600D01*
X105265504Y-71658219D01*
X105217885Y-71753457D01*
X105217885Y-71991552D01*
X105265504Y-72086790D01*
X105313123Y-72134409D01*
X105408361Y-72182028D01*
X105598838Y-72182028D01*
X105694076Y-72134409D01*
X105741695Y-72086790D01*
X105789314Y-71991552D01*
X75131704Y-71572380D02*
X75131704Y-70572380D01*
X75369800Y-70572380D01*
X75512657Y-70620000D01*
X75607895Y-70715238D01*
X75655514Y-70810476D01*
X75703133Y-71000952D01*
X75703133Y-71143809D01*
X75655514Y-71334285D01*
X75607895Y-71429523D01*
X75512657Y-71524761D01*
X75369800Y-71572380D01*
X75131704Y-71572380D01*
X76036466Y-70572380D02*
X76655514Y-70572380D01*
X76322180Y-70953333D01*
X76465038Y-70953333D01*
X76560276Y-71000952D01*
X76607895Y-71048571D01*
X76655514Y-71143809D01*
X76655514Y-71381904D01*
X76607895Y-71477142D01*
X76560276Y-71524761D01*
X76465038Y-71572380D01*
X76179323Y-71572380D01*
X76084085Y-71524761D01*
X76036466Y-71477142D01*
X75157104Y-73578980D02*
X75157104Y-72578980D01*
X75395200Y-72578980D01*
X75538057Y-72626600D01*
X75633295Y-72721838D01*
X75680914Y-72817076D01*
X75728533Y-73007552D01*
X75728533Y-73150409D01*
X75680914Y-73340885D01*
X75633295Y-73436123D01*
X75538057Y-73531361D01*
X75395200Y-73578980D01*
X75157104Y-73578980D01*
X76585676Y-72912314D02*
X76585676Y-73578980D01*
X76347580Y-72531361D02*
X76109485Y-73245647D01*
X76728533Y-73245647D01*
X75157104Y-75712580D02*
X75157104Y-74712580D01*
X75395200Y-74712580D01*
X75538057Y-74760200D01*
X75633295Y-74855438D01*
X75680914Y-74950676D01*
X75728533Y-75141152D01*
X75728533Y-75284009D01*
X75680914Y-75474485D01*
X75633295Y-75569723D01*
X75538057Y-75664961D01*
X75395200Y-75712580D01*
X75157104Y-75712580D01*
X76633295Y-74712580D02*
X76157104Y-74712580D01*
X76109485Y-75188771D01*
X76157104Y-75141152D01*
X76252342Y-75093533D01*
X76490438Y-75093533D01*
X76585676Y-75141152D01*
X76633295Y-75188771D01*
X76680914Y-75284009D01*
X76680914Y-75522104D01*
X76633295Y-75617342D01*
X76585676Y-75664961D01*
X76490438Y-75712580D01*
X76252342Y-75712580D01*
X76157104Y-75664961D01*
X76109485Y-75617342D01*
X71575704Y-96388180D02*
X71575704Y-95388180D01*
X71813800Y-95388180D01*
X71956657Y-95435800D01*
X72051895Y-95531038D01*
X72099514Y-95626276D01*
X72147133Y-95816752D01*
X72147133Y-95959609D01*
X72099514Y-96150085D01*
X72051895Y-96245323D01*
X71956657Y-96340561D01*
X71813800Y-96388180D01*
X71575704Y-96388180D01*
X73004276Y-95388180D02*
X72813800Y-95388180D01*
X72718561Y-95435800D01*
X72670942Y-95483419D01*
X72575704Y-95626276D01*
X72528085Y-95816752D01*
X72528085Y-96197704D01*
X72575704Y-96292942D01*
X72623323Y-96340561D01*
X72718561Y-96388180D01*
X72909038Y-96388180D01*
X73004276Y-96340561D01*
X73051895Y-96292942D01*
X73099514Y-96197704D01*
X73099514Y-95959609D01*
X73051895Y-95864371D01*
X73004276Y-95816752D01*
X72909038Y-95769133D01*
X72718561Y-95769133D01*
X72623323Y-95816752D01*
X72575704Y-95864371D01*
X72528085Y-95959609D01*
X71550304Y-94533980D02*
X71550304Y-93533980D01*
X71788400Y-93533980D01*
X71931257Y-93581600D01*
X72026495Y-93676838D01*
X72074114Y-93772076D01*
X72121733Y-93962552D01*
X72121733Y-94105409D01*
X72074114Y-94295885D01*
X72026495Y-94391123D01*
X71931257Y-94486361D01*
X71788400Y-94533980D01*
X71550304Y-94533980D01*
X72693161Y-93962552D02*
X72597923Y-93914933D01*
X72550304Y-93867314D01*
X72502685Y-93772076D01*
X72502685Y-93724457D01*
X72550304Y-93629219D01*
X72597923Y-93581600D01*
X72693161Y-93533980D01*
X72883638Y-93533980D01*
X72978876Y-93581600D01*
X73026495Y-93629219D01*
X73074114Y-93724457D01*
X73074114Y-93772076D01*
X73026495Y-93867314D01*
X72978876Y-93914933D01*
X72883638Y-93962552D01*
X72693161Y-93962552D01*
X72597923Y-94010171D01*
X72550304Y-94057790D01*
X72502685Y-94153028D01*
X72502685Y-94343504D01*
X72550304Y-94438742D01*
X72597923Y-94486361D01*
X72693161Y-94533980D01*
X72883638Y-94533980D01*
X72978876Y-94486361D01*
X73026495Y-94438742D01*
X73074114Y-94343504D01*
X73074114Y-94153028D01*
X73026495Y-94057790D01*
X72978876Y-94010171D01*
X72883638Y-93962552D01*
X68195866Y-77023980D02*
X68195866Y-77738266D01*
X68148247Y-77881123D01*
X68053009Y-77976361D01*
X67910152Y-78023980D01*
X67814914Y-78023980D01*
X69195866Y-78023980D02*
X68624438Y-78023980D01*
X68910152Y-78023980D02*
X68910152Y-77023980D01*
X68814914Y-77166838D01*
X68719676Y-77262076D01*
X68624438Y-77309695D01*
X31416666Y-59013980D02*
X31416666Y-59728266D01*
X31369047Y-59871123D01*
X31273809Y-59966361D01*
X31130952Y-60013980D01*
X31035714Y-60013980D01*
X31845238Y-59109219D02*
X31892857Y-59061600D01*
X31988095Y-59013980D01*
X32226190Y-59013980D01*
X32321428Y-59061600D01*
X32369047Y-59109219D01*
X32416666Y-59204457D01*
X32416666Y-59299695D01*
X32369047Y-59442552D01*
X31797619Y-60013980D01*
X32416666Y-60013980D01*
X82318266Y-86777580D02*
X82318266Y-87491866D01*
X82270647Y-87634723D01*
X82175409Y-87729961D01*
X82032552Y-87777580D01*
X81937314Y-87777580D01*
X82699219Y-86777580D02*
X83318266Y-86777580D01*
X82984933Y-87158533D01*
X83127790Y-87158533D01*
X83223028Y-87206152D01*
X83270647Y-87253771D01*
X83318266Y-87349009D01*
X83318266Y-87587104D01*
X83270647Y-87682342D01*
X83223028Y-87729961D01*
X83127790Y-87777580D01*
X82842076Y-87777580D01*
X82746838Y-87729961D01*
X82699219Y-87682342D01*
X113980980Y-72062933D02*
X114695266Y-72062933D01*
X114838123Y-72110552D01*
X114933361Y-72205790D01*
X114980980Y-72348647D01*
X114980980Y-72443885D01*
X113980980Y-71110552D02*
X113980980Y-71586742D01*
X114457171Y-71634361D01*
X114409552Y-71586742D01*
X114361933Y-71491504D01*
X114361933Y-71253409D01*
X114409552Y-71158171D01*
X114457171Y-71110552D01*
X114552409Y-71062933D01*
X114790504Y-71062933D01*
X114885742Y-71110552D01*
X114933361Y-71158171D01*
X114980980Y-71253409D01*
X114980980Y-71491504D01*
X114933361Y-71586742D01*
X114885742Y-71634361D01*
X41997380Y-50904733D02*
X42711666Y-50904733D01*
X42854523Y-50952352D01*
X42949761Y-51047590D01*
X42997380Y-51190447D01*
X42997380Y-51285685D01*
X41997380Y-49999971D02*
X41997380Y-50190447D01*
X42045000Y-50285685D01*
X42092619Y-50333304D01*
X42235476Y-50428542D01*
X42425952Y-50476161D01*
X42806904Y-50476161D01*
X42902142Y-50428542D01*
X42949761Y-50380923D01*
X42997380Y-50285685D01*
X42997380Y-50095209D01*
X42949761Y-49999971D01*
X42902142Y-49952352D01*
X42806904Y-49904733D01*
X42568809Y-49904733D01*
X42473571Y-49952352D01*
X42425952Y-49999971D01*
X42378333Y-50095209D01*
X42378333Y-50285685D01*
X42425952Y-50380923D01*
X42473571Y-50428542D01*
X42568809Y-50476161D01*
X34351980Y-50904733D02*
X35066266Y-50904733D01*
X35209123Y-50952352D01*
X35304361Y-51047590D01*
X35351980Y-51190447D01*
X35351980Y-51285685D01*
X34351980Y-50523780D02*
X34351980Y-49857114D01*
X35351980Y-50285685D01*
X26706580Y-50879333D02*
X27420866Y-50879333D01*
X27563723Y-50926952D01*
X27658961Y-51022190D01*
X27706580Y-51165047D01*
X27706580Y-51260285D01*
X27135152Y-50260285D02*
X27087533Y-50355523D01*
X27039914Y-50403142D01*
X26944676Y-50450761D01*
X26897057Y-50450761D01*
X26801819Y-50403142D01*
X26754200Y-50355523D01*
X26706580Y-50260285D01*
X26706580Y-50069809D01*
X26754200Y-49974571D01*
X26801819Y-49926952D01*
X26897057Y-49879333D01*
X26944676Y-49879333D01*
X27039914Y-49926952D01*
X27087533Y-49974571D01*
X27135152Y-50069809D01*
X27135152Y-50260285D01*
X27182771Y-50355523D01*
X27230390Y-50403142D01*
X27325628Y-50450761D01*
X27516104Y-50450761D01*
X27611342Y-50403142D01*
X27658961Y-50355523D01*
X27706580Y-50260285D01*
X27706580Y-50069809D01*
X27658961Y-49974571D01*
X27611342Y-49926952D01*
X27516104Y-49879333D01*
X27325628Y-49879333D01*
X27230390Y-49926952D01*
X27182771Y-49974571D01*
X27135152Y-50069809D01*
X90471666Y-89800180D02*
X90471666Y-90514466D01*
X90424047Y-90657323D01*
X90328809Y-90752561D01*
X90185952Y-90800180D01*
X90090714Y-90800180D01*
X90995476Y-90800180D02*
X91185952Y-90800180D01*
X91281190Y-90752561D01*
X91328809Y-90704942D01*
X91424047Y-90562085D01*
X91471666Y-90371609D01*
X91471666Y-89990657D01*
X91424047Y-89895419D01*
X91376428Y-89847800D01*
X91281190Y-89800180D01*
X91090714Y-89800180D01*
X90995476Y-89847800D01*
X90947857Y-89895419D01*
X90900238Y-89990657D01*
X90900238Y-90228752D01*
X90947857Y-90323990D01*
X90995476Y-90371609D01*
X91090714Y-90419228D01*
X91281190Y-90419228D01*
X91376428Y-90371609D01*
X91424047Y-90323990D01*
X91471666Y-90228752D01*
X90071676Y-93610180D02*
X90071676Y-94324466D01*
X90024057Y-94467323D01*
X89928819Y-94562561D01*
X89785961Y-94610180D01*
X89690723Y-94610180D01*
X91071676Y-94610180D02*
X90500247Y-94610180D01*
X90785961Y-94610180D02*
X90785961Y-93610180D01*
X90690723Y-93753038D01*
X90595485Y-93848276D01*
X90500247Y-93895895D01*
X91690723Y-93610180D02*
X91785961Y-93610180D01*
X91881200Y-93657800D01*
X91928819Y-93705419D01*
X91976438Y-93800657D01*
X92024057Y-93991133D01*
X92024057Y-94229228D01*
X91976438Y-94419704D01*
X91928819Y-94514942D01*
X91881200Y-94562561D01*
X91785961Y-94610180D01*
X91690723Y-94610180D01*
X91595485Y-94562561D01*
X91547866Y-94514942D01*
X91500247Y-94419704D01*
X91452628Y-94229228D01*
X91452628Y-93991133D01*
X91500247Y-93800657D01*
X91547866Y-93705419D01*
X91595485Y-93657800D01*
X91690723Y-93610180D01*
X76000076Y-67492180D02*
X76000076Y-68206466D01*
X75952457Y-68349323D01*
X75857219Y-68444561D01*
X75714361Y-68492180D01*
X75619123Y-68492180D01*
X77000076Y-68492180D02*
X76428647Y-68492180D01*
X76714361Y-68492180D02*
X76714361Y-67492180D01*
X76619123Y-67635038D01*
X76523885Y-67730276D01*
X76428647Y-67777895D01*
X77952457Y-68492180D02*
X77381028Y-68492180D01*
X77666742Y-68492180D02*
X77666742Y-67492180D01*
X77571504Y-67635038D01*
X77476266Y-67730276D01*
X77381028Y-67777895D01*
X62774533Y-96311980D02*
X62441200Y-95835790D01*
X62203104Y-96311980D02*
X62203104Y-95311980D01*
X62584057Y-95311980D01*
X62679295Y-95359600D01*
X62726914Y-95407219D01*
X62774533Y-95502457D01*
X62774533Y-95645314D01*
X62726914Y-95740552D01*
X62679295Y-95788171D01*
X62584057Y-95835790D01*
X62203104Y-95835790D01*
X63726914Y-96311980D02*
X63155485Y-96311980D01*
X63441200Y-96311980D02*
X63441200Y-95311980D01*
X63345961Y-95454838D01*
X63250723Y-95550076D01*
X63155485Y-95597695D01*
X42352933Y-72613780D02*
X42019600Y-72137590D01*
X41781504Y-72613780D02*
X41781504Y-71613780D01*
X42162457Y-71613780D01*
X42257695Y-71661400D01*
X42305314Y-71709019D01*
X42352933Y-71804257D01*
X42352933Y-71947114D01*
X42305314Y-72042352D01*
X42257695Y-72089971D01*
X42162457Y-72137590D01*
X41781504Y-72137590D01*
X43210076Y-71613780D02*
X43019600Y-71613780D01*
X42924361Y-71661400D01*
X42876742Y-71709019D01*
X42781504Y-71851876D01*
X42733885Y-72042352D01*
X42733885Y-72423304D01*
X42781504Y-72518542D01*
X42829123Y-72566161D01*
X42924361Y-72613780D01*
X43114838Y-72613780D01*
X43210076Y-72566161D01*
X43257695Y-72518542D01*
X43305314Y-72423304D01*
X43305314Y-72185209D01*
X43257695Y-72089971D01*
X43210076Y-72042352D01*
X43114838Y-71994733D01*
X42924361Y-71994733D01*
X42829123Y-72042352D01*
X42781504Y-72089971D01*
X42733885Y-72185209D01*
X41571942Y-84754980D02*
X41238609Y-84278790D01*
X41000514Y-84754980D02*
X41000514Y-83754980D01*
X41381466Y-83754980D01*
X41476704Y-83802600D01*
X41524323Y-83850219D01*
X41571942Y-83945457D01*
X41571942Y-84088314D01*
X41524323Y-84183552D01*
X41476704Y-84231171D01*
X41381466Y-84278790D01*
X41000514Y-84278790D01*
X42524323Y-84754980D02*
X41952895Y-84754980D01*
X42238609Y-84754980D02*
X42238609Y-83754980D01*
X42143371Y-83897838D01*
X42048133Y-83993076D01*
X41952895Y-84040695D01*
X43143371Y-83754980D02*
X43238609Y-83754980D01*
X43333847Y-83802600D01*
X43381466Y-83850219D01*
X43429085Y-83945457D01*
X43476704Y-84135933D01*
X43476704Y-84374028D01*
X43429085Y-84564504D01*
X43381466Y-84659742D01*
X43333847Y-84707361D01*
X43238609Y-84754980D01*
X43143371Y-84754980D01*
X43048133Y-84707361D01*
X43000514Y-84659742D01*
X42952895Y-84564504D01*
X42905276Y-84374028D01*
X42905276Y-84135933D01*
X42952895Y-83945457D01*
X43000514Y-83850219D01*
X43048133Y-83802600D01*
X43143371Y-83754980D01*
X38396942Y-88539580D02*
X38063609Y-88063390D01*
X37825514Y-88539580D02*
X37825514Y-87539580D01*
X38206466Y-87539580D01*
X38301704Y-87587200D01*
X38349323Y-87634819D01*
X38396942Y-87730057D01*
X38396942Y-87872914D01*
X38349323Y-87968152D01*
X38301704Y-88015771D01*
X38206466Y-88063390D01*
X37825514Y-88063390D01*
X39349323Y-88539580D02*
X38777895Y-88539580D01*
X39063609Y-88539580D02*
X39063609Y-87539580D01*
X38968371Y-87682438D01*
X38873133Y-87777676D01*
X38777895Y-87825295D01*
X40301704Y-88539580D02*
X39730276Y-88539580D01*
X40015990Y-88539580D02*
X40015990Y-87539580D01*
X39920752Y-87682438D01*
X39825514Y-87777676D01*
X39730276Y-87825295D01*
X55138580Y-101023657D02*
X54662390Y-101356990D01*
X55138580Y-101595085D02*
X54138580Y-101595085D01*
X54138580Y-101214133D01*
X54186200Y-101118895D01*
X54233819Y-101071276D01*
X54329057Y-101023657D01*
X54471914Y-101023657D01*
X54567152Y-101071276D01*
X54614771Y-101118895D01*
X54662390Y-101214133D01*
X54662390Y-101595085D01*
X55138580Y-100071276D02*
X55138580Y-100642704D01*
X55138580Y-100356990D02*
X54138580Y-100356990D01*
X54281438Y-100452228D01*
X54376676Y-100547466D01*
X54424295Y-100642704D01*
X54138580Y-99737942D02*
X54138580Y-99118895D01*
X54519533Y-99452228D01*
X54519533Y-99309371D01*
X54567152Y-99214133D01*
X54614771Y-99166514D01*
X54710009Y-99118895D01*
X54948104Y-99118895D01*
X55043342Y-99166514D01*
X55090961Y-99214133D01*
X55138580Y-99309371D01*
X55138580Y-99595085D01*
X55090961Y-99690323D01*
X55043342Y-99737942D01*
X57068980Y-100998257D02*
X56592790Y-101331590D01*
X57068980Y-101569685D02*
X56068980Y-101569685D01*
X56068980Y-101188733D01*
X56116600Y-101093495D01*
X56164219Y-101045876D01*
X56259457Y-100998257D01*
X56402314Y-100998257D01*
X56497552Y-101045876D01*
X56545171Y-101093495D01*
X56592790Y-101188733D01*
X56592790Y-101569685D01*
X57068980Y-100045876D02*
X57068980Y-100617304D01*
X57068980Y-100331590D02*
X56068980Y-100331590D01*
X56211838Y-100426828D01*
X56307076Y-100522066D01*
X56354695Y-100617304D01*
X56402314Y-99188733D02*
X57068980Y-99188733D01*
X56021361Y-99426828D02*
X56735647Y-99664923D01*
X56735647Y-99045876D01*
X41317942Y-78811380D02*
X40984609Y-78335190D01*
X40746514Y-78811380D02*
X40746514Y-77811380D01*
X41127466Y-77811380D01*
X41222704Y-77859000D01*
X41270323Y-77906619D01*
X41317942Y-78001857D01*
X41317942Y-78144714D01*
X41270323Y-78239952D01*
X41222704Y-78287571D01*
X41127466Y-78335190D01*
X40746514Y-78335190D01*
X42270323Y-78811380D02*
X41698895Y-78811380D01*
X41984609Y-78811380D02*
X41984609Y-77811380D01*
X41889371Y-77954238D01*
X41794133Y-78049476D01*
X41698895Y-78097095D01*
X43175085Y-77811380D02*
X42698895Y-77811380D01*
X42651276Y-78287571D01*
X42698895Y-78239952D01*
X42794133Y-78192333D01*
X43032228Y-78192333D01*
X43127466Y-78239952D01*
X43175085Y-78287571D01*
X43222704Y-78382809D01*
X43222704Y-78620904D01*
X43175085Y-78716142D01*
X43127466Y-78763761D01*
X43032228Y-78811380D01*
X42794133Y-78811380D01*
X42698895Y-78763761D01*
X42651276Y-78716142D01*
X41444942Y-74620380D02*
X41111609Y-74144190D01*
X40873514Y-74620380D02*
X40873514Y-73620380D01*
X41254466Y-73620380D01*
X41349704Y-73668000D01*
X41397323Y-73715619D01*
X41444942Y-73810857D01*
X41444942Y-73953714D01*
X41397323Y-74048952D01*
X41349704Y-74096571D01*
X41254466Y-74144190D01*
X40873514Y-74144190D01*
X42397323Y-74620380D02*
X41825895Y-74620380D01*
X42111609Y-74620380D02*
X42111609Y-73620380D01*
X42016371Y-73763238D01*
X41921133Y-73858476D01*
X41825895Y-73906095D01*
X43254466Y-73620380D02*
X43063990Y-73620380D01*
X42968752Y-73668000D01*
X42921133Y-73715619D01*
X42825895Y-73858476D01*
X42778276Y-74048952D01*
X42778276Y-74429904D01*
X42825895Y-74525142D01*
X42873514Y-74572761D01*
X42968752Y-74620380D01*
X43159228Y-74620380D01*
X43254466Y-74572761D01*
X43302085Y-74525142D01*
X43349704Y-74429904D01*
X43349704Y-74191809D01*
X43302085Y-74096571D01*
X43254466Y-74048952D01*
X43159228Y-74001333D01*
X42968752Y-74001333D01*
X42873514Y-74048952D01*
X42825895Y-74096571D01*
X42778276Y-74191809D01*
X41495742Y-76779380D02*
X41162409Y-76303190D01*
X40924314Y-76779380D02*
X40924314Y-75779380D01*
X41305266Y-75779380D01*
X41400504Y-75827000D01*
X41448123Y-75874619D01*
X41495742Y-75969857D01*
X41495742Y-76112714D01*
X41448123Y-76207952D01*
X41400504Y-76255571D01*
X41305266Y-76303190D01*
X40924314Y-76303190D01*
X42448123Y-76779380D02*
X41876695Y-76779380D01*
X42162409Y-76779380D02*
X42162409Y-75779380D01*
X42067171Y-75922238D01*
X41971933Y-76017476D01*
X41876695Y-76065095D01*
X42781457Y-75779380D02*
X43448123Y-75779380D01*
X43019552Y-76779380D01*
X41317942Y-80665580D02*
X40984609Y-80189390D01*
X40746514Y-80665580D02*
X40746514Y-79665580D01*
X41127466Y-79665580D01*
X41222704Y-79713200D01*
X41270323Y-79760819D01*
X41317942Y-79856057D01*
X41317942Y-79998914D01*
X41270323Y-80094152D01*
X41222704Y-80141771D01*
X41127466Y-80189390D01*
X40746514Y-80189390D01*
X42270323Y-80665580D02*
X41698895Y-80665580D01*
X41984609Y-80665580D02*
X41984609Y-79665580D01*
X41889371Y-79808438D01*
X41794133Y-79903676D01*
X41698895Y-79951295D01*
X42841752Y-80094152D02*
X42746514Y-80046533D01*
X42698895Y-79998914D01*
X42651276Y-79903676D01*
X42651276Y-79856057D01*
X42698895Y-79760819D01*
X42746514Y-79713200D01*
X42841752Y-79665580D01*
X43032228Y-79665580D01*
X43127466Y-79713200D01*
X43175085Y-79760819D01*
X43222704Y-79856057D01*
X43222704Y-79903676D01*
X43175085Y-79998914D01*
X43127466Y-80046533D01*
X43032228Y-80094152D01*
X42841752Y-80094152D01*
X42746514Y-80141771D01*
X42698895Y-80189390D01*
X42651276Y-80284628D01*
X42651276Y-80475104D01*
X42698895Y-80570342D01*
X42746514Y-80617961D01*
X42841752Y-80665580D01*
X43032228Y-80665580D01*
X43127466Y-80617961D01*
X43175085Y-80570342D01*
X43222704Y-80475104D01*
X43222704Y-80284628D01*
X43175085Y-80189390D01*
X43127466Y-80141771D01*
X43032228Y-80094152D01*
X35145742Y-80665580D02*
X34812409Y-80189390D01*
X34574314Y-80665580D02*
X34574314Y-79665580D01*
X34955266Y-79665580D01*
X35050504Y-79713200D01*
X35098123Y-79760819D01*
X35145742Y-79856057D01*
X35145742Y-79998914D01*
X35098123Y-80094152D01*
X35050504Y-80141771D01*
X34955266Y-80189390D01*
X34574314Y-80189390D01*
X36098123Y-80665580D02*
X35526695Y-80665580D01*
X35812409Y-80665580D02*
X35812409Y-79665580D01*
X35717171Y-79808438D01*
X35621933Y-79903676D01*
X35526695Y-79951295D01*
X36574314Y-80665580D02*
X36764790Y-80665580D01*
X36860028Y-80617961D01*
X36907647Y-80570342D01*
X37002885Y-80427485D01*
X37050504Y-80237009D01*
X37050504Y-79856057D01*
X37002885Y-79760819D01*
X36955266Y-79713200D01*
X36860028Y-79665580D01*
X36669552Y-79665580D01*
X36574314Y-79713200D01*
X36526695Y-79760819D01*
X36479076Y-79856057D01*
X36479076Y-80094152D01*
X36526695Y-80189390D01*
X36574314Y-80237009D01*
X36669552Y-80284628D01*
X36860028Y-80284628D01*
X36955266Y-80237009D01*
X37002885Y-80189390D01*
X37050504Y-80094152D01*
X81830942Y-71445380D02*
X81497609Y-70969190D01*
X81259514Y-71445380D02*
X81259514Y-70445380D01*
X81640466Y-70445380D01*
X81735704Y-70493000D01*
X81783323Y-70540619D01*
X81830942Y-70635857D01*
X81830942Y-70778714D01*
X81783323Y-70873952D01*
X81735704Y-70921571D01*
X81640466Y-70969190D01*
X81259514Y-70969190D01*
X82211895Y-70540619D02*
X82259514Y-70493000D01*
X82354752Y-70445380D01*
X82592847Y-70445380D01*
X82688085Y-70493000D01*
X82735704Y-70540619D01*
X82783323Y-70635857D01*
X82783323Y-70731095D01*
X82735704Y-70873952D01*
X82164276Y-71445380D01*
X82783323Y-71445380D01*
X83402371Y-70445380D02*
X83497609Y-70445380D01*
X83592847Y-70493000D01*
X83640466Y-70540619D01*
X83688085Y-70635857D01*
X83735704Y-70826333D01*
X83735704Y-71064428D01*
X83688085Y-71254904D01*
X83640466Y-71350142D01*
X83592847Y-71397761D01*
X83497609Y-71445380D01*
X83402371Y-71445380D01*
X83307133Y-71397761D01*
X83259514Y-71350142D01*
X83211895Y-71254904D01*
X83164276Y-71064428D01*
X83164276Y-70826333D01*
X83211895Y-70635857D01*
X83259514Y-70540619D01*
X83307133Y-70493000D01*
X83402371Y-70445380D01*
X81805542Y-73426580D02*
X81472209Y-72950390D01*
X81234114Y-73426580D02*
X81234114Y-72426580D01*
X81615066Y-72426580D01*
X81710304Y-72474200D01*
X81757923Y-72521819D01*
X81805542Y-72617057D01*
X81805542Y-72759914D01*
X81757923Y-72855152D01*
X81710304Y-72902771D01*
X81615066Y-72950390D01*
X81234114Y-72950390D01*
X82186495Y-72521819D02*
X82234114Y-72474200D01*
X82329352Y-72426580D01*
X82567447Y-72426580D01*
X82662685Y-72474200D01*
X82710304Y-72521819D01*
X82757923Y-72617057D01*
X82757923Y-72712295D01*
X82710304Y-72855152D01*
X82138876Y-73426580D01*
X82757923Y-73426580D01*
X83710304Y-73426580D02*
X83138876Y-73426580D01*
X83424590Y-73426580D02*
X83424590Y-72426580D01*
X83329352Y-72569438D01*
X83234114Y-72664676D01*
X83138876Y-72712295D01*
X81805542Y-75509380D02*
X81472209Y-75033190D01*
X81234114Y-75509380D02*
X81234114Y-74509380D01*
X81615066Y-74509380D01*
X81710304Y-74557000D01*
X81757923Y-74604619D01*
X81805542Y-74699857D01*
X81805542Y-74842714D01*
X81757923Y-74937952D01*
X81710304Y-74985571D01*
X81615066Y-75033190D01*
X81234114Y-75033190D01*
X82186495Y-74604619D02*
X82234114Y-74557000D01*
X82329352Y-74509380D01*
X82567447Y-74509380D01*
X82662685Y-74557000D01*
X82710304Y-74604619D01*
X82757923Y-74699857D01*
X82757923Y-74795095D01*
X82710304Y-74937952D01*
X82138876Y-75509380D01*
X82757923Y-75509380D01*
X83138876Y-74604619D02*
X83186495Y-74557000D01*
X83281733Y-74509380D01*
X83519828Y-74509380D01*
X83615066Y-74557000D01*
X83662685Y-74604619D01*
X83710304Y-74699857D01*
X83710304Y-74795095D01*
X83662685Y-74937952D01*
X83091257Y-75509380D01*
X83710304Y-75509380D01*
X110304342Y-81579980D02*
X109971009Y-81103790D01*
X109732914Y-81579980D02*
X109732914Y-80579980D01*
X110113866Y-80579980D01*
X110209104Y-80627600D01*
X110256723Y-80675219D01*
X110304342Y-80770457D01*
X110304342Y-80913314D01*
X110256723Y-81008552D01*
X110209104Y-81056171D01*
X110113866Y-81103790D01*
X109732914Y-81103790D01*
X110685295Y-80675219D02*
X110732914Y-80627600D01*
X110828152Y-80579980D01*
X111066247Y-80579980D01*
X111161485Y-80627600D01*
X111209104Y-80675219D01*
X111256723Y-80770457D01*
X111256723Y-80865695D01*
X111209104Y-81008552D01*
X110637676Y-81579980D01*
X111256723Y-81579980D01*
X112161485Y-80579980D02*
X111685295Y-80579980D01*
X111637676Y-81056171D01*
X111685295Y-81008552D01*
X111780533Y-80960933D01*
X112018628Y-80960933D01*
X112113866Y-81008552D01*
X112161485Y-81056171D01*
X112209104Y-81151409D01*
X112209104Y-81389504D01*
X112161485Y-81484742D01*
X112113866Y-81532361D01*
X112018628Y-81579980D01*
X111780533Y-81579980D01*
X111685295Y-81532361D01*
X111637676Y-81484742D01*
X110380542Y-85720180D02*
X110047209Y-85243990D01*
X109809114Y-85720180D02*
X109809114Y-84720180D01*
X110190066Y-84720180D01*
X110285304Y-84767800D01*
X110332923Y-84815419D01*
X110380542Y-84910657D01*
X110380542Y-85053514D01*
X110332923Y-85148752D01*
X110285304Y-85196371D01*
X110190066Y-85243990D01*
X109809114Y-85243990D01*
X110761495Y-84815419D02*
X110809114Y-84767800D01*
X110904352Y-84720180D01*
X111142447Y-84720180D01*
X111237685Y-84767800D01*
X111285304Y-84815419D01*
X111332923Y-84910657D01*
X111332923Y-85005895D01*
X111285304Y-85148752D01*
X110713876Y-85720180D01*
X111332923Y-85720180D01*
X112190066Y-84720180D02*
X111999590Y-84720180D01*
X111904352Y-84767800D01*
X111856733Y-84815419D01*
X111761495Y-84958276D01*
X111713876Y-85148752D01*
X111713876Y-85529704D01*
X111761495Y-85624942D01*
X111809114Y-85672561D01*
X111904352Y-85720180D01*
X112094828Y-85720180D01*
X112190066Y-85672561D01*
X112237685Y-85624942D01*
X112285304Y-85529704D01*
X112285304Y-85291609D01*
X112237685Y-85196371D01*
X112190066Y-85148752D01*
X112094828Y-85101133D01*
X111904352Y-85101133D01*
X111809114Y-85148752D01*
X111761495Y-85196371D01*
X111713876Y-85291609D01*
X110278942Y-89530180D02*
X109945609Y-89053990D01*
X109707514Y-89530180D02*
X109707514Y-88530180D01*
X110088466Y-88530180D01*
X110183704Y-88577800D01*
X110231323Y-88625419D01*
X110278942Y-88720657D01*
X110278942Y-88863514D01*
X110231323Y-88958752D01*
X110183704Y-89006371D01*
X110088466Y-89053990D01*
X109707514Y-89053990D01*
X110659895Y-88625419D02*
X110707514Y-88577800D01*
X110802752Y-88530180D01*
X111040847Y-88530180D01*
X111136085Y-88577800D01*
X111183704Y-88625419D01*
X111231323Y-88720657D01*
X111231323Y-88815895D01*
X111183704Y-88958752D01*
X110612276Y-89530180D01*
X111231323Y-89530180D01*
X111564657Y-88530180D02*
X112231323Y-88530180D01*
X111802752Y-89530180D01*
X110355142Y-87625180D02*
X110021809Y-87148990D01*
X109783714Y-87625180D02*
X109783714Y-86625180D01*
X110164666Y-86625180D01*
X110259904Y-86672800D01*
X110307523Y-86720419D01*
X110355142Y-86815657D01*
X110355142Y-86958514D01*
X110307523Y-87053752D01*
X110259904Y-87101371D01*
X110164666Y-87148990D01*
X109783714Y-87148990D01*
X110736095Y-86720419D02*
X110783714Y-86672800D01*
X110878952Y-86625180D01*
X111117047Y-86625180D01*
X111212285Y-86672800D01*
X111259904Y-86720419D01*
X111307523Y-86815657D01*
X111307523Y-86910895D01*
X111259904Y-87053752D01*
X110688476Y-87625180D01*
X111307523Y-87625180D01*
X111878952Y-87053752D02*
X111783714Y-87006133D01*
X111736095Y-86958514D01*
X111688476Y-86863276D01*
X111688476Y-86815657D01*
X111736095Y-86720419D01*
X111783714Y-86672800D01*
X111878952Y-86625180D01*
X112069428Y-86625180D01*
X112164666Y-86672800D01*
X112212285Y-86720419D01*
X112259904Y-86815657D01*
X112259904Y-86863276D01*
X112212285Y-86958514D01*
X112164666Y-87006133D01*
X112069428Y-87053752D01*
X111878952Y-87053752D01*
X111783714Y-87101371D01*
X111736095Y-87148990D01*
X111688476Y-87244228D01*
X111688476Y-87434704D01*
X111736095Y-87529942D01*
X111783714Y-87577561D01*
X111878952Y-87625180D01*
X112069428Y-87625180D01*
X112164666Y-87577561D01*
X112212285Y-87529942D01*
X112259904Y-87434704D01*
X112259904Y-87244228D01*
X112212285Y-87148990D01*
X112164666Y-87101371D01*
X112069428Y-87053752D01*
X110355142Y-83586580D02*
X110021809Y-83110390D01*
X109783714Y-83586580D02*
X109783714Y-82586580D01*
X110164666Y-82586580D01*
X110259904Y-82634200D01*
X110307523Y-82681819D01*
X110355142Y-82777057D01*
X110355142Y-82919914D01*
X110307523Y-83015152D01*
X110259904Y-83062771D01*
X110164666Y-83110390D01*
X109783714Y-83110390D01*
X110736095Y-82681819D02*
X110783714Y-82634200D01*
X110878952Y-82586580D01*
X111117047Y-82586580D01*
X111212285Y-82634200D01*
X111259904Y-82681819D01*
X111307523Y-82777057D01*
X111307523Y-82872295D01*
X111259904Y-83015152D01*
X110688476Y-83586580D01*
X111307523Y-83586580D01*
X111783714Y-83586580D02*
X111974190Y-83586580D01*
X112069428Y-83538961D01*
X112117047Y-83491342D01*
X112212285Y-83348485D01*
X112259904Y-83158009D01*
X112259904Y-82777057D01*
X112212285Y-82681819D01*
X112164666Y-82634200D01*
X112069428Y-82586580D01*
X111878952Y-82586580D01*
X111783714Y-82634200D01*
X111736095Y-82681819D01*
X111688476Y-82777057D01*
X111688476Y-83015152D01*
X111736095Y-83110390D01*
X111783714Y-83158009D01*
X111878952Y-83205628D01*
X112069428Y-83205628D01*
X112164666Y-83158009D01*
X112212285Y-83110390D01*
X112259904Y-83015152D01*
X116730542Y-83408780D02*
X116397209Y-82932590D01*
X116159114Y-83408780D02*
X116159114Y-82408780D01*
X116540066Y-82408780D01*
X116635304Y-82456400D01*
X116682923Y-82504019D01*
X116730542Y-82599257D01*
X116730542Y-82742114D01*
X116682923Y-82837352D01*
X116635304Y-82884971D01*
X116540066Y-82932590D01*
X116159114Y-82932590D01*
X117063876Y-82408780D02*
X117682923Y-82408780D01*
X117349590Y-82789733D01*
X117492447Y-82789733D01*
X117587685Y-82837352D01*
X117635304Y-82884971D01*
X117682923Y-82980209D01*
X117682923Y-83218304D01*
X117635304Y-83313542D01*
X117587685Y-83361161D01*
X117492447Y-83408780D01*
X117206733Y-83408780D01*
X117111495Y-83361161D01*
X117063876Y-83313542D01*
X118301971Y-82408780D02*
X118397209Y-82408780D01*
X118492447Y-82456400D01*
X118540066Y-82504019D01*
X118587685Y-82599257D01*
X118635304Y-82789733D01*
X118635304Y-83027828D01*
X118587685Y-83218304D01*
X118540066Y-83313542D01*
X118492447Y-83361161D01*
X118397209Y-83408780D01*
X118301971Y-83408780D01*
X118206733Y-83361161D01*
X118159114Y-83313542D01*
X118111495Y-83218304D01*
X118063876Y-83027828D01*
X118063876Y-82789733D01*
X118111495Y-82599257D01*
X118159114Y-82504019D01*
X118206733Y-82456400D01*
X118301971Y-82408780D01*
X61891942Y-94432380D02*
X61558609Y-93956190D01*
X61320514Y-94432380D02*
X61320514Y-93432380D01*
X61701466Y-93432380D01*
X61796704Y-93480000D01*
X61844323Y-93527619D01*
X61891942Y-93622857D01*
X61891942Y-93765714D01*
X61844323Y-93860952D01*
X61796704Y-93908571D01*
X61701466Y-93956190D01*
X61320514Y-93956190D01*
X62225276Y-93432380D02*
X62844323Y-93432380D01*
X62510990Y-93813333D01*
X62653847Y-93813333D01*
X62749085Y-93860952D01*
X62796704Y-93908571D01*
X62844323Y-94003809D01*
X62844323Y-94241904D01*
X62796704Y-94337142D01*
X62749085Y-94384761D01*
X62653847Y-94432380D01*
X62368133Y-94432380D01*
X62272895Y-94384761D01*
X62225276Y-94337142D01*
X63796704Y-94432380D02*
X63225276Y-94432380D01*
X63510990Y-94432380D02*
X63510990Y-93432380D01*
X63415752Y-93575238D01*
X63320514Y-93670476D01*
X63225276Y-93718095D01*
X60291742Y-82062580D02*
X59958409Y-81586390D01*
X59720314Y-82062580D02*
X59720314Y-81062580D01*
X60101266Y-81062580D01*
X60196504Y-81110200D01*
X60244123Y-81157819D01*
X60291742Y-81253057D01*
X60291742Y-81395914D01*
X60244123Y-81491152D01*
X60196504Y-81538771D01*
X60101266Y-81586390D01*
X59720314Y-81586390D01*
X60625076Y-81062580D02*
X61244123Y-81062580D01*
X60910790Y-81443533D01*
X61053647Y-81443533D01*
X61148885Y-81491152D01*
X61196504Y-81538771D01*
X61244123Y-81634009D01*
X61244123Y-81872104D01*
X61196504Y-81967342D01*
X61148885Y-82014961D01*
X61053647Y-82062580D01*
X60767933Y-82062580D01*
X60672695Y-82014961D01*
X60625076Y-81967342D01*
X61625076Y-81157819D02*
X61672695Y-81110200D01*
X61767933Y-81062580D01*
X62006028Y-81062580D01*
X62101266Y-81110200D01*
X62148885Y-81157819D01*
X62196504Y-81253057D01*
X62196504Y-81348295D01*
X62148885Y-81491152D01*
X61577457Y-82062580D01*
X62196504Y-82062580D01*
X60240942Y-79954380D02*
X59907609Y-79478190D01*
X59669514Y-79954380D02*
X59669514Y-78954380D01*
X60050466Y-78954380D01*
X60145704Y-79002000D01*
X60193323Y-79049619D01*
X60240942Y-79144857D01*
X60240942Y-79287714D01*
X60193323Y-79382952D01*
X60145704Y-79430571D01*
X60050466Y-79478190D01*
X59669514Y-79478190D01*
X60574276Y-78954380D02*
X61193323Y-78954380D01*
X60859990Y-79335333D01*
X61002847Y-79335333D01*
X61098085Y-79382952D01*
X61145704Y-79430571D01*
X61193323Y-79525809D01*
X61193323Y-79763904D01*
X61145704Y-79859142D01*
X61098085Y-79906761D01*
X61002847Y-79954380D01*
X60717133Y-79954380D01*
X60621895Y-79906761D01*
X60574276Y-79859142D01*
X61526657Y-78954380D02*
X62145704Y-78954380D01*
X61812371Y-79335333D01*
X61955228Y-79335333D01*
X62050466Y-79382952D01*
X62098085Y-79430571D01*
X62145704Y-79525809D01*
X62145704Y-79763904D01*
X62098085Y-79859142D01*
X62050466Y-79906761D01*
X61955228Y-79954380D01*
X61669514Y-79954380D01*
X61574276Y-79906761D01*
X61526657Y-79859142D01*
X41571942Y-70505580D02*
X41238609Y-70029390D01*
X41000514Y-70505580D02*
X41000514Y-69505580D01*
X41381466Y-69505580D01*
X41476704Y-69553200D01*
X41524323Y-69600819D01*
X41571942Y-69696057D01*
X41571942Y-69838914D01*
X41524323Y-69934152D01*
X41476704Y-69981771D01*
X41381466Y-70029390D01*
X41000514Y-70029390D01*
X41905276Y-69505580D02*
X42524323Y-69505580D01*
X42190990Y-69886533D01*
X42333847Y-69886533D01*
X42429085Y-69934152D01*
X42476704Y-69981771D01*
X42524323Y-70077009D01*
X42524323Y-70315104D01*
X42476704Y-70410342D01*
X42429085Y-70457961D01*
X42333847Y-70505580D01*
X42048133Y-70505580D01*
X41952895Y-70457961D01*
X41905276Y-70410342D01*
X43381466Y-69838914D02*
X43381466Y-70505580D01*
X43143371Y-69457961D02*
X42905276Y-70172247D01*
X43524323Y-70172247D01*
X41343342Y-82697580D02*
X41010009Y-82221390D01*
X40771914Y-82697580D02*
X40771914Y-81697580D01*
X41152866Y-81697580D01*
X41248104Y-81745200D01*
X41295723Y-81792819D01*
X41343342Y-81888057D01*
X41343342Y-82030914D01*
X41295723Y-82126152D01*
X41248104Y-82173771D01*
X41152866Y-82221390D01*
X40771914Y-82221390D01*
X41676676Y-81697580D02*
X42295723Y-81697580D01*
X41962390Y-82078533D01*
X42105247Y-82078533D01*
X42200485Y-82126152D01*
X42248104Y-82173771D01*
X42295723Y-82269009D01*
X42295723Y-82507104D01*
X42248104Y-82602342D01*
X42200485Y-82649961D01*
X42105247Y-82697580D01*
X41819533Y-82697580D01*
X41724295Y-82649961D01*
X41676676Y-82602342D01*
X43200485Y-81697580D02*
X42724295Y-81697580D01*
X42676676Y-82173771D01*
X42724295Y-82126152D01*
X42819533Y-82078533D01*
X43057628Y-82078533D01*
X43152866Y-82126152D01*
X43200485Y-82173771D01*
X43248104Y-82269009D01*
X43248104Y-82507104D01*
X43200485Y-82602342D01*
X43152866Y-82649961D01*
X43057628Y-82697580D01*
X42819533Y-82697580D01*
X42724295Y-82649961D01*
X42676676Y-82602342D01*
X38346142Y-90698580D02*
X38012809Y-90222390D01*
X37774714Y-90698580D02*
X37774714Y-89698580D01*
X38155666Y-89698580D01*
X38250904Y-89746200D01*
X38298523Y-89793819D01*
X38346142Y-89889057D01*
X38346142Y-90031914D01*
X38298523Y-90127152D01*
X38250904Y-90174771D01*
X38155666Y-90222390D01*
X37774714Y-90222390D01*
X38679476Y-89698580D02*
X39298523Y-89698580D01*
X38965190Y-90079533D01*
X39108047Y-90079533D01*
X39203285Y-90127152D01*
X39250904Y-90174771D01*
X39298523Y-90270009D01*
X39298523Y-90508104D01*
X39250904Y-90603342D01*
X39203285Y-90650961D01*
X39108047Y-90698580D01*
X38822333Y-90698580D01*
X38727095Y-90650961D01*
X38679476Y-90603342D01*
X40155666Y-89698580D02*
X39965190Y-89698580D01*
X39869952Y-89746200D01*
X39822333Y-89793819D01*
X39727095Y-89936676D01*
X39679476Y-90127152D01*
X39679476Y-90508104D01*
X39727095Y-90603342D01*
X39774714Y-90650961D01*
X39869952Y-90698580D01*
X40060428Y-90698580D01*
X40155666Y-90650961D01*
X40203285Y-90603342D01*
X40250904Y-90508104D01*
X40250904Y-90270009D01*
X40203285Y-90174771D01*
X40155666Y-90127152D01*
X40060428Y-90079533D01*
X39869952Y-90079533D01*
X39774714Y-90127152D01*
X39727095Y-90174771D01*
X39679476Y-90270009D01*
X47399430Y-83833726D02*
X47971850Y-84406146D01*
X48072865Y-84439818D01*
X48140209Y-84439818D01*
X48241224Y-84406146D01*
X48375911Y-84271459D01*
X48409583Y-84170444D01*
X48409583Y-84103100D01*
X48375911Y-84002085D01*
X47803491Y-83429665D01*
X49217705Y-83429665D02*
X48813644Y-83833726D01*
X49015674Y-83631696D02*
X48308568Y-82924589D01*
X48342239Y-83092948D01*
X48342239Y-83227635D01*
X48308568Y-83328650D01*
X99254222Y-84978918D02*
X99826642Y-85551338D01*
X99927657Y-85585010D01*
X99995001Y-85585010D01*
X100096016Y-85551338D01*
X100230703Y-85416651D01*
X100264375Y-85315636D01*
X100264375Y-85248292D01*
X100230703Y-85147277D01*
X99658283Y-84574857D01*
X99927657Y-84305483D02*
X100365390Y-83867751D01*
X100399062Y-84372827D01*
X100500077Y-84271812D01*
X100601092Y-84238140D01*
X100668436Y-84238140D01*
X100769451Y-84271812D01*
X100937810Y-84440170D01*
X100971482Y-84541186D01*
X100971482Y-84608529D01*
X100937810Y-84709544D01*
X100735779Y-84911575D01*
X100634764Y-84945247D01*
X100567421Y-84945247D01*
X49912329Y-96760350D02*
X49912329Y-97236540D01*
X49578996Y-96236540D02*
X49912329Y-96760350D01*
X50245662Y-96236540D01*
X51102805Y-97236540D02*
X50531377Y-97236540D01*
X50817091Y-97236540D02*
X50817091Y-96236540D01*
X50721853Y-96379398D01*
X50626615Y-96474636D01*
X50531377Y-96522255D01*
X97217289Y-72787830D02*
X97217289Y-73264020D01*
X96883956Y-72264020D02*
X97217289Y-72787830D01*
X97550622Y-72264020D01*
X97836337Y-72359259D02*
X97883956Y-72311640D01*
X97979194Y-72264020D01*
X98217289Y-72264020D01*
X98312527Y-72311640D01*
X98360146Y-72359259D01*
X98407765Y-72454497D01*
X98407765Y-72549735D01*
X98360146Y-72692592D01*
X97788718Y-73264020D01*
X98407765Y-73264020D01*
X24082476Y-94067380D02*
X24082476Y-94781666D01*
X24034857Y-94924523D01*
X23939619Y-95019761D01*
X23796761Y-95067380D01*
X23701523Y-95067380D01*
X25082476Y-95067380D02*
X24511047Y-95067380D01*
X24796761Y-95067380D02*
X24796761Y-94067380D01*
X24701523Y-94210238D01*
X24606285Y-94305476D01*
X24511047Y-94353095D01*
X25463428Y-94162619D02*
X25511047Y-94115000D01*
X25606285Y-94067380D01*
X25844380Y-94067380D01*
X25939619Y-94115000D01*
X25987238Y-94162619D01*
X26034857Y-94257857D01*
X26034857Y-94353095D01*
X25987238Y-94495952D01*
X25415809Y-95067380D01*
X26034857Y-95067380D01*
X23904676Y-76185780D02*
X23904676Y-76900066D01*
X23857057Y-77042923D01*
X23761819Y-77138161D01*
X23618961Y-77185780D01*
X23523723Y-77185780D01*
X24904676Y-77185780D02*
X24333247Y-77185780D01*
X24618961Y-77185780D02*
X24618961Y-76185780D01*
X24523723Y-76328638D01*
X24428485Y-76423876D01*
X24333247Y-76471495D01*
X25238009Y-76185780D02*
X25857057Y-76185780D01*
X25523723Y-76566733D01*
X25666580Y-76566733D01*
X25761819Y-76614352D01*
X25809438Y-76661971D01*
X25857057Y-76757209D01*
X25857057Y-76995304D01*
X25809438Y-77090542D01*
X25761819Y-77138161D01*
X25666580Y-77185780D01*
X25380866Y-77185780D01*
X25285628Y-77138161D01*
X25238009Y-77090542D01*
M02*
