G04 #@! TF.GenerationSoftware,KiCad,Pcbnew,(5.1.4-0-10_14)*
G04 #@! TF.CreationDate,2019-11-22T04:33:24-05:00*
G04 #@! TF.ProjectId,controllerBoard,636f6e74-726f-46c6-9c65-72426f617264,rev?*
G04 #@! TF.SameCoordinates,Original*
G04 #@! TF.FileFunction,Copper,L1,Top*
G04 #@! TF.FilePolarity,Positive*
%FSLAX46Y46*%
G04 Gerber Fmt 4.6, Leading zero omitted, Abs format (unit mm)*
G04 Created by KiCad (PCBNEW (5.1.4-0-10_14)) date 2019-11-22 04:33:24*
%MOMM*%
%LPD*%
G04 APERTURE LIST*
%ADD10C,4.648200*%
%ADD11R,1.250000X1.000000*%
%ADD12R,1.000000X1.250000*%
%ADD13R,1.200000X1.200000*%
%ADD14R,2.500000X0.900000*%
%ADD15R,8.200000X3.300000*%
%ADD16R,0.700000X1.300000*%
%ADD17R,0.650000X1.060000*%
%ADD18R,1.600000X1.000000*%
%ADD19R,2.159000X1.778000*%
%ADD20R,1.000000X3.200000*%
%ADD21R,1.300000X0.700000*%
%ADD22C,1.400000*%
%ADD23R,1.400000X1.400000*%
%ADD24R,1.700000X1.700000*%
%ADD25O,1.700000X1.700000*%
%ADD26C,1.524000*%
%ADD27C,0.550000*%
%ADD28C,0.100000*%
%ADD29R,1.200000X1.400000*%
%ADD30C,0.609600*%
%ADD31C,0.254000*%
%ADD32C,0.152400*%
%ADD33C,0.600000*%
%ADD34C,0.800000*%
%ADD35C,0.700000*%
%ADD36C,0.500000*%
%ADD37C,0.250000*%
%ADD38C,0.300000*%
%ADD39C,0.762000*%
G04 APERTURE END LIST*
D10*
X25273000Y-64058800D03*
X92659200Y-98602800D03*
X81254600Y-54635400D03*
X115824000Y-54508400D03*
D11*
X57480200Y-55032400D03*
X57480200Y-57032400D03*
D12*
X54670200Y-64668400D03*
X52670200Y-64668400D03*
X54670200Y-62382400D03*
X52670200Y-62382400D03*
D13*
X59088200Y-73558400D03*
X56888200Y-73558400D03*
D14*
X66770700Y-64715900D03*
X66770700Y-61815900D03*
D15*
X60464700Y-61619900D03*
X60464700Y-66319900D03*
D16*
X68976200Y-60858400D03*
X70876200Y-60858400D03*
X68976200Y-58826400D03*
X70876200Y-58826400D03*
X63002200Y-73558400D03*
X61102200Y-73558400D03*
D17*
X59540100Y-58465900D03*
X60490100Y-58465900D03*
X61440100Y-58465900D03*
X61440100Y-56265900D03*
X59540100Y-56265900D03*
X60490100Y-56265900D03*
D18*
X63830200Y-58548400D03*
X63830200Y-55548400D03*
D12*
X54670200Y-66700400D03*
X52670200Y-66700400D03*
D13*
X70688200Y-63314400D03*
X70688200Y-65514400D03*
D19*
X68148200Y-73050400D03*
X68148200Y-68986400D03*
D20*
X63755200Y-70383400D03*
X57555200Y-70383400D03*
D16*
X61356200Y-53746400D03*
X63256200Y-53746400D03*
D21*
X54178200Y-54828400D03*
X54178200Y-56728400D03*
D12*
X47101000Y-92456000D03*
X45101000Y-92456000D03*
D11*
X45059600Y-98459800D03*
X45059600Y-96459800D03*
D12*
X105775000Y-76657200D03*
X103775000Y-76657200D03*
X101330000Y-69088000D03*
X99330000Y-69088000D03*
X48828200Y-100533200D03*
X46828200Y-100533200D03*
D11*
X103047800Y-73161400D03*
X103047800Y-71161400D03*
D13*
X80043200Y-71120000D03*
X77843200Y-71120000D03*
X80043200Y-73202800D03*
X77843200Y-73202800D03*
X77843200Y-75260200D03*
X80043200Y-75260200D03*
X70416600Y-95935800D03*
X68216600Y-95935800D03*
X68216600Y-94081600D03*
X70416600Y-94081600D03*
D22*
X69291200Y-85191600D03*
X66751200Y-85191600D03*
X69291200Y-82651600D03*
X66751200Y-82651600D03*
X69291200Y-80111600D03*
D23*
X66751200Y-80111600D03*
D24*
X31750000Y-62331600D03*
D25*
X31750000Y-64871600D03*
X31750000Y-67411600D03*
X31750000Y-69951600D03*
X31750000Y-72491600D03*
X31750000Y-75031600D03*
X31750000Y-77571600D03*
X31750000Y-80111600D03*
X31750000Y-82651600D03*
X31750000Y-85191600D03*
X31750000Y-87731600D03*
X31750000Y-90271600D03*
X31750000Y-92811600D03*
X31750000Y-95351600D03*
X31750000Y-97891600D03*
X31750000Y-100431600D03*
D23*
X84429600Y-84785200D03*
D22*
X81889600Y-84785200D03*
X84429600Y-82245200D03*
X81889600Y-82245200D03*
X84429600Y-79705200D03*
X81889600Y-79705200D03*
D26*
X117297200Y-70078600D03*
X117297200Y-67589400D03*
X117297200Y-65100200D03*
X117297200Y-72745600D03*
X117297200Y-75234800D03*
X117297200Y-77724000D03*
X40563800Y-56159400D03*
X43053000Y-56159400D03*
X45542200Y-56159400D03*
X32918400Y-56159400D03*
X35407600Y-56159400D03*
X37896800Y-56159400D03*
X30251400Y-56134000D03*
X27762200Y-56134000D03*
X25273000Y-56134000D03*
X82600800Y-90119200D03*
X80111600Y-90119200D03*
X77622400Y-90119200D03*
X77673200Y-94056200D03*
X80162400Y-94056200D03*
X82651600Y-94056200D03*
D24*
X76809600Y-65709800D03*
D25*
X76809600Y-63169800D03*
D16*
X64556600Y-95986600D03*
X66456600Y-95986600D03*
X44312800Y-72136000D03*
X46212800Y-72136000D03*
X44338200Y-84251800D03*
X46238200Y-84251800D03*
X43114000Y-88138000D03*
X41214000Y-88138000D03*
D21*
X54737000Y-96179600D03*
X54737000Y-98079600D03*
X56692800Y-98079600D03*
X56692800Y-96179600D03*
D16*
X46238200Y-78155800D03*
X44338200Y-78155800D03*
X46212800Y-74168000D03*
X44312800Y-74168000D03*
X44338200Y-76149200D03*
X46238200Y-76149200D03*
X46223000Y-80213200D03*
X44323000Y-80213200D03*
X37988200Y-80137000D03*
X39888200Y-80137000D03*
X86548000Y-71069200D03*
X84648000Y-71069200D03*
X84673400Y-72999600D03*
X86573400Y-72999600D03*
X86548000Y-75107800D03*
X84648000Y-75107800D03*
X108798400Y-81280000D03*
X106898400Y-81280000D03*
X108823800Y-85217000D03*
X106923800Y-85217000D03*
X108823800Y-89154000D03*
X106923800Y-89154000D03*
X106923800Y-87198200D03*
X108823800Y-87198200D03*
X108823800Y-83261200D03*
X106923800Y-83261200D03*
X113273800Y-83134200D03*
X115173800Y-83134200D03*
X66456600Y-94056200D03*
X64556600Y-94056200D03*
X56885800Y-81483200D03*
X58785800Y-81483200D03*
X58811200Y-79476600D03*
X56911200Y-79476600D03*
X46212800Y-70104000D03*
X44312800Y-70104000D03*
X46238200Y-82219800D03*
X44338200Y-82219800D03*
X41163200Y-90246200D03*
X43063200Y-90246200D03*
D27*
X47618297Y-88985505D03*
D28*
G36*
X47247066Y-89745645D02*
G01*
X46858157Y-89356736D01*
X47989528Y-88225365D01*
X48378437Y-88614274D01*
X47247066Y-89745645D01*
X47247066Y-89745645D01*
G37*
D27*
X48183983Y-89551190D03*
D28*
G36*
X47812752Y-90311330D02*
G01*
X47423843Y-89922421D01*
X48555214Y-88791050D01*
X48944123Y-89179959D01*
X47812752Y-90311330D01*
X47812752Y-90311330D01*
G37*
D27*
X48749668Y-90116876D03*
D28*
G36*
X48378437Y-90877016D02*
G01*
X47989528Y-90488107D01*
X49120899Y-89356736D01*
X49509808Y-89745645D01*
X48378437Y-90877016D01*
X48378437Y-90877016D01*
G37*
D27*
X49315353Y-90682561D03*
D28*
G36*
X48944122Y-91442701D02*
G01*
X48555213Y-91053792D01*
X49686584Y-89922421D01*
X50075493Y-90311330D01*
X48944122Y-91442701D01*
X48944122Y-91442701D01*
G37*
D27*
X49881039Y-91248247D03*
D28*
G36*
X49509808Y-92008387D02*
G01*
X49120899Y-91619478D01*
X50252270Y-90488107D01*
X50641179Y-90877016D01*
X49509808Y-92008387D01*
X49509808Y-92008387D01*
G37*
D27*
X50446724Y-91813932D03*
D28*
G36*
X50075493Y-92574072D02*
G01*
X49686584Y-92185163D01*
X50817955Y-91053792D01*
X51206864Y-91442701D01*
X50075493Y-92574072D01*
X50075493Y-92574072D01*
G37*
D27*
X51012410Y-92379617D03*
D28*
G36*
X50641179Y-93139757D02*
G01*
X50252270Y-92750848D01*
X51383641Y-91619477D01*
X51772550Y-92008386D01*
X50641179Y-93139757D01*
X50641179Y-93139757D01*
G37*
D27*
X51578095Y-92945303D03*
D28*
G36*
X51206864Y-93705443D02*
G01*
X50817955Y-93316534D01*
X51949326Y-92185163D01*
X52338235Y-92574072D01*
X51206864Y-93705443D01*
X51206864Y-93705443D01*
G37*
D27*
X53628705Y-92945303D03*
D28*
G36*
X54388845Y-93316534D02*
G01*
X53999936Y-93705443D01*
X52868565Y-92574072D01*
X53257474Y-92185163D01*
X54388845Y-93316534D01*
X54388845Y-93316534D01*
G37*
D27*
X54194390Y-92379617D03*
D28*
G36*
X54954530Y-92750848D02*
G01*
X54565621Y-93139757D01*
X53434250Y-92008386D01*
X53823159Y-91619477D01*
X54954530Y-92750848D01*
X54954530Y-92750848D01*
G37*
D27*
X54760076Y-91813932D03*
D28*
G36*
X55520216Y-92185163D02*
G01*
X55131307Y-92574072D01*
X53999936Y-91442701D01*
X54388845Y-91053792D01*
X55520216Y-92185163D01*
X55520216Y-92185163D01*
G37*
D27*
X55325761Y-91248247D03*
D28*
G36*
X56085901Y-91619478D02*
G01*
X55696992Y-92008387D01*
X54565621Y-90877016D01*
X54954530Y-90488107D01*
X56085901Y-91619478D01*
X56085901Y-91619478D01*
G37*
D27*
X55891447Y-90682561D03*
D28*
G36*
X56651587Y-91053792D02*
G01*
X56262678Y-91442701D01*
X55131307Y-90311330D01*
X55520216Y-89922421D01*
X56651587Y-91053792D01*
X56651587Y-91053792D01*
G37*
D27*
X56457132Y-90116876D03*
D28*
G36*
X57217272Y-90488107D02*
G01*
X56828363Y-90877016D01*
X55696992Y-89745645D01*
X56085901Y-89356736D01*
X57217272Y-90488107D01*
X57217272Y-90488107D01*
G37*
D27*
X57022817Y-89551190D03*
D28*
G36*
X57782957Y-89922421D02*
G01*
X57394048Y-90311330D01*
X56262677Y-89179959D01*
X56651586Y-88791050D01*
X57782957Y-89922421D01*
X57782957Y-89922421D01*
G37*
D27*
X57588503Y-88985505D03*
D28*
G36*
X58348643Y-89356736D02*
G01*
X57959734Y-89745645D01*
X56828363Y-88614274D01*
X57217272Y-88225365D01*
X58348643Y-89356736D01*
X58348643Y-89356736D01*
G37*
D27*
X57588503Y-86934895D03*
D28*
G36*
X57217272Y-87695035D02*
G01*
X56828363Y-87306126D01*
X57959734Y-86174755D01*
X58348643Y-86563664D01*
X57217272Y-87695035D01*
X57217272Y-87695035D01*
G37*
D27*
X57022817Y-86369210D03*
D28*
G36*
X56651586Y-87129350D02*
G01*
X56262677Y-86740441D01*
X57394048Y-85609070D01*
X57782957Y-85997979D01*
X56651586Y-87129350D01*
X56651586Y-87129350D01*
G37*
D27*
X56457132Y-85803524D03*
D28*
G36*
X56085901Y-86563664D02*
G01*
X55696992Y-86174755D01*
X56828363Y-85043384D01*
X57217272Y-85432293D01*
X56085901Y-86563664D01*
X56085901Y-86563664D01*
G37*
D27*
X55891447Y-85237839D03*
D28*
G36*
X55520216Y-85997979D02*
G01*
X55131307Y-85609070D01*
X56262678Y-84477699D01*
X56651587Y-84866608D01*
X55520216Y-85997979D01*
X55520216Y-85997979D01*
G37*
D27*
X55325761Y-84672153D03*
D28*
G36*
X54954530Y-85432293D02*
G01*
X54565621Y-85043384D01*
X55696992Y-83912013D01*
X56085901Y-84300922D01*
X54954530Y-85432293D01*
X54954530Y-85432293D01*
G37*
D27*
X54760076Y-84106468D03*
D28*
G36*
X54388845Y-84866608D02*
G01*
X53999936Y-84477699D01*
X55131307Y-83346328D01*
X55520216Y-83735237D01*
X54388845Y-84866608D01*
X54388845Y-84866608D01*
G37*
D27*
X54194390Y-83540783D03*
D28*
G36*
X53823159Y-84300923D02*
G01*
X53434250Y-83912014D01*
X54565621Y-82780643D01*
X54954530Y-83169552D01*
X53823159Y-84300923D01*
X53823159Y-84300923D01*
G37*
D27*
X53628705Y-82975097D03*
D28*
G36*
X53257474Y-83735237D02*
G01*
X52868565Y-83346328D01*
X53999936Y-82214957D01*
X54388845Y-82603866D01*
X53257474Y-83735237D01*
X53257474Y-83735237D01*
G37*
D27*
X51578095Y-82975097D03*
D28*
G36*
X52338235Y-83346328D02*
G01*
X51949326Y-83735237D01*
X50817955Y-82603866D01*
X51206864Y-82214957D01*
X52338235Y-83346328D01*
X52338235Y-83346328D01*
G37*
D27*
X51012410Y-83540783D03*
D28*
G36*
X51772550Y-83912014D02*
G01*
X51383641Y-84300923D01*
X50252270Y-83169552D01*
X50641179Y-82780643D01*
X51772550Y-83912014D01*
X51772550Y-83912014D01*
G37*
D27*
X50446724Y-84106468D03*
D28*
G36*
X51206864Y-84477699D02*
G01*
X50817955Y-84866608D01*
X49686584Y-83735237D01*
X50075493Y-83346328D01*
X51206864Y-84477699D01*
X51206864Y-84477699D01*
G37*
D27*
X49881039Y-84672153D03*
D28*
G36*
X50641179Y-85043384D02*
G01*
X50252270Y-85432293D01*
X49120899Y-84300922D01*
X49509808Y-83912013D01*
X50641179Y-85043384D01*
X50641179Y-85043384D01*
G37*
D27*
X49315353Y-85237839D03*
D28*
G36*
X50075493Y-85609070D02*
G01*
X49686584Y-85997979D01*
X48555213Y-84866608D01*
X48944122Y-84477699D01*
X50075493Y-85609070D01*
X50075493Y-85609070D01*
G37*
D27*
X48749668Y-85803524D03*
D28*
G36*
X49509808Y-86174755D02*
G01*
X49120899Y-86563664D01*
X47989528Y-85432293D01*
X48378437Y-85043384D01*
X49509808Y-86174755D01*
X49509808Y-86174755D01*
G37*
D27*
X48183983Y-86369210D03*
D28*
G36*
X48944123Y-86740441D02*
G01*
X48555214Y-87129350D01*
X47423843Y-85997979D01*
X47812752Y-85609070D01*
X48944123Y-86740441D01*
X48944123Y-86740441D01*
G37*
D27*
X47618297Y-86934895D03*
D28*
G36*
X48378437Y-87306126D02*
G01*
X47989528Y-87695035D01*
X46858157Y-86563664D01*
X47247066Y-86174755D01*
X48378437Y-87306126D01*
X48378437Y-87306126D01*
G37*
D27*
X100887303Y-81574705D03*
D28*
G36*
X100127163Y-81203474D02*
G01*
X100516072Y-80814565D01*
X101647443Y-81945936D01*
X101258534Y-82334845D01*
X100127163Y-81203474D01*
X100127163Y-81203474D01*
G37*
D27*
X100321617Y-82140390D03*
D28*
G36*
X99561477Y-81769159D02*
G01*
X99950386Y-81380250D01*
X101081757Y-82511621D01*
X100692848Y-82900530D01*
X99561477Y-81769159D01*
X99561477Y-81769159D01*
G37*
D27*
X99755932Y-82706076D03*
D28*
G36*
X98995792Y-82334845D02*
G01*
X99384701Y-81945936D01*
X100516072Y-83077307D01*
X100127163Y-83466216D01*
X98995792Y-82334845D01*
X98995792Y-82334845D01*
G37*
D27*
X99190247Y-83271761D03*
D28*
G36*
X98430107Y-82900530D02*
G01*
X98819016Y-82511621D01*
X99950387Y-83642992D01*
X99561478Y-84031901D01*
X98430107Y-82900530D01*
X98430107Y-82900530D01*
G37*
D27*
X98624561Y-83837447D03*
D28*
G36*
X97864421Y-83466216D02*
G01*
X98253330Y-83077307D01*
X99384701Y-84208678D01*
X98995792Y-84597587D01*
X97864421Y-83466216D01*
X97864421Y-83466216D01*
G37*
D27*
X98058876Y-84403132D03*
D28*
G36*
X97298736Y-84031901D02*
G01*
X97687645Y-83642992D01*
X98819016Y-84774363D01*
X98430107Y-85163272D01*
X97298736Y-84031901D01*
X97298736Y-84031901D01*
G37*
D27*
X97493190Y-84968817D03*
D28*
G36*
X96733050Y-84597586D02*
G01*
X97121959Y-84208677D01*
X98253330Y-85340048D01*
X97864421Y-85728957D01*
X96733050Y-84597586D01*
X96733050Y-84597586D01*
G37*
D27*
X96927505Y-85534503D03*
D28*
G36*
X96167365Y-85163272D02*
G01*
X96556274Y-84774363D01*
X97687645Y-85905734D01*
X97298736Y-86294643D01*
X96167365Y-85163272D01*
X96167365Y-85163272D01*
G37*
D27*
X94876895Y-85534503D03*
D28*
G36*
X95248126Y-84774363D02*
G01*
X95637035Y-85163272D01*
X94505664Y-86294643D01*
X94116755Y-85905734D01*
X95248126Y-84774363D01*
X95248126Y-84774363D01*
G37*
D27*
X94311210Y-84968817D03*
D28*
G36*
X94682441Y-84208677D02*
G01*
X95071350Y-84597586D01*
X93939979Y-85728957D01*
X93551070Y-85340048D01*
X94682441Y-84208677D01*
X94682441Y-84208677D01*
G37*
D27*
X93745524Y-84403132D03*
D28*
G36*
X94116755Y-83642992D02*
G01*
X94505664Y-84031901D01*
X93374293Y-85163272D01*
X92985384Y-84774363D01*
X94116755Y-83642992D01*
X94116755Y-83642992D01*
G37*
D27*
X93179839Y-83837447D03*
D28*
G36*
X93551070Y-83077307D02*
G01*
X93939979Y-83466216D01*
X92808608Y-84597587D01*
X92419699Y-84208678D01*
X93551070Y-83077307D01*
X93551070Y-83077307D01*
G37*
D27*
X92614153Y-83271761D03*
D28*
G36*
X92985384Y-82511621D02*
G01*
X93374293Y-82900530D01*
X92242922Y-84031901D01*
X91854013Y-83642992D01*
X92985384Y-82511621D01*
X92985384Y-82511621D01*
G37*
D27*
X92048468Y-82706076D03*
D28*
G36*
X92419699Y-81945936D02*
G01*
X92808608Y-82334845D01*
X91677237Y-83466216D01*
X91288328Y-83077307D01*
X92419699Y-81945936D01*
X92419699Y-81945936D01*
G37*
D27*
X91482783Y-82140390D03*
D28*
G36*
X91854014Y-81380250D02*
G01*
X92242923Y-81769159D01*
X91111552Y-82900530D01*
X90722643Y-82511621D01*
X91854014Y-81380250D01*
X91854014Y-81380250D01*
G37*
D27*
X90917097Y-81574705D03*
D28*
G36*
X91288328Y-80814565D02*
G01*
X91677237Y-81203474D01*
X90545866Y-82334845D01*
X90156957Y-81945936D01*
X91288328Y-80814565D01*
X91288328Y-80814565D01*
G37*
D27*
X90917097Y-79524095D03*
D28*
G36*
X90156957Y-79152864D02*
G01*
X90545866Y-78763955D01*
X91677237Y-79895326D01*
X91288328Y-80284235D01*
X90156957Y-79152864D01*
X90156957Y-79152864D01*
G37*
D27*
X91482783Y-78958410D03*
D28*
G36*
X90722643Y-78587179D02*
G01*
X91111552Y-78198270D01*
X92242923Y-79329641D01*
X91854014Y-79718550D01*
X90722643Y-78587179D01*
X90722643Y-78587179D01*
G37*
D27*
X92048468Y-78392724D03*
D28*
G36*
X91288328Y-78021493D02*
G01*
X91677237Y-77632584D01*
X92808608Y-78763955D01*
X92419699Y-79152864D01*
X91288328Y-78021493D01*
X91288328Y-78021493D01*
G37*
D27*
X92614153Y-77827039D03*
D28*
G36*
X91854013Y-77455808D02*
G01*
X92242922Y-77066899D01*
X93374293Y-78198270D01*
X92985384Y-78587179D01*
X91854013Y-77455808D01*
X91854013Y-77455808D01*
G37*
D27*
X93179839Y-77261353D03*
D28*
G36*
X92419699Y-76890122D02*
G01*
X92808608Y-76501213D01*
X93939979Y-77632584D01*
X93551070Y-78021493D01*
X92419699Y-76890122D01*
X92419699Y-76890122D01*
G37*
D27*
X93745524Y-76695668D03*
D28*
G36*
X92985384Y-76324437D02*
G01*
X93374293Y-75935528D01*
X94505664Y-77066899D01*
X94116755Y-77455808D01*
X92985384Y-76324437D01*
X92985384Y-76324437D01*
G37*
D27*
X94311210Y-76129983D03*
D28*
G36*
X93551070Y-75758752D02*
G01*
X93939979Y-75369843D01*
X95071350Y-76501214D01*
X94682441Y-76890123D01*
X93551070Y-75758752D01*
X93551070Y-75758752D01*
G37*
D27*
X94876895Y-75564297D03*
D28*
G36*
X94116755Y-75193066D02*
G01*
X94505664Y-74804157D01*
X95637035Y-75935528D01*
X95248126Y-76324437D01*
X94116755Y-75193066D01*
X94116755Y-75193066D01*
G37*
D27*
X96927505Y-75564297D03*
D28*
G36*
X97298736Y-74804157D02*
G01*
X97687645Y-75193066D01*
X96556274Y-76324437D01*
X96167365Y-75935528D01*
X97298736Y-74804157D01*
X97298736Y-74804157D01*
G37*
D27*
X97493190Y-76129983D03*
D28*
G36*
X97864421Y-75369843D02*
G01*
X98253330Y-75758752D01*
X97121959Y-76890123D01*
X96733050Y-76501214D01*
X97864421Y-75369843D01*
X97864421Y-75369843D01*
G37*
D27*
X98058876Y-76695668D03*
D28*
G36*
X98430107Y-75935528D02*
G01*
X98819016Y-76324437D01*
X97687645Y-77455808D01*
X97298736Y-77066899D01*
X98430107Y-75935528D01*
X98430107Y-75935528D01*
G37*
D27*
X98624561Y-77261353D03*
D28*
G36*
X98995792Y-76501213D02*
G01*
X99384701Y-76890122D01*
X98253330Y-78021493D01*
X97864421Y-77632584D01*
X98995792Y-76501213D01*
X98995792Y-76501213D01*
G37*
D27*
X99190247Y-77827039D03*
D28*
G36*
X99561478Y-77066899D02*
G01*
X99950387Y-77455808D01*
X98819016Y-78587179D01*
X98430107Y-78198270D01*
X99561478Y-77066899D01*
X99561478Y-77066899D01*
G37*
D27*
X99755932Y-78392724D03*
D28*
G36*
X100127163Y-77632584D02*
G01*
X100516072Y-78021493D01*
X99384701Y-79152864D01*
X98995792Y-78763955D01*
X100127163Y-77632584D01*
X100127163Y-77632584D01*
G37*
D27*
X100321617Y-78958410D03*
D28*
G36*
X100692848Y-78198270D02*
G01*
X101081757Y-78587179D01*
X99950386Y-79718550D01*
X99561477Y-79329641D01*
X100692848Y-78198270D01*
X100692848Y-78198270D01*
G37*
D27*
X100887303Y-79524095D03*
D28*
G36*
X101258534Y-78763955D02*
G01*
X101647443Y-79152864D01*
X100516072Y-80284235D01*
X100127163Y-79895326D01*
X101258534Y-78763955D01*
X101258534Y-78763955D01*
G37*
D29*
X46926600Y-96359800D03*
X46926600Y-98559800D03*
X48526600Y-98559800D03*
X48526600Y-96359800D03*
X99555400Y-73236000D03*
X99555400Y-71036000D03*
X101155400Y-71036000D03*
X101155400Y-73236000D03*
D26*
X24993600Y-92075000D03*
X24993600Y-89585800D03*
X24993600Y-87096600D03*
X24942800Y-79298800D03*
X24942800Y-81788000D03*
X24942800Y-84277200D03*
D30*
X70942200Y-73050400D03*
X55194200Y-73558400D03*
X65862200Y-56794400D03*
X68148200Y-56794400D03*
X68148200Y-55016400D03*
X65862200Y-55016400D03*
X50876200Y-66446400D03*
X50622200Y-61620400D03*
X49606200Y-62636400D03*
X50622200Y-63652400D03*
X49606200Y-64668400D03*
X50622200Y-65430400D03*
X49606200Y-66446400D03*
X70688200Y-67462400D03*
X65100200Y-75082400D03*
X50114200Y-95351600D03*
X45135800Y-100558600D03*
X45135800Y-94157800D03*
X103022400Y-69088000D03*
X107035600Y-76657200D03*
X36753800Y-80111600D03*
X77825600Y-76835000D03*
X97815400Y-73685400D03*
X70434200Y-97510600D03*
X116789200Y-83134200D03*
X79375000Y-84963000D03*
X41935400Y-73507600D03*
X41935400Y-67868800D03*
X110667800Y-83870800D03*
X110718600Y-80441800D03*
X43891200Y-66497200D03*
X45694600Y-64617600D03*
X34112200Y-73456800D03*
X27330400Y-71882000D03*
X55613300Y-57348300D03*
X55664100Y-59939100D03*
X54686200Y-60096400D03*
X52654200Y-57048400D03*
X59766200Y-53746400D03*
X60782200Y-51968400D03*
X54533800Y-81280000D03*
X56134000Y-83032600D03*
X57734200Y-84607400D03*
X58902600Y-85801200D03*
X62763400Y-85699600D03*
X64389000Y-87172800D03*
X52308222Y-72535072D03*
X52628800Y-75895200D03*
X51638200Y-72898000D03*
X51663600Y-75768200D03*
X35229800Y-77165200D03*
X36550600Y-75819000D03*
X43053000Y-75819000D03*
X47345600Y-76911200D03*
X29184600Y-80416400D03*
X50749200Y-77216000D03*
X55203511Y-78905511D03*
X59368312Y-77867888D03*
X65659000Y-77698600D03*
X67894200Y-77673200D03*
X85725000Y-88671400D03*
X76352400Y-87909400D03*
X72186800Y-81395799D03*
X71932800Y-78841600D03*
X35585400Y-78105000D03*
X37109400Y-76606400D03*
X42519600Y-74930000D03*
X47498000Y-74549000D03*
X29133800Y-81762600D03*
X50774600Y-76276200D03*
X55067200Y-78155800D03*
X58631712Y-77131288D03*
X65235603Y-76878794D03*
X67767200Y-76733400D03*
X85293200Y-87172800D03*
X77952600Y-86258400D03*
X73583800Y-81395799D03*
X73025000Y-78689200D03*
X56642000Y-92583000D03*
X59740800Y-92303600D03*
X57277000Y-93319600D03*
X60325000Y-92989400D03*
D31*
X68148200Y-73050400D02*
X70942200Y-73050400D01*
X56888200Y-73558400D02*
X55194200Y-73558400D01*
X63256200Y-53746400D02*
X63256200Y-54974400D01*
X63256200Y-54974400D02*
X63830200Y-55548400D01*
X68148200Y-73050400D02*
X67957700Y-73050400D01*
X63830200Y-55548400D02*
X65330200Y-55548400D01*
X68148200Y-55016400D02*
X68148200Y-56794400D01*
X65330200Y-55548400D02*
X65862200Y-55016400D01*
X50876200Y-66446400D02*
X49606200Y-66446400D01*
X51130200Y-66700400D02*
X50876200Y-66446400D01*
X52670200Y-66700400D02*
X51130200Y-66700400D01*
X50368200Y-61366400D02*
X50368200Y-60350400D01*
X50622200Y-61620400D02*
X50368200Y-61366400D01*
X50622200Y-63652400D02*
X49606200Y-62636400D01*
X49860200Y-64668400D02*
X49606200Y-64668400D01*
X50622200Y-65430400D02*
X49860200Y-64668400D01*
X70688200Y-65514400D02*
X70688200Y-67462400D01*
D32*
X77843200Y-74507800D02*
X77843200Y-73202800D01*
X77843200Y-75260200D02*
X77843200Y-74507800D01*
X77843200Y-72450400D02*
X77843200Y-71120000D01*
X77843200Y-73202800D02*
X77843200Y-72450400D01*
X70416600Y-94081600D02*
X70416600Y-95935800D01*
X46826600Y-98459800D02*
X46926600Y-98559800D01*
X45059600Y-98459800D02*
X46826600Y-98459800D01*
X46926600Y-100434800D02*
X46828200Y-100533200D01*
X46926600Y-98559800D02*
X46926600Y-100434800D01*
D31*
X48113273Y-90753271D02*
X46678729Y-90753271D01*
X45101000Y-92331000D02*
X45101000Y-92456000D01*
X46678729Y-90753271D02*
X45101000Y-92331000D01*
X48749668Y-90116876D02*
X48113273Y-90753271D01*
D32*
X49434800Y-95351600D02*
X50114200Y-95351600D01*
X48526600Y-96259800D02*
X49434800Y-95351600D01*
X48526600Y-96359800D02*
X48526600Y-96259800D01*
X45161200Y-100533200D02*
X45135800Y-100558600D01*
X46828200Y-100533200D02*
X45161200Y-100533200D01*
X45101000Y-93233400D02*
X45085000Y-93249400D01*
X45101000Y-92456000D02*
X45101000Y-93233400D01*
X45085000Y-94107000D02*
X45135800Y-94157800D01*
X45085000Y-93249400D02*
X45085000Y-94107000D01*
X101280800Y-71161400D02*
X101155400Y-71036000D01*
X103047800Y-71161400D02*
X101280800Y-71161400D01*
X101155400Y-69262600D02*
X101330000Y-69088000D01*
X101155400Y-71036000D02*
X101155400Y-69262600D01*
X101330000Y-69088000D02*
X103022400Y-69088000D01*
X105775000Y-76782200D02*
X105775000Y-76657200D01*
X104800871Y-77756329D02*
X105775000Y-76782200D01*
X100392327Y-77756329D02*
X104800871Y-77756329D01*
X99755932Y-78392724D02*
X100392327Y-77756329D01*
X105775000Y-76657200D02*
X107035600Y-76657200D01*
X36779200Y-80137000D02*
X36753800Y-80111600D01*
X37988200Y-80137000D02*
X36779200Y-80137000D01*
X77843200Y-76817400D02*
X77825600Y-76835000D01*
X77843200Y-75260200D02*
X77843200Y-76817400D01*
X98264800Y-73236000D02*
X97815400Y-73685400D01*
X99555400Y-73236000D02*
X98264800Y-73236000D01*
X70416600Y-97493000D02*
X70434200Y-97510600D01*
X70416600Y-95935800D02*
X70416600Y-97493000D01*
X115173800Y-83134200D02*
X116789200Y-83134200D01*
D31*
X63755200Y-70383400D02*
X63755200Y-73409400D01*
X63755200Y-73409400D02*
X63606200Y-73558400D01*
X63606200Y-73558400D02*
X63002200Y-73558400D01*
X82589599Y-85485199D02*
X81889600Y-84785200D01*
X82869001Y-85764601D02*
X82589599Y-85485199D01*
X87858572Y-85764601D02*
X82869001Y-85764601D01*
X91482783Y-82140390D02*
X87858572Y-85764601D01*
X92119178Y-81503995D02*
X91482783Y-82140390D01*
X96931086Y-80086200D02*
X93536973Y-80086200D01*
X93536973Y-80086200D02*
X92119178Y-81503995D01*
X99190247Y-77827039D02*
X96931086Y-80086200D01*
X49315353Y-90995647D02*
X49315353Y-90682561D01*
X47855000Y-92456000D02*
X49315353Y-90995647D01*
X47101000Y-92456000D02*
X47855000Y-92456000D01*
D32*
X57659212Y-85732815D02*
X57022817Y-86369210D01*
X64209028Y-79182999D02*
X57659212Y-85732815D01*
X68362599Y-79182999D02*
X64209028Y-79182999D01*
X69291200Y-80111600D02*
X68362599Y-79182999D01*
D31*
X100360086Y-76657200D02*
X103775000Y-76657200D01*
X99190247Y-77827039D02*
X100360086Y-76657200D01*
X65684401Y-76504801D02*
X69291200Y-80111600D01*
X65684401Y-74801983D02*
X65684401Y-76504801D01*
X64440818Y-73558400D02*
X65684401Y-74801983D01*
X63002200Y-73558400D02*
X64440818Y-73558400D01*
X69991199Y-80811599D02*
X75223599Y-80811599D01*
X69291200Y-80111600D02*
X69991199Y-80811599D01*
X75223599Y-80811599D02*
X79375000Y-84963000D01*
X44312800Y-76123800D02*
X44338200Y-76149200D01*
X44312800Y-74168000D02*
X44312800Y-76123800D01*
X44338200Y-78155800D02*
X44338200Y-76149200D01*
X42595800Y-74168000D02*
X41935400Y-73507600D01*
X44312800Y-74168000D02*
X42595800Y-74168000D01*
X41935400Y-73507600D02*
X41935400Y-73507600D01*
X45480522Y-67868800D02*
X53710122Y-76098400D01*
X60762200Y-76098400D02*
X63002200Y-73858400D01*
X63002200Y-73858400D02*
X63002200Y-73558400D01*
X53710122Y-76098400D02*
X60762200Y-76098400D01*
D32*
X108823800Y-86019400D02*
X108823800Y-87198200D01*
X108823800Y-85217000D02*
X108823800Y-86019400D01*
X108823800Y-88351600D02*
X108823800Y-87198200D01*
X108823800Y-89154000D02*
X108823800Y-88351600D01*
X109870000Y-83870800D02*
X110667800Y-83870800D01*
X108823800Y-84917000D02*
X109870000Y-83870800D01*
X108823800Y-85217000D02*
X108823800Y-84917000D01*
X104503601Y-75803599D02*
X103775000Y-76532200D01*
X103775000Y-76532200D02*
X103775000Y-76657200D01*
X106971433Y-75803599D02*
X104503601Y-75803599D01*
X110718600Y-79550766D02*
X106971433Y-75803599D01*
X110718600Y-80441800D02*
X110718600Y-79550766D01*
D31*
X82600800Y-94005400D02*
X82651600Y-94056200D01*
X82600800Y-90119200D02*
X82600800Y-94005400D01*
X82600800Y-88188800D02*
X79375000Y-84963000D01*
X82600800Y-90119200D02*
X82600800Y-88188800D01*
X43688000Y-66700400D02*
X43891200Y-66497200D01*
X43688000Y-67868800D02*
X43688000Y-66700400D01*
X41935400Y-67868800D02*
X43688000Y-67868800D01*
X43688000Y-67868800D02*
X45480522Y-67868800D01*
X45694600Y-56311800D02*
X45542200Y-56159400D01*
X45694600Y-64617600D02*
X45694600Y-56311800D01*
X56386422Y-87005605D02*
X57022817Y-86369210D01*
X51732914Y-88265000D02*
X55127027Y-88265000D01*
X55127027Y-88265000D02*
X56386422Y-87005605D01*
X49315353Y-90682561D02*
X51732914Y-88265000D01*
X116219570Y-75234800D02*
X117297200Y-75234800D01*
X104318400Y-75234800D02*
X116219570Y-75234800D01*
X103775000Y-75778200D02*
X104318400Y-75234800D01*
X103775000Y-76657200D02*
X103775000Y-75778200D01*
X34163000Y-73507600D02*
X34112200Y-73456800D01*
X41935400Y-73507600D02*
X34163000Y-73507600D01*
X27330400Y-79400400D02*
X24942800Y-81788000D01*
X27330400Y-71882000D02*
X27330400Y-79400400D01*
X61102200Y-73558400D02*
X59088200Y-73558400D01*
D32*
X66751200Y-80964000D02*
X66751200Y-80111600D01*
X67679801Y-81892601D02*
X66751200Y-80964000D01*
X67679801Y-83097329D02*
X67679801Y-81892601D01*
X67196929Y-83580201D02*
X67679801Y-83097329D01*
X66279799Y-83580201D02*
X67196929Y-83580201D01*
X61139659Y-88720341D02*
X66279799Y-83580201D01*
X57853667Y-88720341D02*
X61139659Y-88720341D01*
X57588503Y-88985505D02*
X57853667Y-88720341D01*
X62467905Y-86934895D02*
X66751200Y-82651600D01*
X57588503Y-86934895D02*
X62467905Y-86934895D01*
D33*
X63240100Y-58465900D02*
X63290100Y-58415900D01*
D31*
X59540100Y-56265900D02*
X59540100Y-55552300D01*
X59020200Y-55032400D02*
X57480200Y-55032400D01*
X59540100Y-55552300D02*
X59020200Y-55032400D01*
X57670700Y-57065900D02*
X55895700Y-57065900D01*
X55895700Y-57065900D02*
X55613300Y-57348300D01*
X55664100Y-59939100D02*
X57344900Y-61619900D01*
X57344900Y-61619900D02*
X58750200Y-60858400D01*
X56973700Y-61619900D02*
X58750200Y-60858400D01*
D34*
X58775600Y-60833000D02*
X58750200Y-60858400D01*
D35*
X58775600Y-60833000D02*
X58750200Y-60858400D01*
D33*
X58775600Y-60833000D02*
X58750200Y-60858400D01*
D36*
X58775600Y-60833000D02*
X58750200Y-60858400D01*
D37*
X58775600Y-60833000D02*
X58750200Y-60858400D01*
X58775600Y-60833000D02*
X58750200Y-60858400D01*
D35*
X58775600Y-60833000D02*
X58750200Y-60858400D01*
D33*
X58775600Y-60833000D02*
X58750200Y-60858400D01*
D37*
X58775600Y-60833000D02*
X58750200Y-60858400D01*
D31*
X54178200Y-56728400D02*
X52974200Y-56728400D01*
X54420200Y-60362400D02*
X54420200Y-62057400D01*
X54686200Y-60096400D02*
X54420200Y-60362400D01*
X52974200Y-56728400D02*
X52654200Y-57048400D01*
D34*
X60282200Y-66502400D02*
X60464700Y-66319900D01*
X56896700Y-66319900D02*
X60464700Y-66319900D01*
D38*
X54920200Y-61415400D02*
X54920200Y-62057400D01*
D31*
X70876200Y-60858400D02*
X70876200Y-63126400D01*
X70876200Y-63126400D02*
X70688200Y-63314400D01*
X66770700Y-64715900D02*
X66770700Y-67799400D01*
X66770700Y-67799400D02*
X67957700Y-68986400D01*
X67957700Y-68986400D02*
X68148200Y-68986400D01*
X70876200Y-58826400D02*
X70876200Y-54188400D01*
X60490100Y-54470300D02*
X60490100Y-56265900D01*
X59766200Y-53746400D02*
X60490100Y-54470300D01*
X68656200Y-51968400D02*
X60782200Y-51968400D01*
X70876200Y-54188400D02*
X68656200Y-51968400D01*
X61440100Y-56265900D02*
X61440100Y-53896300D01*
X54178200Y-53746400D02*
X54178200Y-54828400D01*
X54940200Y-52984400D02*
X54178200Y-53746400D01*
X60528200Y-52984400D02*
X54940200Y-52984400D01*
X61440100Y-53896300D02*
X60528200Y-52984400D01*
X61451200Y-56254800D02*
X61440100Y-56265900D01*
D32*
X46826600Y-96459800D02*
X46926600Y-96359800D01*
X45059600Y-96459800D02*
X46826600Y-96459800D01*
X46926600Y-96259800D02*
X50170388Y-93016012D01*
X50376015Y-93016012D02*
X51012410Y-92379617D01*
X50170388Y-93016012D02*
X50376015Y-93016012D01*
X46926600Y-96359800D02*
X46926600Y-96259800D01*
X96927505Y-75075388D02*
X96927505Y-75564297D01*
X98803000Y-71036000D02*
X96927505Y-72911495D01*
X96927505Y-72911495D02*
X96927505Y-75075388D01*
X99555400Y-71036000D02*
X98803000Y-71036000D01*
X99330000Y-70810600D02*
X99555400Y-71036000D01*
X99330000Y-69088000D02*
X99330000Y-70810600D01*
X48526600Y-100231600D02*
X48828200Y-100533200D01*
X48526600Y-98559800D02*
X48526600Y-100231600D01*
X51578095Y-96260705D02*
X51578095Y-93434212D01*
X51578095Y-93434212D02*
X51578095Y-92945303D01*
X49279000Y-98559800D02*
X51578095Y-96260705D01*
X48526600Y-98559800D02*
X49279000Y-98559800D01*
X98129585Y-75493588D02*
X97493190Y-76129983D01*
X98997812Y-75493588D02*
X98129585Y-75493588D01*
X101155400Y-73336000D02*
X98997812Y-75493588D01*
X101155400Y-73236000D02*
X101155400Y-73336000D01*
X101230000Y-73161400D02*
X101155400Y-73236000D01*
X103047800Y-73161400D02*
X101230000Y-73161400D01*
X80094000Y-71069200D02*
X80043200Y-71120000D01*
X84648000Y-71069200D02*
X80094000Y-71069200D01*
X80246400Y-72999600D02*
X80043200Y-73202800D01*
X84673400Y-72999600D02*
X80246400Y-72999600D01*
X80195600Y-75107800D02*
X80043200Y-75260200D01*
X84648000Y-75107800D02*
X80195600Y-75107800D01*
X68165800Y-95986600D02*
X68216600Y-95935800D01*
X66456600Y-95986600D02*
X68165800Y-95986600D01*
D39*
X73533000Y-68986400D02*
X76809600Y-65709800D01*
X68148200Y-68986400D02*
X73533000Y-68986400D01*
D32*
X68191200Y-94056200D02*
X68216600Y-94081600D01*
X66456600Y-94056200D02*
X68191200Y-94056200D01*
X48920368Y-81137968D02*
X46238200Y-78455800D01*
X48938168Y-84160348D02*
X48920368Y-84142548D01*
X48892289Y-84395617D02*
X48892289Y-84206227D01*
X49022000Y-84525328D02*
X48892289Y-84395617D01*
X46238200Y-78455800D02*
X46238200Y-78155800D01*
X49022000Y-84944486D02*
X49022000Y-84525328D01*
X48920368Y-84142548D02*
X48920368Y-81137968D01*
X48892289Y-84206227D02*
X48938168Y-84160348D01*
X49315353Y-85237839D02*
X49022000Y-84944486D01*
X52566845Y-83246955D02*
X54533800Y-81280000D01*
X52566845Y-83441023D02*
X52566845Y-83246955D01*
X50133634Y-85874234D02*
X52566845Y-83441023D01*
X49951748Y-85874234D02*
X50133634Y-85874234D01*
X49315353Y-85237839D02*
X49951748Y-85874234D01*
X57708800Y-84607400D02*
X57734200Y-84607400D01*
X56134000Y-83032600D02*
X57708800Y-84607400D01*
X62661800Y-85801200D02*
X62763400Y-85699600D01*
X58902600Y-85801200D02*
X62661800Y-85801200D01*
X66370200Y-85191600D02*
X66751200Y-85191600D01*
X64389000Y-87172800D02*
X66370200Y-85191600D01*
X68591201Y-83351599D02*
X69291200Y-82651600D01*
X68057789Y-83885011D02*
X68591201Y-83351599D01*
X60409015Y-90187585D02*
X66711589Y-83885011D01*
X66711589Y-83885011D02*
X68057789Y-83885011D01*
X57659212Y-90187585D02*
X60409015Y-90187585D01*
X57022817Y-89551190D02*
X57659212Y-90187585D01*
X42104750Y-62331600D02*
X52308222Y-72535072D01*
X31750000Y-62331600D02*
X42104750Y-62331600D01*
X58785800Y-81183200D02*
X58785800Y-81483200D01*
X59389801Y-80579199D02*
X58785800Y-81183200D01*
X59389801Y-78643719D02*
X59389801Y-80579199D01*
X57200092Y-76454010D02*
X59389801Y-78643719D01*
X53187610Y-76454010D02*
X57200092Y-76454010D01*
X52628800Y-75895200D02*
X53187610Y-76454010D01*
X43611800Y-64871600D02*
X51638200Y-72898000D01*
X31750000Y-64871600D02*
X43611800Y-64871600D01*
X51663600Y-75768200D02*
X53517800Y-77622400D01*
X58308800Y-79476600D02*
X58811200Y-79476600D01*
X56454600Y-77622400D02*
X58308800Y-79476600D01*
X53517800Y-77622400D02*
X56454600Y-77622400D01*
D31*
X34442400Y-70104000D02*
X31750000Y-67411600D01*
X44312800Y-70104000D02*
X34442400Y-70104000D01*
X33934400Y-72136000D02*
X31750000Y-69951600D01*
X44312800Y-72136000D02*
X33934400Y-72136000D01*
D32*
X44555683Y-79034401D02*
X38292801Y-79034401D01*
X38292801Y-79034401D02*
X32599999Y-73341599D01*
X44916801Y-79395519D02*
X44555683Y-79034401D01*
X44916801Y-84175599D02*
X44916801Y-79395519D01*
X44840600Y-84251800D02*
X44916801Y-84175599D01*
X32599999Y-73341599D02*
X31750000Y-72491600D01*
X44338200Y-84251800D02*
X44840600Y-84251800D01*
X41696081Y-91124801D02*
X40680401Y-91124801D01*
X41741801Y-91079081D02*
X41696081Y-91124801D01*
X41214000Y-88940400D02*
X41741801Y-89468201D01*
X41741801Y-89468201D02*
X41741801Y-91079081D01*
X41214000Y-88138000D02*
X41214000Y-88940400D01*
X31106014Y-89115010D02*
X29997400Y-88006396D01*
X38670611Y-89115011D02*
X31106014Y-89115010D01*
X40680401Y-91124801D02*
X38670611Y-89115011D01*
X29997400Y-76784200D02*
X31750000Y-75031600D01*
X29997400Y-88006396D02*
X29997400Y-76784200D01*
X31140400Y-78181200D02*
X31750000Y-77571600D01*
X30671399Y-79412201D02*
X31013400Y-79070200D01*
X30671399Y-88249329D02*
X30671399Y-79412201D01*
X31140400Y-78486000D02*
X31140400Y-78181200D01*
X31013400Y-79070200D02*
X31013400Y-78613000D01*
X31232271Y-88810201D02*
X30671399Y-88249329D01*
X39224801Y-88810201D02*
X31232271Y-88810201D01*
X31013400Y-78613000D02*
X31140400Y-78486000D01*
X40660800Y-90246200D02*
X39224801Y-88810201D01*
X41163200Y-90246200D02*
X40660800Y-90246200D01*
X101985314Y-87198200D02*
X98624561Y-83837447D01*
X106923800Y-87198200D02*
X101985314Y-87198200D01*
X49881039Y-84672153D02*
X49225178Y-84016292D01*
X49225178Y-84016292D02*
X49225178Y-79436178D01*
X49225178Y-79436178D02*
X46238200Y-76449200D01*
X46238200Y-76449200D02*
X46238200Y-76149200D01*
X34696400Y-77165200D02*
X35229800Y-77165200D01*
X31750000Y-80111600D02*
X34696400Y-77165200D01*
X36550600Y-75819000D02*
X43053000Y-75819000D01*
X46287629Y-76099771D02*
X47143771Y-76099771D01*
X46238200Y-76149200D02*
X46287629Y-76099771D01*
D31*
X29184600Y-62694078D02*
X29184600Y-80416400D01*
X32854001Y-61202199D02*
X30676479Y-61202199D01*
X30676479Y-61202199D02*
X29184600Y-62694078D01*
X37896800Y-56159400D02*
X32854001Y-61202199D01*
D32*
X47345600Y-76301600D02*
X47345600Y-76911200D01*
X47143771Y-76099771D02*
X47345600Y-76301600D01*
X52438711Y-78905511D02*
X55203511Y-78905511D01*
X50749200Y-77216000D02*
X52438711Y-78905511D01*
X65489712Y-77867888D02*
X65659000Y-77698600D01*
X59368312Y-77867888D02*
X65489712Y-77867888D01*
X87086201Y-90032601D02*
X85725000Y-88671400D01*
X107502401Y-89986881D02*
X107456681Y-90032601D01*
X106923800Y-87198200D02*
X106923800Y-87498200D01*
X107456681Y-90032601D02*
X87086201Y-90032601D01*
X107502401Y-88076801D02*
X107502401Y-89986881D01*
X106923800Y-87498200D02*
X107502401Y-88076801D01*
X76352400Y-85561399D02*
X72186800Y-81395799D01*
X76352400Y-87909400D02*
X76352400Y-85561399D01*
X70764400Y-77673200D02*
X67894200Y-77673200D01*
X71932800Y-78841600D02*
X70764400Y-77673200D01*
X102809744Y-89154000D02*
X98058876Y-84403132D01*
X106923800Y-89154000D02*
X102809744Y-89154000D01*
X49529989Y-77785189D02*
X46212800Y-74468000D01*
X49529989Y-83189733D02*
X49529989Y-77785189D01*
X46212800Y-74468000D02*
X46212800Y-74168000D01*
X50446724Y-84106468D02*
X49529989Y-83189733D01*
X35585400Y-78816200D02*
X35585400Y-78105000D01*
X31750000Y-82651600D02*
X35585400Y-78816200D01*
X37109400Y-76606400D02*
X43055034Y-76606400D01*
X43586401Y-76075033D02*
X43586401Y-75562967D01*
X43055034Y-76606400D02*
X43586401Y-76075033D01*
X42953434Y-74930000D02*
X42519600Y-74930000D01*
X43586401Y-75562967D02*
X42953434Y-74930000D01*
X47039429Y-74090429D02*
X47498000Y-74549000D01*
X46290371Y-74090429D02*
X47039429Y-74090429D01*
X46212800Y-74168000D02*
X46290371Y-74090429D01*
D31*
X28600399Y-81229199D02*
X29133800Y-81762600D01*
X34382529Y-56921399D02*
X28600399Y-62703529D01*
X28600399Y-62703529D02*
X28600399Y-81229199D01*
X34645601Y-56921399D02*
X34382529Y-56921399D01*
X35407600Y-56159400D02*
X34645601Y-56921399D01*
D32*
X52654200Y-78155800D02*
X55067200Y-78155800D01*
X50774600Y-76276200D02*
X52654200Y-78155800D01*
X64983109Y-77131288D02*
X65235603Y-76878794D01*
X58631712Y-77131288D02*
X64983109Y-77131288D01*
X87274400Y-89154000D02*
X85293200Y-87172800D01*
X102809744Y-89154000D02*
X87274400Y-89154000D01*
X73583800Y-81889600D02*
X73583800Y-81395799D01*
X77952600Y-86258400D02*
X73583800Y-81889600D01*
X71069200Y-76733400D02*
X67767200Y-76733400D01*
X73025000Y-78689200D02*
X71069200Y-76733400D01*
X39964400Y-80213200D02*
X39888200Y-80137000D01*
X44323000Y-80213200D02*
X39964400Y-80213200D01*
X32952081Y-85191600D02*
X31750000Y-85191600D01*
X35636000Y-85191600D02*
X32952081Y-85191600D01*
X39888200Y-80939400D02*
X35636000Y-85191600D01*
X39888200Y-80137000D02*
X39888200Y-80939400D01*
X32952081Y-87731600D02*
X31750000Y-87731600D01*
X38324000Y-87731600D02*
X32952081Y-87731600D01*
X43835800Y-82219800D02*
X38324000Y-87731600D01*
X44338200Y-82219800D02*
X43835800Y-82219800D01*
X37517834Y-96039434D02*
X31750000Y-90271600D01*
X51932199Y-101386801D02*
X40782401Y-101386801D01*
X37517834Y-98122234D02*
X37517834Y-96039434D01*
X40782401Y-101386801D02*
X37517834Y-98122234D01*
X54737000Y-98582000D02*
X51932199Y-101386801D01*
X54737000Y-98079600D02*
X54737000Y-98582000D01*
X32599999Y-93661599D02*
X31750000Y-92811600D01*
X40630011Y-101691611D02*
X32599999Y-93661599D01*
X52780789Y-101691611D02*
X40630011Y-101691611D01*
X56392800Y-98079600D02*
X52780789Y-101691611D01*
X56692800Y-98079600D02*
X56392800Y-98079600D01*
D31*
X84429600Y-84759800D02*
X84429600Y-84785200D01*
D32*
X84429600Y-83932800D02*
X84429600Y-84785200D01*
X82981800Y-81864200D02*
X82981800Y-82485000D01*
X87276397Y-78663800D02*
X85001585Y-80938612D01*
X82981800Y-82485000D02*
X84429600Y-83932800D01*
X85001585Y-80938612D02*
X83907388Y-80938612D01*
X90056802Y-78663800D02*
X87276397Y-78663800D01*
X83907388Y-80938612D02*
X82981800Y-81864200D01*
X90917097Y-79524095D02*
X90056802Y-78663800D01*
X84429600Y-81991200D02*
X84429600Y-82245200D01*
X87452200Y-78968600D02*
X84429600Y-81991200D01*
X88310992Y-78968600D02*
X87452200Y-78968600D01*
X90917097Y-81574705D02*
X88310992Y-78968600D01*
X82589599Y-81545201D02*
X81889600Y-82245200D01*
X91482783Y-78958410D02*
X90846388Y-78322015D01*
X87187115Y-78322015D02*
X84875329Y-80633801D01*
X90846388Y-78322015D02*
X87187115Y-78322015D01*
X84875329Y-80633801D02*
X83500999Y-80633801D01*
X83500999Y-80633801D02*
X82589599Y-81545201D01*
X98371966Y-82635366D02*
X98553852Y-82635366D01*
X95938755Y-85068577D02*
X98371966Y-82635366D01*
X82253323Y-86523253D02*
X94600359Y-86523253D01*
X80960999Y-81799471D02*
X80960999Y-85230929D01*
X80960999Y-85230929D02*
X82253323Y-86523253D01*
X81443871Y-81316599D02*
X80960999Y-81799471D01*
X95938755Y-85184857D02*
X95938755Y-85068577D01*
X81652531Y-81316599D02*
X81443871Y-81316599D01*
X98553852Y-82635366D02*
X99190247Y-83271761D01*
X94600359Y-86523253D02*
X95938755Y-85184857D01*
X83263930Y-79705200D02*
X81652531Y-81316599D01*
X84429600Y-79705200D02*
X83263930Y-79705200D01*
X101135486Y-85217000D02*
X99190247Y-83271761D01*
X106923800Y-85217000D02*
X101135486Y-85217000D01*
X108950800Y-83134200D02*
X108823800Y-83261200D01*
X113273800Y-83134200D02*
X108950800Y-83134200D01*
X113784156Y-83134200D02*
X113273800Y-83134200D01*
X118872000Y-71653400D02*
X118872000Y-78046356D01*
X118872000Y-78046356D02*
X113784156Y-83134200D01*
X117297200Y-70078600D02*
X118872000Y-71653400D01*
X112445800Y-81280000D02*
X112776000Y-81280000D01*
X108798400Y-81280000D02*
X112445800Y-81280000D01*
X115207290Y-81280000D02*
X112445800Y-81280000D01*
X118287801Y-78199489D02*
X115207290Y-81280000D01*
X116821711Y-71069201D02*
X117086891Y-71069201D01*
X117086891Y-71069201D02*
X118287801Y-72270111D01*
X118287801Y-72270111D02*
X118287801Y-78199489D01*
X116306599Y-68580001D02*
X116306599Y-70554089D01*
X116306599Y-70554089D02*
X116821711Y-71069201D01*
X117297200Y-67589400D02*
X116306599Y-68580001D01*
X56642000Y-92564486D02*
X56642000Y-92583000D01*
X55325761Y-91248247D02*
X56642000Y-92564486D01*
X79349601Y-90881199D02*
X80111600Y-90119200D01*
X79120999Y-91109801D02*
X79349601Y-90881199D01*
X60934600Y-91109800D02*
X79120999Y-91109801D01*
X59740800Y-92303600D02*
X60934600Y-91109800D01*
X56265744Y-93319600D02*
X57277000Y-93319600D01*
X54760076Y-91813932D02*
X56265744Y-93319600D01*
X60325000Y-92989400D02*
X61442600Y-91871800D01*
X77978000Y-91871800D02*
X61442600Y-91871800D01*
X80162400Y-94056200D02*
X77978000Y-91871800D01*
X61195486Y-95986600D02*
X61077743Y-95868857D01*
X61077743Y-95868857D02*
X61119286Y-95910400D01*
X64556600Y-95986600D02*
X61195486Y-95986600D01*
X55891447Y-90682561D02*
X61077743Y-95868857D01*
X46212800Y-72436000D02*
X46212800Y-72136000D01*
X49834800Y-76058000D02*
X46212800Y-72436000D01*
X49834800Y-82363173D02*
X49834800Y-76058000D01*
X51012410Y-83540783D02*
X49834800Y-82363173D01*
X46238200Y-85554798D02*
X46238200Y-84251800D01*
X47618297Y-86934895D02*
X46238200Y-85554798D01*
X46770792Y-88138000D02*
X47618297Y-88985505D01*
X43114000Y-88138000D02*
X46770792Y-88138000D01*
X54737000Y-94053598D02*
X54737000Y-96179600D01*
X53628705Y-92945303D02*
X54737000Y-94053598D01*
X56692800Y-94878027D02*
X56692800Y-96179600D01*
X54194390Y-92379617D02*
X56692800Y-94878027D01*
X46223000Y-80513200D02*
X46223000Y-80213200D01*
X48113273Y-85167129D02*
X48113273Y-82403473D01*
X48113273Y-82403473D02*
X46223000Y-80513200D01*
X48749668Y-85803524D02*
X48113273Y-85167129D01*
X87050400Y-71069200D02*
X93179839Y-77198639D01*
X93179839Y-77198639D02*
X93179839Y-77261353D01*
X86548000Y-71069200D02*
X87050400Y-71069200D01*
X87786714Y-72999600D02*
X92614153Y-77827039D01*
X86573400Y-72999600D02*
X87786714Y-72999600D01*
X88763544Y-75107800D02*
X92048468Y-78392724D01*
X86548000Y-75107800D02*
X88763544Y-75107800D01*
X100958012Y-82776785D02*
X100321617Y-82140390D01*
X101139899Y-82776785D02*
X100958012Y-82776785D01*
X102636684Y-81280000D02*
X101139899Y-82776785D01*
X106898400Y-81280000D02*
X102636684Y-81280000D01*
X100311056Y-83261200D02*
X99755932Y-82706076D01*
X106923800Y-83261200D02*
X100311056Y-83261200D01*
X60320256Y-93980000D02*
X56457132Y-90116876D01*
X60396456Y-94056200D02*
X60320256Y-93980000D01*
X64556600Y-94056200D02*
X60396456Y-94056200D01*
X56251973Y-81483200D02*
X54194390Y-83540783D01*
X56885800Y-81483200D02*
X56251973Y-81483200D01*
X53712703Y-82975097D02*
X53628705Y-82975097D01*
X56911200Y-79776600D02*
X53712703Y-82975097D01*
X56911200Y-79476600D02*
X56911200Y-79776600D01*
X50139600Y-74330800D02*
X46212800Y-70404000D01*
X50139600Y-81536602D02*
X50139600Y-74330800D01*
X51578095Y-82975097D02*
X50139600Y-81536602D01*
X46238200Y-82519800D02*
X46238200Y-82219800D01*
X47752000Y-85937227D02*
X47752000Y-84033600D01*
X47752000Y-84033600D02*
X46238200Y-82519800D01*
X48183983Y-86369210D02*
X47752000Y-85937227D01*
X47488973Y-90246200D02*
X43063200Y-90246200D01*
X48183983Y-89551190D02*
X47488973Y-90246200D01*
D31*
G36*
X65074200Y-69963006D02*
G01*
X65074200Y-74142600D01*
X65007638Y-74142600D01*
X64826071Y-74178716D01*
X64655038Y-74249560D01*
X64501113Y-74352410D01*
X64470123Y-74383400D01*
X63028200Y-74383400D01*
X63028200Y-68937400D01*
X64048594Y-68937400D01*
X65074200Y-69963006D01*
X65074200Y-69963006D01*
G37*
X65074200Y-69963006D02*
X65074200Y-74142600D01*
X65007638Y-74142600D01*
X64826071Y-74178716D01*
X64655038Y-74249560D01*
X64501113Y-74352410D01*
X64470123Y-74383400D01*
X63028200Y-74383400D01*
X63028200Y-68937400D01*
X64048594Y-68937400D01*
X65074200Y-69963006D01*
G36*
X68074200Y-70083400D02*
G01*
X66653806Y-70083400D01*
X65528200Y-68957794D01*
X65528200Y-64337400D01*
X68074200Y-64337400D01*
X68074200Y-70083400D01*
X68074200Y-70083400D01*
G37*
X68074200Y-70083400D02*
X66653806Y-70083400D01*
X65528200Y-68957794D01*
X65528200Y-64337400D01*
X68074200Y-64337400D01*
X68074200Y-70083400D01*
G36*
X69074200Y-62133400D02*
G01*
X65528200Y-62133400D01*
X65528200Y-59960400D01*
X65525760Y-59935624D01*
X65518533Y-59911799D01*
X65506797Y-59889843D01*
X65491003Y-59870597D01*
X64941003Y-59320597D01*
X64921757Y-59304803D01*
X64899801Y-59293067D01*
X64875976Y-59285840D01*
X64851200Y-59283400D01*
X61683584Y-59283400D01*
X61228200Y-59035008D01*
X61228200Y-58137400D01*
X69074200Y-58137400D01*
X69074200Y-62133400D01*
X69074200Y-62133400D01*
G37*
X69074200Y-62133400D02*
X65528200Y-62133400D01*
X65528200Y-59960400D01*
X65525760Y-59935624D01*
X65518533Y-59911799D01*
X65506797Y-59889843D01*
X65491003Y-59870597D01*
X64941003Y-59320597D01*
X64921757Y-59304803D01*
X64899801Y-59293067D01*
X64875976Y-59285840D01*
X64851200Y-59283400D01*
X61683584Y-59283400D01*
X61228200Y-59035008D01*
X61228200Y-58137400D01*
X69074200Y-58137400D01*
X69074200Y-62133400D01*
G36*
X69277200Y-57642000D02*
G01*
X59879200Y-57642000D01*
X59854424Y-57644440D01*
X59830599Y-57651667D01*
X59808643Y-57663403D01*
X59789397Y-57679197D01*
X59773603Y-57698443D01*
X59761867Y-57720399D01*
X59754640Y-57744224D01*
X59752200Y-57769000D01*
X59752200Y-59191400D01*
X53886100Y-59191400D01*
X53861324Y-59193840D01*
X53837499Y-59201067D01*
X53815543Y-59212803D01*
X53796297Y-59228597D01*
X53780503Y-59247843D01*
X53768767Y-59269799D01*
X53761540Y-59293624D01*
X53759100Y-59318400D01*
X53759100Y-67432100D01*
X52513200Y-67432100D01*
X52488424Y-67434540D01*
X52464599Y-67441767D01*
X52455931Y-67446400D01*
X48957200Y-67446400D01*
X48957200Y-58048400D01*
X59066400Y-58048400D01*
X59091176Y-58045960D01*
X59115001Y-58038733D01*
X59136957Y-58026997D01*
X59156203Y-58011203D01*
X59171997Y-57991957D01*
X59183733Y-57970001D01*
X59190960Y-57946176D01*
X59193400Y-57921400D01*
X59193400Y-57159400D01*
X62190600Y-57159400D01*
X62215376Y-57156960D01*
X62239201Y-57149733D01*
X62261157Y-57137997D01*
X62280403Y-57122203D01*
X62297430Y-57101076D01*
X62526030Y-56745476D01*
X62537375Y-56723315D01*
X62544179Y-56699367D01*
X62546200Y-56676800D01*
X62546200Y-55942006D01*
X63017003Y-55471203D01*
X63032797Y-55451957D01*
X63044533Y-55430001D01*
X63051760Y-55406176D01*
X63054200Y-55381400D01*
X63054200Y-53984400D01*
X69277200Y-53984400D01*
X69277200Y-57642000D01*
X69277200Y-57642000D01*
G37*
X69277200Y-57642000D02*
X59879200Y-57642000D01*
X59854424Y-57644440D01*
X59830599Y-57651667D01*
X59808643Y-57663403D01*
X59789397Y-57679197D01*
X59773603Y-57698443D01*
X59761867Y-57720399D01*
X59754640Y-57744224D01*
X59752200Y-57769000D01*
X59752200Y-59191400D01*
X53886100Y-59191400D01*
X53861324Y-59193840D01*
X53837499Y-59201067D01*
X53815543Y-59212803D01*
X53796297Y-59228597D01*
X53780503Y-59247843D01*
X53768767Y-59269799D01*
X53761540Y-59293624D01*
X53759100Y-59318400D01*
X53759100Y-67432100D01*
X52513200Y-67432100D01*
X52488424Y-67434540D01*
X52464599Y-67441767D01*
X52455931Y-67446400D01*
X48957200Y-67446400D01*
X48957200Y-58048400D01*
X59066400Y-58048400D01*
X59091176Y-58045960D01*
X59115001Y-58038733D01*
X59136957Y-58026997D01*
X59156203Y-58011203D01*
X59171997Y-57991957D01*
X59183733Y-57970001D01*
X59190960Y-57946176D01*
X59193400Y-57921400D01*
X59193400Y-57159400D01*
X62190600Y-57159400D01*
X62215376Y-57156960D01*
X62239201Y-57149733D01*
X62261157Y-57137997D01*
X62280403Y-57122203D01*
X62297430Y-57101076D01*
X62526030Y-56745476D01*
X62537375Y-56723315D01*
X62544179Y-56699367D01*
X62546200Y-56676800D01*
X62546200Y-55942006D01*
X63017003Y-55471203D01*
X63032797Y-55451957D01*
X63044533Y-55430001D01*
X63051760Y-55406176D01*
X63054200Y-55381400D01*
X63054200Y-53984400D01*
X69277200Y-53984400D01*
X69277200Y-57642000D01*
G36*
X60704700Y-59318400D02*
G01*
X60707140Y-59343176D01*
X60714367Y-59367001D01*
X60726103Y-59388957D01*
X60741897Y-59408203D01*
X60762707Y-59425025D01*
X61800480Y-60096525D01*
X61822607Y-60107936D01*
X61846536Y-60114811D01*
X61869473Y-60116900D01*
X64427100Y-60116900D01*
X64427100Y-63114100D01*
X56502300Y-63114100D01*
X56502300Y-60116900D01*
X59423300Y-60116900D01*
X59448076Y-60114460D01*
X59471901Y-60107233D01*
X59493857Y-60095497D01*
X59506476Y-60085873D01*
X60255476Y-59436740D01*
X60258118Y-59434385D01*
X60282518Y-59412018D01*
X60299133Y-59393477D01*
X60311811Y-59372051D01*
X60320066Y-59348563D01*
X60323700Y-59318400D01*
X60323700Y-58111900D01*
X60704700Y-58111900D01*
X60704700Y-59318400D01*
X60704700Y-59318400D01*
G37*
X60704700Y-59318400D02*
X60707140Y-59343176D01*
X60714367Y-59367001D01*
X60726103Y-59388957D01*
X60741897Y-59408203D01*
X60762707Y-59425025D01*
X61800480Y-60096525D01*
X61822607Y-60107936D01*
X61846536Y-60114811D01*
X61869473Y-60116900D01*
X64427100Y-60116900D01*
X64427100Y-63114100D01*
X56502300Y-63114100D01*
X56502300Y-60116900D01*
X59423300Y-60116900D01*
X59448076Y-60114460D01*
X59471901Y-60107233D01*
X59493857Y-60095497D01*
X59506476Y-60085873D01*
X60255476Y-59436740D01*
X60258118Y-59434385D01*
X60282518Y-59412018D01*
X60299133Y-59393477D01*
X60311811Y-59372051D01*
X60320066Y-59348563D01*
X60323700Y-59318400D01*
X60323700Y-58111900D01*
X60704700Y-58111900D01*
X60704700Y-59318400D01*
G36*
X55918100Y-63545900D02*
G01*
X55920540Y-63570676D01*
X55927767Y-63594501D01*
X55939503Y-63616457D01*
X55955297Y-63635703D01*
X56971297Y-64651703D01*
X56990543Y-64667497D01*
X57012499Y-64679233D01*
X57036324Y-64686460D01*
X57061100Y-64688900D01*
X64427100Y-64688900D01*
X64427100Y-67863900D01*
X62903100Y-67863900D01*
X62878324Y-67866340D01*
X62854499Y-67873567D01*
X62832543Y-67885303D01*
X62813297Y-67901097D01*
X62051297Y-68663097D01*
X62035503Y-68682343D01*
X62023767Y-68704299D01*
X62016540Y-68728124D01*
X62014100Y-68752900D01*
X62014100Y-72181900D01*
X54521100Y-72181900D01*
X54521100Y-61386900D01*
X55918100Y-61386900D01*
X55918100Y-63545900D01*
X55918100Y-63545900D01*
G37*
X55918100Y-63545900D02*
X55920540Y-63570676D01*
X55927767Y-63594501D01*
X55939503Y-63616457D01*
X55955297Y-63635703D01*
X56971297Y-64651703D01*
X56990543Y-64667497D01*
X57012499Y-64679233D01*
X57036324Y-64686460D01*
X57061100Y-64688900D01*
X64427100Y-64688900D01*
X64427100Y-67863900D01*
X62903100Y-67863900D01*
X62878324Y-67866340D01*
X62854499Y-67873567D01*
X62832543Y-67885303D01*
X62813297Y-67901097D01*
X62051297Y-68663097D01*
X62035503Y-68682343D01*
X62023767Y-68704299D01*
X62016540Y-68728124D01*
X62014100Y-68752900D01*
X62014100Y-72181900D01*
X54521100Y-72181900D01*
X54521100Y-61386900D01*
X55918100Y-61386900D01*
X55918100Y-63545900D01*
M02*
