G04 #@! TF.GenerationSoftware,KiCad,Pcbnew,(5.1.4-0-10_14)*
G04 #@! TF.CreationDate,2019-11-22T04:33:24-05:00*
G04 #@! TF.ProjectId,controllerBoard,636f6e74-726f-46c6-9c65-72426f617264,rev?*
G04 #@! TF.SameCoordinates,Original*
G04 #@! TF.FileFunction,Copper,L2,Bot*
G04 #@! TF.FilePolarity,Positive*
%FSLAX46Y46*%
G04 Gerber Fmt 4.6, Leading zero omitted, Abs format (unit mm)*
G04 Created by KiCad (PCBNEW (5.1.4-0-10_14)) date 2019-11-22 04:33:24*
%MOMM*%
%LPD*%
G04 APERTURE LIST*
%ADD10C,4.648200*%
%ADD11C,1.400000*%
%ADD12R,1.400000X1.400000*%
%ADD13R,1.700000X1.700000*%
%ADD14O,1.700000X1.700000*%
%ADD15C,1.524000*%
%ADD16C,0.609600*%
%ADD17C,0.152400*%
%ADD18C,0.254000*%
G04 APERTURE END LIST*
D10*
X25273000Y-64058800D03*
X92659200Y-98602800D03*
X81254600Y-54635400D03*
X115824000Y-54508400D03*
D11*
X69291200Y-85191600D03*
X66751200Y-85191600D03*
X69291200Y-82651600D03*
X66751200Y-82651600D03*
X69291200Y-80111600D03*
D12*
X66751200Y-80111600D03*
D13*
X31750000Y-62331600D03*
D14*
X31750000Y-64871600D03*
X31750000Y-67411600D03*
X31750000Y-69951600D03*
X31750000Y-72491600D03*
X31750000Y-75031600D03*
X31750000Y-77571600D03*
X31750000Y-80111600D03*
X31750000Y-82651600D03*
X31750000Y-85191600D03*
X31750000Y-87731600D03*
X31750000Y-90271600D03*
X31750000Y-92811600D03*
X31750000Y-95351600D03*
X31750000Y-97891600D03*
X31750000Y-100431600D03*
D12*
X84429600Y-84785200D03*
D11*
X81889600Y-84785200D03*
X84429600Y-82245200D03*
X81889600Y-82245200D03*
X84429600Y-79705200D03*
X81889600Y-79705200D03*
D15*
X117297200Y-70078600D03*
X117297200Y-67589400D03*
X117297200Y-65100200D03*
X117297200Y-72745600D03*
X117297200Y-75234800D03*
X117297200Y-77724000D03*
X40563800Y-56159400D03*
X43053000Y-56159400D03*
X45542200Y-56159400D03*
X32918400Y-56159400D03*
X35407600Y-56159400D03*
X37896800Y-56159400D03*
X30251400Y-56134000D03*
X27762200Y-56134000D03*
X25273000Y-56134000D03*
X82600800Y-90119200D03*
X80111600Y-90119200D03*
X77622400Y-90119200D03*
X77673200Y-94056200D03*
X80162400Y-94056200D03*
X82651600Y-94056200D03*
D13*
X76809600Y-65709800D03*
D14*
X76809600Y-63169800D03*
D15*
X24993600Y-92075000D03*
X24993600Y-89585800D03*
X24993600Y-87096600D03*
X24942800Y-79298800D03*
X24942800Y-81788000D03*
X24942800Y-84277200D03*
D16*
X70942200Y-73050400D03*
X55194200Y-73558400D03*
X65862200Y-56794400D03*
X68148200Y-56794400D03*
X68148200Y-55016400D03*
X65862200Y-55016400D03*
X50876200Y-66446400D03*
X50622200Y-61620400D03*
X49606200Y-62636400D03*
X50622200Y-63652400D03*
X49606200Y-64668400D03*
X50622200Y-65430400D03*
X49606200Y-66446400D03*
X70688200Y-67462400D03*
X65100200Y-75082400D03*
X50114200Y-95351600D03*
X45135800Y-100558600D03*
X45135800Y-94157800D03*
X103022400Y-69088000D03*
X107035600Y-76657200D03*
X36753800Y-80111600D03*
X77825600Y-76835000D03*
X97815400Y-73685400D03*
X70434200Y-97510600D03*
X116789200Y-83134200D03*
X79375000Y-84963000D03*
X41935400Y-73507600D03*
X41935400Y-67868800D03*
X110667800Y-83870800D03*
X110718600Y-80441800D03*
X43891200Y-66497200D03*
X45694600Y-64617600D03*
X34112200Y-73456800D03*
X27330400Y-71882000D03*
X55613300Y-57348300D03*
X55664100Y-59939100D03*
X54686200Y-60096400D03*
X52654200Y-57048400D03*
X59766200Y-53746400D03*
X60782200Y-51968400D03*
X54533800Y-81280000D03*
X56134000Y-83032600D03*
X57734200Y-84607400D03*
X58902600Y-85801200D03*
X62763400Y-85699600D03*
X64389000Y-87172800D03*
X52308222Y-72535072D03*
X52628800Y-75895200D03*
X51638200Y-72898000D03*
X51663600Y-75768200D03*
X35229800Y-77165200D03*
X36550600Y-75819000D03*
X43053000Y-75819000D03*
X47345600Y-76911200D03*
X29184600Y-80416400D03*
X50749200Y-77216000D03*
X55203511Y-78905511D03*
X59368312Y-77867888D03*
X65659000Y-77698600D03*
X67894200Y-77673200D03*
X85725000Y-88671400D03*
X76352400Y-87909400D03*
X72186800Y-81395799D03*
X71932800Y-78841600D03*
X35585400Y-78105000D03*
X37109400Y-76606400D03*
X42519600Y-74930000D03*
X47498000Y-74549000D03*
X29133800Y-81762600D03*
X50774600Y-76276200D03*
X55067200Y-78155800D03*
X58631712Y-77131288D03*
X65235603Y-76878794D03*
X67767200Y-76733400D03*
X85293200Y-87172800D03*
X77952600Y-86258400D03*
X73583800Y-81395799D03*
X73025000Y-78689200D03*
X56642000Y-92583000D03*
X59740800Y-92303600D03*
X57277000Y-93319600D03*
X60325000Y-92989400D03*
D17*
X50114200Y-95351600D02*
X48285400Y-95351600D01*
X48285400Y-95351600D02*
X46532800Y-97104200D01*
X45135800Y-94157800D02*
X45135800Y-92659200D01*
X45135800Y-100558600D02*
X45135800Y-94157800D01*
D18*
X81711800Y-84963000D02*
X81889600Y-84785200D01*
X79375000Y-84963000D02*
X81711800Y-84963000D01*
X41935400Y-73507600D02*
X41935400Y-67868800D01*
D17*
X110667800Y-80492600D02*
X110718600Y-80441800D01*
X110667800Y-83870800D02*
X110667800Y-80492600D01*
D18*
X45694600Y-64693800D02*
X45694600Y-64617600D01*
X43891200Y-66497200D02*
X45694600Y-64693800D01*
X27850201Y-71362199D02*
X27330400Y-71882000D01*
X34112200Y-73025748D02*
X32448651Y-71362199D01*
X32448651Y-71362199D02*
X27850201Y-71362199D01*
X34112200Y-73456800D02*
X34112200Y-73025748D01*
X55613300Y-59888300D02*
X55664100Y-59939100D01*
X55613300Y-57348300D02*
X55613300Y-59888300D01*
X52654200Y-58064400D02*
X54686200Y-60096400D01*
X52654200Y-57048400D02*
X52654200Y-58064400D01*
X60782200Y-52730400D02*
X59766200Y-53746400D01*
X60782200Y-51968400D02*
X60782200Y-52730400D01*
D17*
X56134000Y-82880200D02*
X56134000Y-83032600D01*
X54533800Y-81280000D02*
X56134000Y-82880200D01*
X58902600Y-85775800D02*
X58902600Y-85801200D01*
X57734200Y-84607400D02*
X58902600Y-85775800D01*
X64236600Y-87172800D02*
X64389000Y-87172800D01*
X62763400Y-85699600D02*
X64236600Y-87172800D01*
X52308222Y-75574622D02*
X52628800Y-75895200D01*
X52308222Y-72535072D02*
X52308222Y-75574622D01*
X51638200Y-75742800D02*
X51663600Y-75768200D01*
X51638200Y-72898000D02*
X51638200Y-75742800D01*
X36550600Y-75844400D02*
X36550600Y-75819000D01*
X35229800Y-77165200D02*
X36550600Y-75844400D01*
D18*
X31445200Y-80416400D02*
X31750000Y-80111600D01*
X29184600Y-80416400D02*
X31445200Y-80416400D01*
D17*
X50444400Y-76911200D02*
X50749200Y-77216000D01*
X47345600Y-76911200D02*
X50444400Y-76911200D01*
X47345600Y-76301600D02*
X47345600Y-76911200D01*
X46863000Y-75819000D02*
X47345600Y-76301600D01*
X43053000Y-75819000D02*
X46863000Y-75819000D01*
X58330689Y-78905511D02*
X59368312Y-77867888D01*
X55203511Y-78905511D02*
X58330689Y-78905511D01*
X67868800Y-77698600D02*
X67894200Y-77673200D01*
X65659000Y-77698600D02*
X67868800Y-77698600D01*
X84963000Y-87909400D02*
X76352400Y-87909400D01*
X85725000Y-88671400D02*
X84963000Y-87909400D01*
X72186800Y-79095600D02*
X71932800Y-78841600D01*
X72186800Y-81395799D02*
X72186800Y-79095600D01*
X37084000Y-76606400D02*
X37109400Y-76606400D01*
X35585400Y-78105000D02*
X37084000Y-76606400D01*
X47117000Y-74930000D02*
X47498000Y-74549000D01*
X42519600Y-74930000D02*
X47117000Y-74930000D01*
D18*
X30022800Y-82651600D02*
X31750000Y-82651600D01*
X29133800Y-81762600D02*
X30022800Y-82651600D01*
D17*
X50571400Y-76479400D02*
X50774600Y-76276200D01*
X48666400Y-76479400D02*
X50571400Y-76479400D01*
X47498000Y-75311000D02*
X48666400Y-76479400D01*
X47498000Y-74549000D02*
X47498000Y-75311000D01*
X57607200Y-78155800D02*
X58631712Y-77131288D01*
X55067200Y-78155800D02*
X57607200Y-78155800D01*
X67621806Y-76878794D02*
X67767200Y-76733400D01*
X65235603Y-76878794D02*
X67621806Y-76878794D01*
X78867000Y-87172800D02*
X77952600Y-86258400D01*
X85293200Y-87172800D02*
X78867000Y-87172800D01*
X73583800Y-79248000D02*
X73025000Y-78689200D01*
X73583800Y-81395799D02*
X73583800Y-79248000D01*
X26898600Y-85191600D02*
X31750000Y-85191600D01*
X24993600Y-87096600D02*
X26898600Y-85191600D01*
X26847800Y-87731600D02*
X24993600Y-89585800D01*
X31750000Y-87731600D02*
X26847800Y-87731600D01*
X59461400Y-92583000D02*
X59740800Y-92303600D01*
X56642000Y-92583000D02*
X59461400Y-92583000D01*
X59994800Y-93319600D02*
X60325000Y-92989400D01*
X57277000Y-93319600D02*
X59994800Y-93319600D01*
D18*
G36*
X119995168Y-50415268D02*
G01*
X120316580Y-102310935D01*
X22552990Y-102110652D01*
X22531397Y-86959008D01*
X23596600Y-86959008D01*
X23596600Y-87234192D01*
X23650286Y-87504090D01*
X23755595Y-87758327D01*
X23908480Y-87987135D01*
X24103065Y-88181720D01*
X24331873Y-88334605D01*
X24347795Y-88341200D01*
X24331873Y-88347795D01*
X24103065Y-88500680D01*
X23908480Y-88695265D01*
X23755595Y-88924073D01*
X23650286Y-89178310D01*
X23596600Y-89448208D01*
X23596600Y-89723392D01*
X23650286Y-89993290D01*
X23755595Y-90247527D01*
X23908480Y-90476335D01*
X24103065Y-90670920D01*
X24331873Y-90823805D01*
X24347795Y-90830400D01*
X24331873Y-90836995D01*
X24103065Y-90989880D01*
X23908480Y-91184465D01*
X23755595Y-91413273D01*
X23650286Y-91667510D01*
X23596600Y-91937408D01*
X23596600Y-92212592D01*
X23650286Y-92482490D01*
X23755595Y-92736727D01*
X23908480Y-92965535D01*
X24103065Y-93160120D01*
X24331873Y-93313005D01*
X24586110Y-93418314D01*
X24856008Y-93472000D01*
X25131192Y-93472000D01*
X25401090Y-93418314D01*
X25655327Y-93313005D01*
X25884135Y-93160120D01*
X26078720Y-92965535D01*
X26231605Y-92736727D01*
X26336914Y-92482490D01*
X26390600Y-92212592D01*
X26390600Y-91937408D01*
X26336914Y-91667510D01*
X26231605Y-91413273D01*
X26078720Y-91184465D01*
X25884135Y-90989880D01*
X25655327Y-90836995D01*
X25639405Y-90830400D01*
X25655327Y-90823805D01*
X25884135Y-90670920D01*
X26078720Y-90476335D01*
X26231605Y-90247527D01*
X26336914Y-89993290D01*
X26390600Y-89723392D01*
X26390600Y-89448208D01*
X26348522Y-89236666D01*
X27142388Y-88442800D01*
X30446321Y-88442800D01*
X30509294Y-88560614D01*
X30694866Y-88786734D01*
X30920986Y-88972306D01*
X30975791Y-89001600D01*
X30920986Y-89030894D01*
X30694866Y-89216466D01*
X30509294Y-89442586D01*
X30371401Y-89700566D01*
X30286487Y-89980489D01*
X30257815Y-90271600D01*
X30286487Y-90562711D01*
X30371401Y-90842634D01*
X30509294Y-91100614D01*
X30694866Y-91326734D01*
X30920986Y-91512306D01*
X30975791Y-91541600D01*
X30920986Y-91570894D01*
X30694866Y-91756466D01*
X30509294Y-91982586D01*
X30371401Y-92240566D01*
X30286487Y-92520489D01*
X30257815Y-92811600D01*
X30286487Y-93102711D01*
X30371401Y-93382634D01*
X30509294Y-93640614D01*
X30694866Y-93866734D01*
X30920986Y-94052306D01*
X30975791Y-94081600D01*
X30920986Y-94110894D01*
X30694866Y-94296466D01*
X30509294Y-94522586D01*
X30371401Y-94780566D01*
X30286487Y-95060489D01*
X30257815Y-95351600D01*
X30286487Y-95642711D01*
X30371401Y-95922634D01*
X30509294Y-96180614D01*
X30694866Y-96406734D01*
X30920986Y-96592306D01*
X30975791Y-96621600D01*
X30920986Y-96650894D01*
X30694866Y-96836466D01*
X30509294Y-97062586D01*
X30371401Y-97320566D01*
X30286487Y-97600489D01*
X30257815Y-97891600D01*
X30286487Y-98182711D01*
X30371401Y-98462634D01*
X30509294Y-98720614D01*
X30694866Y-98946734D01*
X30920986Y-99132306D01*
X30975791Y-99161600D01*
X30920986Y-99190894D01*
X30694866Y-99376466D01*
X30509294Y-99602586D01*
X30371401Y-99860566D01*
X30286487Y-100140489D01*
X30257815Y-100431600D01*
X30286487Y-100722711D01*
X30371401Y-101002634D01*
X30509294Y-101260614D01*
X30694866Y-101486734D01*
X30920986Y-101672306D01*
X31178966Y-101810199D01*
X31458889Y-101895113D01*
X31677050Y-101916600D01*
X31822950Y-101916600D01*
X32041111Y-101895113D01*
X32321034Y-101810199D01*
X32579014Y-101672306D01*
X32805134Y-101486734D01*
X32990706Y-101260614D01*
X33128599Y-101002634D01*
X33213513Y-100722711D01*
X33242185Y-100431600D01*
X33213513Y-100140489D01*
X33128599Y-99860566D01*
X32990706Y-99602586D01*
X32805134Y-99376466D01*
X32579014Y-99190894D01*
X32524209Y-99161600D01*
X32579014Y-99132306D01*
X32805134Y-98946734D01*
X32990706Y-98720614D01*
X33128599Y-98462634D01*
X33174489Y-98311354D01*
X89700100Y-98311354D01*
X89700100Y-98894246D01*
X89813816Y-99465938D01*
X90036879Y-100004460D01*
X90360717Y-100489116D01*
X90772884Y-100901283D01*
X91257540Y-101225121D01*
X91796062Y-101448184D01*
X92367754Y-101561900D01*
X92950646Y-101561900D01*
X93522338Y-101448184D01*
X94060860Y-101225121D01*
X94545516Y-100901283D01*
X94957683Y-100489116D01*
X95281521Y-100004460D01*
X95504584Y-99465938D01*
X95618300Y-98894246D01*
X95618300Y-98311354D01*
X95504584Y-97739662D01*
X95281521Y-97201140D01*
X94957683Y-96716484D01*
X94545516Y-96304317D01*
X94060860Y-95980479D01*
X93522338Y-95757416D01*
X92950646Y-95643700D01*
X92367754Y-95643700D01*
X91796062Y-95757416D01*
X91257540Y-95980479D01*
X90772884Y-96304317D01*
X90360717Y-96716484D01*
X90036879Y-97201140D01*
X89813816Y-97739662D01*
X89700100Y-98311354D01*
X33174489Y-98311354D01*
X33213513Y-98182711D01*
X33242185Y-97891600D01*
X33213513Y-97600489D01*
X33128599Y-97320566D01*
X32990706Y-97062586D01*
X32805134Y-96836466D01*
X32579014Y-96650894D01*
X32524209Y-96621600D01*
X32579014Y-96592306D01*
X32805134Y-96406734D01*
X32990706Y-96180614D01*
X33128599Y-95922634D01*
X33213513Y-95642711D01*
X33242185Y-95351600D01*
X33213513Y-95060489D01*
X33128599Y-94780566D01*
X32990706Y-94522586D01*
X32805134Y-94296466D01*
X32579014Y-94110894D01*
X32524209Y-94081600D01*
X32579014Y-94052306D01*
X32805134Y-93866734D01*
X32990706Y-93640614D01*
X33128599Y-93382634D01*
X33213513Y-93102711D01*
X33242185Y-92811600D01*
X33213513Y-92520489D01*
X33204398Y-92490438D01*
X55702200Y-92490438D01*
X55702200Y-92675562D01*
X55738316Y-92857129D01*
X55809160Y-93028162D01*
X55912010Y-93182087D01*
X56042913Y-93312990D01*
X56196838Y-93415840D01*
X56350600Y-93479530D01*
X56373316Y-93593729D01*
X56444160Y-93764762D01*
X56547010Y-93918687D01*
X56677913Y-94049590D01*
X56831838Y-94152440D01*
X57002871Y-94223284D01*
X57184438Y-94259400D01*
X57369562Y-94259400D01*
X57551129Y-94223284D01*
X57722162Y-94152440D01*
X57876087Y-94049590D01*
X57894877Y-94030800D01*
X59959874Y-94030800D01*
X59994800Y-94034240D01*
X60029726Y-94030800D01*
X60029736Y-94030800D01*
X60134220Y-94020509D01*
X60268281Y-93979842D01*
X60363025Y-93929200D01*
X60417562Y-93929200D01*
X60470811Y-93918608D01*
X78765400Y-93918608D01*
X78765400Y-94193792D01*
X78819086Y-94463690D01*
X78924395Y-94717927D01*
X79077280Y-94946735D01*
X79271865Y-95141320D01*
X79500673Y-95294205D01*
X79754910Y-95399514D01*
X80024808Y-95453200D01*
X80299992Y-95453200D01*
X80569890Y-95399514D01*
X80824127Y-95294205D01*
X81052935Y-95141320D01*
X81247520Y-94946735D01*
X81400405Y-94717927D01*
X81407000Y-94702005D01*
X81413595Y-94717927D01*
X81566480Y-94946735D01*
X81761065Y-95141320D01*
X81989873Y-95294205D01*
X82244110Y-95399514D01*
X82514008Y-95453200D01*
X82789192Y-95453200D01*
X83059090Y-95399514D01*
X83313327Y-95294205D01*
X83542135Y-95141320D01*
X83736720Y-94946735D01*
X83889605Y-94717927D01*
X83994914Y-94463690D01*
X84048600Y-94193792D01*
X84048600Y-93918608D01*
X83994914Y-93648710D01*
X83889605Y-93394473D01*
X83736720Y-93165665D01*
X83542135Y-92971080D01*
X83313327Y-92818195D01*
X83059090Y-92712886D01*
X82789192Y-92659200D01*
X82514008Y-92659200D01*
X82244110Y-92712886D01*
X81989873Y-92818195D01*
X81761065Y-92971080D01*
X81566480Y-93165665D01*
X81413595Y-93394473D01*
X81407000Y-93410395D01*
X81400405Y-93394473D01*
X81247520Y-93165665D01*
X81052935Y-92971080D01*
X80824127Y-92818195D01*
X80569890Y-92712886D01*
X80299992Y-92659200D01*
X80024808Y-92659200D01*
X79754910Y-92712886D01*
X79500673Y-92818195D01*
X79271865Y-92971080D01*
X79077280Y-93165665D01*
X78924395Y-93394473D01*
X78819086Y-93648710D01*
X78765400Y-93918608D01*
X60470811Y-93918608D01*
X60599129Y-93893084D01*
X60770162Y-93822240D01*
X60924087Y-93719390D01*
X61054990Y-93588487D01*
X61157840Y-93434562D01*
X61228684Y-93263529D01*
X61264800Y-93081962D01*
X61264800Y-92896838D01*
X61228684Y-92715271D01*
X61157840Y-92544238D01*
X61054990Y-92390313D01*
X60924087Y-92259410D01*
X60770162Y-92156560D01*
X60660749Y-92111240D01*
X60644484Y-92029471D01*
X60573640Y-91858438D01*
X60470790Y-91704513D01*
X60339887Y-91573610D01*
X60185962Y-91470760D01*
X60014929Y-91399916D01*
X59833362Y-91363800D01*
X59648238Y-91363800D01*
X59466671Y-91399916D01*
X59295638Y-91470760D01*
X59141713Y-91573610D01*
X59010810Y-91704513D01*
X58907960Y-91858438D01*
X58902425Y-91871800D01*
X57259877Y-91871800D01*
X57241087Y-91853010D01*
X57087162Y-91750160D01*
X56916129Y-91679316D01*
X56734562Y-91643200D01*
X56549438Y-91643200D01*
X56367871Y-91679316D01*
X56196838Y-91750160D01*
X56042913Y-91853010D01*
X55912010Y-91983913D01*
X55809160Y-92137838D01*
X55738316Y-92308871D01*
X55702200Y-92490438D01*
X33204398Y-92490438D01*
X33128599Y-92240566D01*
X32990706Y-91982586D01*
X32805134Y-91756466D01*
X32579014Y-91570894D01*
X32524209Y-91541600D01*
X32579014Y-91512306D01*
X32805134Y-91326734D01*
X32990706Y-91100614D01*
X33128599Y-90842634D01*
X33213513Y-90562711D01*
X33242185Y-90271600D01*
X33213624Y-89981608D01*
X78714600Y-89981608D01*
X78714600Y-90256792D01*
X78768286Y-90526690D01*
X78873595Y-90780927D01*
X79026480Y-91009735D01*
X79221065Y-91204320D01*
X79449873Y-91357205D01*
X79704110Y-91462514D01*
X79974008Y-91516200D01*
X80249192Y-91516200D01*
X80519090Y-91462514D01*
X80773327Y-91357205D01*
X81002135Y-91204320D01*
X81196720Y-91009735D01*
X81349605Y-90780927D01*
X81356200Y-90765005D01*
X81362795Y-90780927D01*
X81515680Y-91009735D01*
X81710265Y-91204320D01*
X81939073Y-91357205D01*
X82193310Y-91462514D01*
X82463208Y-91516200D01*
X82738392Y-91516200D01*
X83008290Y-91462514D01*
X83262527Y-91357205D01*
X83491335Y-91204320D01*
X83685920Y-91009735D01*
X83838805Y-90780927D01*
X83944114Y-90526690D01*
X83997800Y-90256792D01*
X83997800Y-89981608D01*
X83944114Y-89711710D01*
X83838805Y-89457473D01*
X83685920Y-89228665D01*
X83491335Y-89034080D01*
X83262527Y-88881195D01*
X83008290Y-88775886D01*
X82738392Y-88722200D01*
X82463208Y-88722200D01*
X82193310Y-88775886D01*
X81939073Y-88881195D01*
X81710265Y-89034080D01*
X81515680Y-89228665D01*
X81362795Y-89457473D01*
X81356200Y-89473395D01*
X81349605Y-89457473D01*
X81196720Y-89228665D01*
X81002135Y-89034080D01*
X80773327Y-88881195D01*
X80519090Y-88775886D01*
X80249192Y-88722200D01*
X79974008Y-88722200D01*
X79704110Y-88775886D01*
X79449873Y-88881195D01*
X79221065Y-89034080D01*
X79026480Y-89228665D01*
X78873595Y-89457473D01*
X78768286Y-89711710D01*
X78714600Y-89981608D01*
X33213624Y-89981608D01*
X33213513Y-89980489D01*
X33128599Y-89700566D01*
X32990706Y-89442586D01*
X32805134Y-89216466D01*
X32579014Y-89030894D01*
X32524209Y-89001600D01*
X32579014Y-88972306D01*
X32805134Y-88786734D01*
X32990706Y-88560614D01*
X33128599Y-88302634D01*
X33213513Y-88022711D01*
X33242185Y-87731600D01*
X33213513Y-87440489D01*
X33128599Y-87160566D01*
X32990706Y-86902586D01*
X32805134Y-86676466D01*
X32579014Y-86490894D01*
X32524209Y-86461600D01*
X32579014Y-86432306D01*
X32805134Y-86246734D01*
X32990706Y-86020614D01*
X33128599Y-85762634D01*
X33213513Y-85482711D01*
X33242185Y-85191600D01*
X33213513Y-84900489D01*
X33128599Y-84620566D01*
X33072087Y-84514838D01*
X56794400Y-84514838D01*
X56794400Y-84699962D01*
X56830516Y-84881529D01*
X56901360Y-85052562D01*
X57004210Y-85206487D01*
X57135113Y-85337390D01*
X57289038Y-85440240D01*
X57460071Y-85511084D01*
X57641638Y-85547200D01*
X57668213Y-85547200D01*
X57962800Y-85841788D01*
X57962800Y-85893762D01*
X57998916Y-86075329D01*
X58069760Y-86246362D01*
X58172610Y-86400287D01*
X58303513Y-86531190D01*
X58457438Y-86634040D01*
X58628471Y-86704884D01*
X58810038Y-86741000D01*
X58995162Y-86741000D01*
X59176729Y-86704884D01*
X59347762Y-86634040D01*
X59501687Y-86531190D01*
X59632590Y-86400287D01*
X59735440Y-86246362D01*
X59806284Y-86075329D01*
X59842400Y-85893762D01*
X59842400Y-85708638D01*
X59822191Y-85607038D01*
X61823600Y-85607038D01*
X61823600Y-85792162D01*
X61859716Y-85973729D01*
X61930560Y-86144762D01*
X62033410Y-86298687D01*
X62164313Y-86429590D01*
X62318238Y-86532440D01*
X62489271Y-86603284D01*
X62670838Y-86639400D01*
X62697412Y-86639400D01*
X63480443Y-87422432D01*
X63485316Y-87446929D01*
X63556160Y-87617962D01*
X63659010Y-87771887D01*
X63789913Y-87902790D01*
X63943838Y-88005640D01*
X64114871Y-88076484D01*
X64296438Y-88112600D01*
X64481562Y-88112600D01*
X64663129Y-88076484D01*
X64834162Y-88005640D01*
X64988087Y-87902790D01*
X65074039Y-87816838D01*
X75412600Y-87816838D01*
X75412600Y-88001962D01*
X75448716Y-88183529D01*
X75519560Y-88354562D01*
X75622410Y-88508487D01*
X75753313Y-88639390D01*
X75907238Y-88742240D01*
X76078271Y-88813084D01*
X76259838Y-88849200D01*
X76444962Y-88849200D01*
X76626529Y-88813084D01*
X76797562Y-88742240D01*
X76951487Y-88639390D01*
X76970277Y-88620600D01*
X84668412Y-88620600D01*
X84785200Y-88737388D01*
X84785200Y-88763962D01*
X84821316Y-88945529D01*
X84892160Y-89116562D01*
X84995010Y-89270487D01*
X85125913Y-89401390D01*
X85279838Y-89504240D01*
X85450871Y-89575084D01*
X85632438Y-89611200D01*
X85817562Y-89611200D01*
X85999129Y-89575084D01*
X86170162Y-89504240D01*
X86324087Y-89401390D01*
X86454990Y-89270487D01*
X86557840Y-89116562D01*
X86628684Y-88945529D01*
X86664800Y-88763962D01*
X86664800Y-88578838D01*
X86628684Y-88397271D01*
X86557840Y-88226238D01*
X86454990Y-88072313D01*
X86324087Y-87941410D01*
X86170162Y-87838560D01*
X86019092Y-87775985D01*
X86023190Y-87771887D01*
X86126040Y-87617962D01*
X86196884Y-87446929D01*
X86233000Y-87265362D01*
X86233000Y-87080238D01*
X86196884Y-86898671D01*
X86126040Y-86727638D01*
X86023190Y-86573713D01*
X85892287Y-86442810D01*
X85738362Y-86339960D01*
X85567329Y-86269116D01*
X85385762Y-86233000D01*
X85200638Y-86233000D01*
X85019071Y-86269116D01*
X84848038Y-86339960D01*
X84694113Y-86442810D01*
X84675323Y-86461600D01*
X79161588Y-86461600D01*
X78892400Y-86192413D01*
X78892400Y-86165838D01*
X78856284Y-85984271D01*
X78785440Y-85813238D01*
X78682590Y-85659313D01*
X78551687Y-85528410D01*
X78397762Y-85425560D01*
X78226729Y-85354716D01*
X78045162Y-85318600D01*
X77860038Y-85318600D01*
X77678471Y-85354716D01*
X77507438Y-85425560D01*
X77353513Y-85528410D01*
X77222610Y-85659313D01*
X77119760Y-85813238D01*
X77048916Y-85984271D01*
X77012800Y-86165838D01*
X77012800Y-86350962D01*
X77048916Y-86532529D01*
X77119760Y-86703562D01*
X77222610Y-86857487D01*
X77353513Y-86988390D01*
X77507438Y-87091240D01*
X77678471Y-87162084D01*
X77860038Y-87198200D01*
X76970277Y-87198200D01*
X76951487Y-87179410D01*
X76797562Y-87076560D01*
X76626529Y-87005716D01*
X76444962Y-86969600D01*
X76259838Y-86969600D01*
X76078271Y-87005716D01*
X75907238Y-87076560D01*
X75753313Y-87179410D01*
X75622410Y-87310313D01*
X75519560Y-87464238D01*
X75448716Y-87635271D01*
X75412600Y-87816838D01*
X65074039Y-87816838D01*
X65118990Y-87771887D01*
X65221840Y-87617962D01*
X65292684Y-87446929D01*
X65328800Y-87265362D01*
X65328800Y-87080238D01*
X65292684Y-86898671D01*
X65221840Y-86727638D01*
X65118990Y-86573713D01*
X64988087Y-86442810D01*
X64834162Y-86339960D01*
X64663129Y-86269116D01*
X64481562Y-86233000D01*
X64302588Y-86233000D01*
X63703200Y-85633612D01*
X63703200Y-85607038D01*
X63667084Y-85425471D01*
X63596240Y-85254438D01*
X63493390Y-85100513D01*
X63362487Y-84969610D01*
X63208562Y-84866760D01*
X63037529Y-84795916D01*
X62855962Y-84759800D01*
X62670838Y-84759800D01*
X62489271Y-84795916D01*
X62318238Y-84866760D01*
X62164313Y-84969610D01*
X62033410Y-85100513D01*
X61930560Y-85254438D01*
X61859716Y-85425471D01*
X61823600Y-85607038D01*
X59822191Y-85607038D01*
X59806284Y-85527071D01*
X59735440Y-85356038D01*
X59632590Y-85202113D01*
X59501687Y-85071210D01*
X59347762Y-84968360D01*
X59176729Y-84897516D01*
X58995162Y-84861400D01*
X58993988Y-84861400D01*
X58674000Y-84541413D01*
X58674000Y-84514838D01*
X58637884Y-84333271D01*
X58567040Y-84162238D01*
X58464190Y-84008313D01*
X58333287Y-83877410D01*
X58179362Y-83774560D01*
X58008329Y-83703716D01*
X57826762Y-83667600D01*
X57641638Y-83667600D01*
X57460071Y-83703716D01*
X57289038Y-83774560D01*
X57135113Y-83877410D01*
X57004210Y-84008313D01*
X56901360Y-84162238D01*
X56830516Y-84333271D01*
X56794400Y-84514838D01*
X33072087Y-84514838D01*
X32990706Y-84362586D01*
X32805134Y-84136466D01*
X32579014Y-83950894D01*
X32524209Y-83921600D01*
X32579014Y-83892306D01*
X32805134Y-83706734D01*
X32990706Y-83480614D01*
X33128599Y-83222634D01*
X33213513Y-82942711D01*
X33242185Y-82651600D01*
X33213513Y-82360489D01*
X33128599Y-82080566D01*
X32990706Y-81822586D01*
X32805134Y-81596466D01*
X32579014Y-81410894D01*
X32524209Y-81381600D01*
X32579014Y-81352306D01*
X32779906Y-81187438D01*
X53594000Y-81187438D01*
X53594000Y-81372562D01*
X53630116Y-81554129D01*
X53700960Y-81725162D01*
X53803810Y-81879087D01*
X53934713Y-82009990D01*
X54088638Y-82112840D01*
X54259671Y-82183684D01*
X54441238Y-82219800D01*
X54467812Y-82219800D01*
X55194200Y-82946188D01*
X55194200Y-83125162D01*
X55230316Y-83306729D01*
X55301160Y-83477762D01*
X55404010Y-83631687D01*
X55534913Y-83762590D01*
X55688838Y-83865440D01*
X55859871Y-83936284D01*
X56041438Y-83972400D01*
X56226562Y-83972400D01*
X56408129Y-83936284D01*
X56579162Y-83865440D01*
X56733087Y-83762590D01*
X56863990Y-83631687D01*
X56966840Y-83477762D01*
X57037684Y-83306729D01*
X57073800Y-83125162D01*
X57073800Y-82940038D01*
X57037684Y-82758471D01*
X56966840Y-82587438D01*
X56863990Y-82433513D01*
X56733087Y-82302610D01*
X56579162Y-82199760D01*
X56408129Y-82128916D01*
X56383632Y-82124043D01*
X55473600Y-81214012D01*
X55473600Y-81187438D01*
X55437484Y-81005871D01*
X55366640Y-80834838D01*
X55263790Y-80680913D01*
X55132887Y-80550010D01*
X54978962Y-80447160D01*
X54807929Y-80376316D01*
X54626362Y-80340200D01*
X54441238Y-80340200D01*
X54259671Y-80376316D01*
X54088638Y-80447160D01*
X53934713Y-80550010D01*
X53803810Y-80680913D01*
X53700960Y-80834838D01*
X53630116Y-81005871D01*
X53594000Y-81187438D01*
X32779906Y-81187438D01*
X32805134Y-81166734D01*
X32990706Y-80940614D01*
X33128599Y-80682634D01*
X33213513Y-80402711D01*
X33242185Y-80111600D01*
X33213513Y-79820489D01*
X33128599Y-79540566D01*
X32990706Y-79282586D01*
X32805134Y-79056466D01*
X32579014Y-78870894D01*
X32524209Y-78841600D01*
X32579014Y-78812306D01*
X32805134Y-78626734D01*
X32990706Y-78400614D01*
X33128599Y-78142634D01*
X33213513Y-77862711D01*
X33242185Y-77571600D01*
X33213513Y-77280489D01*
X33150462Y-77072638D01*
X34290000Y-77072638D01*
X34290000Y-77257762D01*
X34326116Y-77439329D01*
X34396960Y-77610362D01*
X34499810Y-77764287D01*
X34630713Y-77895190D01*
X34664440Y-77917725D01*
X34645600Y-78012438D01*
X34645600Y-78197562D01*
X34681716Y-78379129D01*
X34752560Y-78550162D01*
X34855410Y-78704087D01*
X34986313Y-78834990D01*
X35140238Y-78937840D01*
X35311271Y-79008684D01*
X35492838Y-79044800D01*
X35677962Y-79044800D01*
X35859529Y-79008684D01*
X36030562Y-78937840D01*
X36184487Y-78834990D01*
X36315390Y-78704087D01*
X36418240Y-78550162D01*
X36489084Y-78379129D01*
X36525200Y-78197562D01*
X36525200Y-78170988D01*
X37149988Y-77546200D01*
X37201962Y-77546200D01*
X37383529Y-77510084D01*
X37554562Y-77439240D01*
X37708487Y-77336390D01*
X37839390Y-77205487D01*
X37942240Y-77051562D01*
X38013084Y-76880529D01*
X38049200Y-76698962D01*
X38049200Y-76513838D01*
X38013084Y-76332271D01*
X37942240Y-76161238D01*
X37839390Y-76007313D01*
X37708487Y-75876410D01*
X37554562Y-75773560D01*
X37490400Y-75746983D01*
X37490400Y-75726438D01*
X37454284Y-75544871D01*
X37383440Y-75373838D01*
X37280590Y-75219913D01*
X37149687Y-75089010D01*
X36995762Y-74986160D01*
X36824729Y-74915316D01*
X36643162Y-74879200D01*
X36458038Y-74879200D01*
X36276471Y-74915316D01*
X36105438Y-74986160D01*
X35951513Y-75089010D01*
X35820610Y-75219913D01*
X35717760Y-75373838D01*
X35646916Y-75544871D01*
X35610800Y-75726438D01*
X35610800Y-75778412D01*
X35163812Y-76225400D01*
X35137238Y-76225400D01*
X34955671Y-76261516D01*
X34784638Y-76332360D01*
X34630713Y-76435210D01*
X34499810Y-76566113D01*
X34396960Y-76720038D01*
X34326116Y-76891071D01*
X34290000Y-77072638D01*
X33150462Y-77072638D01*
X33128599Y-77000566D01*
X32990706Y-76742586D01*
X32805134Y-76516466D01*
X32579014Y-76330894D01*
X32524209Y-76301600D01*
X32579014Y-76272306D01*
X32805134Y-76086734D01*
X32990706Y-75860614D01*
X33128599Y-75602634D01*
X33213513Y-75322711D01*
X33242185Y-75031600D01*
X33213513Y-74740489D01*
X33128599Y-74460566D01*
X32990706Y-74202586D01*
X32805134Y-73976466D01*
X32579014Y-73790894D01*
X32524209Y-73761600D01*
X32579014Y-73732306D01*
X32805134Y-73546734D01*
X32990706Y-73320614D01*
X33108695Y-73099873D01*
X33205692Y-73196870D01*
X33172400Y-73364238D01*
X33172400Y-73549362D01*
X33208516Y-73730929D01*
X33279360Y-73901962D01*
X33382210Y-74055887D01*
X33513113Y-74186790D01*
X33667038Y-74289640D01*
X33838071Y-74360484D01*
X34019638Y-74396600D01*
X34204762Y-74396600D01*
X34386329Y-74360484D01*
X34557362Y-74289640D01*
X34711287Y-74186790D01*
X34842190Y-74055887D01*
X34945040Y-73901962D01*
X35015884Y-73730929D01*
X35052000Y-73549362D01*
X35052000Y-73364238D01*
X35015884Y-73182671D01*
X34945040Y-73011638D01*
X34864647Y-72891321D01*
X34863174Y-72876370D01*
X34819602Y-72732733D01*
X34786665Y-72671112D01*
X34748845Y-72600355D01*
X34710076Y-72553116D01*
X34653622Y-72484326D01*
X34624546Y-72460464D01*
X33013935Y-70849853D01*
X32990073Y-70820777D01*
X32970756Y-70804924D01*
X32990706Y-70780614D01*
X33128599Y-70522634D01*
X33213513Y-70242711D01*
X33242185Y-69951600D01*
X33213513Y-69660489D01*
X33128599Y-69380566D01*
X32990706Y-69122586D01*
X32805134Y-68896466D01*
X32579014Y-68710894D01*
X32524209Y-68681600D01*
X32579014Y-68652306D01*
X32805134Y-68466734D01*
X32990706Y-68240614D01*
X33128599Y-67982634D01*
X33191208Y-67776238D01*
X40995600Y-67776238D01*
X40995600Y-67961362D01*
X41031716Y-68142929D01*
X41102560Y-68313962D01*
X41173401Y-68419982D01*
X41173400Y-72956419D01*
X41102560Y-73062438D01*
X41031716Y-73233471D01*
X40995600Y-73415038D01*
X40995600Y-73600162D01*
X41031716Y-73781729D01*
X41102560Y-73952762D01*
X41205410Y-74106687D01*
X41336313Y-74237590D01*
X41490238Y-74340440D01*
X41661271Y-74411284D01*
X41727151Y-74424388D01*
X41686760Y-74484838D01*
X41615916Y-74655871D01*
X41579800Y-74837438D01*
X41579800Y-75022562D01*
X41615916Y-75204129D01*
X41686760Y-75375162D01*
X41789610Y-75529087D01*
X41920513Y-75659990D01*
X42074438Y-75762840D01*
X42113200Y-75778896D01*
X42113200Y-75911562D01*
X42149316Y-76093129D01*
X42220160Y-76264162D01*
X42323010Y-76418087D01*
X42453913Y-76548990D01*
X42607838Y-76651840D01*
X42778871Y-76722684D01*
X42960438Y-76758800D01*
X43145562Y-76758800D01*
X43327129Y-76722684D01*
X43498162Y-76651840D01*
X43652087Y-76548990D01*
X43670877Y-76530200D01*
X46486183Y-76530200D01*
X46441916Y-76637071D01*
X46405800Y-76818638D01*
X46405800Y-77003762D01*
X46441916Y-77185329D01*
X46512760Y-77356362D01*
X46615610Y-77510287D01*
X46746513Y-77641190D01*
X46900438Y-77744040D01*
X47071471Y-77814884D01*
X47253038Y-77851000D01*
X47438162Y-77851000D01*
X47619729Y-77814884D01*
X47790762Y-77744040D01*
X47944687Y-77641190D01*
X47963477Y-77622400D01*
X49900304Y-77622400D01*
X49916360Y-77661162D01*
X50019210Y-77815087D01*
X50150113Y-77945990D01*
X50304038Y-78048840D01*
X50475071Y-78119684D01*
X50656638Y-78155800D01*
X50841762Y-78155800D01*
X51023329Y-78119684D01*
X51159602Y-78063238D01*
X54127400Y-78063238D01*
X54127400Y-78248362D01*
X54163516Y-78429929D01*
X54234360Y-78600962D01*
X54289472Y-78683442D01*
X54263711Y-78812949D01*
X54263711Y-78998073D01*
X54299827Y-79179640D01*
X54370671Y-79350673D01*
X54473521Y-79504598D01*
X54604424Y-79635501D01*
X54758349Y-79738351D01*
X54929382Y-79809195D01*
X55110949Y-79845311D01*
X55296073Y-79845311D01*
X55477640Y-79809195D01*
X55648673Y-79738351D01*
X55802598Y-79635501D01*
X55821388Y-79616711D01*
X58295763Y-79616711D01*
X58330689Y-79620151D01*
X58365615Y-79616711D01*
X58365625Y-79616711D01*
X58470109Y-79606420D01*
X58604170Y-79565753D01*
X58727722Y-79499713D01*
X58835087Y-79411600D01*
X65413128Y-79411600D01*
X65413128Y-80811600D01*
X65425388Y-80936082D01*
X65461698Y-81055780D01*
X65520663Y-81166094D01*
X65600015Y-81262785D01*
X65696706Y-81342137D01*
X65807020Y-81401102D01*
X65926718Y-81437412D01*
X66051200Y-81449672D01*
X66164390Y-81449672D01*
X66118841Y-81468539D01*
X65900187Y-81614638D01*
X65714238Y-81800587D01*
X65568139Y-82019241D01*
X65467504Y-82262195D01*
X65416200Y-82520114D01*
X65416200Y-82783086D01*
X65467504Y-83041005D01*
X65568139Y-83283959D01*
X65714238Y-83502613D01*
X65900187Y-83688562D01*
X66118841Y-83834661D01*
X66328730Y-83921600D01*
X66118841Y-84008539D01*
X65900187Y-84154638D01*
X65714238Y-84340587D01*
X65568139Y-84559241D01*
X65467504Y-84802195D01*
X65416200Y-85060114D01*
X65416200Y-85323086D01*
X65467504Y-85581005D01*
X65568139Y-85823959D01*
X65714238Y-86042613D01*
X65900187Y-86228562D01*
X66118841Y-86374661D01*
X66361795Y-86475296D01*
X66619714Y-86526600D01*
X66882686Y-86526600D01*
X67140605Y-86475296D01*
X67383559Y-86374661D01*
X67602213Y-86228562D01*
X67788162Y-86042613D01*
X67934261Y-85823959D01*
X68034896Y-85581005D01*
X68086200Y-85323086D01*
X68086200Y-85060114D01*
X68048471Y-84870438D01*
X78435200Y-84870438D01*
X78435200Y-85055562D01*
X78471316Y-85237129D01*
X78542160Y-85408162D01*
X78645010Y-85562087D01*
X78775913Y-85692990D01*
X78929838Y-85795840D01*
X79100871Y-85866684D01*
X79282438Y-85902800D01*
X79467562Y-85902800D01*
X79649129Y-85866684D01*
X79820162Y-85795840D01*
X79926181Y-85725000D01*
X80941425Y-85725000D01*
X81038587Y-85822162D01*
X81257241Y-85968261D01*
X81500195Y-86068896D01*
X81758114Y-86120200D01*
X82021086Y-86120200D01*
X82279005Y-86068896D01*
X82521959Y-85968261D01*
X82740613Y-85822162D01*
X82926562Y-85636213D01*
X83072661Y-85417559D01*
X83091528Y-85372010D01*
X83091528Y-85485200D01*
X83103788Y-85609682D01*
X83140098Y-85729380D01*
X83199063Y-85839694D01*
X83278415Y-85936385D01*
X83375106Y-86015737D01*
X83485420Y-86074702D01*
X83605118Y-86111012D01*
X83729600Y-86123272D01*
X85129600Y-86123272D01*
X85254082Y-86111012D01*
X85373780Y-86074702D01*
X85484094Y-86015737D01*
X85580785Y-85936385D01*
X85660137Y-85839694D01*
X85719102Y-85729380D01*
X85755412Y-85609682D01*
X85767672Y-85485200D01*
X85767672Y-84085200D01*
X85755412Y-83960718D01*
X85719102Y-83841020D01*
X85685544Y-83778238D01*
X109728000Y-83778238D01*
X109728000Y-83963362D01*
X109764116Y-84144929D01*
X109834960Y-84315962D01*
X109937810Y-84469887D01*
X110068713Y-84600790D01*
X110222638Y-84703640D01*
X110393671Y-84774484D01*
X110575238Y-84810600D01*
X110760362Y-84810600D01*
X110941929Y-84774484D01*
X111112962Y-84703640D01*
X111266887Y-84600790D01*
X111397790Y-84469887D01*
X111500640Y-84315962D01*
X111571484Y-84144929D01*
X111607600Y-83963362D01*
X111607600Y-83778238D01*
X111571484Y-83596671D01*
X111500640Y-83425638D01*
X111397790Y-83271713D01*
X111379000Y-83252923D01*
X111379000Y-81110477D01*
X111448590Y-81040887D01*
X111551440Y-80886962D01*
X111622284Y-80715929D01*
X111658400Y-80534362D01*
X111658400Y-80349238D01*
X111622284Y-80167671D01*
X111551440Y-79996638D01*
X111448590Y-79842713D01*
X111317687Y-79711810D01*
X111163762Y-79608960D01*
X110992729Y-79538116D01*
X110811162Y-79502000D01*
X110626038Y-79502000D01*
X110444471Y-79538116D01*
X110273438Y-79608960D01*
X110119513Y-79711810D01*
X109988610Y-79842713D01*
X109885760Y-79996638D01*
X109814916Y-80167671D01*
X109778800Y-80349238D01*
X109778800Y-80534362D01*
X109814916Y-80715929D01*
X109885760Y-80886962D01*
X109956601Y-80992982D01*
X109956600Y-83252923D01*
X109937810Y-83271713D01*
X109834960Y-83425638D01*
X109764116Y-83596671D01*
X109728000Y-83778238D01*
X85685544Y-83778238D01*
X85660137Y-83730706D01*
X85580785Y-83634015D01*
X85484094Y-83554663D01*
X85373780Y-83495698D01*
X85254082Y-83459388D01*
X85129600Y-83447128D01*
X85016410Y-83447128D01*
X85061959Y-83428261D01*
X85280613Y-83282162D01*
X85466562Y-83096213D01*
X85612661Y-82877559D01*
X85713296Y-82634605D01*
X85764600Y-82376686D01*
X85764600Y-82113714D01*
X85713296Y-81855795D01*
X85612661Y-81612841D01*
X85466562Y-81394187D01*
X85280613Y-81208238D01*
X85061959Y-81062139D01*
X84852070Y-80975200D01*
X85061959Y-80888261D01*
X85280613Y-80742162D01*
X85466562Y-80556213D01*
X85612661Y-80337559D01*
X85713296Y-80094605D01*
X85764600Y-79836686D01*
X85764600Y-79573714D01*
X85713296Y-79315795D01*
X85612661Y-79072841D01*
X85466562Y-78854187D01*
X85280613Y-78668238D01*
X85061959Y-78522139D01*
X84819005Y-78421504D01*
X84561086Y-78370200D01*
X84298114Y-78370200D01*
X84040195Y-78421504D01*
X83797241Y-78522139D01*
X83578587Y-78668238D01*
X83392638Y-78854187D01*
X83246539Y-79072841D01*
X83145904Y-79315795D01*
X83094600Y-79573714D01*
X83094600Y-79836686D01*
X83145904Y-80094605D01*
X83246539Y-80337559D01*
X83392638Y-80556213D01*
X83578587Y-80742162D01*
X83797241Y-80888261D01*
X84007130Y-80975200D01*
X83797241Y-81062139D01*
X83578587Y-81208238D01*
X83392638Y-81394187D01*
X83246539Y-81612841D01*
X83159600Y-81822730D01*
X83072661Y-81612841D01*
X82926562Y-81394187D01*
X82740613Y-81208238D01*
X82521959Y-81062139D01*
X82279005Y-80961504D01*
X82021086Y-80910200D01*
X81758114Y-80910200D01*
X81500195Y-80961504D01*
X81257241Y-81062139D01*
X81038587Y-81208238D01*
X80852638Y-81394187D01*
X80706539Y-81612841D01*
X80605904Y-81855795D01*
X80554600Y-82113714D01*
X80554600Y-82376686D01*
X80605904Y-82634605D01*
X80706539Y-82877559D01*
X80852638Y-83096213D01*
X81038587Y-83282162D01*
X81257241Y-83428261D01*
X81467130Y-83515200D01*
X81257241Y-83602139D01*
X81038587Y-83748238D01*
X80852638Y-83934187D01*
X80706539Y-84152841D01*
X80686591Y-84201000D01*
X79926181Y-84201000D01*
X79820162Y-84130160D01*
X79649129Y-84059316D01*
X79467562Y-84023200D01*
X79282438Y-84023200D01*
X79100871Y-84059316D01*
X78929838Y-84130160D01*
X78775913Y-84233010D01*
X78645010Y-84363913D01*
X78542160Y-84517838D01*
X78471316Y-84688871D01*
X78435200Y-84870438D01*
X68048471Y-84870438D01*
X68034896Y-84802195D01*
X67934261Y-84559241D01*
X67788162Y-84340587D01*
X67602213Y-84154638D01*
X67383559Y-84008539D01*
X67173670Y-83921600D01*
X67383559Y-83834661D01*
X67602213Y-83688562D01*
X67788162Y-83502613D01*
X67934261Y-83283959D01*
X68021200Y-83074070D01*
X68108139Y-83283959D01*
X68254238Y-83502613D01*
X68440187Y-83688562D01*
X68658841Y-83834661D01*
X68901795Y-83935296D01*
X69159714Y-83986600D01*
X69422686Y-83986600D01*
X69680605Y-83935296D01*
X69923559Y-83834661D01*
X70142213Y-83688562D01*
X70328162Y-83502613D01*
X70474261Y-83283959D01*
X70574896Y-83041005D01*
X70626200Y-82783086D01*
X70626200Y-82520114D01*
X70574896Y-82262195D01*
X70474261Y-82019241D01*
X70328162Y-81800587D01*
X70142213Y-81614638D01*
X69923559Y-81468539D01*
X69713670Y-81381600D01*
X69923559Y-81294661D01*
X70142213Y-81148562D01*
X70328162Y-80962613D01*
X70474261Y-80743959D01*
X70574896Y-80501005D01*
X70626200Y-80243086D01*
X70626200Y-79980114D01*
X70574896Y-79722195D01*
X70474261Y-79479241D01*
X70328162Y-79260587D01*
X70142213Y-79074638D01*
X69923559Y-78928539D01*
X69680605Y-78827904D01*
X69422686Y-78776600D01*
X69159714Y-78776600D01*
X68901795Y-78827904D01*
X68658841Y-78928539D01*
X68440187Y-79074638D01*
X68254238Y-79260587D01*
X68108139Y-79479241D01*
X68089272Y-79524790D01*
X68089272Y-79411600D01*
X68077012Y-79287118D01*
X68040702Y-79167420D01*
X67981737Y-79057106D01*
X67902385Y-78960415D01*
X67805694Y-78881063D01*
X67695380Y-78822098D01*
X67575682Y-78785788D01*
X67451200Y-78773528D01*
X66051200Y-78773528D01*
X65926718Y-78785788D01*
X65807020Y-78822098D01*
X65696706Y-78881063D01*
X65600015Y-78960415D01*
X65520663Y-79057106D01*
X65461698Y-79167420D01*
X65425388Y-79287118D01*
X65413128Y-79411600D01*
X58835087Y-79411600D01*
X58836016Y-79410838D01*
X58858290Y-79383697D01*
X59434300Y-78807688D01*
X59460874Y-78807688D01*
X59642441Y-78771572D01*
X59696843Y-78749038D01*
X70993000Y-78749038D01*
X70993000Y-78934162D01*
X71029116Y-79115729D01*
X71099960Y-79286762D01*
X71202810Y-79440687D01*
X71333713Y-79571590D01*
X71475601Y-79666397D01*
X71475600Y-80777922D01*
X71456810Y-80796712D01*
X71353960Y-80950637D01*
X71283116Y-81121670D01*
X71247000Y-81303237D01*
X71247000Y-81488361D01*
X71283116Y-81669928D01*
X71353960Y-81840961D01*
X71456810Y-81994886D01*
X71587713Y-82125789D01*
X71741638Y-82228639D01*
X71912671Y-82299483D01*
X72094238Y-82335599D01*
X72279362Y-82335599D01*
X72460929Y-82299483D01*
X72631962Y-82228639D01*
X72785887Y-82125789D01*
X72885300Y-82026376D01*
X72984713Y-82125789D01*
X73138638Y-82228639D01*
X73309671Y-82299483D01*
X73491238Y-82335599D01*
X73676362Y-82335599D01*
X73857929Y-82299483D01*
X74028962Y-82228639D01*
X74182887Y-82125789D01*
X74313790Y-81994886D01*
X74416640Y-81840961D01*
X74487484Y-81669928D01*
X74523600Y-81488361D01*
X74523600Y-81303237D01*
X74487484Y-81121670D01*
X74416640Y-80950637D01*
X74313790Y-80796712D01*
X74295000Y-80777922D01*
X74295000Y-79282928D01*
X74298440Y-79248000D01*
X74295000Y-79213071D01*
X74295000Y-79213064D01*
X74284709Y-79108580D01*
X74244042Y-78974519D01*
X74178002Y-78850967D01*
X74164890Y-78834990D01*
X74111398Y-78769809D01*
X74111393Y-78769804D01*
X74089127Y-78742673D01*
X74061995Y-78720407D01*
X73964800Y-78623211D01*
X73964800Y-78596638D01*
X73928684Y-78415071D01*
X73857840Y-78244038D01*
X73754990Y-78090113D01*
X73624087Y-77959210D01*
X73470162Y-77856360D01*
X73299129Y-77785516D01*
X73117562Y-77749400D01*
X72932438Y-77749400D01*
X72750871Y-77785516D01*
X72579838Y-77856360D01*
X72425913Y-77959210D01*
X72376831Y-78008292D01*
X72206929Y-77937916D01*
X72025362Y-77901800D01*
X71840238Y-77901800D01*
X71658671Y-77937916D01*
X71487638Y-78008760D01*
X71333713Y-78111610D01*
X71202810Y-78242513D01*
X71099960Y-78396438D01*
X71029116Y-78567471D01*
X70993000Y-78749038D01*
X59696843Y-78749038D01*
X59813474Y-78700728D01*
X59967399Y-78597878D01*
X60098302Y-78466975D01*
X60201152Y-78313050D01*
X60271996Y-78142017D01*
X60308112Y-77960450D01*
X60308112Y-77775326D01*
X60271996Y-77593759D01*
X60201152Y-77422726D01*
X60098302Y-77268801D01*
X59967399Y-77137898D01*
X59813474Y-77035048D01*
X59642441Y-76964204D01*
X59553156Y-76946444D01*
X59535396Y-76857159D01*
X59506018Y-76786232D01*
X64295803Y-76786232D01*
X64295803Y-76971356D01*
X64331919Y-77152923D01*
X64402763Y-77323956D01*
X64505613Y-77477881D01*
X64636516Y-77608784D01*
X64719200Y-77664032D01*
X64719200Y-77791162D01*
X64755316Y-77972729D01*
X64826160Y-78143762D01*
X64929010Y-78297687D01*
X65059913Y-78428590D01*
X65213838Y-78531440D01*
X65384871Y-78602284D01*
X65566438Y-78638400D01*
X65751562Y-78638400D01*
X65933129Y-78602284D01*
X66104162Y-78531440D01*
X66258087Y-78428590D01*
X66276877Y-78409800D01*
X67305006Y-78409800D01*
X67449038Y-78506040D01*
X67620071Y-78576884D01*
X67801638Y-78613000D01*
X67986762Y-78613000D01*
X68168329Y-78576884D01*
X68339362Y-78506040D01*
X68493287Y-78403190D01*
X68624190Y-78272287D01*
X68727040Y-78118362D01*
X68797884Y-77947329D01*
X68834000Y-77765762D01*
X68834000Y-77580638D01*
X68797884Y-77399071D01*
X68727040Y-77228038D01*
X68635989Y-77091772D01*
X68670884Y-77007529D01*
X68707000Y-76825962D01*
X68707000Y-76640838D01*
X68670884Y-76459271D01*
X68600040Y-76288238D01*
X68497190Y-76134313D01*
X68366287Y-76003410D01*
X68212362Y-75900560D01*
X68041329Y-75829716D01*
X67859762Y-75793600D01*
X67674638Y-75793600D01*
X67493071Y-75829716D01*
X67322038Y-75900560D01*
X67168113Y-76003410D01*
X67037210Y-76134313D01*
X67014972Y-76167594D01*
X65853480Y-76167594D01*
X65834690Y-76148804D01*
X65680765Y-76045954D01*
X65509732Y-75975110D01*
X65328165Y-75938994D01*
X65143041Y-75938994D01*
X64961474Y-75975110D01*
X64790441Y-76045954D01*
X64636516Y-76148804D01*
X64505613Y-76279707D01*
X64402763Y-76433632D01*
X64331919Y-76604665D01*
X64295803Y-76786232D01*
X59506018Y-76786232D01*
X59464552Y-76686126D01*
X59361702Y-76532201D01*
X59230799Y-76401298D01*
X59076874Y-76298448D01*
X58905841Y-76227604D01*
X58724274Y-76191488D01*
X58539150Y-76191488D01*
X58357583Y-76227604D01*
X58186550Y-76298448D01*
X58032625Y-76401298D01*
X57901722Y-76532201D01*
X57798872Y-76686126D01*
X57728028Y-76857159D01*
X57691912Y-77038726D01*
X57691912Y-77065300D01*
X57312613Y-77444600D01*
X55685077Y-77444600D01*
X55666287Y-77425810D01*
X55512362Y-77322960D01*
X55341329Y-77252116D01*
X55159762Y-77216000D01*
X54974638Y-77216000D01*
X54793071Y-77252116D01*
X54622038Y-77322960D01*
X54468113Y-77425810D01*
X54337210Y-77556713D01*
X54234360Y-77710638D01*
X54163516Y-77881671D01*
X54127400Y-78063238D01*
X51159602Y-78063238D01*
X51194362Y-78048840D01*
X51348287Y-77945990D01*
X51479190Y-77815087D01*
X51582040Y-77661162D01*
X51652884Y-77490129D01*
X51689000Y-77308562D01*
X51689000Y-77123438D01*
X51652884Y-76941871D01*
X51582040Y-76770838D01*
X51578210Y-76765107D01*
X51607440Y-76721362D01*
X51612975Y-76708000D01*
X51756162Y-76708000D01*
X51937729Y-76671884D01*
X52037652Y-76630495D01*
X52183638Y-76728040D01*
X52354671Y-76798884D01*
X52536238Y-76835000D01*
X52721362Y-76835000D01*
X52902929Y-76798884D01*
X53073962Y-76728040D01*
X53227887Y-76625190D01*
X53358790Y-76494287D01*
X53461640Y-76340362D01*
X53532484Y-76169329D01*
X53568600Y-75987762D01*
X53568600Y-75802638D01*
X53532484Y-75621071D01*
X53461640Y-75450038D01*
X53358790Y-75296113D01*
X53227887Y-75165210D01*
X53126116Y-75097208D01*
X115900200Y-75097208D01*
X115900200Y-75372392D01*
X115953886Y-75642290D01*
X116059195Y-75896527D01*
X116212080Y-76125335D01*
X116406665Y-76319920D01*
X116635473Y-76472805D01*
X116651395Y-76479400D01*
X116635473Y-76485995D01*
X116406665Y-76638880D01*
X116212080Y-76833465D01*
X116059195Y-77062273D01*
X115953886Y-77316510D01*
X115900200Y-77586408D01*
X115900200Y-77861592D01*
X115953886Y-78131490D01*
X116059195Y-78385727D01*
X116212080Y-78614535D01*
X116406665Y-78809120D01*
X116635473Y-78962005D01*
X116889710Y-79067314D01*
X117159608Y-79121000D01*
X117434792Y-79121000D01*
X117704690Y-79067314D01*
X117958927Y-78962005D01*
X118187735Y-78809120D01*
X118382320Y-78614535D01*
X118535205Y-78385727D01*
X118640514Y-78131490D01*
X118694200Y-77861592D01*
X118694200Y-77586408D01*
X118640514Y-77316510D01*
X118535205Y-77062273D01*
X118382320Y-76833465D01*
X118187735Y-76638880D01*
X117958927Y-76485995D01*
X117943005Y-76479400D01*
X117958927Y-76472805D01*
X118187735Y-76319920D01*
X118382320Y-76125335D01*
X118535205Y-75896527D01*
X118640514Y-75642290D01*
X118694200Y-75372392D01*
X118694200Y-75097208D01*
X118640514Y-74827310D01*
X118535205Y-74573073D01*
X118382320Y-74344265D01*
X118187735Y-74149680D01*
X117958927Y-73996795D01*
X117704690Y-73891486D01*
X117434792Y-73837800D01*
X117159608Y-73837800D01*
X116889710Y-73891486D01*
X116635473Y-73996795D01*
X116406665Y-74149680D01*
X116212080Y-74344265D01*
X116059195Y-74573073D01*
X115953886Y-74827310D01*
X115900200Y-75097208D01*
X53126116Y-75097208D01*
X53073962Y-75062360D01*
X53019422Y-75039769D01*
X53019422Y-73152949D01*
X53038212Y-73134159D01*
X53141062Y-72980234D01*
X53211906Y-72809201D01*
X53248022Y-72627634D01*
X53248022Y-72442510D01*
X53211906Y-72260943D01*
X53141062Y-72089910D01*
X53038212Y-71935985D01*
X52907309Y-71805082D01*
X52753384Y-71702232D01*
X52582351Y-71631388D01*
X52400784Y-71595272D01*
X52215660Y-71595272D01*
X52034093Y-71631388D01*
X51863060Y-71702232D01*
X51709135Y-71805082D01*
X51578232Y-71935985D01*
X51563388Y-71958200D01*
X51545638Y-71958200D01*
X51364071Y-71994316D01*
X51193038Y-72065160D01*
X51039113Y-72168010D01*
X50908210Y-72298913D01*
X50805360Y-72452838D01*
X50734516Y-72623871D01*
X50698400Y-72805438D01*
X50698400Y-72990562D01*
X50734516Y-73172129D01*
X50805360Y-73343162D01*
X50908210Y-73497087D01*
X50927000Y-73515877D01*
X50927001Y-75179004D01*
X50830760Y-75323038D01*
X50825225Y-75336400D01*
X50682038Y-75336400D01*
X50500471Y-75372516D01*
X50329438Y-75443360D01*
X50175513Y-75546210D01*
X50044610Y-75677113D01*
X49983747Y-75768200D01*
X48960988Y-75768200D01*
X48273205Y-75080418D01*
X48330840Y-74994162D01*
X48401684Y-74823129D01*
X48437800Y-74641562D01*
X48437800Y-74456438D01*
X48401684Y-74274871D01*
X48330840Y-74103838D01*
X48227990Y-73949913D01*
X48097087Y-73819010D01*
X47943162Y-73716160D01*
X47772129Y-73645316D01*
X47590562Y-73609200D01*
X47405438Y-73609200D01*
X47223871Y-73645316D01*
X47052838Y-73716160D01*
X46898913Y-73819010D01*
X46768010Y-73949913D01*
X46665160Y-74103838D01*
X46617541Y-74218800D01*
X43137477Y-74218800D01*
X43118687Y-74200010D01*
X42964762Y-74097160D01*
X42793729Y-74026316D01*
X42727849Y-74013212D01*
X42768240Y-73952762D01*
X42839084Y-73781729D01*
X42875200Y-73600162D01*
X42875200Y-73415038D01*
X42839084Y-73233471D01*
X42768240Y-73062438D01*
X42697400Y-72956419D01*
X42697400Y-68419981D01*
X42768240Y-68313962D01*
X42839084Y-68142929D01*
X42875200Y-67961362D01*
X42875200Y-67776238D01*
X42839084Y-67594671D01*
X42768240Y-67423638D01*
X42665390Y-67269713D01*
X42534487Y-67138810D01*
X42380562Y-67035960D01*
X42209529Y-66965116D01*
X42027962Y-66929000D01*
X41842838Y-66929000D01*
X41661271Y-66965116D01*
X41490238Y-67035960D01*
X41336313Y-67138810D01*
X41205410Y-67269713D01*
X41102560Y-67423638D01*
X41031716Y-67594671D01*
X40995600Y-67776238D01*
X33191208Y-67776238D01*
X33213513Y-67702711D01*
X33242185Y-67411600D01*
X33213513Y-67120489D01*
X33128599Y-66840566D01*
X32990706Y-66582586D01*
X32844668Y-66404638D01*
X42951400Y-66404638D01*
X42951400Y-66589762D01*
X42987516Y-66771329D01*
X43058360Y-66942362D01*
X43161210Y-67096287D01*
X43292113Y-67227190D01*
X43446038Y-67330040D01*
X43617071Y-67400884D01*
X43798638Y-67437000D01*
X43983762Y-67437000D01*
X44165329Y-67400884D01*
X44336362Y-67330040D01*
X44490287Y-67227190D01*
X44621190Y-67096287D01*
X44724040Y-66942362D01*
X44794884Y-66771329D01*
X44819760Y-66646270D01*
X45938792Y-65527239D01*
X45968729Y-65521284D01*
X46139762Y-65450440D01*
X46293687Y-65347590D01*
X46424590Y-65216687D01*
X46527440Y-65062762D01*
X46598284Y-64891729D01*
X46604635Y-64859800D01*
X75321528Y-64859800D01*
X75321528Y-66559800D01*
X75333788Y-66684282D01*
X75370098Y-66803980D01*
X75429063Y-66914294D01*
X75508415Y-67010985D01*
X75605106Y-67090337D01*
X75715420Y-67149302D01*
X75835118Y-67185612D01*
X75959600Y-67197872D01*
X77659600Y-67197872D01*
X77784082Y-67185612D01*
X77903780Y-67149302D01*
X78014094Y-67090337D01*
X78110785Y-67010985D01*
X78190137Y-66914294D01*
X78249102Y-66803980D01*
X78285412Y-66684282D01*
X78297672Y-66559800D01*
X78297672Y-64962608D01*
X115900200Y-64962608D01*
X115900200Y-65237792D01*
X115953886Y-65507690D01*
X116059195Y-65761927D01*
X116212080Y-65990735D01*
X116406665Y-66185320D01*
X116635473Y-66338205D01*
X116651395Y-66344800D01*
X116635473Y-66351395D01*
X116406665Y-66504280D01*
X116212080Y-66698865D01*
X116059195Y-66927673D01*
X115953886Y-67181910D01*
X115900200Y-67451808D01*
X115900200Y-67726992D01*
X115953886Y-67996890D01*
X116059195Y-68251127D01*
X116212080Y-68479935D01*
X116406665Y-68674520D01*
X116635473Y-68827405D01*
X116651395Y-68834000D01*
X116635473Y-68840595D01*
X116406665Y-68993480D01*
X116212080Y-69188065D01*
X116059195Y-69416873D01*
X115953886Y-69671110D01*
X115900200Y-69941008D01*
X115900200Y-70216192D01*
X115953886Y-70486090D01*
X116059195Y-70740327D01*
X116212080Y-70969135D01*
X116406665Y-71163720D01*
X116635473Y-71316605D01*
X116889710Y-71421914D01*
X117159608Y-71475600D01*
X117434792Y-71475600D01*
X117704690Y-71421914D01*
X117958927Y-71316605D01*
X118187735Y-71163720D01*
X118382320Y-70969135D01*
X118535205Y-70740327D01*
X118640514Y-70486090D01*
X118694200Y-70216192D01*
X118694200Y-69941008D01*
X118640514Y-69671110D01*
X118535205Y-69416873D01*
X118382320Y-69188065D01*
X118187735Y-68993480D01*
X117958927Y-68840595D01*
X117943005Y-68834000D01*
X117958927Y-68827405D01*
X118187735Y-68674520D01*
X118382320Y-68479935D01*
X118535205Y-68251127D01*
X118640514Y-67996890D01*
X118694200Y-67726992D01*
X118694200Y-67451808D01*
X118640514Y-67181910D01*
X118535205Y-66927673D01*
X118382320Y-66698865D01*
X118187735Y-66504280D01*
X117958927Y-66351395D01*
X117943005Y-66344800D01*
X117958927Y-66338205D01*
X118187735Y-66185320D01*
X118382320Y-65990735D01*
X118535205Y-65761927D01*
X118640514Y-65507690D01*
X118694200Y-65237792D01*
X118694200Y-64962608D01*
X118640514Y-64692710D01*
X118535205Y-64438473D01*
X118382320Y-64209665D01*
X118187735Y-64015080D01*
X117958927Y-63862195D01*
X117704690Y-63756886D01*
X117434792Y-63703200D01*
X117159608Y-63703200D01*
X116889710Y-63756886D01*
X116635473Y-63862195D01*
X116406665Y-64015080D01*
X116212080Y-64209665D01*
X116059195Y-64438473D01*
X115953886Y-64692710D01*
X115900200Y-64962608D01*
X78297672Y-64962608D01*
X78297672Y-64859800D01*
X78285412Y-64735318D01*
X78249102Y-64615620D01*
X78190137Y-64505306D01*
X78110785Y-64408615D01*
X78014094Y-64329263D01*
X77903780Y-64270298D01*
X77784082Y-64233988D01*
X77659600Y-64221728D01*
X75959600Y-64221728D01*
X75835118Y-64233988D01*
X75715420Y-64270298D01*
X75605106Y-64329263D01*
X75508415Y-64408615D01*
X75429063Y-64505306D01*
X75370098Y-64615620D01*
X75333788Y-64735318D01*
X75321528Y-64859800D01*
X46604635Y-64859800D01*
X46634400Y-64710162D01*
X46634400Y-64525038D01*
X46598284Y-64343471D01*
X46527440Y-64172438D01*
X46424590Y-64018513D01*
X46293687Y-63887610D01*
X46139762Y-63784760D01*
X45968729Y-63713916D01*
X45787162Y-63677800D01*
X45602038Y-63677800D01*
X45420471Y-63713916D01*
X45249438Y-63784760D01*
X45095513Y-63887610D01*
X44964610Y-64018513D01*
X44861760Y-64172438D01*
X44790916Y-64343471D01*
X44754800Y-64525038D01*
X44754800Y-64555969D01*
X43742130Y-65568640D01*
X43617071Y-65593516D01*
X43446038Y-65664360D01*
X43292113Y-65767210D01*
X43161210Y-65898113D01*
X43058360Y-66052038D01*
X42987516Y-66223071D01*
X42951400Y-66404638D01*
X32844668Y-66404638D01*
X32805134Y-66356466D01*
X32579014Y-66170894D01*
X32524209Y-66141600D01*
X32579014Y-66112306D01*
X32805134Y-65926734D01*
X32990706Y-65700614D01*
X33128599Y-65442634D01*
X33213513Y-65162711D01*
X33242185Y-64871600D01*
X33213513Y-64580489D01*
X33128599Y-64300566D01*
X32990706Y-64042586D01*
X32805134Y-63816466D01*
X32775313Y-63791993D01*
X32844180Y-63771102D01*
X32954494Y-63712137D01*
X33051185Y-63632785D01*
X33130537Y-63536094D01*
X33189502Y-63425780D01*
X33225812Y-63306082D01*
X33238072Y-63181600D01*
X33238072Y-61481600D01*
X33225812Y-61357118D01*
X33189502Y-61237420D01*
X33130537Y-61127106D01*
X33051185Y-61030415D01*
X32954494Y-60951063D01*
X32844180Y-60892098D01*
X32724482Y-60855788D01*
X32600000Y-60843528D01*
X30900000Y-60843528D01*
X30775518Y-60855788D01*
X30655820Y-60892098D01*
X30545506Y-60951063D01*
X30448815Y-61030415D01*
X30369463Y-61127106D01*
X30310498Y-61237420D01*
X30274188Y-61357118D01*
X30261928Y-61481600D01*
X30261928Y-63181600D01*
X30274188Y-63306082D01*
X30310498Y-63425780D01*
X30369463Y-63536094D01*
X30448815Y-63632785D01*
X30545506Y-63712137D01*
X30655820Y-63771102D01*
X30724687Y-63791993D01*
X30694866Y-63816466D01*
X30509294Y-64042586D01*
X30371401Y-64300566D01*
X30286487Y-64580489D01*
X30257815Y-64871600D01*
X30286487Y-65162711D01*
X30371401Y-65442634D01*
X30509294Y-65700614D01*
X30694866Y-65926734D01*
X30920986Y-66112306D01*
X30975791Y-66141600D01*
X30920986Y-66170894D01*
X30694866Y-66356466D01*
X30509294Y-66582586D01*
X30371401Y-66840566D01*
X30286487Y-67120489D01*
X30257815Y-67411600D01*
X30286487Y-67702711D01*
X30371401Y-67982634D01*
X30509294Y-68240614D01*
X30694866Y-68466734D01*
X30920986Y-68652306D01*
X30975791Y-68681600D01*
X30920986Y-68710894D01*
X30694866Y-68896466D01*
X30509294Y-69122586D01*
X30371401Y-69380566D01*
X30286487Y-69660489D01*
X30257815Y-69951600D01*
X30286487Y-70242711D01*
X30371401Y-70522634D01*
X30412860Y-70600199D01*
X27887624Y-70600199D01*
X27850201Y-70596513D01*
X27812778Y-70600199D01*
X27812775Y-70600199D01*
X27700823Y-70611225D01*
X27557186Y-70654797D01*
X27495565Y-70687734D01*
X27424808Y-70725554D01*
X27382420Y-70760342D01*
X27308779Y-70820777D01*
X27284917Y-70849853D01*
X27181330Y-70953440D01*
X27056271Y-70978316D01*
X26885238Y-71049160D01*
X26731313Y-71152010D01*
X26600410Y-71282913D01*
X26497560Y-71436838D01*
X26426716Y-71607871D01*
X26390600Y-71789438D01*
X26390600Y-71974562D01*
X26426716Y-72156129D01*
X26497560Y-72327162D01*
X26600410Y-72481087D01*
X26731313Y-72611990D01*
X26885238Y-72714840D01*
X27056271Y-72785684D01*
X27237838Y-72821800D01*
X27422962Y-72821800D01*
X27604529Y-72785684D01*
X27775562Y-72714840D01*
X27929487Y-72611990D01*
X28060390Y-72481087D01*
X28163240Y-72327162D01*
X28234084Y-72156129D01*
X28240435Y-72124199D01*
X30309629Y-72124199D01*
X30286487Y-72200489D01*
X30257815Y-72491600D01*
X30286487Y-72782711D01*
X30371401Y-73062634D01*
X30509294Y-73320614D01*
X30694866Y-73546734D01*
X30920986Y-73732306D01*
X30975791Y-73761600D01*
X30920986Y-73790894D01*
X30694866Y-73976466D01*
X30509294Y-74202586D01*
X30371401Y-74460566D01*
X30286487Y-74740489D01*
X30257815Y-75031600D01*
X30286487Y-75322711D01*
X30371401Y-75602634D01*
X30509294Y-75860614D01*
X30694866Y-76086734D01*
X30920986Y-76272306D01*
X30975791Y-76301600D01*
X30920986Y-76330894D01*
X30694866Y-76516466D01*
X30509294Y-76742586D01*
X30371401Y-77000566D01*
X30286487Y-77280489D01*
X30257815Y-77571600D01*
X30286487Y-77862711D01*
X30371401Y-78142634D01*
X30509294Y-78400614D01*
X30694866Y-78626734D01*
X30920986Y-78812306D01*
X30975791Y-78841600D01*
X30920986Y-78870894D01*
X30694866Y-79056466D01*
X30509294Y-79282586D01*
X30371401Y-79540566D01*
X30336870Y-79654400D01*
X29735781Y-79654400D01*
X29629762Y-79583560D01*
X29458729Y-79512716D01*
X29277162Y-79476600D01*
X29092038Y-79476600D01*
X28910471Y-79512716D01*
X28739438Y-79583560D01*
X28585513Y-79686410D01*
X28454610Y-79817313D01*
X28351760Y-79971238D01*
X28280916Y-80142271D01*
X28244800Y-80323838D01*
X28244800Y-80508962D01*
X28280916Y-80690529D01*
X28351760Y-80861562D01*
X28454610Y-81015487D01*
X28503223Y-81064100D01*
X28403810Y-81163513D01*
X28300960Y-81317438D01*
X28230116Y-81488471D01*
X28194000Y-81670038D01*
X28194000Y-81855162D01*
X28230116Y-82036729D01*
X28300960Y-82207762D01*
X28403810Y-82361687D01*
X28534713Y-82492590D01*
X28688638Y-82595440D01*
X28859671Y-82666284D01*
X28984729Y-82691160D01*
X29457521Y-83163951D01*
X29481378Y-83193022D01*
X29510448Y-83216879D01*
X29597407Y-83288245D01*
X29631989Y-83306729D01*
X29729785Y-83359002D01*
X29873422Y-83402574D01*
X29985374Y-83413600D01*
X29985377Y-83413600D01*
X30022800Y-83417286D01*
X30060223Y-83413600D01*
X30473474Y-83413600D01*
X30509294Y-83480614D01*
X30694866Y-83706734D01*
X30920986Y-83892306D01*
X30975791Y-83921600D01*
X30920986Y-83950894D01*
X30694866Y-84136466D01*
X30509294Y-84362586D01*
X30446321Y-84480400D01*
X26933528Y-84480400D01*
X26898600Y-84476960D01*
X26863671Y-84480400D01*
X26863664Y-84480400D01*
X26759180Y-84490691D01*
X26625119Y-84531358D01*
X26501567Y-84597398D01*
X26393273Y-84686273D01*
X26371003Y-84713409D01*
X25342734Y-85741678D01*
X25131192Y-85699600D01*
X24856008Y-85699600D01*
X24586110Y-85753286D01*
X24331873Y-85858595D01*
X24103065Y-86011480D01*
X23908480Y-86206065D01*
X23755595Y-86434873D01*
X23650286Y-86689110D01*
X23596600Y-86959008D01*
X22531397Y-86959008D01*
X22520284Y-79161208D01*
X23545800Y-79161208D01*
X23545800Y-79436392D01*
X23599486Y-79706290D01*
X23704795Y-79960527D01*
X23857680Y-80189335D01*
X24052265Y-80383920D01*
X24281073Y-80536805D01*
X24296995Y-80543400D01*
X24281073Y-80549995D01*
X24052265Y-80702880D01*
X23857680Y-80897465D01*
X23704795Y-81126273D01*
X23599486Y-81380510D01*
X23545800Y-81650408D01*
X23545800Y-81925592D01*
X23599486Y-82195490D01*
X23704795Y-82449727D01*
X23857680Y-82678535D01*
X24052265Y-82873120D01*
X24281073Y-83026005D01*
X24535310Y-83131314D01*
X24805208Y-83185000D01*
X25080392Y-83185000D01*
X25350290Y-83131314D01*
X25604527Y-83026005D01*
X25833335Y-82873120D01*
X26027920Y-82678535D01*
X26180805Y-82449727D01*
X26286114Y-82195490D01*
X26339800Y-81925592D01*
X26339800Y-81650408D01*
X26286114Y-81380510D01*
X26180805Y-81126273D01*
X26027920Y-80897465D01*
X25833335Y-80702880D01*
X25604527Y-80549995D01*
X25588605Y-80543400D01*
X25604527Y-80536805D01*
X25833335Y-80383920D01*
X26027920Y-80189335D01*
X26180805Y-79960527D01*
X26286114Y-79706290D01*
X26339800Y-79436392D01*
X26339800Y-79161208D01*
X26286114Y-78891310D01*
X26180805Y-78637073D01*
X26027920Y-78408265D01*
X25833335Y-78213680D01*
X25604527Y-78060795D01*
X25350290Y-77955486D01*
X25080392Y-77901800D01*
X24805208Y-77901800D01*
X24535310Y-77955486D01*
X24281073Y-78060795D01*
X24052265Y-78213680D01*
X23857680Y-78408265D01*
X23704795Y-78637073D01*
X23599486Y-78891310D01*
X23545800Y-79161208D01*
X22520284Y-79161208D01*
X22500240Y-65097267D01*
X22650679Y-65460460D01*
X22974517Y-65945116D01*
X23386684Y-66357283D01*
X23871340Y-66681121D01*
X24409862Y-66904184D01*
X24981554Y-67017900D01*
X25564446Y-67017900D01*
X26136138Y-66904184D01*
X26674660Y-66681121D01*
X27159316Y-66357283D01*
X27571483Y-65945116D01*
X27895321Y-65460460D01*
X28118384Y-64921938D01*
X28232100Y-64350246D01*
X28232100Y-63767354D01*
X28118384Y-63195662D01*
X27895321Y-62657140D01*
X27571483Y-62172484D01*
X27159316Y-61760317D01*
X26674660Y-61436479D01*
X26136138Y-61213416D01*
X25564446Y-61099700D01*
X24981554Y-61099700D01*
X24409862Y-61213416D01*
X23871340Y-61436479D01*
X23386684Y-61760317D01*
X22974517Y-62172484D01*
X22650679Y-62657140D01*
X22497290Y-63027455D01*
X22487270Y-55996408D01*
X23876000Y-55996408D01*
X23876000Y-56271592D01*
X23929686Y-56541490D01*
X24034995Y-56795727D01*
X24187880Y-57024535D01*
X24382465Y-57219120D01*
X24611273Y-57372005D01*
X24865510Y-57477314D01*
X25135408Y-57531000D01*
X25410592Y-57531000D01*
X25680490Y-57477314D01*
X25934727Y-57372005D01*
X26163535Y-57219120D01*
X26358120Y-57024535D01*
X26511005Y-56795727D01*
X26517600Y-56779805D01*
X26524195Y-56795727D01*
X26677080Y-57024535D01*
X26871665Y-57219120D01*
X27100473Y-57372005D01*
X27354710Y-57477314D01*
X27624608Y-57531000D01*
X27899792Y-57531000D01*
X28169690Y-57477314D01*
X28423927Y-57372005D01*
X28652735Y-57219120D01*
X28847320Y-57024535D01*
X29000205Y-56795727D01*
X29006800Y-56779805D01*
X29013395Y-56795727D01*
X29166280Y-57024535D01*
X29360865Y-57219120D01*
X29589673Y-57372005D01*
X29843910Y-57477314D01*
X30113808Y-57531000D01*
X30388992Y-57531000D01*
X30658890Y-57477314D01*
X30913127Y-57372005D01*
X31141935Y-57219120D01*
X31336520Y-57024535D01*
X31489405Y-56795727D01*
X31579639Y-56577883D01*
X31680395Y-56821127D01*
X31833280Y-57049935D01*
X32027865Y-57244520D01*
X32256673Y-57397405D01*
X32510910Y-57502714D01*
X32780808Y-57556400D01*
X33055992Y-57556400D01*
X33325890Y-57502714D01*
X33580127Y-57397405D01*
X33808935Y-57244520D01*
X34003520Y-57049935D01*
X34156405Y-56821127D01*
X34163000Y-56805205D01*
X34169595Y-56821127D01*
X34322480Y-57049935D01*
X34517065Y-57244520D01*
X34745873Y-57397405D01*
X35000110Y-57502714D01*
X35270008Y-57556400D01*
X35545192Y-57556400D01*
X35815090Y-57502714D01*
X36069327Y-57397405D01*
X36298135Y-57244520D01*
X36492720Y-57049935D01*
X36645605Y-56821127D01*
X36652200Y-56805205D01*
X36658795Y-56821127D01*
X36811680Y-57049935D01*
X37006265Y-57244520D01*
X37235073Y-57397405D01*
X37489310Y-57502714D01*
X37759208Y-57556400D01*
X38034392Y-57556400D01*
X38304290Y-57502714D01*
X38558527Y-57397405D01*
X38787335Y-57244520D01*
X38981920Y-57049935D01*
X39134805Y-56821127D01*
X39240114Y-56566890D01*
X39293800Y-56296992D01*
X39293800Y-56021808D01*
X41656000Y-56021808D01*
X41656000Y-56296992D01*
X41709686Y-56566890D01*
X41814995Y-56821127D01*
X41967880Y-57049935D01*
X42162465Y-57244520D01*
X42391273Y-57397405D01*
X42645510Y-57502714D01*
X42915408Y-57556400D01*
X43190592Y-57556400D01*
X43460490Y-57502714D01*
X43714727Y-57397405D01*
X43943535Y-57244520D01*
X44138120Y-57049935D01*
X44291005Y-56821127D01*
X44297600Y-56805205D01*
X44304195Y-56821127D01*
X44457080Y-57049935D01*
X44651665Y-57244520D01*
X44880473Y-57397405D01*
X45134710Y-57502714D01*
X45404608Y-57556400D01*
X45679792Y-57556400D01*
X45949690Y-57502714D01*
X46203927Y-57397405D01*
X46432735Y-57244520D01*
X46627320Y-57049935D01*
X46690193Y-56955838D01*
X51714400Y-56955838D01*
X51714400Y-57140962D01*
X51750516Y-57322529D01*
X51821360Y-57493562D01*
X51892201Y-57599582D01*
X51892201Y-58026967D01*
X51888514Y-58064400D01*
X51903227Y-58213778D01*
X51946799Y-58357415D01*
X52017555Y-58489792D01*
X52088921Y-58576751D01*
X52112779Y-58605822D01*
X52141849Y-58629679D01*
X53757640Y-60245471D01*
X53782516Y-60370529D01*
X53853360Y-60541562D01*
X53956210Y-60695487D01*
X54087113Y-60826390D01*
X54241038Y-60929240D01*
X54412071Y-61000084D01*
X54593638Y-61036200D01*
X54778762Y-61036200D01*
X54960329Y-61000084D01*
X55131362Y-60929240D01*
X55285287Y-60826390D01*
X55304356Y-60807321D01*
X55389971Y-60842784D01*
X55571538Y-60878900D01*
X55756662Y-60878900D01*
X55938229Y-60842784D01*
X56109262Y-60771940D01*
X56263187Y-60669090D01*
X56394090Y-60538187D01*
X56496940Y-60384262D01*
X56567784Y-60213229D01*
X56603900Y-60031662D01*
X56603900Y-59846538D01*
X56567784Y-59664971D01*
X56496940Y-59493938D01*
X56394090Y-59340013D01*
X56375300Y-59321223D01*
X56375300Y-57899481D01*
X56446140Y-57793462D01*
X56516984Y-57622429D01*
X56553100Y-57440862D01*
X56553100Y-57255738D01*
X56516984Y-57074171D01*
X56446140Y-56903138D01*
X56343290Y-56749213D01*
X56212387Y-56618310D01*
X56058462Y-56515460D01*
X55887429Y-56444616D01*
X55705862Y-56408500D01*
X55520738Y-56408500D01*
X55339171Y-56444616D01*
X55168138Y-56515460D01*
X55014213Y-56618310D01*
X54883310Y-56749213D01*
X54780460Y-56903138D01*
X54709616Y-57074171D01*
X54673500Y-57255738D01*
X54673500Y-57440862D01*
X54709616Y-57622429D01*
X54780460Y-57793462D01*
X54851300Y-57899481D01*
X54851301Y-59171029D01*
X54835271Y-59167840D01*
X53416200Y-57748770D01*
X53416200Y-57599581D01*
X53487040Y-57493562D01*
X53557884Y-57322529D01*
X53594000Y-57140962D01*
X53594000Y-56955838D01*
X53557884Y-56774271D01*
X53487040Y-56603238D01*
X53384190Y-56449313D01*
X53253287Y-56318410D01*
X53099362Y-56215560D01*
X52928329Y-56144716D01*
X52746762Y-56108600D01*
X52561638Y-56108600D01*
X52380071Y-56144716D01*
X52209038Y-56215560D01*
X52055113Y-56318410D01*
X51924210Y-56449313D01*
X51821360Y-56603238D01*
X51750516Y-56774271D01*
X51714400Y-56955838D01*
X46690193Y-56955838D01*
X46780205Y-56821127D01*
X46885514Y-56566890D01*
X46939200Y-56296992D01*
X46939200Y-56021808D01*
X46885514Y-55751910D01*
X46780205Y-55497673D01*
X46627320Y-55268865D01*
X46432735Y-55074280D01*
X46203927Y-54921395D01*
X45949690Y-54816086D01*
X45679792Y-54762400D01*
X45404608Y-54762400D01*
X45134710Y-54816086D01*
X44880473Y-54921395D01*
X44651665Y-55074280D01*
X44457080Y-55268865D01*
X44304195Y-55497673D01*
X44297600Y-55513595D01*
X44291005Y-55497673D01*
X44138120Y-55268865D01*
X43943535Y-55074280D01*
X43714727Y-54921395D01*
X43460490Y-54816086D01*
X43190592Y-54762400D01*
X42915408Y-54762400D01*
X42645510Y-54816086D01*
X42391273Y-54921395D01*
X42162465Y-55074280D01*
X41967880Y-55268865D01*
X41814995Y-55497673D01*
X41709686Y-55751910D01*
X41656000Y-56021808D01*
X39293800Y-56021808D01*
X39240114Y-55751910D01*
X39134805Y-55497673D01*
X38981920Y-55268865D01*
X38787335Y-55074280D01*
X38558527Y-54921395D01*
X38304290Y-54816086D01*
X38034392Y-54762400D01*
X37759208Y-54762400D01*
X37489310Y-54816086D01*
X37235073Y-54921395D01*
X37006265Y-55074280D01*
X36811680Y-55268865D01*
X36658795Y-55497673D01*
X36652200Y-55513595D01*
X36645605Y-55497673D01*
X36492720Y-55268865D01*
X36298135Y-55074280D01*
X36069327Y-54921395D01*
X35815090Y-54816086D01*
X35545192Y-54762400D01*
X35270008Y-54762400D01*
X35000110Y-54816086D01*
X34745873Y-54921395D01*
X34517065Y-55074280D01*
X34322480Y-55268865D01*
X34169595Y-55497673D01*
X34163000Y-55513595D01*
X34156405Y-55497673D01*
X34003520Y-55268865D01*
X33808935Y-55074280D01*
X33580127Y-54921395D01*
X33325890Y-54816086D01*
X33055992Y-54762400D01*
X32780808Y-54762400D01*
X32510910Y-54816086D01*
X32256673Y-54921395D01*
X32027865Y-55074280D01*
X31833280Y-55268865D01*
X31680395Y-55497673D01*
X31590161Y-55715517D01*
X31489405Y-55472273D01*
X31336520Y-55243465D01*
X31141935Y-55048880D01*
X30913127Y-54895995D01*
X30658890Y-54790686D01*
X30388992Y-54737000D01*
X30113808Y-54737000D01*
X29843910Y-54790686D01*
X29589673Y-54895995D01*
X29360865Y-55048880D01*
X29166280Y-55243465D01*
X29013395Y-55472273D01*
X29006800Y-55488195D01*
X29000205Y-55472273D01*
X28847320Y-55243465D01*
X28652735Y-55048880D01*
X28423927Y-54895995D01*
X28169690Y-54790686D01*
X27899792Y-54737000D01*
X27624608Y-54737000D01*
X27354710Y-54790686D01*
X27100473Y-54895995D01*
X26871665Y-55048880D01*
X26677080Y-55243465D01*
X26524195Y-55472273D01*
X26517600Y-55488195D01*
X26511005Y-55472273D01*
X26358120Y-55243465D01*
X26163535Y-55048880D01*
X25934727Y-54895995D01*
X25680490Y-54790686D01*
X25410592Y-54737000D01*
X25135408Y-54737000D01*
X24865510Y-54790686D01*
X24611273Y-54895995D01*
X24382465Y-55048880D01*
X24187880Y-55243465D01*
X24034995Y-55472273D01*
X23929686Y-55726510D01*
X23876000Y-55996408D01*
X22487270Y-55996408D01*
X22483932Y-53653838D01*
X58826400Y-53653838D01*
X58826400Y-53838962D01*
X58862516Y-54020529D01*
X58933360Y-54191562D01*
X59036210Y-54345487D01*
X59167113Y-54476390D01*
X59321038Y-54579240D01*
X59492071Y-54650084D01*
X59673638Y-54686200D01*
X59858762Y-54686200D01*
X60040329Y-54650084D01*
X60211362Y-54579240D01*
X60365287Y-54476390D01*
X60496190Y-54345487D01*
X60497214Y-54343954D01*
X78295500Y-54343954D01*
X78295500Y-54926846D01*
X78409216Y-55498538D01*
X78632279Y-56037060D01*
X78956117Y-56521716D01*
X79368284Y-56933883D01*
X79852940Y-57257721D01*
X80391462Y-57480784D01*
X80963154Y-57594500D01*
X81546046Y-57594500D01*
X82117738Y-57480784D01*
X82656260Y-57257721D01*
X83140916Y-56933883D01*
X83553083Y-56521716D01*
X83876921Y-56037060D01*
X84099984Y-55498538D01*
X84213700Y-54926846D01*
X84213700Y-54343954D01*
X84188439Y-54216954D01*
X112864900Y-54216954D01*
X112864900Y-54799846D01*
X112978616Y-55371538D01*
X113201679Y-55910060D01*
X113525517Y-56394716D01*
X113937684Y-56806883D01*
X114422340Y-57130721D01*
X114960862Y-57353784D01*
X115532554Y-57467500D01*
X116115446Y-57467500D01*
X116687138Y-57353784D01*
X117225660Y-57130721D01*
X117710316Y-56806883D01*
X118122483Y-56394716D01*
X118446321Y-55910060D01*
X118669384Y-55371538D01*
X118783100Y-54799846D01*
X118783100Y-54216954D01*
X118669384Y-53645262D01*
X118446321Y-53106740D01*
X118122483Y-52622084D01*
X117710316Y-52209917D01*
X117225660Y-51886079D01*
X116687138Y-51663016D01*
X116115446Y-51549300D01*
X115532554Y-51549300D01*
X114960862Y-51663016D01*
X114422340Y-51886079D01*
X113937684Y-52209917D01*
X113525517Y-52622084D01*
X113201679Y-53106740D01*
X112978616Y-53645262D01*
X112864900Y-54216954D01*
X84188439Y-54216954D01*
X84099984Y-53772262D01*
X83876921Y-53233740D01*
X83553083Y-52749084D01*
X83140916Y-52336917D01*
X82656260Y-52013079D01*
X82117738Y-51790016D01*
X81546046Y-51676300D01*
X80963154Y-51676300D01*
X80391462Y-51790016D01*
X79852940Y-52013079D01*
X79368284Y-52336917D01*
X78956117Y-52749084D01*
X78632279Y-53233740D01*
X78409216Y-53772262D01*
X78295500Y-54343954D01*
X60497214Y-54343954D01*
X60599040Y-54191562D01*
X60669884Y-54020529D01*
X60694760Y-53895471D01*
X61294551Y-53295679D01*
X61323622Y-53271822D01*
X61354875Y-53233740D01*
X61418845Y-53155793D01*
X61489601Y-53023416D01*
X61489602Y-53023415D01*
X61533174Y-52879778D01*
X61544200Y-52767826D01*
X61544200Y-52767823D01*
X61547886Y-52730400D01*
X61544200Y-52692977D01*
X61544200Y-52519581D01*
X61615040Y-52413562D01*
X61685884Y-52242529D01*
X61722000Y-52060962D01*
X61722000Y-51875838D01*
X61685884Y-51694271D01*
X61615040Y-51523238D01*
X61512190Y-51369313D01*
X61381287Y-51238410D01*
X61227362Y-51135560D01*
X61056329Y-51064716D01*
X60874762Y-51028600D01*
X60689638Y-51028600D01*
X60508071Y-51064716D01*
X60337038Y-51135560D01*
X60183113Y-51238410D01*
X60052210Y-51369313D01*
X59949360Y-51523238D01*
X59878516Y-51694271D01*
X59842400Y-51875838D01*
X59842400Y-52060962D01*
X59878516Y-52242529D01*
X59949360Y-52413562D01*
X59978218Y-52456751D01*
X59617129Y-52817840D01*
X59492071Y-52842716D01*
X59321038Y-52913560D01*
X59167113Y-53016410D01*
X59036210Y-53147313D01*
X58933360Y-53301238D01*
X58862516Y-53472271D01*
X58826400Y-53653838D01*
X22483932Y-53653838D01*
X22478816Y-50064760D01*
X119995168Y-50415268D01*
X119995168Y-50415268D01*
G37*
X119995168Y-50415268D02*
X120316580Y-102310935D01*
X22552990Y-102110652D01*
X22531397Y-86959008D01*
X23596600Y-86959008D01*
X23596600Y-87234192D01*
X23650286Y-87504090D01*
X23755595Y-87758327D01*
X23908480Y-87987135D01*
X24103065Y-88181720D01*
X24331873Y-88334605D01*
X24347795Y-88341200D01*
X24331873Y-88347795D01*
X24103065Y-88500680D01*
X23908480Y-88695265D01*
X23755595Y-88924073D01*
X23650286Y-89178310D01*
X23596600Y-89448208D01*
X23596600Y-89723392D01*
X23650286Y-89993290D01*
X23755595Y-90247527D01*
X23908480Y-90476335D01*
X24103065Y-90670920D01*
X24331873Y-90823805D01*
X24347795Y-90830400D01*
X24331873Y-90836995D01*
X24103065Y-90989880D01*
X23908480Y-91184465D01*
X23755595Y-91413273D01*
X23650286Y-91667510D01*
X23596600Y-91937408D01*
X23596600Y-92212592D01*
X23650286Y-92482490D01*
X23755595Y-92736727D01*
X23908480Y-92965535D01*
X24103065Y-93160120D01*
X24331873Y-93313005D01*
X24586110Y-93418314D01*
X24856008Y-93472000D01*
X25131192Y-93472000D01*
X25401090Y-93418314D01*
X25655327Y-93313005D01*
X25884135Y-93160120D01*
X26078720Y-92965535D01*
X26231605Y-92736727D01*
X26336914Y-92482490D01*
X26390600Y-92212592D01*
X26390600Y-91937408D01*
X26336914Y-91667510D01*
X26231605Y-91413273D01*
X26078720Y-91184465D01*
X25884135Y-90989880D01*
X25655327Y-90836995D01*
X25639405Y-90830400D01*
X25655327Y-90823805D01*
X25884135Y-90670920D01*
X26078720Y-90476335D01*
X26231605Y-90247527D01*
X26336914Y-89993290D01*
X26390600Y-89723392D01*
X26390600Y-89448208D01*
X26348522Y-89236666D01*
X27142388Y-88442800D01*
X30446321Y-88442800D01*
X30509294Y-88560614D01*
X30694866Y-88786734D01*
X30920986Y-88972306D01*
X30975791Y-89001600D01*
X30920986Y-89030894D01*
X30694866Y-89216466D01*
X30509294Y-89442586D01*
X30371401Y-89700566D01*
X30286487Y-89980489D01*
X30257815Y-90271600D01*
X30286487Y-90562711D01*
X30371401Y-90842634D01*
X30509294Y-91100614D01*
X30694866Y-91326734D01*
X30920986Y-91512306D01*
X30975791Y-91541600D01*
X30920986Y-91570894D01*
X30694866Y-91756466D01*
X30509294Y-91982586D01*
X30371401Y-92240566D01*
X30286487Y-92520489D01*
X30257815Y-92811600D01*
X30286487Y-93102711D01*
X30371401Y-93382634D01*
X30509294Y-93640614D01*
X30694866Y-93866734D01*
X30920986Y-94052306D01*
X30975791Y-94081600D01*
X30920986Y-94110894D01*
X30694866Y-94296466D01*
X30509294Y-94522586D01*
X30371401Y-94780566D01*
X30286487Y-95060489D01*
X30257815Y-95351600D01*
X30286487Y-95642711D01*
X30371401Y-95922634D01*
X30509294Y-96180614D01*
X30694866Y-96406734D01*
X30920986Y-96592306D01*
X30975791Y-96621600D01*
X30920986Y-96650894D01*
X30694866Y-96836466D01*
X30509294Y-97062586D01*
X30371401Y-97320566D01*
X30286487Y-97600489D01*
X30257815Y-97891600D01*
X30286487Y-98182711D01*
X30371401Y-98462634D01*
X30509294Y-98720614D01*
X30694866Y-98946734D01*
X30920986Y-99132306D01*
X30975791Y-99161600D01*
X30920986Y-99190894D01*
X30694866Y-99376466D01*
X30509294Y-99602586D01*
X30371401Y-99860566D01*
X30286487Y-100140489D01*
X30257815Y-100431600D01*
X30286487Y-100722711D01*
X30371401Y-101002634D01*
X30509294Y-101260614D01*
X30694866Y-101486734D01*
X30920986Y-101672306D01*
X31178966Y-101810199D01*
X31458889Y-101895113D01*
X31677050Y-101916600D01*
X31822950Y-101916600D01*
X32041111Y-101895113D01*
X32321034Y-101810199D01*
X32579014Y-101672306D01*
X32805134Y-101486734D01*
X32990706Y-101260614D01*
X33128599Y-101002634D01*
X33213513Y-100722711D01*
X33242185Y-100431600D01*
X33213513Y-100140489D01*
X33128599Y-99860566D01*
X32990706Y-99602586D01*
X32805134Y-99376466D01*
X32579014Y-99190894D01*
X32524209Y-99161600D01*
X32579014Y-99132306D01*
X32805134Y-98946734D01*
X32990706Y-98720614D01*
X33128599Y-98462634D01*
X33174489Y-98311354D01*
X89700100Y-98311354D01*
X89700100Y-98894246D01*
X89813816Y-99465938D01*
X90036879Y-100004460D01*
X90360717Y-100489116D01*
X90772884Y-100901283D01*
X91257540Y-101225121D01*
X91796062Y-101448184D01*
X92367754Y-101561900D01*
X92950646Y-101561900D01*
X93522338Y-101448184D01*
X94060860Y-101225121D01*
X94545516Y-100901283D01*
X94957683Y-100489116D01*
X95281521Y-100004460D01*
X95504584Y-99465938D01*
X95618300Y-98894246D01*
X95618300Y-98311354D01*
X95504584Y-97739662D01*
X95281521Y-97201140D01*
X94957683Y-96716484D01*
X94545516Y-96304317D01*
X94060860Y-95980479D01*
X93522338Y-95757416D01*
X92950646Y-95643700D01*
X92367754Y-95643700D01*
X91796062Y-95757416D01*
X91257540Y-95980479D01*
X90772884Y-96304317D01*
X90360717Y-96716484D01*
X90036879Y-97201140D01*
X89813816Y-97739662D01*
X89700100Y-98311354D01*
X33174489Y-98311354D01*
X33213513Y-98182711D01*
X33242185Y-97891600D01*
X33213513Y-97600489D01*
X33128599Y-97320566D01*
X32990706Y-97062586D01*
X32805134Y-96836466D01*
X32579014Y-96650894D01*
X32524209Y-96621600D01*
X32579014Y-96592306D01*
X32805134Y-96406734D01*
X32990706Y-96180614D01*
X33128599Y-95922634D01*
X33213513Y-95642711D01*
X33242185Y-95351600D01*
X33213513Y-95060489D01*
X33128599Y-94780566D01*
X32990706Y-94522586D01*
X32805134Y-94296466D01*
X32579014Y-94110894D01*
X32524209Y-94081600D01*
X32579014Y-94052306D01*
X32805134Y-93866734D01*
X32990706Y-93640614D01*
X33128599Y-93382634D01*
X33213513Y-93102711D01*
X33242185Y-92811600D01*
X33213513Y-92520489D01*
X33204398Y-92490438D01*
X55702200Y-92490438D01*
X55702200Y-92675562D01*
X55738316Y-92857129D01*
X55809160Y-93028162D01*
X55912010Y-93182087D01*
X56042913Y-93312990D01*
X56196838Y-93415840D01*
X56350600Y-93479530D01*
X56373316Y-93593729D01*
X56444160Y-93764762D01*
X56547010Y-93918687D01*
X56677913Y-94049590D01*
X56831838Y-94152440D01*
X57002871Y-94223284D01*
X57184438Y-94259400D01*
X57369562Y-94259400D01*
X57551129Y-94223284D01*
X57722162Y-94152440D01*
X57876087Y-94049590D01*
X57894877Y-94030800D01*
X59959874Y-94030800D01*
X59994800Y-94034240D01*
X60029726Y-94030800D01*
X60029736Y-94030800D01*
X60134220Y-94020509D01*
X60268281Y-93979842D01*
X60363025Y-93929200D01*
X60417562Y-93929200D01*
X60470811Y-93918608D01*
X78765400Y-93918608D01*
X78765400Y-94193792D01*
X78819086Y-94463690D01*
X78924395Y-94717927D01*
X79077280Y-94946735D01*
X79271865Y-95141320D01*
X79500673Y-95294205D01*
X79754910Y-95399514D01*
X80024808Y-95453200D01*
X80299992Y-95453200D01*
X80569890Y-95399514D01*
X80824127Y-95294205D01*
X81052935Y-95141320D01*
X81247520Y-94946735D01*
X81400405Y-94717927D01*
X81407000Y-94702005D01*
X81413595Y-94717927D01*
X81566480Y-94946735D01*
X81761065Y-95141320D01*
X81989873Y-95294205D01*
X82244110Y-95399514D01*
X82514008Y-95453200D01*
X82789192Y-95453200D01*
X83059090Y-95399514D01*
X83313327Y-95294205D01*
X83542135Y-95141320D01*
X83736720Y-94946735D01*
X83889605Y-94717927D01*
X83994914Y-94463690D01*
X84048600Y-94193792D01*
X84048600Y-93918608D01*
X83994914Y-93648710D01*
X83889605Y-93394473D01*
X83736720Y-93165665D01*
X83542135Y-92971080D01*
X83313327Y-92818195D01*
X83059090Y-92712886D01*
X82789192Y-92659200D01*
X82514008Y-92659200D01*
X82244110Y-92712886D01*
X81989873Y-92818195D01*
X81761065Y-92971080D01*
X81566480Y-93165665D01*
X81413595Y-93394473D01*
X81407000Y-93410395D01*
X81400405Y-93394473D01*
X81247520Y-93165665D01*
X81052935Y-92971080D01*
X80824127Y-92818195D01*
X80569890Y-92712886D01*
X80299992Y-92659200D01*
X80024808Y-92659200D01*
X79754910Y-92712886D01*
X79500673Y-92818195D01*
X79271865Y-92971080D01*
X79077280Y-93165665D01*
X78924395Y-93394473D01*
X78819086Y-93648710D01*
X78765400Y-93918608D01*
X60470811Y-93918608D01*
X60599129Y-93893084D01*
X60770162Y-93822240D01*
X60924087Y-93719390D01*
X61054990Y-93588487D01*
X61157840Y-93434562D01*
X61228684Y-93263529D01*
X61264800Y-93081962D01*
X61264800Y-92896838D01*
X61228684Y-92715271D01*
X61157840Y-92544238D01*
X61054990Y-92390313D01*
X60924087Y-92259410D01*
X60770162Y-92156560D01*
X60660749Y-92111240D01*
X60644484Y-92029471D01*
X60573640Y-91858438D01*
X60470790Y-91704513D01*
X60339887Y-91573610D01*
X60185962Y-91470760D01*
X60014929Y-91399916D01*
X59833362Y-91363800D01*
X59648238Y-91363800D01*
X59466671Y-91399916D01*
X59295638Y-91470760D01*
X59141713Y-91573610D01*
X59010810Y-91704513D01*
X58907960Y-91858438D01*
X58902425Y-91871800D01*
X57259877Y-91871800D01*
X57241087Y-91853010D01*
X57087162Y-91750160D01*
X56916129Y-91679316D01*
X56734562Y-91643200D01*
X56549438Y-91643200D01*
X56367871Y-91679316D01*
X56196838Y-91750160D01*
X56042913Y-91853010D01*
X55912010Y-91983913D01*
X55809160Y-92137838D01*
X55738316Y-92308871D01*
X55702200Y-92490438D01*
X33204398Y-92490438D01*
X33128599Y-92240566D01*
X32990706Y-91982586D01*
X32805134Y-91756466D01*
X32579014Y-91570894D01*
X32524209Y-91541600D01*
X32579014Y-91512306D01*
X32805134Y-91326734D01*
X32990706Y-91100614D01*
X33128599Y-90842634D01*
X33213513Y-90562711D01*
X33242185Y-90271600D01*
X33213624Y-89981608D01*
X78714600Y-89981608D01*
X78714600Y-90256792D01*
X78768286Y-90526690D01*
X78873595Y-90780927D01*
X79026480Y-91009735D01*
X79221065Y-91204320D01*
X79449873Y-91357205D01*
X79704110Y-91462514D01*
X79974008Y-91516200D01*
X80249192Y-91516200D01*
X80519090Y-91462514D01*
X80773327Y-91357205D01*
X81002135Y-91204320D01*
X81196720Y-91009735D01*
X81349605Y-90780927D01*
X81356200Y-90765005D01*
X81362795Y-90780927D01*
X81515680Y-91009735D01*
X81710265Y-91204320D01*
X81939073Y-91357205D01*
X82193310Y-91462514D01*
X82463208Y-91516200D01*
X82738392Y-91516200D01*
X83008290Y-91462514D01*
X83262527Y-91357205D01*
X83491335Y-91204320D01*
X83685920Y-91009735D01*
X83838805Y-90780927D01*
X83944114Y-90526690D01*
X83997800Y-90256792D01*
X83997800Y-89981608D01*
X83944114Y-89711710D01*
X83838805Y-89457473D01*
X83685920Y-89228665D01*
X83491335Y-89034080D01*
X83262527Y-88881195D01*
X83008290Y-88775886D01*
X82738392Y-88722200D01*
X82463208Y-88722200D01*
X82193310Y-88775886D01*
X81939073Y-88881195D01*
X81710265Y-89034080D01*
X81515680Y-89228665D01*
X81362795Y-89457473D01*
X81356200Y-89473395D01*
X81349605Y-89457473D01*
X81196720Y-89228665D01*
X81002135Y-89034080D01*
X80773327Y-88881195D01*
X80519090Y-88775886D01*
X80249192Y-88722200D01*
X79974008Y-88722200D01*
X79704110Y-88775886D01*
X79449873Y-88881195D01*
X79221065Y-89034080D01*
X79026480Y-89228665D01*
X78873595Y-89457473D01*
X78768286Y-89711710D01*
X78714600Y-89981608D01*
X33213624Y-89981608D01*
X33213513Y-89980489D01*
X33128599Y-89700566D01*
X32990706Y-89442586D01*
X32805134Y-89216466D01*
X32579014Y-89030894D01*
X32524209Y-89001600D01*
X32579014Y-88972306D01*
X32805134Y-88786734D01*
X32990706Y-88560614D01*
X33128599Y-88302634D01*
X33213513Y-88022711D01*
X33242185Y-87731600D01*
X33213513Y-87440489D01*
X33128599Y-87160566D01*
X32990706Y-86902586D01*
X32805134Y-86676466D01*
X32579014Y-86490894D01*
X32524209Y-86461600D01*
X32579014Y-86432306D01*
X32805134Y-86246734D01*
X32990706Y-86020614D01*
X33128599Y-85762634D01*
X33213513Y-85482711D01*
X33242185Y-85191600D01*
X33213513Y-84900489D01*
X33128599Y-84620566D01*
X33072087Y-84514838D01*
X56794400Y-84514838D01*
X56794400Y-84699962D01*
X56830516Y-84881529D01*
X56901360Y-85052562D01*
X57004210Y-85206487D01*
X57135113Y-85337390D01*
X57289038Y-85440240D01*
X57460071Y-85511084D01*
X57641638Y-85547200D01*
X57668213Y-85547200D01*
X57962800Y-85841788D01*
X57962800Y-85893762D01*
X57998916Y-86075329D01*
X58069760Y-86246362D01*
X58172610Y-86400287D01*
X58303513Y-86531190D01*
X58457438Y-86634040D01*
X58628471Y-86704884D01*
X58810038Y-86741000D01*
X58995162Y-86741000D01*
X59176729Y-86704884D01*
X59347762Y-86634040D01*
X59501687Y-86531190D01*
X59632590Y-86400287D01*
X59735440Y-86246362D01*
X59806284Y-86075329D01*
X59842400Y-85893762D01*
X59842400Y-85708638D01*
X59822191Y-85607038D01*
X61823600Y-85607038D01*
X61823600Y-85792162D01*
X61859716Y-85973729D01*
X61930560Y-86144762D01*
X62033410Y-86298687D01*
X62164313Y-86429590D01*
X62318238Y-86532440D01*
X62489271Y-86603284D01*
X62670838Y-86639400D01*
X62697412Y-86639400D01*
X63480443Y-87422432D01*
X63485316Y-87446929D01*
X63556160Y-87617962D01*
X63659010Y-87771887D01*
X63789913Y-87902790D01*
X63943838Y-88005640D01*
X64114871Y-88076484D01*
X64296438Y-88112600D01*
X64481562Y-88112600D01*
X64663129Y-88076484D01*
X64834162Y-88005640D01*
X64988087Y-87902790D01*
X65074039Y-87816838D01*
X75412600Y-87816838D01*
X75412600Y-88001962D01*
X75448716Y-88183529D01*
X75519560Y-88354562D01*
X75622410Y-88508487D01*
X75753313Y-88639390D01*
X75907238Y-88742240D01*
X76078271Y-88813084D01*
X76259838Y-88849200D01*
X76444962Y-88849200D01*
X76626529Y-88813084D01*
X76797562Y-88742240D01*
X76951487Y-88639390D01*
X76970277Y-88620600D01*
X84668412Y-88620600D01*
X84785200Y-88737388D01*
X84785200Y-88763962D01*
X84821316Y-88945529D01*
X84892160Y-89116562D01*
X84995010Y-89270487D01*
X85125913Y-89401390D01*
X85279838Y-89504240D01*
X85450871Y-89575084D01*
X85632438Y-89611200D01*
X85817562Y-89611200D01*
X85999129Y-89575084D01*
X86170162Y-89504240D01*
X86324087Y-89401390D01*
X86454990Y-89270487D01*
X86557840Y-89116562D01*
X86628684Y-88945529D01*
X86664800Y-88763962D01*
X86664800Y-88578838D01*
X86628684Y-88397271D01*
X86557840Y-88226238D01*
X86454990Y-88072313D01*
X86324087Y-87941410D01*
X86170162Y-87838560D01*
X86019092Y-87775985D01*
X86023190Y-87771887D01*
X86126040Y-87617962D01*
X86196884Y-87446929D01*
X86233000Y-87265362D01*
X86233000Y-87080238D01*
X86196884Y-86898671D01*
X86126040Y-86727638D01*
X86023190Y-86573713D01*
X85892287Y-86442810D01*
X85738362Y-86339960D01*
X85567329Y-86269116D01*
X85385762Y-86233000D01*
X85200638Y-86233000D01*
X85019071Y-86269116D01*
X84848038Y-86339960D01*
X84694113Y-86442810D01*
X84675323Y-86461600D01*
X79161588Y-86461600D01*
X78892400Y-86192413D01*
X78892400Y-86165838D01*
X78856284Y-85984271D01*
X78785440Y-85813238D01*
X78682590Y-85659313D01*
X78551687Y-85528410D01*
X78397762Y-85425560D01*
X78226729Y-85354716D01*
X78045162Y-85318600D01*
X77860038Y-85318600D01*
X77678471Y-85354716D01*
X77507438Y-85425560D01*
X77353513Y-85528410D01*
X77222610Y-85659313D01*
X77119760Y-85813238D01*
X77048916Y-85984271D01*
X77012800Y-86165838D01*
X77012800Y-86350962D01*
X77048916Y-86532529D01*
X77119760Y-86703562D01*
X77222610Y-86857487D01*
X77353513Y-86988390D01*
X77507438Y-87091240D01*
X77678471Y-87162084D01*
X77860038Y-87198200D01*
X76970277Y-87198200D01*
X76951487Y-87179410D01*
X76797562Y-87076560D01*
X76626529Y-87005716D01*
X76444962Y-86969600D01*
X76259838Y-86969600D01*
X76078271Y-87005716D01*
X75907238Y-87076560D01*
X75753313Y-87179410D01*
X75622410Y-87310313D01*
X75519560Y-87464238D01*
X75448716Y-87635271D01*
X75412600Y-87816838D01*
X65074039Y-87816838D01*
X65118990Y-87771887D01*
X65221840Y-87617962D01*
X65292684Y-87446929D01*
X65328800Y-87265362D01*
X65328800Y-87080238D01*
X65292684Y-86898671D01*
X65221840Y-86727638D01*
X65118990Y-86573713D01*
X64988087Y-86442810D01*
X64834162Y-86339960D01*
X64663129Y-86269116D01*
X64481562Y-86233000D01*
X64302588Y-86233000D01*
X63703200Y-85633612D01*
X63703200Y-85607038D01*
X63667084Y-85425471D01*
X63596240Y-85254438D01*
X63493390Y-85100513D01*
X63362487Y-84969610D01*
X63208562Y-84866760D01*
X63037529Y-84795916D01*
X62855962Y-84759800D01*
X62670838Y-84759800D01*
X62489271Y-84795916D01*
X62318238Y-84866760D01*
X62164313Y-84969610D01*
X62033410Y-85100513D01*
X61930560Y-85254438D01*
X61859716Y-85425471D01*
X61823600Y-85607038D01*
X59822191Y-85607038D01*
X59806284Y-85527071D01*
X59735440Y-85356038D01*
X59632590Y-85202113D01*
X59501687Y-85071210D01*
X59347762Y-84968360D01*
X59176729Y-84897516D01*
X58995162Y-84861400D01*
X58993988Y-84861400D01*
X58674000Y-84541413D01*
X58674000Y-84514838D01*
X58637884Y-84333271D01*
X58567040Y-84162238D01*
X58464190Y-84008313D01*
X58333287Y-83877410D01*
X58179362Y-83774560D01*
X58008329Y-83703716D01*
X57826762Y-83667600D01*
X57641638Y-83667600D01*
X57460071Y-83703716D01*
X57289038Y-83774560D01*
X57135113Y-83877410D01*
X57004210Y-84008313D01*
X56901360Y-84162238D01*
X56830516Y-84333271D01*
X56794400Y-84514838D01*
X33072087Y-84514838D01*
X32990706Y-84362586D01*
X32805134Y-84136466D01*
X32579014Y-83950894D01*
X32524209Y-83921600D01*
X32579014Y-83892306D01*
X32805134Y-83706734D01*
X32990706Y-83480614D01*
X33128599Y-83222634D01*
X33213513Y-82942711D01*
X33242185Y-82651600D01*
X33213513Y-82360489D01*
X33128599Y-82080566D01*
X32990706Y-81822586D01*
X32805134Y-81596466D01*
X32579014Y-81410894D01*
X32524209Y-81381600D01*
X32579014Y-81352306D01*
X32779906Y-81187438D01*
X53594000Y-81187438D01*
X53594000Y-81372562D01*
X53630116Y-81554129D01*
X53700960Y-81725162D01*
X53803810Y-81879087D01*
X53934713Y-82009990D01*
X54088638Y-82112840D01*
X54259671Y-82183684D01*
X54441238Y-82219800D01*
X54467812Y-82219800D01*
X55194200Y-82946188D01*
X55194200Y-83125162D01*
X55230316Y-83306729D01*
X55301160Y-83477762D01*
X55404010Y-83631687D01*
X55534913Y-83762590D01*
X55688838Y-83865440D01*
X55859871Y-83936284D01*
X56041438Y-83972400D01*
X56226562Y-83972400D01*
X56408129Y-83936284D01*
X56579162Y-83865440D01*
X56733087Y-83762590D01*
X56863990Y-83631687D01*
X56966840Y-83477762D01*
X57037684Y-83306729D01*
X57073800Y-83125162D01*
X57073800Y-82940038D01*
X57037684Y-82758471D01*
X56966840Y-82587438D01*
X56863990Y-82433513D01*
X56733087Y-82302610D01*
X56579162Y-82199760D01*
X56408129Y-82128916D01*
X56383632Y-82124043D01*
X55473600Y-81214012D01*
X55473600Y-81187438D01*
X55437484Y-81005871D01*
X55366640Y-80834838D01*
X55263790Y-80680913D01*
X55132887Y-80550010D01*
X54978962Y-80447160D01*
X54807929Y-80376316D01*
X54626362Y-80340200D01*
X54441238Y-80340200D01*
X54259671Y-80376316D01*
X54088638Y-80447160D01*
X53934713Y-80550010D01*
X53803810Y-80680913D01*
X53700960Y-80834838D01*
X53630116Y-81005871D01*
X53594000Y-81187438D01*
X32779906Y-81187438D01*
X32805134Y-81166734D01*
X32990706Y-80940614D01*
X33128599Y-80682634D01*
X33213513Y-80402711D01*
X33242185Y-80111600D01*
X33213513Y-79820489D01*
X33128599Y-79540566D01*
X32990706Y-79282586D01*
X32805134Y-79056466D01*
X32579014Y-78870894D01*
X32524209Y-78841600D01*
X32579014Y-78812306D01*
X32805134Y-78626734D01*
X32990706Y-78400614D01*
X33128599Y-78142634D01*
X33213513Y-77862711D01*
X33242185Y-77571600D01*
X33213513Y-77280489D01*
X33150462Y-77072638D01*
X34290000Y-77072638D01*
X34290000Y-77257762D01*
X34326116Y-77439329D01*
X34396960Y-77610362D01*
X34499810Y-77764287D01*
X34630713Y-77895190D01*
X34664440Y-77917725D01*
X34645600Y-78012438D01*
X34645600Y-78197562D01*
X34681716Y-78379129D01*
X34752560Y-78550162D01*
X34855410Y-78704087D01*
X34986313Y-78834990D01*
X35140238Y-78937840D01*
X35311271Y-79008684D01*
X35492838Y-79044800D01*
X35677962Y-79044800D01*
X35859529Y-79008684D01*
X36030562Y-78937840D01*
X36184487Y-78834990D01*
X36315390Y-78704087D01*
X36418240Y-78550162D01*
X36489084Y-78379129D01*
X36525200Y-78197562D01*
X36525200Y-78170988D01*
X37149988Y-77546200D01*
X37201962Y-77546200D01*
X37383529Y-77510084D01*
X37554562Y-77439240D01*
X37708487Y-77336390D01*
X37839390Y-77205487D01*
X37942240Y-77051562D01*
X38013084Y-76880529D01*
X38049200Y-76698962D01*
X38049200Y-76513838D01*
X38013084Y-76332271D01*
X37942240Y-76161238D01*
X37839390Y-76007313D01*
X37708487Y-75876410D01*
X37554562Y-75773560D01*
X37490400Y-75746983D01*
X37490400Y-75726438D01*
X37454284Y-75544871D01*
X37383440Y-75373838D01*
X37280590Y-75219913D01*
X37149687Y-75089010D01*
X36995762Y-74986160D01*
X36824729Y-74915316D01*
X36643162Y-74879200D01*
X36458038Y-74879200D01*
X36276471Y-74915316D01*
X36105438Y-74986160D01*
X35951513Y-75089010D01*
X35820610Y-75219913D01*
X35717760Y-75373838D01*
X35646916Y-75544871D01*
X35610800Y-75726438D01*
X35610800Y-75778412D01*
X35163812Y-76225400D01*
X35137238Y-76225400D01*
X34955671Y-76261516D01*
X34784638Y-76332360D01*
X34630713Y-76435210D01*
X34499810Y-76566113D01*
X34396960Y-76720038D01*
X34326116Y-76891071D01*
X34290000Y-77072638D01*
X33150462Y-77072638D01*
X33128599Y-77000566D01*
X32990706Y-76742586D01*
X32805134Y-76516466D01*
X32579014Y-76330894D01*
X32524209Y-76301600D01*
X32579014Y-76272306D01*
X32805134Y-76086734D01*
X32990706Y-75860614D01*
X33128599Y-75602634D01*
X33213513Y-75322711D01*
X33242185Y-75031600D01*
X33213513Y-74740489D01*
X33128599Y-74460566D01*
X32990706Y-74202586D01*
X32805134Y-73976466D01*
X32579014Y-73790894D01*
X32524209Y-73761600D01*
X32579014Y-73732306D01*
X32805134Y-73546734D01*
X32990706Y-73320614D01*
X33108695Y-73099873D01*
X33205692Y-73196870D01*
X33172400Y-73364238D01*
X33172400Y-73549362D01*
X33208516Y-73730929D01*
X33279360Y-73901962D01*
X33382210Y-74055887D01*
X33513113Y-74186790D01*
X33667038Y-74289640D01*
X33838071Y-74360484D01*
X34019638Y-74396600D01*
X34204762Y-74396600D01*
X34386329Y-74360484D01*
X34557362Y-74289640D01*
X34711287Y-74186790D01*
X34842190Y-74055887D01*
X34945040Y-73901962D01*
X35015884Y-73730929D01*
X35052000Y-73549362D01*
X35052000Y-73364238D01*
X35015884Y-73182671D01*
X34945040Y-73011638D01*
X34864647Y-72891321D01*
X34863174Y-72876370D01*
X34819602Y-72732733D01*
X34786665Y-72671112D01*
X34748845Y-72600355D01*
X34710076Y-72553116D01*
X34653622Y-72484326D01*
X34624546Y-72460464D01*
X33013935Y-70849853D01*
X32990073Y-70820777D01*
X32970756Y-70804924D01*
X32990706Y-70780614D01*
X33128599Y-70522634D01*
X33213513Y-70242711D01*
X33242185Y-69951600D01*
X33213513Y-69660489D01*
X33128599Y-69380566D01*
X32990706Y-69122586D01*
X32805134Y-68896466D01*
X32579014Y-68710894D01*
X32524209Y-68681600D01*
X32579014Y-68652306D01*
X32805134Y-68466734D01*
X32990706Y-68240614D01*
X33128599Y-67982634D01*
X33191208Y-67776238D01*
X40995600Y-67776238D01*
X40995600Y-67961362D01*
X41031716Y-68142929D01*
X41102560Y-68313962D01*
X41173401Y-68419982D01*
X41173400Y-72956419D01*
X41102560Y-73062438D01*
X41031716Y-73233471D01*
X40995600Y-73415038D01*
X40995600Y-73600162D01*
X41031716Y-73781729D01*
X41102560Y-73952762D01*
X41205410Y-74106687D01*
X41336313Y-74237590D01*
X41490238Y-74340440D01*
X41661271Y-74411284D01*
X41727151Y-74424388D01*
X41686760Y-74484838D01*
X41615916Y-74655871D01*
X41579800Y-74837438D01*
X41579800Y-75022562D01*
X41615916Y-75204129D01*
X41686760Y-75375162D01*
X41789610Y-75529087D01*
X41920513Y-75659990D01*
X42074438Y-75762840D01*
X42113200Y-75778896D01*
X42113200Y-75911562D01*
X42149316Y-76093129D01*
X42220160Y-76264162D01*
X42323010Y-76418087D01*
X42453913Y-76548990D01*
X42607838Y-76651840D01*
X42778871Y-76722684D01*
X42960438Y-76758800D01*
X43145562Y-76758800D01*
X43327129Y-76722684D01*
X43498162Y-76651840D01*
X43652087Y-76548990D01*
X43670877Y-76530200D01*
X46486183Y-76530200D01*
X46441916Y-76637071D01*
X46405800Y-76818638D01*
X46405800Y-77003762D01*
X46441916Y-77185329D01*
X46512760Y-77356362D01*
X46615610Y-77510287D01*
X46746513Y-77641190D01*
X46900438Y-77744040D01*
X47071471Y-77814884D01*
X47253038Y-77851000D01*
X47438162Y-77851000D01*
X47619729Y-77814884D01*
X47790762Y-77744040D01*
X47944687Y-77641190D01*
X47963477Y-77622400D01*
X49900304Y-77622400D01*
X49916360Y-77661162D01*
X50019210Y-77815087D01*
X50150113Y-77945990D01*
X50304038Y-78048840D01*
X50475071Y-78119684D01*
X50656638Y-78155800D01*
X50841762Y-78155800D01*
X51023329Y-78119684D01*
X51159602Y-78063238D01*
X54127400Y-78063238D01*
X54127400Y-78248362D01*
X54163516Y-78429929D01*
X54234360Y-78600962D01*
X54289472Y-78683442D01*
X54263711Y-78812949D01*
X54263711Y-78998073D01*
X54299827Y-79179640D01*
X54370671Y-79350673D01*
X54473521Y-79504598D01*
X54604424Y-79635501D01*
X54758349Y-79738351D01*
X54929382Y-79809195D01*
X55110949Y-79845311D01*
X55296073Y-79845311D01*
X55477640Y-79809195D01*
X55648673Y-79738351D01*
X55802598Y-79635501D01*
X55821388Y-79616711D01*
X58295763Y-79616711D01*
X58330689Y-79620151D01*
X58365615Y-79616711D01*
X58365625Y-79616711D01*
X58470109Y-79606420D01*
X58604170Y-79565753D01*
X58727722Y-79499713D01*
X58835087Y-79411600D01*
X65413128Y-79411600D01*
X65413128Y-80811600D01*
X65425388Y-80936082D01*
X65461698Y-81055780D01*
X65520663Y-81166094D01*
X65600015Y-81262785D01*
X65696706Y-81342137D01*
X65807020Y-81401102D01*
X65926718Y-81437412D01*
X66051200Y-81449672D01*
X66164390Y-81449672D01*
X66118841Y-81468539D01*
X65900187Y-81614638D01*
X65714238Y-81800587D01*
X65568139Y-82019241D01*
X65467504Y-82262195D01*
X65416200Y-82520114D01*
X65416200Y-82783086D01*
X65467504Y-83041005D01*
X65568139Y-83283959D01*
X65714238Y-83502613D01*
X65900187Y-83688562D01*
X66118841Y-83834661D01*
X66328730Y-83921600D01*
X66118841Y-84008539D01*
X65900187Y-84154638D01*
X65714238Y-84340587D01*
X65568139Y-84559241D01*
X65467504Y-84802195D01*
X65416200Y-85060114D01*
X65416200Y-85323086D01*
X65467504Y-85581005D01*
X65568139Y-85823959D01*
X65714238Y-86042613D01*
X65900187Y-86228562D01*
X66118841Y-86374661D01*
X66361795Y-86475296D01*
X66619714Y-86526600D01*
X66882686Y-86526600D01*
X67140605Y-86475296D01*
X67383559Y-86374661D01*
X67602213Y-86228562D01*
X67788162Y-86042613D01*
X67934261Y-85823959D01*
X68034896Y-85581005D01*
X68086200Y-85323086D01*
X68086200Y-85060114D01*
X68048471Y-84870438D01*
X78435200Y-84870438D01*
X78435200Y-85055562D01*
X78471316Y-85237129D01*
X78542160Y-85408162D01*
X78645010Y-85562087D01*
X78775913Y-85692990D01*
X78929838Y-85795840D01*
X79100871Y-85866684D01*
X79282438Y-85902800D01*
X79467562Y-85902800D01*
X79649129Y-85866684D01*
X79820162Y-85795840D01*
X79926181Y-85725000D01*
X80941425Y-85725000D01*
X81038587Y-85822162D01*
X81257241Y-85968261D01*
X81500195Y-86068896D01*
X81758114Y-86120200D01*
X82021086Y-86120200D01*
X82279005Y-86068896D01*
X82521959Y-85968261D01*
X82740613Y-85822162D01*
X82926562Y-85636213D01*
X83072661Y-85417559D01*
X83091528Y-85372010D01*
X83091528Y-85485200D01*
X83103788Y-85609682D01*
X83140098Y-85729380D01*
X83199063Y-85839694D01*
X83278415Y-85936385D01*
X83375106Y-86015737D01*
X83485420Y-86074702D01*
X83605118Y-86111012D01*
X83729600Y-86123272D01*
X85129600Y-86123272D01*
X85254082Y-86111012D01*
X85373780Y-86074702D01*
X85484094Y-86015737D01*
X85580785Y-85936385D01*
X85660137Y-85839694D01*
X85719102Y-85729380D01*
X85755412Y-85609682D01*
X85767672Y-85485200D01*
X85767672Y-84085200D01*
X85755412Y-83960718D01*
X85719102Y-83841020D01*
X85685544Y-83778238D01*
X109728000Y-83778238D01*
X109728000Y-83963362D01*
X109764116Y-84144929D01*
X109834960Y-84315962D01*
X109937810Y-84469887D01*
X110068713Y-84600790D01*
X110222638Y-84703640D01*
X110393671Y-84774484D01*
X110575238Y-84810600D01*
X110760362Y-84810600D01*
X110941929Y-84774484D01*
X111112962Y-84703640D01*
X111266887Y-84600790D01*
X111397790Y-84469887D01*
X111500640Y-84315962D01*
X111571484Y-84144929D01*
X111607600Y-83963362D01*
X111607600Y-83778238D01*
X111571484Y-83596671D01*
X111500640Y-83425638D01*
X111397790Y-83271713D01*
X111379000Y-83252923D01*
X111379000Y-81110477D01*
X111448590Y-81040887D01*
X111551440Y-80886962D01*
X111622284Y-80715929D01*
X111658400Y-80534362D01*
X111658400Y-80349238D01*
X111622284Y-80167671D01*
X111551440Y-79996638D01*
X111448590Y-79842713D01*
X111317687Y-79711810D01*
X111163762Y-79608960D01*
X110992729Y-79538116D01*
X110811162Y-79502000D01*
X110626038Y-79502000D01*
X110444471Y-79538116D01*
X110273438Y-79608960D01*
X110119513Y-79711810D01*
X109988610Y-79842713D01*
X109885760Y-79996638D01*
X109814916Y-80167671D01*
X109778800Y-80349238D01*
X109778800Y-80534362D01*
X109814916Y-80715929D01*
X109885760Y-80886962D01*
X109956601Y-80992982D01*
X109956600Y-83252923D01*
X109937810Y-83271713D01*
X109834960Y-83425638D01*
X109764116Y-83596671D01*
X109728000Y-83778238D01*
X85685544Y-83778238D01*
X85660137Y-83730706D01*
X85580785Y-83634015D01*
X85484094Y-83554663D01*
X85373780Y-83495698D01*
X85254082Y-83459388D01*
X85129600Y-83447128D01*
X85016410Y-83447128D01*
X85061959Y-83428261D01*
X85280613Y-83282162D01*
X85466562Y-83096213D01*
X85612661Y-82877559D01*
X85713296Y-82634605D01*
X85764600Y-82376686D01*
X85764600Y-82113714D01*
X85713296Y-81855795D01*
X85612661Y-81612841D01*
X85466562Y-81394187D01*
X85280613Y-81208238D01*
X85061959Y-81062139D01*
X84852070Y-80975200D01*
X85061959Y-80888261D01*
X85280613Y-80742162D01*
X85466562Y-80556213D01*
X85612661Y-80337559D01*
X85713296Y-80094605D01*
X85764600Y-79836686D01*
X85764600Y-79573714D01*
X85713296Y-79315795D01*
X85612661Y-79072841D01*
X85466562Y-78854187D01*
X85280613Y-78668238D01*
X85061959Y-78522139D01*
X84819005Y-78421504D01*
X84561086Y-78370200D01*
X84298114Y-78370200D01*
X84040195Y-78421504D01*
X83797241Y-78522139D01*
X83578587Y-78668238D01*
X83392638Y-78854187D01*
X83246539Y-79072841D01*
X83145904Y-79315795D01*
X83094600Y-79573714D01*
X83094600Y-79836686D01*
X83145904Y-80094605D01*
X83246539Y-80337559D01*
X83392638Y-80556213D01*
X83578587Y-80742162D01*
X83797241Y-80888261D01*
X84007130Y-80975200D01*
X83797241Y-81062139D01*
X83578587Y-81208238D01*
X83392638Y-81394187D01*
X83246539Y-81612841D01*
X83159600Y-81822730D01*
X83072661Y-81612841D01*
X82926562Y-81394187D01*
X82740613Y-81208238D01*
X82521959Y-81062139D01*
X82279005Y-80961504D01*
X82021086Y-80910200D01*
X81758114Y-80910200D01*
X81500195Y-80961504D01*
X81257241Y-81062139D01*
X81038587Y-81208238D01*
X80852638Y-81394187D01*
X80706539Y-81612841D01*
X80605904Y-81855795D01*
X80554600Y-82113714D01*
X80554600Y-82376686D01*
X80605904Y-82634605D01*
X80706539Y-82877559D01*
X80852638Y-83096213D01*
X81038587Y-83282162D01*
X81257241Y-83428261D01*
X81467130Y-83515200D01*
X81257241Y-83602139D01*
X81038587Y-83748238D01*
X80852638Y-83934187D01*
X80706539Y-84152841D01*
X80686591Y-84201000D01*
X79926181Y-84201000D01*
X79820162Y-84130160D01*
X79649129Y-84059316D01*
X79467562Y-84023200D01*
X79282438Y-84023200D01*
X79100871Y-84059316D01*
X78929838Y-84130160D01*
X78775913Y-84233010D01*
X78645010Y-84363913D01*
X78542160Y-84517838D01*
X78471316Y-84688871D01*
X78435200Y-84870438D01*
X68048471Y-84870438D01*
X68034896Y-84802195D01*
X67934261Y-84559241D01*
X67788162Y-84340587D01*
X67602213Y-84154638D01*
X67383559Y-84008539D01*
X67173670Y-83921600D01*
X67383559Y-83834661D01*
X67602213Y-83688562D01*
X67788162Y-83502613D01*
X67934261Y-83283959D01*
X68021200Y-83074070D01*
X68108139Y-83283959D01*
X68254238Y-83502613D01*
X68440187Y-83688562D01*
X68658841Y-83834661D01*
X68901795Y-83935296D01*
X69159714Y-83986600D01*
X69422686Y-83986600D01*
X69680605Y-83935296D01*
X69923559Y-83834661D01*
X70142213Y-83688562D01*
X70328162Y-83502613D01*
X70474261Y-83283959D01*
X70574896Y-83041005D01*
X70626200Y-82783086D01*
X70626200Y-82520114D01*
X70574896Y-82262195D01*
X70474261Y-82019241D01*
X70328162Y-81800587D01*
X70142213Y-81614638D01*
X69923559Y-81468539D01*
X69713670Y-81381600D01*
X69923559Y-81294661D01*
X70142213Y-81148562D01*
X70328162Y-80962613D01*
X70474261Y-80743959D01*
X70574896Y-80501005D01*
X70626200Y-80243086D01*
X70626200Y-79980114D01*
X70574896Y-79722195D01*
X70474261Y-79479241D01*
X70328162Y-79260587D01*
X70142213Y-79074638D01*
X69923559Y-78928539D01*
X69680605Y-78827904D01*
X69422686Y-78776600D01*
X69159714Y-78776600D01*
X68901795Y-78827904D01*
X68658841Y-78928539D01*
X68440187Y-79074638D01*
X68254238Y-79260587D01*
X68108139Y-79479241D01*
X68089272Y-79524790D01*
X68089272Y-79411600D01*
X68077012Y-79287118D01*
X68040702Y-79167420D01*
X67981737Y-79057106D01*
X67902385Y-78960415D01*
X67805694Y-78881063D01*
X67695380Y-78822098D01*
X67575682Y-78785788D01*
X67451200Y-78773528D01*
X66051200Y-78773528D01*
X65926718Y-78785788D01*
X65807020Y-78822098D01*
X65696706Y-78881063D01*
X65600015Y-78960415D01*
X65520663Y-79057106D01*
X65461698Y-79167420D01*
X65425388Y-79287118D01*
X65413128Y-79411600D01*
X58835087Y-79411600D01*
X58836016Y-79410838D01*
X58858290Y-79383697D01*
X59434300Y-78807688D01*
X59460874Y-78807688D01*
X59642441Y-78771572D01*
X59696843Y-78749038D01*
X70993000Y-78749038D01*
X70993000Y-78934162D01*
X71029116Y-79115729D01*
X71099960Y-79286762D01*
X71202810Y-79440687D01*
X71333713Y-79571590D01*
X71475601Y-79666397D01*
X71475600Y-80777922D01*
X71456810Y-80796712D01*
X71353960Y-80950637D01*
X71283116Y-81121670D01*
X71247000Y-81303237D01*
X71247000Y-81488361D01*
X71283116Y-81669928D01*
X71353960Y-81840961D01*
X71456810Y-81994886D01*
X71587713Y-82125789D01*
X71741638Y-82228639D01*
X71912671Y-82299483D01*
X72094238Y-82335599D01*
X72279362Y-82335599D01*
X72460929Y-82299483D01*
X72631962Y-82228639D01*
X72785887Y-82125789D01*
X72885300Y-82026376D01*
X72984713Y-82125789D01*
X73138638Y-82228639D01*
X73309671Y-82299483D01*
X73491238Y-82335599D01*
X73676362Y-82335599D01*
X73857929Y-82299483D01*
X74028962Y-82228639D01*
X74182887Y-82125789D01*
X74313790Y-81994886D01*
X74416640Y-81840961D01*
X74487484Y-81669928D01*
X74523600Y-81488361D01*
X74523600Y-81303237D01*
X74487484Y-81121670D01*
X74416640Y-80950637D01*
X74313790Y-80796712D01*
X74295000Y-80777922D01*
X74295000Y-79282928D01*
X74298440Y-79248000D01*
X74295000Y-79213071D01*
X74295000Y-79213064D01*
X74284709Y-79108580D01*
X74244042Y-78974519D01*
X74178002Y-78850967D01*
X74164890Y-78834990D01*
X74111398Y-78769809D01*
X74111393Y-78769804D01*
X74089127Y-78742673D01*
X74061995Y-78720407D01*
X73964800Y-78623211D01*
X73964800Y-78596638D01*
X73928684Y-78415071D01*
X73857840Y-78244038D01*
X73754990Y-78090113D01*
X73624087Y-77959210D01*
X73470162Y-77856360D01*
X73299129Y-77785516D01*
X73117562Y-77749400D01*
X72932438Y-77749400D01*
X72750871Y-77785516D01*
X72579838Y-77856360D01*
X72425913Y-77959210D01*
X72376831Y-78008292D01*
X72206929Y-77937916D01*
X72025362Y-77901800D01*
X71840238Y-77901800D01*
X71658671Y-77937916D01*
X71487638Y-78008760D01*
X71333713Y-78111610D01*
X71202810Y-78242513D01*
X71099960Y-78396438D01*
X71029116Y-78567471D01*
X70993000Y-78749038D01*
X59696843Y-78749038D01*
X59813474Y-78700728D01*
X59967399Y-78597878D01*
X60098302Y-78466975D01*
X60201152Y-78313050D01*
X60271996Y-78142017D01*
X60308112Y-77960450D01*
X60308112Y-77775326D01*
X60271996Y-77593759D01*
X60201152Y-77422726D01*
X60098302Y-77268801D01*
X59967399Y-77137898D01*
X59813474Y-77035048D01*
X59642441Y-76964204D01*
X59553156Y-76946444D01*
X59535396Y-76857159D01*
X59506018Y-76786232D01*
X64295803Y-76786232D01*
X64295803Y-76971356D01*
X64331919Y-77152923D01*
X64402763Y-77323956D01*
X64505613Y-77477881D01*
X64636516Y-77608784D01*
X64719200Y-77664032D01*
X64719200Y-77791162D01*
X64755316Y-77972729D01*
X64826160Y-78143762D01*
X64929010Y-78297687D01*
X65059913Y-78428590D01*
X65213838Y-78531440D01*
X65384871Y-78602284D01*
X65566438Y-78638400D01*
X65751562Y-78638400D01*
X65933129Y-78602284D01*
X66104162Y-78531440D01*
X66258087Y-78428590D01*
X66276877Y-78409800D01*
X67305006Y-78409800D01*
X67449038Y-78506040D01*
X67620071Y-78576884D01*
X67801638Y-78613000D01*
X67986762Y-78613000D01*
X68168329Y-78576884D01*
X68339362Y-78506040D01*
X68493287Y-78403190D01*
X68624190Y-78272287D01*
X68727040Y-78118362D01*
X68797884Y-77947329D01*
X68834000Y-77765762D01*
X68834000Y-77580638D01*
X68797884Y-77399071D01*
X68727040Y-77228038D01*
X68635989Y-77091772D01*
X68670884Y-77007529D01*
X68707000Y-76825962D01*
X68707000Y-76640838D01*
X68670884Y-76459271D01*
X68600040Y-76288238D01*
X68497190Y-76134313D01*
X68366287Y-76003410D01*
X68212362Y-75900560D01*
X68041329Y-75829716D01*
X67859762Y-75793600D01*
X67674638Y-75793600D01*
X67493071Y-75829716D01*
X67322038Y-75900560D01*
X67168113Y-76003410D01*
X67037210Y-76134313D01*
X67014972Y-76167594D01*
X65853480Y-76167594D01*
X65834690Y-76148804D01*
X65680765Y-76045954D01*
X65509732Y-75975110D01*
X65328165Y-75938994D01*
X65143041Y-75938994D01*
X64961474Y-75975110D01*
X64790441Y-76045954D01*
X64636516Y-76148804D01*
X64505613Y-76279707D01*
X64402763Y-76433632D01*
X64331919Y-76604665D01*
X64295803Y-76786232D01*
X59506018Y-76786232D01*
X59464552Y-76686126D01*
X59361702Y-76532201D01*
X59230799Y-76401298D01*
X59076874Y-76298448D01*
X58905841Y-76227604D01*
X58724274Y-76191488D01*
X58539150Y-76191488D01*
X58357583Y-76227604D01*
X58186550Y-76298448D01*
X58032625Y-76401298D01*
X57901722Y-76532201D01*
X57798872Y-76686126D01*
X57728028Y-76857159D01*
X57691912Y-77038726D01*
X57691912Y-77065300D01*
X57312613Y-77444600D01*
X55685077Y-77444600D01*
X55666287Y-77425810D01*
X55512362Y-77322960D01*
X55341329Y-77252116D01*
X55159762Y-77216000D01*
X54974638Y-77216000D01*
X54793071Y-77252116D01*
X54622038Y-77322960D01*
X54468113Y-77425810D01*
X54337210Y-77556713D01*
X54234360Y-77710638D01*
X54163516Y-77881671D01*
X54127400Y-78063238D01*
X51159602Y-78063238D01*
X51194362Y-78048840D01*
X51348287Y-77945990D01*
X51479190Y-77815087D01*
X51582040Y-77661162D01*
X51652884Y-77490129D01*
X51689000Y-77308562D01*
X51689000Y-77123438D01*
X51652884Y-76941871D01*
X51582040Y-76770838D01*
X51578210Y-76765107D01*
X51607440Y-76721362D01*
X51612975Y-76708000D01*
X51756162Y-76708000D01*
X51937729Y-76671884D01*
X52037652Y-76630495D01*
X52183638Y-76728040D01*
X52354671Y-76798884D01*
X52536238Y-76835000D01*
X52721362Y-76835000D01*
X52902929Y-76798884D01*
X53073962Y-76728040D01*
X53227887Y-76625190D01*
X53358790Y-76494287D01*
X53461640Y-76340362D01*
X53532484Y-76169329D01*
X53568600Y-75987762D01*
X53568600Y-75802638D01*
X53532484Y-75621071D01*
X53461640Y-75450038D01*
X53358790Y-75296113D01*
X53227887Y-75165210D01*
X53126116Y-75097208D01*
X115900200Y-75097208D01*
X115900200Y-75372392D01*
X115953886Y-75642290D01*
X116059195Y-75896527D01*
X116212080Y-76125335D01*
X116406665Y-76319920D01*
X116635473Y-76472805D01*
X116651395Y-76479400D01*
X116635473Y-76485995D01*
X116406665Y-76638880D01*
X116212080Y-76833465D01*
X116059195Y-77062273D01*
X115953886Y-77316510D01*
X115900200Y-77586408D01*
X115900200Y-77861592D01*
X115953886Y-78131490D01*
X116059195Y-78385727D01*
X116212080Y-78614535D01*
X116406665Y-78809120D01*
X116635473Y-78962005D01*
X116889710Y-79067314D01*
X117159608Y-79121000D01*
X117434792Y-79121000D01*
X117704690Y-79067314D01*
X117958927Y-78962005D01*
X118187735Y-78809120D01*
X118382320Y-78614535D01*
X118535205Y-78385727D01*
X118640514Y-78131490D01*
X118694200Y-77861592D01*
X118694200Y-77586408D01*
X118640514Y-77316510D01*
X118535205Y-77062273D01*
X118382320Y-76833465D01*
X118187735Y-76638880D01*
X117958927Y-76485995D01*
X117943005Y-76479400D01*
X117958927Y-76472805D01*
X118187735Y-76319920D01*
X118382320Y-76125335D01*
X118535205Y-75896527D01*
X118640514Y-75642290D01*
X118694200Y-75372392D01*
X118694200Y-75097208D01*
X118640514Y-74827310D01*
X118535205Y-74573073D01*
X118382320Y-74344265D01*
X118187735Y-74149680D01*
X117958927Y-73996795D01*
X117704690Y-73891486D01*
X117434792Y-73837800D01*
X117159608Y-73837800D01*
X116889710Y-73891486D01*
X116635473Y-73996795D01*
X116406665Y-74149680D01*
X116212080Y-74344265D01*
X116059195Y-74573073D01*
X115953886Y-74827310D01*
X115900200Y-75097208D01*
X53126116Y-75097208D01*
X53073962Y-75062360D01*
X53019422Y-75039769D01*
X53019422Y-73152949D01*
X53038212Y-73134159D01*
X53141062Y-72980234D01*
X53211906Y-72809201D01*
X53248022Y-72627634D01*
X53248022Y-72442510D01*
X53211906Y-72260943D01*
X53141062Y-72089910D01*
X53038212Y-71935985D01*
X52907309Y-71805082D01*
X52753384Y-71702232D01*
X52582351Y-71631388D01*
X52400784Y-71595272D01*
X52215660Y-71595272D01*
X52034093Y-71631388D01*
X51863060Y-71702232D01*
X51709135Y-71805082D01*
X51578232Y-71935985D01*
X51563388Y-71958200D01*
X51545638Y-71958200D01*
X51364071Y-71994316D01*
X51193038Y-72065160D01*
X51039113Y-72168010D01*
X50908210Y-72298913D01*
X50805360Y-72452838D01*
X50734516Y-72623871D01*
X50698400Y-72805438D01*
X50698400Y-72990562D01*
X50734516Y-73172129D01*
X50805360Y-73343162D01*
X50908210Y-73497087D01*
X50927000Y-73515877D01*
X50927001Y-75179004D01*
X50830760Y-75323038D01*
X50825225Y-75336400D01*
X50682038Y-75336400D01*
X50500471Y-75372516D01*
X50329438Y-75443360D01*
X50175513Y-75546210D01*
X50044610Y-75677113D01*
X49983747Y-75768200D01*
X48960988Y-75768200D01*
X48273205Y-75080418D01*
X48330840Y-74994162D01*
X48401684Y-74823129D01*
X48437800Y-74641562D01*
X48437800Y-74456438D01*
X48401684Y-74274871D01*
X48330840Y-74103838D01*
X48227990Y-73949913D01*
X48097087Y-73819010D01*
X47943162Y-73716160D01*
X47772129Y-73645316D01*
X47590562Y-73609200D01*
X47405438Y-73609200D01*
X47223871Y-73645316D01*
X47052838Y-73716160D01*
X46898913Y-73819010D01*
X46768010Y-73949913D01*
X46665160Y-74103838D01*
X46617541Y-74218800D01*
X43137477Y-74218800D01*
X43118687Y-74200010D01*
X42964762Y-74097160D01*
X42793729Y-74026316D01*
X42727849Y-74013212D01*
X42768240Y-73952762D01*
X42839084Y-73781729D01*
X42875200Y-73600162D01*
X42875200Y-73415038D01*
X42839084Y-73233471D01*
X42768240Y-73062438D01*
X42697400Y-72956419D01*
X42697400Y-68419981D01*
X42768240Y-68313962D01*
X42839084Y-68142929D01*
X42875200Y-67961362D01*
X42875200Y-67776238D01*
X42839084Y-67594671D01*
X42768240Y-67423638D01*
X42665390Y-67269713D01*
X42534487Y-67138810D01*
X42380562Y-67035960D01*
X42209529Y-66965116D01*
X42027962Y-66929000D01*
X41842838Y-66929000D01*
X41661271Y-66965116D01*
X41490238Y-67035960D01*
X41336313Y-67138810D01*
X41205410Y-67269713D01*
X41102560Y-67423638D01*
X41031716Y-67594671D01*
X40995600Y-67776238D01*
X33191208Y-67776238D01*
X33213513Y-67702711D01*
X33242185Y-67411600D01*
X33213513Y-67120489D01*
X33128599Y-66840566D01*
X32990706Y-66582586D01*
X32844668Y-66404638D01*
X42951400Y-66404638D01*
X42951400Y-66589762D01*
X42987516Y-66771329D01*
X43058360Y-66942362D01*
X43161210Y-67096287D01*
X43292113Y-67227190D01*
X43446038Y-67330040D01*
X43617071Y-67400884D01*
X43798638Y-67437000D01*
X43983762Y-67437000D01*
X44165329Y-67400884D01*
X44336362Y-67330040D01*
X44490287Y-67227190D01*
X44621190Y-67096287D01*
X44724040Y-66942362D01*
X44794884Y-66771329D01*
X44819760Y-66646270D01*
X45938792Y-65527239D01*
X45968729Y-65521284D01*
X46139762Y-65450440D01*
X46293687Y-65347590D01*
X46424590Y-65216687D01*
X46527440Y-65062762D01*
X46598284Y-64891729D01*
X46604635Y-64859800D01*
X75321528Y-64859800D01*
X75321528Y-66559800D01*
X75333788Y-66684282D01*
X75370098Y-66803980D01*
X75429063Y-66914294D01*
X75508415Y-67010985D01*
X75605106Y-67090337D01*
X75715420Y-67149302D01*
X75835118Y-67185612D01*
X75959600Y-67197872D01*
X77659600Y-67197872D01*
X77784082Y-67185612D01*
X77903780Y-67149302D01*
X78014094Y-67090337D01*
X78110785Y-67010985D01*
X78190137Y-66914294D01*
X78249102Y-66803980D01*
X78285412Y-66684282D01*
X78297672Y-66559800D01*
X78297672Y-64962608D01*
X115900200Y-64962608D01*
X115900200Y-65237792D01*
X115953886Y-65507690D01*
X116059195Y-65761927D01*
X116212080Y-65990735D01*
X116406665Y-66185320D01*
X116635473Y-66338205D01*
X116651395Y-66344800D01*
X116635473Y-66351395D01*
X116406665Y-66504280D01*
X116212080Y-66698865D01*
X116059195Y-66927673D01*
X115953886Y-67181910D01*
X115900200Y-67451808D01*
X115900200Y-67726992D01*
X115953886Y-67996890D01*
X116059195Y-68251127D01*
X116212080Y-68479935D01*
X116406665Y-68674520D01*
X116635473Y-68827405D01*
X116651395Y-68834000D01*
X116635473Y-68840595D01*
X116406665Y-68993480D01*
X116212080Y-69188065D01*
X116059195Y-69416873D01*
X115953886Y-69671110D01*
X115900200Y-69941008D01*
X115900200Y-70216192D01*
X115953886Y-70486090D01*
X116059195Y-70740327D01*
X116212080Y-70969135D01*
X116406665Y-71163720D01*
X116635473Y-71316605D01*
X116889710Y-71421914D01*
X117159608Y-71475600D01*
X117434792Y-71475600D01*
X117704690Y-71421914D01*
X117958927Y-71316605D01*
X118187735Y-71163720D01*
X118382320Y-70969135D01*
X118535205Y-70740327D01*
X118640514Y-70486090D01*
X118694200Y-70216192D01*
X118694200Y-69941008D01*
X118640514Y-69671110D01*
X118535205Y-69416873D01*
X118382320Y-69188065D01*
X118187735Y-68993480D01*
X117958927Y-68840595D01*
X117943005Y-68834000D01*
X117958927Y-68827405D01*
X118187735Y-68674520D01*
X118382320Y-68479935D01*
X118535205Y-68251127D01*
X118640514Y-67996890D01*
X118694200Y-67726992D01*
X118694200Y-67451808D01*
X118640514Y-67181910D01*
X118535205Y-66927673D01*
X118382320Y-66698865D01*
X118187735Y-66504280D01*
X117958927Y-66351395D01*
X117943005Y-66344800D01*
X117958927Y-66338205D01*
X118187735Y-66185320D01*
X118382320Y-65990735D01*
X118535205Y-65761927D01*
X118640514Y-65507690D01*
X118694200Y-65237792D01*
X118694200Y-64962608D01*
X118640514Y-64692710D01*
X118535205Y-64438473D01*
X118382320Y-64209665D01*
X118187735Y-64015080D01*
X117958927Y-63862195D01*
X117704690Y-63756886D01*
X117434792Y-63703200D01*
X117159608Y-63703200D01*
X116889710Y-63756886D01*
X116635473Y-63862195D01*
X116406665Y-64015080D01*
X116212080Y-64209665D01*
X116059195Y-64438473D01*
X115953886Y-64692710D01*
X115900200Y-64962608D01*
X78297672Y-64962608D01*
X78297672Y-64859800D01*
X78285412Y-64735318D01*
X78249102Y-64615620D01*
X78190137Y-64505306D01*
X78110785Y-64408615D01*
X78014094Y-64329263D01*
X77903780Y-64270298D01*
X77784082Y-64233988D01*
X77659600Y-64221728D01*
X75959600Y-64221728D01*
X75835118Y-64233988D01*
X75715420Y-64270298D01*
X75605106Y-64329263D01*
X75508415Y-64408615D01*
X75429063Y-64505306D01*
X75370098Y-64615620D01*
X75333788Y-64735318D01*
X75321528Y-64859800D01*
X46604635Y-64859800D01*
X46634400Y-64710162D01*
X46634400Y-64525038D01*
X46598284Y-64343471D01*
X46527440Y-64172438D01*
X46424590Y-64018513D01*
X46293687Y-63887610D01*
X46139762Y-63784760D01*
X45968729Y-63713916D01*
X45787162Y-63677800D01*
X45602038Y-63677800D01*
X45420471Y-63713916D01*
X45249438Y-63784760D01*
X45095513Y-63887610D01*
X44964610Y-64018513D01*
X44861760Y-64172438D01*
X44790916Y-64343471D01*
X44754800Y-64525038D01*
X44754800Y-64555969D01*
X43742130Y-65568640D01*
X43617071Y-65593516D01*
X43446038Y-65664360D01*
X43292113Y-65767210D01*
X43161210Y-65898113D01*
X43058360Y-66052038D01*
X42987516Y-66223071D01*
X42951400Y-66404638D01*
X32844668Y-66404638D01*
X32805134Y-66356466D01*
X32579014Y-66170894D01*
X32524209Y-66141600D01*
X32579014Y-66112306D01*
X32805134Y-65926734D01*
X32990706Y-65700614D01*
X33128599Y-65442634D01*
X33213513Y-65162711D01*
X33242185Y-64871600D01*
X33213513Y-64580489D01*
X33128599Y-64300566D01*
X32990706Y-64042586D01*
X32805134Y-63816466D01*
X32775313Y-63791993D01*
X32844180Y-63771102D01*
X32954494Y-63712137D01*
X33051185Y-63632785D01*
X33130537Y-63536094D01*
X33189502Y-63425780D01*
X33225812Y-63306082D01*
X33238072Y-63181600D01*
X33238072Y-61481600D01*
X33225812Y-61357118D01*
X33189502Y-61237420D01*
X33130537Y-61127106D01*
X33051185Y-61030415D01*
X32954494Y-60951063D01*
X32844180Y-60892098D01*
X32724482Y-60855788D01*
X32600000Y-60843528D01*
X30900000Y-60843528D01*
X30775518Y-60855788D01*
X30655820Y-60892098D01*
X30545506Y-60951063D01*
X30448815Y-61030415D01*
X30369463Y-61127106D01*
X30310498Y-61237420D01*
X30274188Y-61357118D01*
X30261928Y-61481600D01*
X30261928Y-63181600D01*
X30274188Y-63306082D01*
X30310498Y-63425780D01*
X30369463Y-63536094D01*
X30448815Y-63632785D01*
X30545506Y-63712137D01*
X30655820Y-63771102D01*
X30724687Y-63791993D01*
X30694866Y-63816466D01*
X30509294Y-64042586D01*
X30371401Y-64300566D01*
X30286487Y-64580489D01*
X30257815Y-64871600D01*
X30286487Y-65162711D01*
X30371401Y-65442634D01*
X30509294Y-65700614D01*
X30694866Y-65926734D01*
X30920986Y-66112306D01*
X30975791Y-66141600D01*
X30920986Y-66170894D01*
X30694866Y-66356466D01*
X30509294Y-66582586D01*
X30371401Y-66840566D01*
X30286487Y-67120489D01*
X30257815Y-67411600D01*
X30286487Y-67702711D01*
X30371401Y-67982634D01*
X30509294Y-68240614D01*
X30694866Y-68466734D01*
X30920986Y-68652306D01*
X30975791Y-68681600D01*
X30920986Y-68710894D01*
X30694866Y-68896466D01*
X30509294Y-69122586D01*
X30371401Y-69380566D01*
X30286487Y-69660489D01*
X30257815Y-69951600D01*
X30286487Y-70242711D01*
X30371401Y-70522634D01*
X30412860Y-70600199D01*
X27887624Y-70600199D01*
X27850201Y-70596513D01*
X27812778Y-70600199D01*
X27812775Y-70600199D01*
X27700823Y-70611225D01*
X27557186Y-70654797D01*
X27495565Y-70687734D01*
X27424808Y-70725554D01*
X27382420Y-70760342D01*
X27308779Y-70820777D01*
X27284917Y-70849853D01*
X27181330Y-70953440D01*
X27056271Y-70978316D01*
X26885238Y-71049160D01*
X26731313Y-71152010D01*
X26600410Y-71282913D01*
X26497560Y-71436838D01*
X26426716Y-71607871D01*
X26390600Y-71789438D01*
X26390600Y-71974562D01*
X26426716Y-72156129D01*
X26497560Y-72327162D01*
X26600410Y-72481087D01*
X26731313Y-72611990D01*
X26885238Y-72714840D01*
X27056271Y-72785684D01*
X27237838Y-72821800D01*
X27422962Y-72821800D01*
X27604529Y-72785684D01*
X27775562Y-72714840D01*
X27929487Y-72611990D01*
X28060390Y-72481087D01*
X28163240Y-72327162D01*
X28234084Y-72156129D01*
X28240435Y-72124199D01*
X30309629Y-72124199D01*
X30286487Y-72200489D01*
X30257815Y-72491600D01*
X30286487Y-72782711D01*
X30371401Y-73062634D01*
X30509294Y-73320614D01*
X30694866Y-73546734D01*
X30920986Y-73732306D01*
X30975791Y-73761600D01*
X30920986Y-73790894D01*
X30694866Y-73976466D01*
X30509294Y-74202586D01*
X30371401Y-74460566D01*
X30286487Y-74740489D01*
X30257815Y-75031600D01*
X30286487Y-75322711D01*
X30371401Y-75602634D01*
X30509294Y-75860614D01*
X30694866Y-76086734D01*
X30920986Y-76272306D01*
X30975791Y-76301600D01*
X30920986Y-76330894D01*
X30694866Y-76516466D01*
X30509294Y-76742586D01*
X30371401Y-77000566D01*
X30286487Y-77280489D01*
X30257815Y-77571600D01*
X30286487Y-77862711D01*
X30371401Y-78142634D01*
X30509294Y-78400614D01*
X30694866Y-78626734D01*
X30920986Y-78812306D01*
X30975791Y-78841600D01*
X30920986Y-78870894D01*
X30694866Y-79056466D01*
X30509294Y-79282586D01*
X30371401Y-79540566D01*
X30336870Y-79654400D01*
X29735781Y-79654400D01*
X29629762Y-79583560D01*
X29458729Y-79512716D01*
X29277162Y-79476600D01*
X29092038Y-79476600D01*
X28910471Y-79512716D01*
X28739438Y-79583560D01*
X28585513Y-79686410D01*
X28454610Y-79817313D01*
X28351760Y-79971238D01*
X28280916Y-80142271D01*
X28244800Y-80323838D01*
X28244800Y-80508962D01*
X28280916Y-80690529D01*
X28351760Y-80861562D01*
X28454610Y-81015487D01*
X28503223Y-81064100D01*
X28403810Y-81163513D01*
X28300960Y-81317438D01*
X28230116Y-81488471D01*
X28194000Y-81670038D01*
X28194000Y-81855162D01*
X28230116Y-82036729D01*
X28300960Y-82207762D01*
X28403810Y-82361687D01*
X28534713Y-82492590D01*
X28688638Y-82595440D01*
X28859671Y-82666284D01*
X28984729Y-82691160D01*
X29457521Y-83163951D01*
X29481378Y-83193022D01*
X29510448Y-83216879D01*
X29597407Y-83288245D01*
X29631989Y-83306729D01*
X29729785Y-83359002D01*
X29873422Y-83402574D01*
X29985374Y-83413600D01*
X29985377Y-83413600D01*
X30022800Y-83417286D01*
X30060223Y-83413600D01*
X30473474Y-83413600D01*
X30509294Y-83480614D01*
X30694866Y-83706734D01*
X30920986Y-83892306D01*
X30975791Y-83921600D01*
X30920986Y-83950894D01*
X30694866Y-84136466D01*
X30509294Y-84362586D01*
X30446321Y-84480400D01*
X26933528Y-84480400D01*
X26898600Y-84476960D01*
X26863671Y-84480400D01*
X26863664Y-84480400D01*
X26759180Y-84490691D01*
X26625119Y-84531358D01*
X26501567Y-84597398D01*
X26393273Y-84686273D01*
X26371003Y-84713409D01*
X25342734Y-85741678D01*
X25131192Y-85699600D01*
X24856008Y-85699600D01*
X24586110Y-85753286D01*
X24331873Y-85858595D01*
X24103065Y-86011480D01*
X23908480Y-86206065D01*
X23755595Y-86434873D01*
X23650286Y-86689110D01*
X23596600Y-86959008D01*
X22531397Y-86959008D01*
X22520284Y-79161208D01*
X23545800Y-79161208D01*
X23545800Y-79436392D01*
X23599486Y-79706290D01*
X23704795Y-79960527D01*
X23857680Y-80189335D01*
X24052265Y-80383920D01*
X24281073Y-80536805D01*
X24296995Y-80543400D01*
X24281073Y-80549995D01*
X24052265Y-80702880D01*
X23857680Y-80897465D01*
X23704795Y-81126273D01*
X23599486Y-81380510D01*
X23545800Y-81650408D01*
X23545800Y-81925592D01*
X23599486Y-82195490D01*
X23704795Y-82449727D01*
X23857680Y-82678535D01*
X24052265Y-82873120D01*
X24281073Y-83026005D01*
X24535310Y-83131314D01*
X24805208Y-83185000D01*
X25080392Y-83185000D01*
X25350290Y-83131314D01*
X25604527Y-83026005D01*
X25833335Y-82873120D01*
X26027920Y-82678535D01*
X26180805Y-82449727D01*
X26286114Y-82195490D01*
X26339800Y-81925592D01*
X26339800Y-81650408D01*
X26286114Y-81380510D01*
X26180805Y-81126273D01*
X26027920Y-80897465D01*
X25833335Y-80702880D01*
X25604527Y-80549995D01*
X25588605Y-80543400D01*
X25604527Y-80536805D01*
X25833335Y-80383920D01*
X26027920Y-80189335D01*
X26180805Y-79960527D01*
X26286114Y-79706290D01*
X26339800Y-79436392D01*
X26339800Y-79161208D01*
X26286114Y-78891310D01*
X26180805Y-78637073D01*
X26027920Y-78408265D01*
X25833335Y-78213680D01*
X25604527Y-78060795D01*
X25350290Y-77955486D01*
X25080392Y-77901800D01*
X24805208Y-77901800D01*
X24535310Y-77955486D01*
X24281073Y-78060795D01*
X24052265Y-78213680D01*
X23857680Y-78408265D01*
X23704795Y-78637073D01*
X23599486Y-78891310D01*
X23545800Y-79161208D01*
X22520284Y-79161208D01*
X22500240Y-65097267D01*
X22650679Y-65460460D01*
X22974517Y-65945116D01*
X23386684Y-66357283D01*
X23871340Y-66681121D01*
X24409862Y-66904184D01*
X24981554Y-67017900D01*
X25564446Y-67017900D01*
X26136138Y-66904184D01*
X26674660Y-66681121D01*
X27159316Y-66357283D01*
X27571483Y-65945116D01*
X27895321Y-65460460D01*
X28118384Y-64921938D01*
X28232100Y-64350246D01*
X28232100Y-63767354D01*
X28118384Y-63195662D01*
X27895321Y-62657140D01*
X27571483Y-62172484D01*
X27159316Y-61760317D01*
X26674660Y-61436479D01*
X26136138Y-61213416D01*
X25564446Y-61099700D01*
X24981554Y-61099700D01*
X24409862Y-61213416D01*
X23871340Y-61436479D01*
X23386684Y-61760317D01*
X22974517Y-62172484D01*
X22650679Y-62657140D01*
X22497290Y-63027455D01*
X22487270Y-55996408D01*
X23876000Y-55996408D01*
X23876000Y-56271592D01*
X23929686Y-56541490D01*
X24034995Y-56795727D01*
X24187880Y-57024535D01*
X24382465Y-57219120D01*
X24611273Y-57372005D01*
X24865510Y-57477314D01*
X25135408Y-57531000D01*
X25410592Y-57531000D01*
X25680490Y-57477314D01*
X25934727Y-57372005D01*
X26163535Y-57219120D01*
X26358120Y-57024535D01*
X26511005Y-56795727D01*
X26517600Y-56779805D01*
X26524195Y-56795727D01*
X26677080Y-57024535D01*
X26871665Y-57219120D01*
X27100473Y-57372005D01*
X27354710Y-57477314D01*
X27624608Y-57531000D01*
X27899792Y-57531000D01*
X28169690Y-57477314D01*
X28423927Y-57372005D01*
X28652735Y-57219120D01*
X28847320Y-57024535D01*
X29000205Y-56795727D01*
X29006800Y-56779805D01*
X29013395Y-56795727D01*
X29166280Y-57024535D01*
X29360865Y-57219120D01*
X29589673Y-57372005D01*
X29843910Y-57477314D01*
X30113808Y-57531000D01*
X30388992Y-57531000D01*
X30658890Y-57477314D01*
X30913127Y-57372005D01*
X31141935Y-57219120D01*
X31336520Y-57024535D01*
X31489405Y-56795727D01*
X31579639Y-56577883D01*
X31680395Y-56821127D01*
X31833280Y-57049935D01*
X32027865Y-57244520D01*
X32256673Y-57397405D01*
X32510910Y-57502714D01*
X32780808Y-57556400D01*
X33055992Y-57556400D01*
X33325890Y-57502714D01*
X33580127Y-57397405D01*
X33808935Y-57244520D01*
X34003520Y-57049935D01*
X34156405Y-56821127D01*
X34163000Y-56805205D01*
X34169595Y-56821127D01*
X34322480Y-57049935D01*
X34517065Y-57244520D01*
X34745873Y-57397405D01*
X35000110Y-57502714D01*
X35270008Y-57556400D01*
X35545192Y-57556400D01*
X35815090Y-57502714D01*
X36069327Y-57397405D01*
X36298135Y-57244520D01*
X36492720Y-57049935D01*
X36645605Y-56821127D01*
X36652200Y-56805205D01*
X36658795Y-56821127D01*
X36811680Y-57049935D01*
X37006265Y-57244520D01*
X37235073Y-57397405D01*
X37489310Y-57502714D01*
X37759208Y-57556400D01*
X38034392Y-57556400D01*
X38304290Y-57502714D01*
X38558527Y-57397405D01*
X38787335Y-57244520D01*
X38981920Y-57049935D01*
X39134805Y-56821127D01*
X39240114Y-56566890D01*
X39293800Y-56296992D01*
X39293800Y-56021808D01*
X41656000Y-56021808D01*
X41656000Y-56296992D01*
X41709686Y-56566890D01*
X41814995Y-56821127D01*
X41967880Y-57049935D01*
X42162465Y-57244520D01*
X42391273Y-57397405D01*
X42645510Y-57502714D01*
X42915408Y-57556400D01*
X43190592Y-57556400D01*
X43460490Y-57502714D01*
X43714727Y-57397405D01*
X43943535Y-57244520D01*
X44138120Y-57049935D01*
X44291005Y-56821127D01*
X44297600Y-56805205D01*
X44304195Y-56821127D01*
X44457080Y-57049935D01*
X44651665Y-57244520D01*
X44880473Y-57397405D01*
X45134710Y-57502714D01*
X45404608Y-57556400D01*
X45679792Y-57556400D01*
X45949690Y-57502714D01*
X46203927Y-57397405D01*
X46432735Y-57244520D01*
X46627320Y-57049935D01*
X46690193Y-56955838D01*
X51714400Y-56955838D01*
X51714400Y-57140962D01*
X51750516Y-57322529D01*
X51821360Y-57493562D01*
X51892201Y-57599582D01*
X51892201Y-58026967D01*
X51888514Y-58064400D01*
X51903227Y-58213778D01*
X51946799Y-58357415D01*
X52017555Y-58489792D01*
X52088921Y-58576751D01*
X52112779Y-58605822D01*
X52141849Y-58629679D01*
X53757640Y-60245471D01*
X53782516Y-60370529D01*
X53853360Y-60541562D01*
X53956210Y-60695487D01*
X54087113Y-60826390D01*
X54241038Y-60929240D01*
X54412071Y-61000084D01*
X54593638Y-61036200D01*
X54778762Y-61036200D01*
X54960329Y-61000084D01*
X55131362Y-60929240D01*
X55285287Y-60826390D01*
X55304356Y-60807321D01*
X55389971Y-60842784D01*
X55571538Y-60878900D01*
X55756662Y-60878900D01*
X55938229Y-60842784D01*
X56109262Y-60771940D01*
X56263187Y-60669090D01*
X56394090Y-60538187D01*
X56496940Y-60384262D01*
X56567784Y-60213229D01*
X56603900Y-60031662D01*
X56603900Y-59846538D01*
X56567784Y-59664971D01*
X56496940Y-59493938D01*
X56394090Y-59340013D01*
X56375300Y-59321223D01*
X56375300Y-57899481D01*
X56446140Y-57793462D01*
X56516984Y-57622429D01*
X56553100Y-57440862D01*
X56553100Y-57255738D01*
X56516984Y-57074171D01*
X56446140Y-56903138D01*
X56343290Y-56749213D01*
X56212387Y-56618310D01*
X56058462Y-56515460D01*
X55887429Y-56444616D01*
X55705862Y-56408500D01*
X55520738Y-56408500D01*
X55339171Y-56444616D01*
X55168138Y-56515460D01*
X55014213Y-56618310D01*
X54883310Y-56749213D01*
X54780460Y-56903138D01*
X54709616Y-57074171D01*
X54673500Y-57255738D01*
X54673500Y-57440862D01*
X54709616Y-57622429D01*
X54780460Y-57793462D01*
X54851300Y-57899481D01*
X54851301Y-59171029D01*
X54835271Y-59167840D01*
X53416200Y-57748770D01*
X53416200Y-57599581D01*
X53487040Y-57493562D01*
X53557884Y-57322529D01*
X53594000Y-57140962D01*
X53594000Y-56955838D01*
X53557884Y-56774271D01*
X53487040Y-56603238D01*
X53384190Y-56449313D01*
X53253287Y-56318410D01*
X53099362Y-56215560D01*
X52928329Y-56144716D01*
X52746762Y-56108600D01*
X52561638Y-56108600D01*
X52380071Y-56144716D01*
X52209038Y-56215560D01*
X52055113Y-56318410D01*
X51924210Y-56449313D01*
X51821360Y-56603238D01*
X51750516Y-56774271D01*
X51714400Y-56955838D01*
X46690193Y-56955838D01*
X46780205Y-56821127D01*
X46885514Y-56566890D01*
X46939200Y-56296992D01*
X46939200Y-56021808D01*
X46885514Y-55751910D01*
X46780205Y-55497673D01*
X46627320Y-55268865D01*
X46432735Y-55074280D01*
X46203927Y-54921395D01*
X45949690Y-54816086D01*
X45679792Y-54762400D01*
X45404608Y-54762400D01*
X45134710Y-54816086D01*
X44880473Y-54921395D01*
X44651665Y-55074280D01*
X44457080Y-55268865D01*
X44304195Y-55497673D01*
X44297600Y-55513595D01*
X44291005Y-55497673D01*
X44138120Y-55268865D01*
X43943535Y-55074280D01*
X43714727Y-54921395D01*
X43460490Y-54816086D01*
X43190592Y-54762400D01*
X42915408Y-54762400D01*
X42645510Y-54816086D01*
X42391273Y-54921395D01*
X42162465Y-55074280D01*
X41967880Y-55268865D01*
X41814995Y-55497673D01*
X41709686Y-55751910D01*
X41656000Y-56021808D01*
X39293800Y-56021808D01*
X39240114Y-55751910D01*
X39134805Y-55497673D01*
X38981920Y-55268865D01*
X38787335Y-55074280D01*
X38558527Y-54921395D01*
X38304290Y-54816086D01*
X38034392Y-54762400D01*
X37759208Y-54762400D01*
X37489310Y-54816086D01*
X37235073Y-54921395D01*
X37006265Y-55074280D01*
X36811680Y-55268865D01*
X36658795Y-55497673D01*
X36652200Y-55513595D01*
X36645605Y-55497673D01*
X36492720Y-55268865D01*
X36298135Y-55074280D01*
X36069327Y-54921395D01*
X35815090Y-54816086D01*
X35545192Y-54762400D01*
X35270008Y-54762400D01*
X35000110Y-54816086D01*
X34745873Y-54921395D01*
X34517065Y-55074280D01*
X34322480Y-55268865D01*
X34169595Y-55497673D01*
X34163000Y-55513595D01*
X34156405Y-55497673D01*
X34003520Y-55268865D01*
X33808935Y-55074280D01*
X33580127Y-54921395D01*
X33325890Y-54816086D01*
X33055992Y-54762400D01*
X32780808Y-54762400D01*
X32510910Y-54816086D01*
X32256673Y-54921395D01*
X32027865Y-55074280D01*
X31833280Y-55268865D01*
X31680395Y-55497673D01*
X31590161Y-55715517D01*
X31489405Y-55472273D01*
X31336520Y-55243465D01*
X31141935Y-55048880D01*
X30913127Y-54895995D01*
X30658890Y-54790686D01*
X30388992Y-54737000D01*
X30113808Y-54737000D01*
X29843910Y-54790686D01*
X29589673Y-54895995D01*
X29360865Y-55048880D01*
X29166280Y-55243465D01*
X29013395Y-55472273D01*
X29006800Y-55488195D01*
X29000205Y-55472273D01*
X28847320Y-55243465D01*
X28652735Y-55048880D01*
X28423927Y-54895995D01*
X28169690Y-54790686D01*
X27899792Y-54737000D01*
X27624608Y-54737000D01*
X27354710Y-54790686D01*
X27100473Y-54895995D01*
X26871665Y-55048880D01*
X26677080Y-55243465D01*
X26524195Y-55472273D01*
X26517600Y-55488195D01*
X26511005Y-55472273D01*
X26358120Y-55243465D01*
X26163535Y-55048880D01*
X25934727Y-54895995D01*
X25680490Y-54790686D01*
X25410592Y-54737000D01*
X25135408Y-54737000D01*
X24865510Y-54790686D01*
X24611273Y-54895995D01*
X24382465Y-55048880D01*
X24187880Y-55243465D01*
X24034995Y-55472273D01*
X23929686Y-55726510D01*
X23876000Y-55996408D01*
X22487270Y-55996408D01*
X22483932Y-53653838D01*
X58826400Y-53653838D01*
X58826400Y-53838962D01*
X58862516Y-54020529D01*
X58933360Y-54191562D01*
X59036210Y-54345487D01*
X59167113Y-54476390D01*
X59321038Y-54579240D01*
X59492071Y-54650084D01*
X59673638Y-54686200D01*
X59858762Y-54686200D01*
X60040329Y-54650084D01*
X60211362Y-54579240D01*
X60365287Y-54476390D01*
X60496190Y-54345487D01*
X60497214Y-54343954D01*
X78295500Y-54343954D01*
X78295500Y-54926846D01*
X78409216Y-55498538D01*
X78632279Y-56037060D01*
X78956117Y-56521716D01*
X79368284Y-56933883D01*
X79852940Y-57257721D01*
X80391462Y-57480784D01*
X80963154Y-57594500D01*
X81546046Y-57594500D01*
X82117738Y-57480784D01*
X82656260Y-57257721D01*
X83140916Y-56933883D01*
X83553083Y-56521716D01*
X83876921Y-56037060D01*
X84099984Y-55498538D01*
X84213700Y-54926846D01*
X84213700Y-54343954D01*
X84188439Y-54216954D01*
X112864900Y-54216954D01*
X112864900Y-54799846D01*
X112978616Y-55371538D01*
X113201679Y-55910060D01*
X113525517Y-56394716D01*
X113937684Y-56806883D01*
X114422340Y-57130721D01*
X114960862Y-57353784D01*
X115532554Y-57467500D01*
X116115446Y-57467500D01*
X116687138Y-57353784D01*
X117225660Y-57130721D01*
X117710316Y-56806883D01*
X118122483Y-56394716D01*
X118446321Y-55910060D01*
X118669384Y-55371538D01*
X118783100Y-54799846D01*
X118783100Y-54216954D01*
X118669384Y-53645262D01*
X118446321Y-53106740D01*
X118122483Y-52622084D01*
X117710316Y-52209917D01*
X117225660Y-51886079D01*
X116687138Y-51663016D01*
X116115446Y-51549300D01*
X115532554Y-51549300D01*
X114960862Y-51663016D01*
X114422340Y-51886079D01*
X113937684Y-52209917D01*
X113525517Y-52622084D01*
X113201679Y-53106740D01*
X112978616Y-53645262D01*
X112864900Y-54216954D01*
X84188439Y-54216954D01*
X84099984Y-53772262D01*
X83876921Y-53233740D01*
X83553083Y-52749084D01*
X83140916Y-52336917D01*
X82656260Y-52013079D01*
X82117738Y-51790016D01*
X81546046Y-51676300D01*
X80963154Y-51676300D01*
X80391462Y-51790016D01*
X79852940Y-52013079D01*
X79368284Y-52336917D01*
X78956117Y-52749084D01*
X78632279Y-53233740D01*
X78409216Y-53772262D01*
X78295500Y-54343954D01*
X60497214Y-54343954D01*
X60599040Y-54191562D01*
X60669884Y-54020529D01*
X60694760Y-53895471D01*
X61294551Y-53295679D01*
X61323622Y-53271822D01*
X61354875Y-53233740D01*
X61418845Y-53155793D01*
X61489601Y-53023416D01*
X61489602Y-53023415D01*
X61533174Y-52879778D01*
X61544200Y-52767826D01*
X61544200Y-52767823D01*
X61547886Y-52730400D01*
X61544200Y-52692977D01*
X61544200Y-52519581D01*
X61615040Y-52413562D01*
X61685884Y-52242529D01*
X61722000Y-52060962D01*
X61722000Y-51875838D01*
X61685884Y-51694271D01*
X61615040Y-51523238D01*
X61512190Y-51369313D01*
X61381287Y-51238410D01*
X61227362Y-51135560D01*
X61056329Y-51064716D01*
X60874762Y-51028600D01*
X60689638Y-51028600D01*
X60508071Y-51064716D01*
X60337038Y-51135560D01*
X60183113Y-51238410D01*
X60052210Y-51369313D01*
X59949360Y-51523238D01*
X59878516Y-51694271D01*
X59842400Y-51875838D01*
X59842400Y-52060962D01*
X59878516Y-52242529D01*
X59949360Y-52413562D01*
X59978218Y-52456751D01*
X59617129Y-52817840D01*
X59492071Y-52842716D01*
X59321038Y-52913560D01*
X59167113Y-53016410D01*
X59036210Y-53147313D01*
X58933360Y-53301238D01*
X58862516Y-53472271D01*
X58826400Y-53653838D01*
X22483932Y-53653838D01*
X22478816Y-50064760D01*
X119995168Y-50415268D01*
M02*
