G04 #@! TF.GenerationSoftware,KiCad,Pcbnew,(5.1.4-0-10_14)*
G04 #@! TF.CreationDate,2019-11-22T04:33:24-05:00*
G04 #@! TF.ProjectId,controllerBoard,636f6e74-726f-46c6-9c65-72426f617264,rev?*
G04 #@! TF.SameCoordinates,Original*
G04 #@! TF.FileFunction,Paste,Top*
G04 #@! TF.FilePolarity,Positive*
%FSLAX46Y46*%
G04 Gerber Fmt 4.6, Leading zero omitted, Abs format (unit mm)*
G04 Created by KiCad (PCBNEW (5.1.4-0-10_14)) date 2019-11-22 04:33:24*
%MOMM*%
%LPD*%
G04 APERTURE LIST*
%ADD10R,1.250000X1.000000*%
%ADD11R,1.000000X1.250000*%
%ADD12R,1.200000X1.200000*%
%ADD13R,2.500000X0.900000*%
%ADD14R,8.200000X3.300000*%
%ADD15R,0.700000X1.300000*%
%ADD16R,0.650000X1.060000*%
%ADD17R,1.600000X1.000000*%
%ADD18R,2.159000X1.778000*%
%ADD19R,1.000000X3.200000*%
%ADD20R,1.300000X0.700000*%
%ADD21C,0.550000*%
%ADD22C,0.100000*%
G04 APERTURE END LIST*
D10*
X57480200Y-55032400D03*
X57480200Y-57032400D03*
D11*
X54670200Y-64668400D03*
X52670200Y-64668400D03*
X54670200Y-62382400D03*
X52670200Y-62382400D03*
D12*
X59088200Y-73558400D03*
X56888200Y-73558400D03*
D13*
X66770700Y-64715900D03*
X66770700Y-61815900D03*
D14*
X60464700Y-61619900D03*
X60464700Y-66319900D03*
D15*
X68976200Y-60858400D03*
X70876200Y-60858400D03*
X68976200Y-58826400D03*
X70876200Y-58826400D03*
X63002200Y-73558400D03*
X61102200Y-73558400D03*
D16*
X59540100Y-58465900D03*
X60490100Y-58465900D03*
X61440100Y-58465900D03*
X61440100Y-56265900D03*
X59540100Y-56265900D03*
X60490100Y-56265900D03*
D17*
X63830200Y-58548400D03*
X63830200Y-55548400D03*
D11*
X54670200Y-66700400D03*
X52670200Y-66700400D03*
D12*
X70688200Y-63314400D03*
X70688200Y-65514400D03*
D18*
X68148200Y-73050400D03*
X68148200Y-68986400D03*
D19*
X63755200Y-70383400D03*
X57555200Y-70383400D03*
D15*
X61356200Y-53746400D03*
X63256200Y-53746400D03*
D20*
X54178200Y-54828400D03*
X54178200Y-56728400D03*
D11*
X47101000Y-92456000D03*
X45101000Y-92456000D03*
D10*
X45059600Y-98459800D03*
X45059600Y-96459800D03*
D11*
X105775000Y-76657200D03*
X103775000Y-76657200D03*
X101330000Y-69088000D03*
X99330000Y-69088000D03*
X48828200Y-100533200D03*
X46828200Y-100533200D03*
D10*
X103047800Y-73161400D03*
X103047800Y-71161400D03*
D12*
X80043200Y-71120000D03*
X77843200Y-71120000D03*
X80043200Y-73202800D03*
X77843200Y-73202800D03*
X77843200Y-75260200D03*
X80043200Y-75260200D03*
X70416600Y-95935800D03*
X68216600Y-95935800D03*
X68216600Y-94081600D03*
X70416600Y-94081600D03*
D15*
X64556600Y-95986600D03*
X66456600Y-95986600D03*
X44312800Y-72136000D03*
X46212800Y-72136000D03*
X44338200Y-84251800D03*
X46238200Y-84251800D03*
X43114000Y-88138000D03*
X41214000Y-88138000D03*
D20*
X54737000Y-96179600D03*
X54737000Y-98079600D03*
X56692800Y-98079600D03*
X56692800Y-96179600D03*
D15*
X46238200Y-78155800D03*
X44338200Y-78155800D03*
X46212800Y-74168000D03*
X44312800Y-74168000D03*
X44338200Y-76149200D03*
X46238200Y-76149200D03*
X46223000Y-80213200D03*
X44323000Y-80213200D03*
X37988200Y-80137000D03*
X39888200Y-80137000D03*
X86548000Y-71069200D03*
X84648000Y-71069200D03*
X84673400Y-72999600D03*
X86573400Y-72999600D03*
X86548000Y-75107800D03*
X84648000Y-75107800D03*
X108798400Y-81280000D03*
X106898400Y-81280000D03*
X108823800Y-85217000D03*
X106923800Y-85217000D03*
X108823800Y-89154000D03*
X106923800Y-89154000D03*
X106923800Y-87198200D03*
X108823800Y-87198200D03*
X108823800Y-83261200D03*
X106923800Y-83261200D03*
X113273800Y-83134200D03*
X115173800Y-83134200D03*
X66456600Y-94056200D03*
X64556600Y-94056200D03*
X56885800Y-81483200D03*
X58785800Y-81483200D03*
X58811200Y-79476600D03*
X56911200Y-79476600D03*
X46212800Y-70104000D03*
X44312800Y-70104000D03*
X46238200Y-82219800D03*
X44338200Y-82219800D03*
X41163200Y-90246200D03*
X43063200Y-90246200D03*
D21*
X47618297Y-88985505D03*
D22*
G36*
X47247066Y-89745645D02*
G01*
X46858157Y-89356736D01*
X47989528Y-88225365D01*
X48378437Y-88614274D01*
X47247066Y-89745645D01*
X47247066Y-89745645D01*
G37*
D21*
X48183983Y-89551190D03*
D22*
G36*
X47812752Y-90311330D02*
G01*
X47423843Y-89922421D01*
X48555214Y-88791050D01*
X48944123Y-89179959D01*
X47812752Y-90311330D01*
X47812752Y-90311330D01*
G37*
D21*
X48749668Y-90116876D03*
D22*
G36*
X48378437Y-90877016D02*
G01*
X47989528Y-90488107D01*
X49120899Y-89356736D01*
X49509808Y-89745645D01*
X48378437Y-90877016D01*
X48378437Y-90877016D01*
G37*
D21*
X49315353Y-90682561D03*
D22*
G36*
X48944122Y-91442701D02*
G01*
X48555213Y-91053792D01*
X49686584Y-89922421D01*
X50075493Y-90311330D01*
X48944122Y-91442701D01*
X48944122Y-91442701D01*
G37*
D21*
X49881039Y-91248247D03*
D22*
G36*
X49509808Y-92008387D02*
G01*
X49120899Y-91619478D01*
X50252270Y-90488107D01*
X50641179Y-90877016D01*
X49509808Y-92008387D01*
X49509808Y-92008387D01*
G37*
D21*
X50446724Y-91813932D03*
D22*
G36*
X50075493Y-92574072D02*
G01*
X49686584Y-92185163D01*
X50817955Y-91053792D01*
X51206864Y-91442701D01*
X50075493Y-92574072D01*
X50075493Y-92574072D01*
G37*
D21*
X51012410Y-92379617D03*
D22*
G36*
X50641179Y-93139757D02*
G01*
X50252270Y-92750848D01*
X51383641Y-91619477D01*
X51772550Y-92008386D01*
X50641179Y-93139757D01*
X50641179Y-93139757D01*
G37*
D21*
X51578095Y-92945303D03*
D22*
G36*
X51206864Y-93705443D02*
G01*
X50817955Y-93316534D01*
X51949326Y-92185163D01*
X52338235Y-92574072D01*
X51206864Y-93705443D01*
X51206864Y-93705443D01*
G37*
D21*
X53628705Y-92945303D03*
D22*
G36*
X54388845Y-93316534D02*
G01*
X53999936Y-93705443D01*
X52868565Y-92574072D01*
X53257474Y-92185163D01*
X54388845Y-93316534D01*
X54388845Y-93316534D01*
G37*
D21*
X54194390Y-92379617D03*
D22*
G36*
X54954530Y-92750848D02*
G01*
X54565621Y-93139757D01*
X53434250Y-92008386D01*
X53823159Y-91619477D01*
X54954530Y-92750848D01*
X54954530Y-92750848D01*
G37*
D21*
X54760076Y-91813932D03*
D22*
G36*
X55520216Y-92185163D02*
G01*
X55131307Y-92574072D01*
X53999936Y-91442701D01*
X54388845Y-91053792D01*
X55520216Y-92185163D01*
X55520216Y-92185163D01*
G37*
D21*
X55325761Y-91248247D03*
D22*
G36*
X56085901Y-91619478D02*
G01*
X55696992Y-92008387D01*
X54565621Y-90877016D01*
X54954530Y-90488107D01*
X56085901Y-91619478D01*
X56085901Y-91619478D01*
G37*
D21*
X55891447Y-90682561D03*
D22*
G36*
X56651587Y-91053792D02*
G01*
X56262678Y-91442701D01*
X55131307Y-90311330D01*
X55520216Y-89922421D01*
X56651587Y-91053792D01*
X56651587Y-91053792D01*
G37*
D21*
X56457132Y-90116876D03*
D22*
G36*
X57217272Y-90488107D02*
G01*
X56828363Y-90877016D01*
X55696992Y-89745645D01*
X56085901Y-89356736D01*
X57217272Y-90488107D01*
X57217272Y-90488107D01*
G37*
D21*
X57022817Y-89551190D03*
D22*
G36*
X57782957Y-89922421D02*
G01*
X57394048Y-90311330D01*
X56262677Y-89179959D01*
X56651586Y-88791050D01*
X57782957Y-89922421D01*
X57782957Y-89922421D01*
G37*
D21*
X57588503Y-88985505D03*
D22*
G36*
X58348643Y-89356736D02*
G01*
X57959734Y-89745645D01*
X56828363Y-88614274D01*
X57217272Y-88225365D01*
X58348643Y-89356736D01*
X58348643Y-89356736D01*
G37*
D21*
X57588503Y-86934895D03*
D22*
G36*
X57217272Y-87695035D02*
G01*
X56828363Y-87306126D01*
X57959734Y-86174755D01*
X58348643Y-86563664D01*
X57217272Y-87695035D01*
X57217272Y-87695035D01*
G37*
D21*
X57022817Y-86369210D03*
D22*
G36*
X56651586Y-87129350D02*
G01*
X56262677Y-86740441D01*
X57394048Y-85609070D01*
X57782957Y-85997979D01*
X56651586Y-87129350D01*
X56651586Y-87129350D01*
G37*
D21*
X56457132Y-85803524D03*
D22*
G36*
X56085901Y-86563664D02*
G01*
X55696992Y-86174755D01*
X56828363Y-85043384D01*
X57217272Y-85432293D01*
X56085901Y-86563664D01*
X56085901Y-86563664D01*
G37*
D21*
X55891447Y-85237839D03*
D22*
G36*
X55520216Y-85997979D02*
G01*
X55131307Y-85609070D01*
X56262678Y-84477699D01*
X56651587Y-84866608D01*
X55520216Y-85997979D01*
X55520216Y-85997979D01*
G37*
D21*
X55325761Y-84672153D03*
D22*
G36*
X54954530Y-85432293D02*
G01*
X54565621Y-85043384D01*
X55696992Y-83912013D01*
X56085901Y-84300922D01*
X54954530Y-85432293D01*
X54954530Y-85432293D01*
G37*
D21*
X54760076Y-84106468D03*
D22*
G36*
X54388845Y-84866608D02*
G01*
X53999936Y-84477699D01*
X55131307Y-83346328D01*
X55520216Y-83735237D01*
X54388845Y-84866608D01*
X54388845Y-84866608D01*
G37*
D21*
X54194390Y-83540783D03*
D22*
G36*
X53823159Y-84300923D02*
G01*
X53434250Y-83912014D01*
X54565621Y-82780643D01*
X54954530Y-83169552D01*
X53823159Y-84300923D01*
X53823159Y-84300923D01*
G37*
D21*
X53628705Y-82975097D03*
D22*
G36*
X53257474Y-83735237D02*
G01*
X52868565Y-83346328D01*
X53999936Y-82214957D01*
X54388845Y-82603866D01*
X53257474Y-83735237D01*
X53257474Y-83735237D01*
G37*
D21*
X51578095Y-82975097D03*
D22*
G36*
X52338235Y-83346328D02*
G01*
X51949326Y-83735237D01*
X50817955Y-82603866D01*
X51206864Y-82214957D01*
X52338235Y-83346328D01*
X52338235Y-83346328D01*
G37*
D21*
X51012410Y-83540783D03*
D22*
G36*
X51772550Y-83912014D02*
G01*
X51383641Y-84300923D01*
X50252270Y-83169552D01*
X50641179Y-82780643D01*
X51772550Y-83912014D01*
X51772550Y-83912014D01*
G37*
D21*
X50446724Y-84106468D03*
D22*
G36*
X51206864Y-84477699D02*
G01*
X50817955Y-84866608D01*
X49686584Y-83735237D01*
X50075493Y-83346328D01*
X51206864Y-84477699D01*
X51206864Y-84477699D01*
G37*
D21*
X49881039Y-84672153D03*
D22*
G36*
X50641179Y-85043384D02*
G01*
X50252270Y-85432293D01*
X49120899Y-84300922D01*
X49509808Y-83912013D01*
X50641179Y-85043384D01*
X50641179Y-85043384D01*
G37*
D21*
X49315353Y-85237839D03*
D22*
G36*
X50075493Y-85609070D02*
G01*
X49686584Y-85997979D01*
X48555213Y-84866608D01*
X48944122Y-84477699D01*
X50075493Y-85609070D01*
X50075493Y-85609070D01*
G37*
D21*
X48749668Y-85803524D03*
D22*
G36*
X49509808Y-86174755D02*
G01*
X49120899Y-86563664D01*
X47989528Y-85432293D01*
X48378437Y-85043384D01*
X49509808Y-86174755D01*
X49509808Y-86174755D01*
G37*
D21*
X48183983Y-86369210D03*
D22*
G36*
X48944123Y-86740441D02*
G01*
X48555214Y-87129350D01*
X47423843Y-85997979D01*
X47812752Y-85609070D01*
X48944123Y-86740441D01*
X48944123Y-86740441D01*
G37*
D21*
X47618297Y-86934895D03*
D22*
G36*
X48378437Y-87306126D02*
G01*
X47989528Y-87695035D01*
X46858157Y-86563664D01*
X47247066Y-86174755D01*
X48378437Y-87306126D01*
X48378437Y-87306126D01*
G37*
D21*
X100887303Y-81574705D03*
D22*
G36*
X100127163Y-81203474D02*
G01*
X100516072Y-80814565D01*
X101647443Y-81945936D01*
X101258534Y-82334845D01*
X100127163Y-81203474D01*
X100127163Y-81203474D01*
G37*
D21*
X100321617Y-82140390D03*
D22*
G36*
X99561477Y-81769159D02*
G01*
X99950386Y-81380250D01*
X101081757Y-82511621D01*
X100692848Y-82900530D01*
X99561477Y-81769159D01*
X99561477Y-81769159D01*
G37*
D21*
X99755932Y-82706076D03*
D22*
G36*
X98995792Y-82334845D02*
G01*
X99384701Y-81945936D01*
X100516072Y-83077307D01*
X100127163Y-83466216D01*
X98995792Y-82334845D01*
X98995792Y-82334845D01*
G37*
D21*
X99190247Y-83271761D03*
D22*
G36*
X98430107Y-82900530D02*
G01*
X98819016Y-82511621D01*
X99950387Y-83642992D01*
X99561478Y-84031901D01*
X98430107Y-82900530D01*
X98430107Y-82900530D01*
G37*
D21*
X98624561Y-83837447D03*
D22*
G36*
X97864421Y-83466216D02*
G01*
X98253330Y-83077307D01*
X99384701Y-84208678D01*
X98995792Y-84597587D01*
X97864421Y-83466216D01*
X97864421Y-83466216D01*
G37*
D21*
X98058876Y-84403132D03*
D22*
G36*
X97298736Y-84031901D02*
G01*
X97687645Y-83642992D01*
X98819016Y-84774363D01*
X98430107Y-85163272D01*
X97298736Y-84031901D01*
X97298736Y-84031901D01*
G37*
D21*
X97493190Y-84968817D03*
D22*
G36*
X96733050Y-84597586D02*
G01*
X97121959Y-84208677D01*
X98253330Y-85340048D01*
X97864421Y-85728957D01*
X96733050Y-84597586D01*
X96733050Y-84597586D01*
G37*
D21*
X96927505Y-85534503D03*
D22*
G36*
X96167365Y-85163272D02*
G01*
X96556274Y-84774363D01*
X97687645Y-85905734D01*
X97298736Y-86294643D01*
X96167365Y-85163272D01*
X96167365Y-85163272D01*
G37*
D21*
X94876895Y-85534503D03*
D22*
G36*
X95248126Y-84774363D02*
G01*
X95637035Y-85163272D01*
X94505664Y-86294643D01*
X94116755Y-85905734D01*
X95248126Y-84774363D01*
X95248126Y-84774363D01*
G37*
D21*
X94311210Y-84968817D03*
D22*
G36*
X94682441Y-84208677D02*
G01*
X95071350Y-84597586D01*
X93939979Y-85728957D01*
X93551070Y-85340048D01*
X94682441Y-84208677D01*
X94682441Y-84208677D01*
G37*
D21*
X93745524Y-84403132D03*
D22*
G36*
X94116755Y-83642992D02*
G01*
X94505664Y-84031901D01*
X93374293Y-85163272D01*
X92985384Y-84774363D01*
X94116755Y-83642992D01*
X94116755Y-83642992D01*
G37*
D21*
X93179839Y-83837447D03*
D22*
G36*
X93551070Y-83077307D02*
G01*
X93939979Y-83466216D01*
X92808608Y-84597587D01*
X92419699Y-84208678D01*
X93551070Y-83077307D01*
X93551070Y-83077307D01*
G37*
D21*
X92614153Y-83271761D03*
D22*
G36*
X92985384Y-82511621D02*
G01*
X93374293Y-82900530D01*
X92242922Y-84031901D01*
X91854013Y-83642992D01*
X92985384Y-82511621D01*
X92985384Y-82511621D01*
G37*
D21*
X92048468Y-82706076D03*
D22*
G36*
X92419699Y-81945936D02*
G01*
X92808608Y-82334845D01*
X91677237Y-83466216D01*
X91288328Y-83077307D01*
X92419699Y-81945936D01*
X92419699Y-81945936D01*
G37*
D21*
X91482783Y-82140390D03*
D22*
G36*
X91854014Y-81380250D02*
G01*
X92242923Y-81769159D01*
X91111552Y-82900530D01*
X90722643Y-82511621D01*
X91854014Y-81380250D01*
X91854014Y-81380250D01*
G37*
D21*
X90917097Y-81574705D03*
D22*
G36*
X91288328Y-80814565D02*
G01*
X91677237Y-81203474D01*
X90545866Y-82334845D01*
X90156957Y-81945936D01*
X91288328Y-80814565D01*
X91288328Y-80814565D01*
G37*
D21*
X90917097Y-79524095D03*
D22*
G36*
X90156957Y-79152864D02*
G01*
X90545866Y-78763955D01*
X91677237Y-79895326D01*
X91288328Y-80284235D01*
X90156957Y-79152864D01*
X90156957Y-79152864D01*
G37*
D21*
X91482783Y-78958410D03*
D22*
G36*
X90722643Y-78587179D02*
G01*
X91111552Y-78198270D01*
X92242923Y-79329641D01*
X91854014Y-79718550D01*
X90722643Y-78587179D01*
X90722643Y-78587179D01*
G37*
D21*
X92048468Y-78392724D03*
D22*
G36*
X91288328Y-78021493D02*
G01*
X91677237Y-77632584D01*
X92808608Y-78763955D01*
X92419699Y-79152864D01*
X91288328Y-78021493D01*
X91288328Y-78021493D01*
G37*
D21*
X92614153Y-77827039D03*
D22*
G36*
X91854013Y-77455808D02*
G01*
X92242922Y-77066899D01*
X93374293Y-78198270D01*
X92985384Y-78587179D01*
X91854013Y-77455808D01*
X91854013Y-77455808D01*
G37*
D21*
X93179839Y-77261353D03*
D22*
G36*
X92419699Y-76890122D02*
G01*
X92808608Y-76501213D01*
X93939979Y-77632584D01*
X93551070Y-78021493D01*
X92419699Y-76890122D01*
X92419699Y-76890122D01*
G37*
D21*
X93745524Y-76695668D03*
D22*
G36*
X92985384Y-76324437D02*
G01*
X93374293Y-75935528D01*
X94505664Y-77066899D01*
X94116755Y-77455808D01*
X92985384Y-76324437D01*
X92985384Y-76324437D01*
G37*
D21*
X94311210Y-76129983D03*
D22*
G36*
X93551070Y-75758752D02*
G01*
X93939979Y-75369843D01*
X95071350Y-76501214D01*
X94682441Y-76890123D01*
X93551070Y-75758752D01*
X93551070Y-75758752D01*
G37*
D21*
X94876895Y-75564297D03*
D22*
G36*
X94116755Y-75193066D02*
G01*
X94505664Y-74804157D01*
X95637035Y-75935528D01*
X95248126Y-76324437D01*
X94116755Y-75193066D01*
X94116755Y-75193066D01*
G37*
D21*
X96927505Y-75564297D03*
D22*
G36*
X97298736Y-74804157D02*
G01*
X97687645Y-75193066D01*
X96556274Y-76324437D01*
X96167365Y-75935528D01*
X97298736Y-74804157D01*
X97298736Y-74804157D01*
G37*
D21*
X97493190Y-76129983D03*
D22*
G36*
X97864421Y-75369843D02*
G01*
X98253330Y-75758752D01*
X97121959Y-76890123D01*
X96733050Y-76501214D01*
X97864421Y-75369843D01*
X97864421Y-75369843D01*
G37*
D21*
X98058876Y-76695668D03*
D22*
G36*
X98430107Y-75935528D02*
G01*
X98819016Y-76324437D01*
X97687645Y-77455808D01*
X97298736Y-77066899D01*
X98430107Y-75935528D01*
X98430107Y-75935528D01*
G37*
D21*
X98624561Y-77261353D03*
D22*
G36*
X98995792Y-76501213D02*
G01*
X99384701Y-76890122D01*
X98253330Y-78021493D01*
X97864421Y-77632584D01*
X98995792Y-76501213D01*
X98995792Y-76501213D01*
G37*
D21*
X99190247Y-77827039D03*
D22*
G36*
X99561478Y-77066899D02*
G01*
X99950387Y-77455808D01*
X98819016Y-78587179D01*
X98430107Y-78198270D01*
X99561478Y-77066899D01*
X99561478Y-77066899D01*
G37*
D21*
X99755932Y-78392724D03*
D22*
G36*
X100127163Y-77632584D02*
G01*
X100516072Y-78021493D01*
X99384701Y-79152864D01*
X98995792Y-78763955D01*
X100127163Y-77632584D01*
X100127163Y-77632584D01*
G37*
D21*
X100321617Y-78958410D03*
D22*
G36*
X100692848Y-78198270D02*
G01*
X101081757Y-78587179D01*
X99950386Y-79718550D01*
X99561477Y-79329641D01*
X100692848Y-78198270D01*
X100692848Y-78198270D01*
G37*
D21*
X100887303Y-79524095D03*
D22*
G36*
X101258534Y-78763955D02*
G01*
X101647443Y-79152864D01*
X100516072Y-80284235D01*
X100127163Y-79895326D01*
X101258534Y-78763955D01*
X101258534Y-78763955D01*
G37*
M02*
