G04 #@! TF.GenerationSoftware,KiCad,Pcbnew,5.0.2-bee76a0~70~ubuntu18.04.1*
G04 #@! TF.CreationDate,2019-11-08T01:10:53-05:00*
G04 #@! TF.ProjectId,controllerBoard,636f6e74-726f-46c6-9c65-72426f617264,rev?*
G04 #@! TF.SameCoordinates,Original*
G04 #@! TF.FileFunction,Legend,Top*
G04 #@! TF.FilePolarity,Positive*
%FSLAX46Y46*%
G04 Gerber Fmt 4.6, Leading zero omitted, Abs format (unit mm)*
G04 Created by KiCad (PCBNEW 5.0.2-bee76a0~70~ubuntu18.04.1) date Fri 08 Nov 2019 01:10:53 AM EST*
%MOMM*%
%LPD*%
G01*
G04 APERTURE LIST*
%ADD10C,0.300000*%
%ADD11C,0.150000*%
%ADD12C,0.120000*%
%ADD13C,0.100000*%
%ADD14C,0.010000*%
G04 APERTURE END LIST*
D10*
X129124000Y-68923142D02*
X129338285Y-68994571D01*
X129695428Y-68994571D01*
X129838285Y-68923142D01*
X129909714Y-68851714D01*
X129981142Y-68708857D01*
X129981142Y-68566000D01*
X129909714Y-68423142D01*
X129838285Y-68351714D01*
X129695428Y-68280285D01*
X129409714Y-68208857D01*
X129266857Y-68137428D01*
X129195428Y-68066000D01*
X129124000Y-67923142D01*
X129124000Y-67780285D01*
X129195428Y-67637428D01*
X129266857Y-67566000D01*
X129409714Y-67494571D01*
X129766857Y-67494571D01*
X129981142Y-67566000D01*
X130624000Y-68994571D02*
X130624000Y-67494571D01*
X131195428Y-67494571D01*
X131338285Y-67566000D01*
X131409714Y-67637428D01*
X131481142Y-67780285D01*
X131481142Y-67994571D01*
X131409714Y-68137428D01*
X131338285Y-68208857D01*
X131195428Y-68280285D01*
X130624000Y-68280285D01*
X132124000Y-68208857D02*
X132624000Y-68208857D01*
X132838285Y-68994571D02*
X132124000Y-68994571D01*
X132124000Y-67494571D01*
X132838285Y-67494571D01*
X133481142Y-68208857D02*
X133981142Y-68208857D01*
X134195428Y-68994571D02*
X133481142Y-68994571D01*
X133481142Y-67494571D01*
X134195428Y-67494571D01*
X134838285Y-68994571D02*
X134838285Y-67494571D01*
X135195428Y-67494571D01*
X135409714Y-67566000D01*
X135552571Y-67708857D01*
X135624000Y-67851714D01*
X135695428Y-68137428D01*
X135695428Y-68351714D01*
X135624000Y-68637428D01*
X135552571Y-68780285D01*
X135409714Y-68923142D01*
X135195428Y-68994571D01*
X134838285Y-68994571D01*
X137481142Y-68208857D02*
X137981142Y-68208857D01*
X138195428Y-68994571D02*
X137481142Y-68994571D01*
X137481142Y-67494571D01*
X138195428Y-67494571D01*
X138624000Y-67494571D02*
X139124000Y-68994571D01*
X139624000Y-67494571D01*
X125124000Y-71544571D02*
X124624000Y-70830285D01*
X124266857Y-71544571D02*
X124266857Y-70044571D01*
X124838285Y-70044571D01*
X124981142Y-70116000D01*
X125052571Y-70187428D01*
X125124000Y-70330285D01*
X125124000Y-70544571D01*
X125052571Y-70687428D01*
X124981142Y-70758857D01*
X124838285Y-70830285D01*
X124266857Y-70830285D01*
X126624000Y-71401714D02*
X126552571Y-71473142D01*
X126338285Y-71544571D01*
X126195428Y-71544571D01*
X125981142Y-71473142D01*
X125838285Y-71330285D01*
X125766857Y-71187428D01*
X125695428Y-70901714D01*
X125695428Y-70687428D01*
X125766857Y-70401714D01*
X125838285Y-70258857D01*
X125981142Y-70116000D01*
X126195428Y-70044571D01*
X126338285Y-70044571D01*
X126552571Y-70116000D01*
X126624000Y-70187428D01*
X129266857Y-71401714D02*
X129195428Y-71473142D01*
X128981142Y-71544571D01*
X128838285Y-71544571D01*
X128624000Y-71473142D01*
X128481142Y-71330285D01*
X128409714Y-71187428D01*
X128338285Y-70901714D01*
X128338285Y-70687428D01*
X128409714Y-70401714D01*
X128481142Y-70258857D01*
X128624000Y-70116000D01*
X128838285Y-70044571D01*
X128981142Y-70044571D01*
X129195428Y-70116000D01*
X129266857Y-70187428D01*
X129838285Y-71116000D02*
X130552571Y-71116000D01*
X129695428Y-71544571D02*
X130195428Y-70044571D01*
X130695428Y-71544571D01*
X132052571Y-71544571D02*
X131552571Y-70830285D01*
X131195428Y-71544571D02*
X131195428Y-70044571D01*
X131766857Y-70044571D01*
X131909714Y-70116000D01*
X131981142Y-70187428D01*
X132052571Y-70330285D01*
X132052571Y-70544571D01*
X131981142Y-70687428D01*
X131909714Y-70758857D01*
X131766857Y-70830285D01*
X131195428Y-70830285D01*
X133838285Y-71544571D02*
X133838285Y-70044571D01*
X135624000Y-69973142D02*
X134338285Y-71901714D01*
X136409714Y-70044571D02*
X136695428Y-70044571D01*
X136838285Y-70116000D01*
X136981142Y-70258857D01*
X137052571Y-70544571D01*
X137052571Y-71044571D01*
X136981142Y-71330285D01*
X136838285Y-71473142D01*
X136695428Y-71544571D01*
X136409714Y-71544571D01*
X136266857Y-71473142D01*
X136124000Y-71330285D01*
X136052571Y-71044571D01*
X136052571Y-70544571D01*
X136124000Y-70258857D01*
X136266857Y-70116000D01*
X136409714Y-70044571D01*
X139338285Y-70758857D02*
X139552571Y-70830285D01*
X139624000Y-70901714D01*
X139695428Y-71044571D01*
X139695428Y-71258857D01*
X139624000Y-71401714D01*
X139552571Y-71473142D01*
X139409714Y-71544571D01*
X138838285Y-71544571D01*
X138838285Y-70044571D01*
X139338285Y-70044571D01*
X139481142Y-70116000D01*
X139552571Y-70187428D01*
X139624000Y-70330285D01*
X139624000Y-70473142D01*
X139552571Y-70616000D01*
X139481142Y-70687428D01*
X139338285Y-70758857D01*
X138838285Y-70758857D01*
X140624000Y-70044571D02*
X140909714Y-70044571D01*
X141052571Y-70116000D01*
X141195428Y-70258857D01*
X141266857Y-70544571D01*
X141266857Y-71044571D01*
X141195428Y-71330285D01*
X141052571Y-71473142D01*
X140909714Y-71544571D01*
X140624000Y-71544571D01*
X140481142Y-71473142D01*
X140338285Y-71330285D01*
X140266857Y-71044571D01*
X140266857Y-70544571D01*
X140338285Y-70258857D01*
X140481142Y-70116000D01*
X140624000Y-70044571D01*
X141838285Y-71116000D02*
X142552571Y-71116000D01*
X141695428Y-71544571D02*
X142195428Y-70044571D01*
X142695428Y-71544571D01*
X144052571Y-71544571D02*
X143552571Y-70830285D01*
X143195428Y-71544571D02*
X143195428Y-70044571D01*
X143766857Y-70044571D01*
X143909714Y-70116000D01*
X143981142Y-70187428D01*
X144052571Y-70330285D01*
X144052571Y-70544571D01*
X143981142Y-70687428D01*
X143909714Y-70758857D01*
X143766857Y-70830285D01*
X143195428Y-70830285D01*
X144695428Y-71544571D02*
X144695428Y-70044571D01*
X145052571Y-70044571D01*
X145266857Y-70116000D01*
X145409714Y-70258857D01*
X145481142Y-70401714D01*
X145552571Y-70687428D01*
X145552571Y-70901714D01*
X145481142Y-71187428D01*
X145409714Y-71330285D01*
X145266857Y-71473142D01*
X145052571Y-71544571D01*
X144695428Y-71544571D01*
X131659714Y-74094571D02*
X131159714Y-73380285D01*
X130802571Y-74094571D02*
X130802571Y-72594571D01*
X131374000Y-72594571D01*
X131516857Y-72666000D01*
X131588285Y-72737428D01*
X131659714Y-72880285D01*
X131659714Y-73094571D01*
X131588285Y-73237428D01*
X131516857Y-73308857D01*
X131374000Y-73380285D01*
X130802571Y-73380285D01*
X132302571Y-73308857D02*
X132802571Y-73308857D01*
X133016857Y-74094571D02*
X132302571Y-74094571D01*
X132302571Y-72594571D01*
X133016857Y-72594571D01*
X133445428Y-72594571D02*
X133945428Y-74094571D01*
X134445428Y-72594571D01*
X136874000Y-74094571D02*
X136016857Y-74094571D01*
X136445428Y-74094571D02*
X136445428Y-72594571D01*
X136302571Y-72808857D01*
X136159714Y-72951714D01*
X136016857Y-73023142D01*
X137516857Y-73951714D02*
X137588285Y-74023142D01*
X137516857Y-74094571D01*
X137445428Y-74023142D01*
X137516857Y-73951714D01*
X137516857Y-74094571D01*
X138516857Y-72594571D02*
X138659714Y-72594571D01*
X138802571Y-72666000D01*
X138874000Y-72737428D01*
X138945428Y-72880285D01*
X139016857Y-73166000D01*
X139016857Y-73523142D01*
X138945428Y-73808857D01*
X138874000Y-73951714D01*
X138802571Y-74023142D01*
X138659714Y-74094571D01*
X138516857Y-74094571D01*
X138374000Y-74023142D01*
X138302571Y-73951714D01*
X138231142Y-73808857D01*
X138159714Y-73523142D01*
X138159714Y-73166000D01*
X138231142Y-72880285D01*
X138302571Y-72737428D01*
X138374000Y-72666000D01*
X138516857Y-72594571D01*
D11*
G04 #@! TO.C,U1*
X93385888Y-93319274D02*
X93544987Y-93478373D01*
X98512412Y-88192750D02*
X98742222Y-88422560D01*
X103638936Y-93319274D02*
X103409126Y-93089464D01*
X98512412Y-98445798D02*
X98282602Y-98215988D01*
X93385888Y-93319274D02*
X93615698Y-93089464D01*
X98512412Y-98445798D02*
X98742222Y-98215988D01*
X103638936Y-93319274D02*
X103409126Y-93549084D01*
X98512412Y-88192750D02*
X98282602Y-88422560D01*
X93544987Y-93478373D02*
X92537360Y-94486000D01*
D12*
G04 #@! TO.C,C1*
X89020487Y-99379594D02*
X89727594Y-98672487D01*
X88525513Y-97470406D02*
X87818406Y-98177513D01*
G04 #@! TO.C,C2*
X90961851Y-101299099D02*
X90254744Y-102006206D01*
X91456825Y-103208287D02*
X92163932Y-102501180D01*
G04 #@! TO.C,C3*
X90075139Y-106632097D02*
X90782246Y-107339204D01*
X91984327Y-106137123D02*
X91277220Y-105430016D01*
G04 #@! TO.C,J2*
X114935000Y-73981000D02*
X114935000Y-76641000D01*
X114935000Y-73981000D02*
X76775000Y-73981000D01*
X76775000Y-73981000D02*
X76775000Y-76641000D01*
X114935000Y-76641000D02*
X76775000Y-76641000D01*
X117535000Y-76641000D02*
X116205000Y-76641000D01*
X117535000Y-75311000D02*
X117535000Y-76641000D01*
D11*
G04 #@! TO.C,J3*
X119507000Y-90297000D02*
X114427000Y-90297000D01*
X122327000Y-90017000D02*
X122327000Y-91567000D01*
X122047000Y-92837000D02*
X119507000Y-92837000D01*
X119507000Y-92837000D02*
X119507000Y-90297000D01*
X114427000Y-90297000D02*
X114427000Y-95377000D01*
X114427000Y-95377000D02*
X119507000Y-95377000D01*
X122327000Y-90017000D02*
X120777000Y-90017000D01*
X122047000Y-95377000D02*
X122047000Y-92837000D01*
X119507000Y-95377000D02*
X122047000Y-95377000D01*
D12*
G04 #@! TO.C,J4*
X65992000Y-99660000D02*
X74752000Y-99660000D01*
X74752000Y-99660000D02*
X74752000Y-93420000D01*
X74752000Y-93420000D02*
X65992000Y-93420000D01*
X65992000Y-93420000D02*
X65992000Y-99660000D01*
X74752000Y-97940000D02*
X75222000Y-97940000D01*
X75222000Y-97940000D02*
X75222000Y-97640000D01*
X75222000Y-97640000D02*
X74752000Y-97640000D01*
X74752000Y-97640000D02*
X74752000Y-97940000D01*
X74752000Y-95440000D02*
X75222000Y-95440000D01*
X75222000Y-95440000D02*
X75222000Y-95140000D01*
X75222000Y-95140000D02*
X74752000Y-95140000D01*
X74752000Y-95140000D02*
X74752000Y-95440000D01*
X76522000Y-99190000D02*
X76822000Y-99790000D01*
X76822000Y-99790000D02*
X76222000Y-99790000D01*
X76222000Y-99790000D02*
X76522000Y-99190000D01*
G04 #@! TO.C,R1*
X103053010Y-102646518D02*
X102204482Y-101797990D01*
X103448990Y-100553482D02*
X104297518Y-101402010D01*
G04 #@! TO.C,R2*
X104845990Y-99156482D02*
X105694518Y-100005010D01*
X104450010Y-101249518D02*
X103601482Y-100400990D01*
G04 #@! TO.C,R3*
X105847010Y-99852518D02*
X104998482Y-99003990D01*
X106242990Y-97759482D02*
X107091518Y-98608010D01*
G04 #@! TO.C,R4*
X105350269Y-87156239D02*
X104501741Y-88004767D01*
X103257233Y-86760259D02*
X104105761Y-85911731D01*
G04 #@! TO.C,R5*
X101823482Y-85273010D02*
X102672010Y-84424482D01*
X103916518Y-85668990D02*
X103067990Y-86517518D01*
G04 #@! TO.C,R6*
X97428259Y-82416767D02*
X96579731Y-81568239D01*
X97824239Y-80323731D02*
X98672767Y-81172259D01*
G04 #@! TO.C,R7*
X96336990Y-81884482D02*
X97185518Y-82733010D01*
X95941010Y-83977518D02*
X95092482Y-83128990D01*
G04 #@! TO.C,R8*
X94417010Y-85501518D02*
X93568482Y-84652990D01*
X94812990Y-83408482D02*
X95661518Y-84257010D01*
G04 #@! TO.C,R9*
X93125239Y-84895731D02*
X93973767Y-85744259D01*
X92729259Y-86988767D02*
X91880731Y-86140239D01*
G04 #@! TO.C,R10*
X90988010Y-88676518D02*
X90139482Y-87827990D01*
X91383990Y-86583482D02*
X92232518Y-87432010D01*
G04 #@! TO.C,R12*
X88335990Y-89377482D02*
X89184518Y-90226010D01*
X87940010Y-91470518D02*
X87091482Y-90621990D01*
G04 #@! TO.C,R13*
X86416010Y-92867518D02*
X85567482Y-92018990D01*
X86811990Y-90774482D02*
X87660518Y-91623010D01*
G04 #@! TO.C,R14*
X85287990Y-92298482D02*
X86136518Y-93147010D01*
X84892010Y-94391518D02*
X84043482Y-93542990D01*
G04 #@! TO.C,R15*
X88168518Y-96971990D02*
X87319990Y-97820518D01*
X86075482Y-96576010D02*
X86924010Y-95727482D01*
G04 #@! TO.C,R16*
X100132010Y-105440518D02*
X99283482Y-104591990D01*
X100527990Y-103347482D02*
X101376518Y-104196010D01*
G04 #@! TO.C,R17*
X101961741Y-101987233D02*
X102810269Y-102835761D01*
X101565761Y-104080269D02*
X100717233Y-103231741D01*
D13*
G04 #@! TO.C,Y1*
X95730579Y-103946506D02*
X94316366Y-105360720D01*
X95730579Y-103946506D02*
X94599209Y-102815135D01*
D12*
G04 #@! TO.C,J6*
X77343000Y-114995000D02*
X77343000Y-112335000D01*
X77343000Y-114995000D02*
X115503000Y-114995000D01*
X115503000Y-114995000D02*
X115503000Y-112335000D01*
X77343000Y-112335000D02*
X115503000Y-112335000D01*
X74743000Y-112335000D02*
X76073000Y-112335000D01*
X74743000Y-113665000D02*
X74743000Y-112335000D01*
G04 #@! TO.C,R18*
X90205000Y-81035000D02*
X91405000Y-81035000D01*
X91405000Y-82795000D02*
X90205000Y-82795000D01*
G04 #@! TO.C,R19*
X87153000Y-83938000D02*
X85953000Y-83938000D01*
X85953000Y-82178000D02*
X87153000Y-82178000D01*
G04 #@! TO.C,R20*
X89823239Y-87943731D02*
X90671767Y-88792259D01*
X89427259Y-90036767D02*
X88578731Y-89188239D01*
G04 #@! TO.C,R21*
X86452000Y-88256000D02*
X85252000Y-88256000D01*
X85252000Y-86496000D02*
X86452000Y-86496000D01*
D11*
G04 #@! TO.C,J1*
X69850000Y-74345800D02*
X69850000Y-82854800D01*
X69900800Y-82854800D02*
X73406000Y-82854800D01*
X69875400Y-74345800D02*
X73380600Y-74345800D01*
X73406000Y-74345800D02*
X73406000Y-82854800D01*
G04 #@! TO.C,J5*
X73406000Y-81915000D02*
X73406000Y-90424000D01*
X69875400Y-81915000D02*
X73380600Y-81915000D01*
X69900800Y-90424000D02*
X73406000Y-90424000D01*
X69850000Y-81915000D02*
X69850000Y-90424000D01*
G04 #@! TO.C,J7*
X145034001Y-81788000D02*
X145034001Y-90297000D01*
X145084801Y-90297000D02*
X148590001Y-90297000D01*
X145059401Y-81788000D02*
X148564601Y-81788000D01*
X148590001Y-81788000D02*
X148590001Y-90297000D01*
G04 #@! TO.C,J8*
X148590000Y-89281000D02*
X148590000Y-97790000D01*
X145059400Y-89281000D02*
X148564600Y-89281000D01*
X145084800Y-97790000D02*
X148590000Y-97790000D01*
X145034000Y-89281000D02*
X145034000Y-97790000D01*
G04 #@! TO.C,J9*
X145034000Y-96774000D02*
X145034000Y-105283000D01*
X145084800Y-105283000D02*
X148590000Y-105283000D01*
X145059400Y-96774000D02*
X148564600Y-96774000D01*
X148590000Y-96774000D02*
X148590000Y-105283000D01*
G04 #@! TO.C,U2*
X71247000Y-106172000D02*
X79756000Y-106172000D01*
X71247000Y-109702600D02*
X71247000Y-106197400D01*
X79756000Y-109677200D02*
X79756000Y-106172000D01*
X71247000Y-109728000D02*
X79756000Y-109728000D01*
G04 #@! TO.C,U3*
X71247000Y-105791000D02*
X79756000Y-105791000D01*
X79756000Y-105740200D02*
X79756000Y-102235000D01*
X71247000Y-105765600D02*
X71247000Y-102260400D01*
X71247000Y-102235000D02*
X79756000Y-102235000D01*
D14*
G04 #@! TO.C,G\002A\002A\002A*
G36*
X139219070Y-107810274D02*
X138727169Y-108140709D01*
X138180346Y-108574095D01*
X137619000Y-109073427D01*
X137083529Y-109601700D01*
X136614333Y-110121909D01*
X136393963Y-110398069D01*
X135936696Y-111064664D01*
X135563857Y-111730545D01*
X135281473Y-112376052D01*
X135095570Y-112981523D01*
X135012175Y-113527297D01*
X135037313Y-113993711D01*
X135177011Y-114361104D01*
X135178549Y-114363500D01*
X135260728Y-114501194D01*
X135278119Y-114549837D01*
X135191643Y-114528085D01*
X134978768Y-114473169D01*
X134676916Y-114394766D01*
X134493000Y-114346827D01*
X133500197Y-114045284D01*
X132667883Y-113699854D01*
X131992425Y-113308339D01*
X131470192Y-112868543D01*
X131097551Y-112378266D01*
X131029140Y-112251176D01*
X130847408Y-111720433D01*
X130825747Y-111195032D01*
X130954897Y-110680726D01*
X131225597Y-110183269D01*
X131628584Y-109708415D01*
X132154599Y-109261918D01*
X132794380Y-108849531D01*
X133538666Y-108477009D01*
X134378195Y-108150106D01*
X135303707Y-107874574D01*
X136305940Y-107656169D01*
X137375633Y-107500645D01*
X138503526Y-107413754D01*
X138833482Y-107402382D01*
X139956631Y-107374215D01*
X139219070Y-107810274D01*
X139219070Y-107810274D01*
G37*
X139219070Y-107810274D02*
X138727169Y-108140709D01*
X138180346Y-108574095D01*
X137619000Y-109073427D01*
X137083529Y-109601700D01*
X136614333Y-110121909D01*
X136393963Y-110398069D01*
X135936696Y-111064664D01*
X135563857Y-111730545D01*
X135281473Y-112376052D01*
X135095570Y-112981523D01*
X135012175Y-113527297D01*
X135037313Y-113993711D01*
X135177011Y-114361104D01*
X135178549Y-114363500D01*
X135260728Y-114501194D01*
X135278119Y-114549837D01*
X135191643Y-114528085D01*
X134978768Y-114473169D01*
X134676916Y-114394766D01*
X134493000Y-114346827D01*
X133500197Y-114045284D01*
X132667883Y-113699854D01*
X131992425Y-113308339D01*
X131470192Y-112868543D01*
X131097551Y-112378266D01*
X131029140Y-112251176D01*
X130847408Y-111720433D01*
X130825747Y-111195032D01*
X130954897Y-110680726D01*
X131225597Y-110183269D01*
X131628584Y-109708415D01*
X132154599Y-109261918D01*
X132794380Y-108849531D01*
X133538666Y-108477009D01*
X134378195Y-108150106D01*
X135303707Y-107874574D01*
X136305940Y-107656169D01*
X137375633Y-107500645D01*
X138503526Y-107413754D01*
X138833482Y-107402382D01*
X139956631Y-107374215D01*
X139219070Y-107810274D01*
G36*
X141872983Y-107554857D02*
X142023457Y-107594871D01*
X142289628Y-107663176D01*
X142622829Y-107747325D01*
X142748000Y-107778647D01*
X143380523Y-107972588D01*
X144019166Y-108232634D01*
X144617709Y-108535926D01*
X145129928Y-108859601D01*
X145436464Y-109108369D01*
X145857728Y-109591450D01*
X146117210Y-110088295D01*
X146221208Y-110592117D01*
X146176021Y-111096128D01*
X145987949Y-111593541D01*
X145663290Y-112077569D01*
X145208343Y-112541426D01*
X144629408Y-112978324D01*
X143932783Y-113381476D01*
X143124767Y-113744096D01*
X142211660Y-114059395D01*
X141199759Y-114320588D01*
X140467525Y-114462298D01*
X140009989Y-114535873D01*
X139693227Y-114576252D01*
X139492288Y-114585026D01*
X139382225Y-114563783D01*
X139346988Y-114533688D01*
X139288074Y-114479928D01*
X139277963Y-114523733D01*
X139196319Y-114583404D01*
X138967525Y-114622973D01*
X138747500Y-114635838D01*
X138380619Y-114647054D01*
X138009467Y-114659266D01*
X137816142Y-114666106D01*
X137581824Y-114663314D01*
X137436863Y-114639498D01*
X137413975Y-114620157D01*
X137348294Y-114590379D01*
X137265834Y-114605997D01*
X137258337Y-114592862D01*
X137375123Y-114515153D01*
X137591598Y-114388985D01*
X137628718Y-114368227D01*
X138421052Y-113858140D01*
X139203964Y-113211576D01*
X139786472Y-112638766D01*
X140463545Y-111873263D01*
X141008075Y-111127663D01*
X141446751Y-110364256D01*
X141556149Y-110138085D01*
X141844204Y-109432034D01*
X142002957Y-108826650D01*
X142033305Y-108314335D01*
X141936150Y-107887492D01*
X141843505Y-107709181D01*
X141764494Y-107570595D01*
X141788577Y-107535775D01*
X141872983Y-107554857D01*
X141872983Y-107554857D01*
G37*
X141872983Y-107554857D02*
X142023457Y-107594871D01*
X142289628Y-107663176D01*
X142622829Y-107747325D01*
X142748000Y-107778647D01*
X143380523Y-107972588D01*
X144019166Y-108232634D01*
X144617709Y-108535926D01*
X145129928Y-108859601D01*
X145436464Y-109108369D01*
X145857728Y-109591450D01*
X146117210Y-110088295D01*
X146221208Y-110592117D01*
X146176021Y-111096128D01*
X145987949Y-111593541D01*
X145663290Y-112077569D01*
X145208343Y-112541426D01*
X144629408Y-112978324D01*
X143932783Y-113381476D01*
X143124767Y-113744096D01*
X142211660Y-114059395D01*
X141199759Y-114320588D01*
X140467525Y-114462298D01*
X140009989Y-114535873D01*
X139693227Y-114576252D01*
X139492288Y-114585026D01*
X139382225Y-114563783D01*
X139346988Y-114533688D01*
X139288074Y-114479928D01*
X139277963Y-114523733D01*
X139196319Y-114583404D01*
X138967525Y-114622973D01*
X138747500Y-114635838D01*
X138380619Y-114647054D01*
X138009467Y-114659266D01*
X137816142Y-114666106D01*
X137581824Y-114663314D01*
X137436863Y-114639498D01*
X137413975Y-114620157D01*
X137348294Y-114590379D01*
X137265834Y-114605997D01*
X137258337Y-114592862D01*
X137375123Y-114515153D01*
X137591598Y-114388985D01*
X137628718Y-114368227D01*
X138421052Y-113858140D01*
X139203964Y-113211576D01*
X139786472Y-112638766D01*
X140463545Y-111873263D01*
X141008075Y-111127663D01*
X141446751Y-110364256D01*
X141556149Y-110138085D01*
X141844204Y-109432034D01*
X142002957Y-108826650D01*
X142033305Y-108314335D01*
X141936150Y-107887492D01*
X141843505Y-107709181D01*
X141764494Y-107570595D01*
X141788577Y-107535775D01*
X141872983Y-107554857D01*
G04 #@! TO.C,U1*
D11*
X97663095Y-84415380D02*
X97663095Y-85224904D01*
X97710714Y-85320142D01*
X97758333Y-85367761D01*
X97853571Y-85415380D01*
X98044047Y-85415380D01*
X98139285Y-85367761D01*
X98186904Y-85320142D01*
X98234523Y-85224904D01*
X98234523Y-84415380D01*
X99234523Y-85415380D02*
X98663095Y-85415380D01*
X98948809Y-85415380D02*
X98948809Y-84415380D01*
X98853571Y-84558238D01*
X98758333Y-84653476D01*
X98663095Y-84701095D01*
G04 #@! TO.C,C1*
X86121226Y-100251249D02*
X86073607Y-100298868D01*
X85930750Y-100346487D01*
X85835512Y-100346487D01*
X85692654Y-100298868D01*
X85597416Y-100203630D01*
X85549797Y-100108392D01*
X85502178Y-99917916D01*
X85502178Y-99775059D01*
X85549797Y-99584583D01*
X85597416Y-99489345D01*
X85692654Y-99394107D01*
X85835512Y-99346487D01*
X85930750Y-99346487D01*
X86073607Y-99394107D01*
X86121226Y-99441726D01*
X87073607Y-100346487D02*
X86502178Y-100346487D01*
X86787893Y-100346487D02*
X86787893Y-99346487D01*
X86692654Y-99489345D01*
X86597416Y-99584583D01*
X86502178Y-99632202D01*
G04 #@! TO.C,C2*
X88479333Y-104497142D02*
X88431714Y-104544761D01*
X88288857Y-104592380D01*
X88193619Y-104592380D01*
X88050761Y-104544761D01*
X87955523Y-104449523D01*
X87907904Y-104354285D01*
X87860285Y-104163809D01*
X87860285Y-104020952D01*
X87907904Y-103830476D01*
X87955523Y-103735238D01*
X88050761Y-103640000D01*
X88193619Y-103592380D01*
X88288857Y-103592380D01*
X88431714Y-103640000D01*
X88479333Y-103687619D01*
X88860285Y-103687619D02*
X88907904Y-103640000D01*
X89003142Y-103592380D01*
X89241238Y-103592380D01*
X89336476Y-103640000D01*
X89384095Y-103687619D01*
X89431714Y-103782857D01*
X89431714Y-103878095D01*
X89384095Y-104020952D01*
X88812666Y-104592380D01*
X89431714Y-104592380D01*
G04 #@! TO.C,C3*
X89622333Y-108688142D02*
X89574714Y-108735761D01*
X89431857Y-108783380D01*
X89336619Y-108783380D01*
X89193761Y-108735761D01*
X89098523Y-108640523D01*
X89050904Y-108545285D01*
X89003285Y-108354809D01*
X89003285Y-108211952D01*
X89050904Y-108021476D01*
X89098523Y-107926238D01*
X89193761Y-107831000D01*
X89336619Y-107783380D01*
X89431857Y-107783380D01*
X89574714Y-107831000D01*
X89622333Y-107878619D01*
X89955666Y-107783380D02*
X90574714Y-107783380D01*
X90241380Y-108164333D01*
X90384238Y-108164333D01*
X90479476Y-108211952D01*
X90527095Y-108259571D01*
X90574714Y-108354809D01*
X90574714Y-108592904D01*
X90527095Y-108688142D01*
X90479476Y-108735761D01*
X90384238Y-108783380D01*
X90098523Y-108783380D01*
X90003285Y-108735761D01*
X89955666Y-108688142D01*
G04 #@! TO.C,J2*
X118427380Y-75644333D02*
X119141666Y-75644333D01*
X119284523Y-75691952D01*
X119379761Y-75787190D01*
X119427380Y-75930047D01*
X119427380Y-76025285D01*
X118522619Y-75215761D02*
X118475000Y-75168142D01*
X118427380Y-75072904D01*
X118427380Y-74834809D01*
X118475000Y-74739571D01*
X118522619Y-74691952D01*
X118617857Y-74644333D01*
X118713095Y-74644333D01*
X118855952Y-74691952D01*
X119427380Y-75263380D01*
X119427380Y-74644333D01*
G04 #@! TO.C,J3*
X121459666Y-96099380D02*
X121459666Y-96813666D01*
X121412047Y-96956523D01*
X121316809Y-97051761D01*
X121173952Y-97099380D01*
X121078714Y-97099380D01*
X121840619Y-96099380D02*
X122459666Y-96099380D01*
X122126333Y-96480333D01*
X122269190Y-96480333D01*
X122364428Y-96527952D01*
X122412047Y-96575571D01*
X122459666Y-96670809D01*
X122459666Y-96908904D01*
X122412047Y-97004142D01*
X122364428Y-97051761D01*
X122269190Y-97099380D01*
X121983476Y-97099380D01*
X121888238Y-97051761D01*
X121840619Y-97004142D01*
G04 #@! TO.C,J4*
D12*
X77144333Y-100653904D02*
X77144333Y-101225333D01*
X77106238Y-101339619D01*
X77030047Y-101415809D01*
X76915761Y-101453904D01*
X76839571Y-101453904D01*
X77868142Y-100920571D02*
X77868142Y-101453904D01*
X77677666Y-100615809D02*
X77487190Y-101187238D01*
X77982428Y-101187238D01*
G04 #@! TO.C,Y1*
D11*
X94646809Y-101576190D02*
X94646809Y-102052380D01*
X94313476Y-101052380D02*
X94646809Y-101576190D01*
X94980142Y-101052380D01*
X95837285Y-102052380D02*
X95265857Y-102052380D01*
X95551571Y-102052380D02*
X95551571Y-101052380D01*
X95456333Y-101195238D01*
X95361095Y-101290476D01*
X95265857Y-101338095D01*
G04 #@! TO.C,J6*
X72755380Y-113998333D02*
X73469666Y-113998333D01*
X73612523Y-114045952D01*
X73707761Y-114141190D01*
X73755380Y-114284047D01*
X73755380Y-114379285D01*
X72755380Y-113093571D02*
X72755380Y-113284047D01*
X72803000Y-113379285D01*
X72850619Y-113426904D01*
X72993476Y-113522142D01*
X73183952Y-113569761D01*
X73564904Y-113569761D01*
X73660142Y-113522142D01*
X73707761Y-113474523D01*
X73755380Y-113379285D01*
X73755380Y-113188809D01*
X73707761Y-113093571D01*
X73660142Y-113045952D01*
X73564904Y-112998333D01*
X73326809Y-112998333D01*
X73231571Y-113045952D01*
X73183952Y-113093571D01*
X73136333Y-113188809D01*
X73136333Y-113379285D01*
X73183952Y-113474523D01*
X73231571Y-113522142D01*
X73326809Y-113569761D01*
G04 #@! TO.C,R18*
X87053142Y-82367380D02*
X86719809Y-81891190D01*
X86481714Y-82367380D02*
X86481714Y-81367380D01*
X86862666Y-81367380D01*
X86957904Y-81415000D01*
X87005523Y-81462619D01*
X87053142Y-81557857D01*
X87053142Y-81700714D01*
X87005523Y-81795952D01*
X86957904Y-81843571D01*
X86862666Y-81891190D01*
X86481714Y-81891190D01*
X88005523Y-82367380D02*
X87434095Y-82367380D01*
X87719809Y-82367380D02*
X87719809Y-81367380D01*
X87624571Y-81510238D01*
X87529333Y-81605476D01*
X87434095Y-81653095D01*
X88576952Y-81795952D02*
X88481714Y-81748333D01*
X88434095Y-81700714D01*
X88386476Y-81605476D01*
X88386476Y-81557857D01*
X88434095Y-81462619D01*
X88481714Y-81415000D01*
X88576952Y-81367380D01*
X88767428Y-81367380D01*
X88862666Y-81415000D01*
X88910285Y-81462619D01*
X88957904Y-81557857D01*
X88957904Y-81605476D01*
X88910285Y-81700714D01*
X88862666Y-81748333D01*
X88767428Y-81795952D01*
X88576952Y-81795952D01*
X88481714Y-81843571D01*
X88434095Y-81891190D01*
X88386476Y-81986428D01*
X88386476Y-82176904D01*
X88434095Y-82272142D01*
X88481714Y-82319761D01*
X88576952Y-82367380D01*
X88767428Y-82367380D01*
X88862666Y-82319761D01*
X88910285Y-82272142D01*
X88957904Y-82176904D01*
X88957904Y-81986428D01*
X88910285Y-81891190D01*
X88862666Y-81843571D01*
X88767428Y-81795952D01*
G04 #@! TO.C,R19*
X82674142Y-83637380D02*
X82340809Y-83161190D01*
X82102714Y-83637380D02*
X82102714Y-82637380D01*
X82483666Y-82637380D01*
X82578904Y-82685000D01*
X82626523Y-82732619D01*
X82674142Y-82827857D01*
X82674142Y-82970714D01*
X82626523Y-83065952D01*
X82578904Y-83113571D01*
X82483666Y-83161190D01*
X82102714Y-83161190D01*
X83626523Y-83637380D02*
X83055095Y-83637380D01*
X83340809Y-83637380D02*
X83340809Y-82637380D01*
X83245571Y-82780238D01*
X83150333Y-82875476D01*
X83055095Y-82923095D01*
X84102714Y-83637380D02*
X84293190Y-83637380D01*
X84388428Y-83589761D01*
X84436047Y-83542142D01*
X84531285Y-83399285D01*
X84578904Y-83208809D01*
X84578904Y-82827857D01*
X84531285Y-82732619D01*
X84483666Y-82685000D01*
X84388428Y-82637380D01*
X84197952Y-82637380D01*
X84102714Y-82685000D01*
X84055095Y-82732619D01*
X84007476Y-82827857D01*
X84007476Y-83065952D01*
X84055095Y-83161190D01*
X84102714Y-83208809D01*
X84197952Y-83256428D01*
X84388428Y-83256428D01*
X84483666Y-83208809D01*
X84531285Y-83161190D01*
X84578904Y-83065952D01*
G04 #@! TO.C,R20*
X90157549Y-90289312D02*
X90258564Y-89716893D01*
X89753488Y-89885251D02*
X90460595Y-89178145D01*
X90729969Y-89447519D01*
X90763641Y-89548534D01*
X90763641Y-89615877D01*
X90729969Y-89716893D01*
X90628954Y-89817908D01*
X90527938Y-89851580D01*
X90460595Y-89851580D01*
X90359580Y-89817908D01*
X90090206Y-89548534D01*
X91066687Y-89918923D02*
X91134030Y-89918923D01*
X91235045Y-89952595D01*
X91403404Y-90120954D01*
X91437076Y-90221969D01*
X91437076Y-90289312D01*
X91403404Y-90390328D01*
X91336061Y-90457671D01*
X91201374Y-90525015D01*
X90393251Y-90525015D01*
X90830984Y-90962748D01*
X91975824Y-90693374D02*
X92043167Y-90760717D01*
X92076839Y-90861732D01*
X92076839Y-90929076D01*
X92043167Y-91030091D01*
X91942152Y-91198450D01*
X91773793Y-91366809D01*
X91605435Y-91467824D01*
X91504419Y-91501496D01*
X91437076Y-91501496D01*
X91336061Y-91467824D01*
X91268717Y-91400480D01*
X91235045Y-91299465D01*
X91235045Y-91232122D01*
X91268717Y-91131106D01*
X91369732Y-90962748D01*
X91538091Y-90794389D01*
X91706450Y-90693374D01*
X91807465Y-90659702D01*
X91874809Y-90659702D01*
X91975824Y-90693374D01*
G04 #@! TO.C,R21*
X81907142Y-87828380D02*
X81573809Y-87352190D01*
X81335714Y-87828380D02*
X81335714Y-86828380D01*
X81716666Y-86828380D01*
X81811904Y-86876000D01*
X81859523Y-86923619D01*
X81907142Y-87018857D01*
X81907142Y-87161714D01*
X81859523Y-87256952D01*
X81811904Y-87304571D01*
X81716666Y-87352190D01*
X81335714Y-87352190D01*
X82288095Y-86923619D02*
X82335714Y-86876000D01*
X82430952Y-86828380D01*
X82669047Y-86828380D01*
X82764285Y-86876000D01*
X82811904Y-86923619D01*
X82859523Y-87018857D01*
X82859523Y-87114095D01*
X82811904Y-87256952D01*
X82240476Y-87828380D01*
X82859523Y-87828380D01*
X83811904Y-87828380D02*
X83240476Y-87828380D01*
X83526190Y-87828380D02*
X83526190Y-86828380D01*
X83430952Y-86971238D01*
X83335714Y-87066476D01*
X83240476Y-87114095D01*
G04 #@! TO.C,J1*
X65706666Y-78624180D02*
X65706666Y-79338466D01*
X65659047Y-79481323D01*
X65563809Y-79576561D01*
X65420952Y-79624180D01*
X65325714Y-79624180D01*
X66706666Y-79624180D02*
X66135238Y-79624180D01*
X66420952Y-79624180D02*
X66420952Y-78624180D01*
X66325714Y-78767038D01*
X66230476Y-78862276D01*
X66135238Y-78909895D01*
G04 #@! TO.C,J5*
X65706666Y-86193380D02*
X65706666Y-86907666D01*
X65659047Y-87050523D01*
X65563809Y-87145761D01*
X65420952Y-87193380D01*
X65325714Y-87193380D01*
X66659047Y-86193380D02*
X66182857Y-86193380D01*
X66135238Y-86669571D01*
X66182857Y-86621952D01*
X66278095Y-86574333D01*
X66516190Y-86574333D01*
X66611428Y-86621952D01*
X66659047Y-86669571D01*
X66706666Y-86764809D01*
X66706666Y-87002904D01*
X66659047Y-87098142D01*
X66611428Y-87145761D01*
X66516190Y-87193380D01*
X66278095Y-87193380D01*
X66182857Y-87145761D01*
X66135238Y-87098142D01*
G04 #@! TO.C,J7*
X143684666Y-85812380D02*
X143684666Y-86526666D01*
X143637047Y-86669523D01*
X143541809Y-86764761D01*
X143398952Y-86812380D01*
X143303714Y-86812380D01*
X144065619Y-85812380D02*
X144732285Y-85812380D01*
X144303714Y-86812380D01*
G04 #@! TO.C,J8*
X143684666Y-93051380D02*
X143684666Y-93765666D01*
X143637047Y-93908523D01*
X143541809Y-94003761D01*
X143398952Y-94051380D01*
X143303714Y-94051380D01*
X144303714Y-93479952D02*
X144208476Y-93432333D01*
X144160857Y-93384714D01*
X144113238Y-93289476D01*
X144113238Y-93241857D01*
X144160857Y-93146619D01*
X144208476Y-93099000D01*
X144303714Y-93051380D01*
X144494190Y-93051380D01*
X144589428Y-93099000D01*
X144637047Y-93146619D01*
X144684666Y-93241857D01*
X144684666Y-93289476D01*
X144637047Y-93384714D01*
X144589428Y-93432333D01*
X144494190Y-93479952D01*
X144303714Y-93479952D01*
X144208476Y-93527571D01*
X144160857Y-93575190D01*
X144113238Y-93670428D01*
X144113238Y-93860904D01*
X144160857Y-93956142D01*
X144208476Y-94003761D01*
X144303714Y-94051380D01*
X144494190Y-94051380D01*
X144589428Y-94003761D01*
X144637047Y-93956142D01*
X144684666Y-93860904D01*
X144684666Y-93670428D01*
X144637047Y-93575190D01*
X144589428Y-93527571D01*
X144494190Y-93479952D01*
G04 #@! TO.C,J9*
X143557666Y-100671380D02*
X143557666Y-101385666D01*
X143510047Y-101528523D01*
X143414809Y-101623761D01*
X143271952Y-101671380D01*
X143176714Y-101671380D01*
X144081476Y-101671380D02*
X144271952Y-101671380D01*
X144367190Y-101623761D01*
X144414809Y-101576142D01*
X144510047Y-101433285D01*
X144557666Y-101242809D01*
X144557666Y-100861857D01*
X144510047Y-100766619D01*
X144462428Y-100719000D01*
X144367190Y-100671380D01*
X144176714Y-100671380D01*
X144081476Y-100719000D01*
X144033857Y-100766619D01*
X143986238Y-100861857D01*
X143986238Y-101099952D01*
X144033857Y-101195190D01*
X144081476Y-101242809D01*
X144176714Y-101290428D01*
X144367190Y-101290428D01*
X144462428Y-101242809D01*
X144510047Y-101195190D01*
X144557666Y-101099952D01*
G04 #@! TO.C,J11*
X108156476Y-63587380D02*
X108156476Y-64301666D01*
X108108857Y-64444523D01*
X108013619Y-64539761D01*
X107870761Y-64587380D01*
X107775523Y-64587380D01*
X109156476Y-64587380D02*
X108585047Y-64587380D01*
X108870761Y-64587380D02*
X108870761Y-63587380D01*
X108775523Y-63730238D01*
X108680285Y-63825476D01*
X108585047Y-63873095D01*
X110108857Y-64587380D02*
X109537428Y-64587380D01*
X109823142Y-64587380D02*
X109823142Y-63587380D01*
X109727904Y-63730238D01*
X109632666Y-63825476D01*
X109537428Y-63873095D01*
G04 #@! TO.C,J12*
X99345476Y-63506380D02*
X99345476Y-64220666D01*
X99297857Y-64363523D01*
X99202619Y-64458761D01*
X99059761Y-64506380D01*
X98964523Y-64506380D01*
X100345476Y-64506380D02*
X99774047Y-64506380D01*
X100059761Y-64506380D02*
X100059761Y-63506380D01*
X99964523Y-63649238D01*
X99869285Y-63744476D01*
X99774047Y-63792095D01*
X100726428Y-63601619D02*
X100774047Y-63554000D01*
X100869285Y-63506380D01*
X101107380Y-63506380D01*
X101202619Y-63554000D01*
X101250238Y-63601619D01*
X101297857Y-63696857D01*
X101297857Y-63792095D01*
X101250238Y-63934952D01*
X100678809Y-64506380D01*
X101297857Y-64506380D01*
G04 #@! TO.C,J13*
X90582476Y-63458380D02*
X90582476Y-64172666D01*
X90534857Y-64315523D01*
X90439619Y-64410761D01*
X90296761Y-64458380D01*
X90201523Y-64458380D01*
X91582476Y-64458380D02*
X91011047Y-64458380D01*
X91296761Y-64458380D02*
X91296761Y-63458380D01*
X91201523Y-63601238D01*
X91106285Y-63696476D01*
X91011047Y-63744095D01*
X91915809Y-63458380D02*
X92534857Y-63458380D01*
X92201523Y-63839333D01*
X92344380Y-63839333D01*
X92439619Y-63886952D01*
X92487238Y-63934571D01*
X92534857Y-64029809D01*
X92534857Y-64267904D01*
X92487238Y-64363142D01*
X92439619Y-64410761D01*
X92344380Y-64458380D01*
X92058666Y-64458380D01*
X91963428Y-64410761D01*
X91915809Y-64363142D01*
G04 #@! TO.C,J14*
X81994476Y-63460380D02*
X81994476Y-64174666D01*
X81946857Y-64317523D01*
X81851619Y-64412761D01*
X81708761Y-64460380D01*
X81613523Y-64460380D01*
X82994476Y-64460380D02*
X82423047Y-64460380D01*
X82708761Y-64460380D02*
X82708761Y-63460380D01*
X82613523Y-63603238D01*
X82518285Y-63698476D01*
X82423047Y-63746095D01*
X83851619Y-63793714D02*
X83851619Y-64460380D01*
X83613523Y-63412761D02*
X83375428Y-64127047D01*
X83994476Y-64127047D01*
G04 #@! TO.C,U2*
X80518095Y-107275380D02*
X80518095Y-108084904D01*
X80565714Y-108180142D01*
X80613333Y-108227761D01*
X80708571Y-108275380D01*
X80899047Y-108275380D01*
X80994285Y-108227761D01*
X81041904Y-108180142D01*
X81089523Y-108084904D01*
X81089523Y-107275380D01*
X81518095Y-107370619D02*
X81565714Y-107323000D01*
X81660952Y-107275380D01*
X81899047Y-107275380D01*
X81994285Y-107323000D01*
X82041904Y-107370619D01*
X82089523Y-107465857D01*
X82089523Y-107561095D01*
X82041904Y-107703952D01*
X81470476Y-108275380D01*
X82089523Y-108275380D01*
G04 #@! TO.C,U3*
X80518095Y-101814380D02*
X80518095Y-102623904D01*
X80565714Y-102719142D01*
X80613333Y-102766761D01*
X80708571Y-102814380D01*
X80899047Y-102814380D01*
X80994285Y-102766761D01*
X81041904Y-102719142D01*
X81089523Y-102623904D01*
X81089523Y-101814380D01*
X81470476Y-101814380D02*
X82089523Y-101814380D01*
X81756190Y-102195333D01*
X81899047Y-102195333D01*
X81994285Y-102242952D01*
X82041904Y-102290571D01*
X82089523Y-102385809D01*
X82089523Y-102623904D01*
X82041904Y-102719142D01*
X81994285Y-102766761D01*
X81899047Y-102814380D01*
X81613333Y-102814380D01*
X81518095Y-102766761D01*
X81470476Y-102719142D01*
G04 #@! TD*
M02*
