M48
INCH,TZ
T1C0.0120
T2C0.0310
T3C0.0394
T4C0.0400
T5C0.0402
T6C0.0472
T7C0.0630
T8C0.1181
%
G90
G05
T1
X32550Y-40350
X33200Y-39700
X33550Y-33600
X33650Y-32050
X34900Y-32250
X35050Y-33200
X35100Y-42100
X36150Y-32900
X36300Y-38150
X36550Y-35050
X36950Y-30600
X37700Y-40500
X39150Y-32950
X43850Y-37150
X44050Y-36700
X44250Y-35950
X44350Y-36450
X44550Y-37850
X54440Y-32510
X54450Y-32200
T2
X28200Y-32970
X28200Y-33950
X28200Y-34930
X57800Y-38820
X57800Y-39800
X57800Y-40780
X28770Y-40950
X29750Y-40950
X30730Y-40950
X57800Y-35870
X57800Y-36850
X57800Y-37830
X28770Y-42500
X29750Y-42500
X30730Y-42500
X57800Y-32920
X57800Y-33900
X57800Y-34880
X28200Y-29990
X28200Y-30970
X28200Y-31950
T3
X29950Y-44750
X30950Y-44750
X31950Y-44750
X32950Y-44750
X33950Y-44750
X34950Y-44750
X35950Y-44750
X36950Y-44750
X37950Y-44750
X38950Y-44750
X39950Y-44750
X40950Y-44750
X41950Y-44750
X42950Y-44750
X43950Y-44750
X44950Y-44750
X30750Y-29650
X31750Y-29650
X32750Y-29650
X33750Y-29650
X34750Y-29650
X35750Y-29650
X36750Y-29650
X37750Y-29650
X38750Y-29650
X39750Y-29650
X40750Y-29650
X41750Y-29650
X42750Y-29650
X43750Y-29650
X44750Y-29650
X45750Y-29650
T4
X45550Y-36050
X45550Y-37050
X46550Y-36050
X46550Y-37050
X47550Y-36050
X47550Y-37050
T5
X36800Y-26700
X36800Y-27881
X37981Y-26700
X37981Y-27881
X39162Y-26700
X39162Y-27881
X40250Y-26719
X40250Y-27900
X41431Y-26719
X41431Y-27900
X42612Y-26719
X42612Y-27900
X33419Y-26701
X33419Y-27882
X34600Y-26701
X34600Y-27882
X35781Y-26701
X35781Y-27882
X43719Y-26751
X43719Y-27932
X44900Y-26751
X44900Y-27932
X46081Y-26751
X46081Y-27932
T6
X30127Y-37516
X30127Y-38500
T7
X27300Y-37516
X27300Y-38500
T8
X37981Y-24999
X41431Y-25018
X34600Y-25000
X44900Y-25050
T0
M30
