G04 #@! TF.GenerationSoftware,KiCad,Pcbnew,5.0.2-bee76a0~70~ubuntu18.04.1*
G04 #@! TF.CreationDate,2019-11-08T01:10:53-05:00*
G04 #@! TF.ProjectId,controllerBoard,636f6e74-726f-46c6-9c65-72426f617264,rev?*
G04 #@! TF.SameCoordinates,Original*
G04 #@! TF.FileFunction,Copper,L1,Top*
G04 #@! TF.FilePolarity,Positive*
%FSLAX46Y46*%
G04 Gerber Fmt 4.6, Leading zero omitted, Abs format (unit mm)*
G04 Created by KiCad (PCBNEW 5.0.2-bee76a0~70~ubuntu18.04.1) date Fri 08 Nov 2019 01:10:53 AM EST*
%MOMM*%
%LPD*%
G01*
G04 APERTURE LIST*
G04 #@! TA.AperFunction,SMDPad,CuDef*
%ADD10C,0.550000*%
G04 #@! TD*
G04 #@! TA.AperFunction,Conductor*
%ADD11C,0.100000*%
G04 #@! TD*
G04 #@! TA.AperFunction,SMDPad,CuDef*
%ADD12C,1.000000*%
G04 #@! TD*
G04 #@! TA.AperFunction,ComponentPad*
%ADD13R,1.700000X1.700000*%
G04 #@! TD*
G04 #@! TA.AperFunction,ComponentPad*
%ADD14O,1.700000X1.700000*%
G04 #@! TD*
G04 #@! TA.AperFunction,ComponentPad*
%ADD15R,1.400000X1.400000*%
G04 #@! TD*
G04 #@! TA.AperFunction,ComponentPad*
%ADD16C,1.400000*%
G04 #@! TD*
G04 #@! TA.AperFunction,ComponentPad*
%ADD17R,1.900000X1.900000*%
G04 #@! TD*
G04 #@! TA.AperFunction,ComponentPad*
%ADD18C,1.900000*%
G04 #@! TD*
G04 #@! TA.AperFunction,SMDPad,CuDef*
%ADD19C,0.700000*%
G04 #@! TD*
G04 #@! TA.AperFunction,SMDPad,CuDef*
%ADD20C,1.200000*%
G04 #@! TD*
G04 #@! TA.AperFunction,SMDPad,CuDef*
%ADD21R,0.700000X1.300000*%
G04 #@! TD*
G04 #@! TA.AperFunction,ComponentPad*
%ADD22C,1.524000*%
G04 #@! TD*
G04 #@! TA.AperFunction,ViaPad*
%ADD23C,0.609600*%
G04 #@! TD*
G04 #@! TA.AperFunction,Conductor*
%ADD24C,0.152400*%
G04 #@! TD*
G04 #@! TA.AperFunction,Conductor*
%ADD25C,0.812800*%
G04 #@! TD*
G04 #@! TA.AperFunction,Conductor*
%ADD26C,0.254000*%
G04 #@! TD*
G04 APERTURE END LIST*
D10*
G04 #@! TO.P,U1,1*
G04 #@! TO.N,Net-(R14-Pad2)*
X93527309Y-94344579D03*
D11*
G04 #@! TD*
G04 #@! TO.N,Net-(R14-Pad2)*
G04 #@! TO.C,U1*
G36*
X93156078Y-95104719D02*
X92767169Y-94715810D01*
X93898540Y-93584439D01*
X94287449Y-93973348D01*
X93156078Y-95104719D01*
X93156078Y-95104719D01*
G37*
D10*
G04 #@! TO.P,U1,2*
G04 #@! TO.N,Net-(R15-Pad2)*
X94092995Y-94910264D03*
D11*
G04 #@! TD*
G04 #@! TO.N,Net-(R15-Pad2)*
G04 #@! TO.C,U1*
G36*
X93721764Y-95670404D02*
X93332855Y-95281495D01*
X94464226Y-94150124D01*
X94853135Y-94539033D01*
X93721764Y-95670404D01*
X93721764Y-95670404D01*
G37*
D10*
G04 #@! TO.P,U1,3*
G04 #@! TO.N,GND*
X94658680Y-95475950D03*
D11*
G04 #@! TD*
G04 #@! TO.N,GND*
G04 #@! TO.C,U1*
G36*
X94287449Y-96236090D02*
X93898540Y-95847181D01*
X95029911Y-94715810D01*
X95418820Y-95104719D01*
X94287449Y-96236090D01*
X94287449Y-96236090D01*
G37*
D10*
G04 #@! TO.P,U1,4*
G04 #@! TO.N,+5V*
X95224365Y-96041635D03*
D11*
G04 #@! TD*
G04 #@! TO.N,+5V*
G04 #@! TO.C,U1*
G36*
X94853134Y-96801775D02*
X94464225Y-96412866D01*
X95595596Y-95281495D01*
X95984505Y-95670404D01*
X94853134Y-96801775D01*
X94853134Y-96801775D01*
G37*
D10*
G04 #@! TO.P,U1,5*
G04 #@! TO.N,Net-(U1-Pad5)*
X95790051Y-96607321D03*
D11*
G04 #@! TD*
G04 #@! TO.N,Net-(U1-Pad5)*
G04 #@! TO.C,U1*
G36*
X95418820Y-97367461D02*
X95029911Y-96978552D01*
X96161282Y-95847181D01*
X96550191Y-96236090D01*
X95418820Y-97367461D01*
X95418820Y-97367461D01*
G37*
D10*
G04 #@! TO.P,U1,6*
G04 #@! TO.N,Net-(U1-Pad6)*
X96355736Y-97173006D03*
D11*
G04 #@! TD*
G04 #@! TO.N,Net-(U1-Pad6)*
G04 #@! TO.C,U1*
G36*
X95984505Y-97933146D02*
X95595596Y-97544237D01*
X96726967Y-96412866D01*
X97115876Y-96801775D01*
X95984505Y-97933146D01*
X95984505Y-97933146D01*
G37*
D10*
G04 #@! TO.P,U1,7*
G04 #@! TO.N,/XTAL1*
X96921422Y-97738691D03*
D11*
G04 #@! TD*
G04 #@! TO.N,/XTAL1*
G04 #@! TO.C,U1*
G36*
X96550191Y-98498831D02*
X96161282Y-98109922D01*
X97292653Y-96978551D01*
X97681562Y-97367460D01*
X96550191Y-98498831D01*
X96550191Y-98498831D01*
G37*
D10*
G04 #@! TO.P,U1,8*
G04 #@! TO.N,/XTAL2*
X97487107Y-98304377D03*
D11*
G04 #@! TD*
G04 #@! TO.N,/XTAL2*
G04 #@! TO.C,U1*
G36*
X97115876Y-99064517D02*
X96726967Y-98675608D01*
X97858338Y-97544237D01*
X98247247Y-97933146D01*
X97115876Y-99064517D01*
X97115876Y-99064517D01*
G37*
D10*
G04 #@! TO.P,U1,9*
G04 #@! TO.N,Net-(R16-Pad2)*
X99537717Y-98304377D03*
D11*
G04 #@! TD*
G04 #@! TO.N,Net-(R16-Pad2)*
G04 #@! TO.C,U1*
G36*
X100297857Y-98675608D02*
X99908948Y-99064517D01*
X98777577Y-97933146D01*
X99166486Y-97544237D01*
X100297857Y-98675608D01*
X100297857Y-98675608D01*
G37*
D10*
G04 #@! TO.P,U1,10*
G04 #@! TO.N,Net-(R17-Pad2)*
X100103402Y-97738691D03*
D11*
G04 #@! TD*
G04 #@! TO.N,Net-(R17-Pad2)*
G04 #@! TO.C,U1*
G36*
X100863542Y-98109922D02*
X100474633Y-98498831D01*
X99343262Y-97367460D01*
X99732171Y-96978551D01*
X100863542Y-98109922D01*
X100863542Y-98109922D01*
G37*
D10*
G04 #@! TO.P,U1,11*
G04 #@! TO.N,Net-(U1-Pad11)*
X100669088Y-97173006D03*
D11*
G04 #@! TD*
G04 #@! TO.N,Net-(U1-Pad11)*
G04 #@! TO.C,U1*
G36*
X101429228Y-97544237D02*
X101040319Y-97933146D01*
X99908948Y-96801775D01*
X100297857Y-96412866D01*
X101429228Y-97544237D01*
X101429228Y-97544237D01*
G37*
D10*
G04 #@! TO.P,U1,12*
G04 #@! TO.N,Net-(R1-Pad2)*
X101234773Y-96607321D03*
D11*
G04 #@! TD*
G04 #@! TO.N,Net-(R1-Pad2)*
G04 #@! TO.C,U1*
G36*
X101994913Y-96978552D02*
X101606004Y-97367461D01*
X100474633Y-96236090D01*
X100863542Y-95847181D01*
X101994913Y-96978552D01*
X101994913Y-96978552D01*
G37*
D10*
G04 #@! TO.P,U1,13*
G04 #@! TO.N,Net-(R2-Pad2)*
X101800459Y-96041635D03*
D11*
G04 #@! TD*
G04 #@! TO.N,Net-(R2-Pad2)*
G04 #@! TO.C,U1*
G36*
X102560599Y-96412866D02*
X102171690Y-96801775D01*
X101040319Y-95670404D01*
X101429228Y-95281495D01*
X102560599Y-96412866D01*
X102560599Y-96412866D01*
G37*
D10*
G04 #@! TO.P,U1,14*
G04 #@! TO.N,Net-(R3-Pad2)*
X102366144Y-95475950D03*
D11*
G04 #@! TD*
G04 #@! TO.N,Net-(R3-Pad2)*
G04 #@! TO.C,U1*
G36*
X103126284Y-95847181D02*
X102737375Y-96236090D01*
X101606004Y-95104719D01*
X101994913Y-94715810D01*
X103126284Y-95847181D01*
X103126284Y-95847181D01*
G37*
D10*
G04 #@! TO.P,U1,15*
G04 #@! TO.N,/MOSI*
X102931829Y-94910264D03*
D11*
G04 #@! TD*
G04 #@! TO.N,/MOSI*
G04 #@! TO.C,U1*
G36*
X103691969Y-95281495D02*
X103303060Y-95670404D01*
X102171689Y-94539033D01*
X102560598Y-94150124D01*
X103691969Y-95281495D01*
X103691969Y-95281495D01*
G37*
D10*
G04 #@! TO.P,U1,16*
G04 #@! TO.N,/MISO*
X103497515Y-94344579D03*
D11*
G04 #@! TD*
G04 #@! TO.N,/MISO*
G04 #@! TO.C,U1*
G36*
X104257655Y-94715810D02*
X103868746Y-95104719D01*
X102737375Y-93973348D01*
X103126284Y-93584439D01*
X104257655Y-94715810D01*
X104257655Y-94715810D01*
G37*
D10*
G04 #@! TO.P,U1,17*
G04 #@! TO.N,/SCK*
X103497515Y-92293969D03*
D11*
G04 #@! TD*
G04 #@! TO.N,/SCK*
G04 #@! TO.C,U1*
G36*
X103126284Y-93054109D02*
X102737375Y-92665200D01*
X103868746Y-91533829D01*
X104257655Y-91922738D01*
X103126284Y-93054109D01*
X103126284Y-93054109D01*
G37*
D10*
G04 #@! TO.P,U1,18*
G04 #@! TO.N,+5V*
X102931829Y-91728284D03*
D11*
G04 #@! TD*
G04 #@! TO.N,+5V*
G04 #@! TO.C,U1*
G36*
X102560598Y-92488424D02*
X102171689Y-92099515D01*
X103303060Y-90968144D01*
X103691969Y-91357053D01*
X102560598Y-92488424D01*
X102560598Y-92488424D01*
G37*
D10*
G04 #@! TO.P,U1,19*
G04 #@! TO.N,Net-(U1-Pad19)*
X102366144Y-91162598D03*
D11*
G04 #@! TD*
G04 #@! TO.N,Net-(U1-Pad19)*
G04 #@! TO.C,U1*
G36*
X101994913Y-91922738D02*
X101606004Y-91533829D01*
X102737375Y-90402458D01*
X103126284Y-90791367D01*
X101994913Y-91922738D01*
X101994913Y-91922738D01*
G37*
D10*
G04 #@! TO.P,U1,20*
G04 #@! TO.N,Net-(U1-Pad20)*
X101800459Y-90596913D03*
D11*
G04 #@! TD*
G04 #@! TO.N,Net-(U1-Pad20)*
G04 #@! TO.C,U1*
G36*
X101429228Y-91357053D02*
X101040319Y-90968144D01*
X102171690Y-89836773D01*
X102560599Y-90225682D01*
X101429228Y-91357053D01*
X101429228Y-91357053D01*
G37*
D10*
G04 #@! TO.P,U1,21*
G04 #@! TO.N,Net-(U1-Pad21)*
X101234773Y-90031227D03*
D11*
G04 #@! TD*
G04 #@! TO.N,Net-(U1-Pad21)*
G04 #@! TO.C,U1*
G36*
X100863542Y-90791367D02*
X100474633Y-90402458D01*
X101606004Y-89271087D01*
X101994913Y-89659996D01*
X100863542Y-90791367D01*
X100863542Y-90791367D01*
G37*
D10*
G04 #@! TO.P,U1,22*
G04 #@! TO.N,Net-(U1-Pad22)*
X100669088Y-89465542D03*
D11*
G04 #@! TD*
G04 #@! TO.N,Net-(U1-Pad22)*
G04 #@! TO.C,U1*
G36*
X100297857Y-90225682D02*
X99908948Y-89836773D01*
X101040319Y-88705402D01*
X101429228Y-89094311D01*
X100297857Y-90225682D01*
X100297857Y-90225682D01*
G37*
D10*
G04 #@! TO.P,U1,23*
G04 #@! TO.N,Net-(R4-Pad2)*
X100103402Y-88899857D03*
D11*
G04 #@! TD*
G04 #@! TO.N,Net-(R4-Pad2)*
G04 #@! TO.C,U1*
G36*
X99732171Y-89659997D02*
X99343262Y-89271088D01*
X100474633Y-88139717D01*
X100863542Y-88528626D01*
X99732171Y-89659997D01*
X99732171Y-89659997D01*
G37*
D10*
G04 #@! TO.P,U1,24*
G04 #@! TO.N,Net-(R5-Pad2)*
X99537717Y-88334171D03*
D11*
G04 #@! TD*
G04 #@! TO.N,Net-(R5-Pad2)*
G04 #@! TO.C,U1*
G36*
X99166486Y-89094311D02*
X98777577Y-88705402D01*
X99908948Y-87574031D01*
X100297857Y-87962940D01*
X99166486Y-89094311D01*
X99166486Y-89094311D01*
G37*
D10*
G04 #@! TO.P,U1,25*
G04 #@! TO.N,Net-(R6-Pad2)*
X97487107Y-88334171D03*
D11*
G04 #@! TD*
G04 #@! TO.N,Net-(R6-Pad2)*
G04 #@! TO.C,U1*
G36*
X98247247Y-88705402D02*
X97858338Y-89094311D01*
X96726967Y-87962940D01*
X97115876Y-87574031D01*
X98247247Y-88705402D01*
X98247247Y-88705402D01*
G37*
D10*
G04 #@! TO.P,U1,26*
G04 #@! TO.N,Net-(R7-Pad2)*
X96921422Y-88899857D03*
D11*
G04 #@! TD*
G04 #@! TO.N,Net-(R7-Pad2)*
G04 #@! TO.C,U1*
G36*
X97681562Y-89271088D02*
X97292653Y-89659997D01*
X96161282Y-88528626D01*
X96550191Y-88139717D01*
X97681562Y-89271088D01*
X97681562Y-89271088D01*
G37*
D10*
G04 #@! TO.P,U1,27*
G04 #@! TO.N,Net-(R8-Pad2)*
X96355736Y-89465542D03*
D11*
G04 #@! TD*
G04 #@! TO.N,Net-(R8-Pad2)*
G04 #@! TO.C,U1*
G36*
X97115876Y-89836773D02*
X96726967Y-90225682D01*
X95595596Y-89094311D01*
X95984505Y-88705402D01*
X97115876Y-89836773D01*
X97115876Y-89836773D01*
G37*
D10*
G04 #@! TO.P,U1,28*
G04 #@! TO.N,Net-(R9-Pad2)*
X95790051Y-90031227D03*
D11*
G04 #@! TD*
G04 #@! TO.N,Net-(R9-Pad2)*
G04 #@! TO.C,U1*
G36*
X96550191Y-90402458D02*
X96161282Y-90791367D01*
X95029911Y-89659996D01*
X95418820Y-89271087D01*
X96550191Y-90402458D01*
X96550191Y-90402458D01*
G37*
D10*
G04 #@! TO.P,U1,29*
G04 #@! TO.N,/RESET*
X95224365Y-90596913D03*
D11*
G04 #@! TD*
G04 #@! TO.N,/RESET*
G04 #@! TO.C,U1*
G36*
X95984505Y-90968144D02*
X95595596Y-91357053D01*
X94464225Y-90225682D01*
X94853134Y-89836773D01*
X95984505Y-90968144D01*
X95984505Y-90968144D01*
G37*
D10*
G04 #@! TO.P,U1,30*
G04 #@! TO.N,Net-(R20-Pad2)*
X94658680Y-91162598D03*
D11*
G04 #@! TD*
G04 #@! TO.N,Net-(R20-Pad2)*
G04 #@! TO.C,U1*
G36*
X95418820Y-91533829D02*
X95029911Y-91922738D01*
X93898540Y-90791367D01*
X94287449Y-90402458D01*
X95418820Y-91533829D01*
X95418820Y-91533829D01*
G37*
D10*
G04 #@! TO.P,U1,31*
G04 #@! TO.N,Net-(R12-Pad2)*
X94092995Y-91728284D03*
D11*
G04 #@! TD*
G04 #@! TO.N,Net-(R12-Pad2)*
G04 #@! TO.C,U1*
G36*
X94853135Y-92099515D02*
X94464226Y-92488424D01*
X93332855Y-91357053D01*
X93721764Y-90968144D01*
X94853135Y-92099515D01*
X94853135Y-92099515D01*
G37*
D10*
G04 #@! TO.P,U1,32*
G04 #@! TO.N,Net-(R13-Pad2)*
X93527309Y-92293969D03*
D11*
G04 #@! TD*
G04 #@! TO.N,Net-(R13-Pad2)*
G04 #@! TO.C,U1*
G36*
X94287449Y-92665200D02*
X93898540Y-93054109D01*
X92767169Y-91922738D01*
X93156078Y-91533829D01*
X94287449Y-92665200D01*
X94287449Y-92665200D01*
G37*
D12*
G04 #@! TO.P,C1,1*
G04 #@! TO.N,+5V*
X89480107Y-97717893D03*
D11*
G04 #@! TD*
G04 #@! TO.N,+5V*
G04 #@! TO.C,C1*
G36*
X89391719Y-96922398D02*
X90275602Y-97806281D01*
X89568495Y-98513388D01*
X88684612Y-97629505D01*
X89391719Y-96922398D01*
X89391719Y-96922398D01*
G37*
D12*
G04 #@! TO.P,C1,2*
G04 #@! TO.N,GND*
X88065893Y-99132107D03*
D11*
G04 #@! TD*
G04 #@! TO.N,GND*
G04 #@! TO.C,C1*
G36*
X87977505Y-98336612D02*
X88861388Y-99220495D01*
X88154281Y-99927602D01*
X87270398Y-99043719D01*
X87977505Y-98336612D01*
X87977505Y-98336612D01*
G37*
D12*
G04 #@! TO.P,C2,2*
G04 #@! TO.N,GND*
X90502231Y-102960800D03*
D11*
G04 #@! TD*
G04 #@! TO.N,GND*
G04 #@! TO.C,C2*
G36*
X90413843Y-102165305D02*
X91297726Y-103049188D01*
X90590619Y-103756295D01*
X89706736Y-102872412D01*
X90413843Y-102165305D01*
X90413843Y-102165305D01*
G37*
D12*
G04 #@! TO.P,C2,1*
G04 #@! TO.N,/XTAL1*
X91916445Y-101546586D03*
D11*
G04 #@! TD*
G04 #@! TO.N,/XTAL1*
G04 #@! TO.C,C2*
G36*
X91828057Y-100751091D02*
X92711940Y-101634974D01*
X92004833Y-102342081D01*
X91120950Y-101458198D01*
X91828057Y-100751091D01*
X91828057Y-100751091D01*
G37*
D12*
G04 #@! TO.P,C3,1*
G04 #@! TO.N,/XTAL2*
X91736840Y-107091717D03*
D11*
G04 #@! TD*
G04 #@! TO.N,/XTAL2*
G04 #@! TO.C,C3*
G36*
X92532335Y-107003329D02*
X91648452Y-107887212D01*
X90941345Y-107180105D01*
X91825228Y-106296222D01*
X92532335Y-107003329D01*
X92532335Y-107003329D01*
G37*
D12*
G04 #@! TO.P,C3,2*
G04 #@! TO.N,GND*
X90322626Y-105677503D03*
D11*
G04 #@! TD*
G04 #@! TO.N,GND*
G04 #@! TO.C,C3*
G36*
X91118121Y-105589115D02*
X90234238Y-106472998D01*
X89527131Y-105765891D01*
X90411014Y-104882008D01*
X91118121Y-105589115D01*
X91118121Y-105589115D01*
G37*
D13*
G04 #@! TO.P,J2,1*
G04 #@! TO.N,/IO1*
X116205000Y-75311000D03*
D14*
G04 #@! TO.P,J2,2*
G04 #@! TO.N,/IO2*
X113665000Y-75311000D03*
G04 #@! TO.P,J2,3*
G04 #@! TO.N,/IO3*
X111125000Y-75311000D03*
G04 #@! TO.P,J2,4*
G04 #@! TO.N,/IO4*
X108585000Y-75311000D03*
G04 #@! TO.P,J2,5*
G04 #@! TO.N,/IO5*
X106045000Y-75311000D03*
G04 #@! TO.P,J2,6*
G04 #@! TO.N,/IO6*
X103505000Y-75311000D03*
G04 #@! TO.P,J2,7*
G04 #@! TO.N,/IO7*
X100965000Y-75311000D03*
G04 #@! TO.P,J2,8*
G04 #@! TO.N,/SCL*
X98425000Y-75311000D03*
G04 #@! TO.P,J2,9*
G04 #@! TO.N,/SDA*
X95885000Y-75311000D03*
G04 #@! TO.P,J2,10*
G04 #@! TO.N,/RX*
X93345000Y-75311000D03*
G04 #@! TO.P,J2,11*
G04 #@! TO.N,/TX*
X90805000Y-75311000D03*
G04 #@! TO.P,J2,12*
G04 #@! TO.N,/IO12*
X88265000Y-75311000D03*
G04 #@! TO.P,J2,13*
G04 #@! TO.N,/IO13*
X85725000Y-75311000D03*
G04 #@! TO.P,J2,14*
G04 #@! TO.N,/IO14*
X83185000Y-75311000D03*
G04 #@! TO.P,J2,15*
G04 #@! TO.N,/IO15*
X80645000Y-75311000D03*
G04 #@! TO.P,J2,16*
G04 #@! TO.N,/IO16*
X78105000Y-75311000D03*
G04 #@! TD*
D15*
G04 #@! TO.P,J3,1*
G04 #@! TO.N,/MISO*
X120777000Y-91567000D03*
D16*
G04 #@! TO.P,J3,2*
G04 #@! TO.N,+5V*
X120777000Y-94107000D03*
G04 #@! TO.P,J3,3*
G04 #@! TO.N,/SCK*
X118237000Y-91567000D03*
G04 #@! TO.P,J3,4*
G04 #@! TO.N,/MOSI*
X118237000Y-94107000D03*
G04 #@! TO.P,J3,5*
G04 #@! TO.N,/RESET*
X115697000Y-91567000D03*
G04 #@! TO.P,J3,6*
G04 #@! TO.N,GND*
X115697000Y-94107000D03*
G04 #@! TD*
D17*
G04 #@! TO.P,J4,1*
G04 #@! TO.N,/VIN_BAT*
X76522000Y-97790000D03*
D18*
G04 #@! TO.P,J4,2*
G04 #@! TO.N,GND*
X76522000Y-95290000D03*
G04 #@! TD*
D19*
G04 #@! TO.P,R1,2*
G04 #@! TO.N,Net-(R1-Pad2)*
X102579249Y-100928249D03*
D11*
G04 #@! TD*
G04 #@! TO.N,Net-(R1-Pad2)*
G04 #@! TO.C,R1*
G36*
X103286356Y-100716117D02*
X102367117Y-101635356D01*
X101872142Y-101140381D01*
X102791381Y-100221142D01*
X103286356Y-100716117D01*
X103286356Y-100716117D01*
G37*
D19*
G04 #@! TO.P,R1,1*
G04 #@! TO.N,/IO1*
X103922751Y-102271751D03*
D11*
G04 #@! TD*
G04 #@! TO.N,/IO1*
G04 #@! TO.C,R1*
G36*
X104629858Y-102059619D02*
X103710619Y-102978858D01*
X103215644Y-102483883D01*
X104134883Y-101564644D01*
X104629858Y-102059619D01*
X104629858Y-102059619D01*
G37*
D19*
G04 #@! TO.P,R2,1*
G04 #@! TO.N,/IO2*
X105319751Y-100874751D03*
D11*
G04 #@! TD*
G04 #@! TO.N,/IO2*
G04 #@! TO.C,R2*
G36*
X106026858Y-100662619D02*
X105107619Y-101581858D01*
X104612644Y-101086883D01*
X105531883Y-100167644D01*
X106026858Y-100662619D01*
X106026858Y-100662619D01*
G37*
D19*
G04 #@! TO.P,R2,2*
G04 #@! TO.N,Net-(R2-Pad2)*
X103976249Y-99531249D03*
D11*
G04 #@! TD*
G04 #@! TO.N,Net-(R2-Pad2)*
G04 #@! TO.C,R2*
G36*
X104683356Y-99319117D02*
X103764117Y-100238356D01*
X103269142Y-99743381D01*
X104188381Y-98824142D01*
X104683356Y-99319117D01*
X104683356Y-99319117D01*
G37*
D19*
G04 #@! TO.P,R3,2*
G04 #@! TO.N,Net-(R3-Pad2)*
X105373249Y-98134249D03*
D11*
G04 #@! TD*
G04 #@! TO.N,Net-(R3-Pad2)*
G04 #@! TO.C,R3*
G36*
X106080356Y-97922117D02*
X105161117Y-98841356D01*
X104666142Y-98346381D01*
X105585381Y-97427142D01*
X106080356Y-97922117D01*
X106080356Y-97922117D01*
G37*
D19*
G04 #@! TO.P,R3,1*
G04 #@! TO.N,/IO3*
X106716751Y-99477751D03*
D11*
G04 #@! TD*
G04 #@! TO.N,/IO3*
G04 #@! TO.C,R3*
G36*
X107423858Y-99265619D02*
X106504619Y-100184858D01*
X106009644Y-99689883D01*
X106928883Y-98770644D01*
X107423858Y-99265619D01*
X107423858Y-99265619D01*
G37*
D19*
G04 #@! TO.P,R4,2*
G04 #@! TO.N,Net-(R4-Pad2)*
X103632000Y-87630000D03*
D11*
G04 #@! TD*
G04 #@! TO.N,Net-(R4-Pad2)*
G04 #@! TO.C,R4*
G36*
X103419868Y-86922893D02*
X104339107Y-87842132D01*
X103844132Y-88337107D01*
X102924893Y-87417868D01*
X103419868Y-86922893D01*
X103419868Y-86922893D01*
G37*
D19*
G04 #@! TO.P,R4,1*
G04 #@! TO.N,/IO4*
X104975502Y-86286498D03*
D11*
G04 #@! TD*
G04 #@! TO.N,/IO4*
G04 #@! TO.C,R4*
G36*
X104763370Y-85579391D02*
X105682609Y-86498630D01*
X105187634Y-86993605D01*
X104268395Y-86074366D01*
X104763370Y-85579391D01*
X104763370Y-85579391D01*
G37*
D19*
G04 #@! TO.P,R5,1*
G04 #@! TO.N,/IO5*
X103541751Y-84799249D03*
D11*
G04 #@! TD*
G04 #@! TO.N,/IO5*
G04 #@! TO.C,R5*
G36*
X103329619Y-84092142D02*
X104248858Y-85011381D01*
X103753883Y-85506356D01*
X102834644Y-84587117D01*
X103329619Y-84092142D01*
X103329619Y-84092142D01*
G37*
D19*
G04 #@! TO.P,R5,2*
G04 #@! TO.N,Net-(R5-Pad2)*
X102198249Y-86142751D03*
D11*
G04 #@! TD*
G04 #@! TO.N,Net-(R5-Pad2)*
G04 #@! TO.C,R5*
G36*
X101986117Y-85435644D02*
X102905356Y-86354883D01*
X102410381Y-86849858D01*
X101491142Y-85930619D01*
X101986117Y-85435644D01*
X101986117Y-85435644D01*
G37*
D19*
G04 #@! TO.P,R6,1*
G04 #@! TO.N,/IO6*
X96954498Y-80698498D03*
D11*
G04 #@! TD*
G04 #@! TO.N,/IO6*
G04 #@! TO.C,R6*
G36*
X96247391Y-80910630D02*
X97166630Y-79991391D01*
X97661605Y-80486366D01*
X96742366Y-81405605D01*
X96247391Y-80910630D01*
X96247391Y-80910630D01*
G37*
D19*
G04 #@! TO.P,R6,2*
G04 #@! TO.N,Net-(R6-Pad2)*
X98298000Y-82042000D03*
D11*
G04 #@! TD*
G04 #@! TO.N,Net-(R6-Pad2)*
G04 #@! TO.C,R6*
G36*
X97590893Y-82254132D02*
X98510132Y-81334893D01*
X99005107Y-81829868D01*
X98085868Y-82749107D01*
X97590893Y-82254132D01*
X97590893Y-82254132D01*
G37*
D19*
G04 #@! TO.P,R7,2*
G04 #@! TO.N,Net-(R7-Pad2)*
X96810751Y-83602751D03*
D11*
G04 #@! TD*
G04 #@! TO.N,Net-(R7-Pad2)*
G04 #@! TO.C,R7*
G36*
X96103644Y-83814883D02*
X97022883Y-82895644D01*
X97517858Y-83390619D01*
X96598619Y-84309858D01*
X96103644Y-83814883D01*
X96103644Y-83814883D01*
G37*
D19*
G04 #@! TO.P,R7,1*
G04 #@! TO.N,/IO7*
X95467249Y-82259249D03*
D11*
G04 #@! TD*
G04 #@! TO.N,/IO7*
G04 #@! TO.C,R7*
G36*
X94760142Y-82471381D02*
X95679381Y-81552142D01*
X96174356Y-82047117D01*
X95255117Y-82966356D01*
X94760142Y-82471381D01*
X94760142Y-82471381D01*
G37*
D19*
G04 #@! TO.P,R8,1*
G04 #@! TO.N,/SDA*
X93943249Y-83783249D03*
D11*
G04 #@! TD*
G04 #@! TO.N,/SDA*
G04 #@! TO.C,R8*
G36*
X93236142Y-83995381D02*
X94155381Y-83076142D01*
X94650356Y-83571117D01*
X93731117Y-84490356D01*
X93236142Y-83995381D01*
X93236142Y-83995381D01*
G37*
D19*
G04 #@! TO.P,R8,2*
G04 #@! TO.N,Net-(R8-Pad2)*
X95286751Y-85126751D03*
D11*
G04 #@! TD*
G04 #@! TO.N,Net-(R8-Pad2)*
G04 #@! TO.C,R8*
G36*
X94579644Y-85338883D02*
X95498883Y-84419644D01*
X95993858Y-84914619D01*
X95074619Y-85833858D01*
X94579644Y-85338883D01*
X94579644Y-85338883D01*
G37*
D19*
G04 #@! TO.P,R9,2*
G04 #@! TO.N,Net-(R9-Pad2)*
X93599000Y-86614000D03*
D11*
G04 #@! TD*
G04 #@! TO.N,Net-(R9-Pad2)*
G04 #@! TO.C,R9*
G36*
X92891893Y-86826132D02*
X93811132Y-85906893D01*
X94306107Y-86401868D01*
X93386868Y-87321107D01*
X92891893Y-86826132D01*
X92891893Y-86826132D01*
G37*
D19*
G04 #@! TO.P,R9,1*
G04 #@! TO.N,/SCL*
X92255498Y-85270498D03*
D11*
G04 #@! TD*
G04 #@! TO.N,/SCL*
G04 #@! TO.C,R9*
G36*
X91548391Y-85482630D02*
X92467630Y-84563391D01*
X92962605Y-85058366D01*
X92043366Y-85977605D01*
X91548391Y-85482630D01*
X91548391Y-85482630D01*
G37*
D19*
G04 #@! TO.P,R10,1*
G04 #@! TO.N,+5V*
X90514249Y-86958249D03*
D11*
G04 #@! TD*
G04 #@! TO.N,+5V*
G04 #@! TO.C,R10*
G36*
X89807142Y-87170381D02*
X90726381Y-86251142D01*
X91221356Y-86746117D01*
X90302117Y-87665356D01*
X89807142Y-87170381D01*
X89807142Y-87170381D01*
G37*
D19*
G04 #@! TO.P,R10,2*
G04 #@! TO.N,/RESET*
X91857751Y-88301751D03*
D11*
G04 #@! TD*
G04 #@! TO.N,/RESET*
G04 #@! TO.C,R10*
G36*
X91150644Y-88513883D02*
X92069883Y-87594644D01*
X92564858Y-88089619D01*
X91645619Y-89008858D01*
X91150644Y-88513883D01*
X91150644Y-88513883D01*
G37*
D19*
G04 #@! TO.P,R12,2*
G04 #@! TO.N,Net-(R12-Pad2)*
X88809751Y-91095751D03*
D11*
G04 #@! TD*
G04 #@! TO.N,Net-(R12-Pad2)*
G04 #@! TO.C,R12*
G36*
X88102644Y-91307883D02*
X89021883Y-90388644D01*
X89516858Y-90883619D01*
X88597619Y-91802858D01*
X88102644Y-91307883D01*
X88102644Y-91307883D01*
G37*
D19*
G04 #@! TO.P,R12,1*
G04 #@! TO.N,/TX*
X87466249Y-89752249D03*
D11*
G04 #@! TD*
G04 #@! TO.N,/TX*
G04 #@! TO.C,R12*
G36*
X86759142Y-89964381D02*
X87678381Y-89045142D01*
X88173356Y-89540117D01*
X87254117Y-90459356D01*
X86759142Y-89964381D01*
X86759142Y-89964381D01*
G37*
D19*
G04 #@! TO.P,R13,1*
G04 #@! TO.N,/IO12*
X85942249Y-91149249D03*
D11*
G04 #@! TD*
G04 #@! TO.N,/IO12*
G04 #@! TO.C,R13*
G36*
X85235142Y-91361381D02*
X86154381Y-90442142D01*
X86649356Y-90937117D01*
X85730117Y-91856356D01*
X85235142Y-91361381D01*
X85235142Y-91361381D01*
G37*
D19*
G04 #@! TO.P,R13,2*
G04 #@! TO.N,Net-(R13-Pad2)*
X87285751Y-92492751D03*
D11*
G04 #@! TD*
G04 #@! TO.N,Net-(R13-Pad2)*
G04 #@! TO.C,R13*
G36*
X86578644Y-92704883D02*
X87497883Y-91785644D01*
X87992858Y-92280619D01*
X87073619Y-93199858D01*
X86578644Y-92704883D01*
X86578644Y-92704883D01*
G37*
D19*
G04 #@! TO.P,R14,2*
G04 #@! TO.N,Net-(R14-Pad2)*
X85761751Y-94016751D03*
D11*
G04 #@! TD*
G04 #@! TO.N,Net-(R14-Pad2)*
G04 #@! TO.C,R14*
G36*
X85054644Y-94228883D02*
X85973883Y-93309644D01*
X86468858Y-93804619D01*
X85549619Y-94723858D01*
X85054644Y-94228883D01*
X85054644Y-94228883D01*
G37*
D19*
G04 #@! TO.P,R14,1*
G04 #@! TO.N,/IO13*
X84418249Y-92673249D03*
D11*
G04 #@! TD*
G04 #@! TO.N,/IO13*
G04 #@! TO.C,R14*
G36*
X83711142Y-92885381D02*
X84630381Y-91966142D01*
X85125356Y-92461117D01*
X84206117Y-93380356D01*
X83711142Y-92885381D01*
X83711142Y-92885381D01*
G37*
D19*
G04 #@! TO.P,R15,1*
G04 #@! TO.N,/IO14*
X86450249Y-97445751D03*
D11*
G04 #@! TD*
G04 #@! TO.N,/IO14*
G04 #@! TO.C,R15*
G36*
X86662381Y-98152858D02*
X85743142Y-97233619D01*
X86238117Y-96738644D01*
X87157356Y-97657883D01*
X86662381Y-98152858D01*
X86662381Y-98152858D01*
G37*
D19*
G04 #@! TO.P,R15,2*
G04 #@! TO.N,Net-(R15-Pad2)*
X87793751Y-96102249D03*
D11*
G04 #@! TD*
G04 #@! TO.N,Net-(R15-Pad2)*
G04 #@! TO.C,R15*
G36*
X88005883Y-96809356D02*
X87086644Y-95890117D01*
X87581619Y-95395142D01*
X88500858Y-96314381D01*
X88005883Y-96809356D01*
X88005883Y-96809356D01*
G37*
D19*
G04 #@! TO.P,R16,2*
G04 #@! TO.N,Net-(R16-Pad2)*
X99658249Y-103722249D03*
D11*
G04 #@! TD*
G04 #@! TO.N,Net-(R16-Pad2)*
G04 #@! TO.C,R16*
G36*
X100365356Y-103510117D02*
X99446117Y-104429356D01*
X98951142Y-103934381D01*
X99870381Y-103015142D01*
X100365356Y-103510117D01*
X100365356Y-103510117D01*
G37*
D19*
G04 #@! TO.P,R16,1*
G04 #@! TO.N,/IO15*
X101001751Y-105065751D03*
D11*
G04 #@! TD*
G04 #@! TO.N,/IO15*
G04 #@! TO.C,R16*
G36*
X101708858Y-104853619D02*
X100789619Y-105772858D01*
X100294644Y-105277883D01*
X101213883Y-104358644D01*
X101708858Y-104853619D01*
X101708858Y-104853619D01*
G37*
D19*
G04 #@! TO.P,R17,1*
G04 #@! TO.N,/IO16*
X102435502Y-103705502D03*
D11*
G04 #@! TD*
G04 #@! TO.N,/IO16*
G04 #@! TO.C,R17*
G36*
X103142609Y-103493370D02*
X102223370Y-104412609D01*
X101728395Y-103917634D01*
X102647634Y-102998395D01*
X103142609Y-103493370D01*
X103142609Y-103493370D01*
G37*
D19*
G04 #@! TO.P,R17,2*
G04 #@! TO.N,Net-(R17-Pad2)*
X101092000Y-102362000D03*
D11*
G04 #@! TD*
G04 #@! TO.N,Net-(R17-Pad2)*
G04 #@! TO.C,R17*
G36*
X101799107Y-102149868D02*
X100879868Y-103069107D01*
X100384893Y-102574132D01*
X101304132Y-101654893D01*
X101799107Y-102149868D01*
X101799107Y-102149868D01*
G37*
D20*
G04 #@! TO.P,Y1,1*
G04 #@! TO.N,/XTAL1*
X93397127Y-102885846D03*
D11*
G04 #@! TD*
G04 #@! TO.N,/XTAL1*
G04 #@! TO.C,Y1*
G36*
X93467838Y-101966607D02*
X94316366Y-102815135D01*
X93326416Y-103805085D01*
X92477888Y-102956557D01*
X93467838Y-101966607D01*
X93467838Y-101966607D01*
G37*
D20*
G04 #@! TO.P,Y1,2*
G04 #@! TO.N,GND*
X91841492Y-104441481D03*
D11*
G04 #@! TD*
G04 #@! TO.N,GND*
G04 #@! TO.C,Y1*
G36*
X91912203Y-103522242D02*
X92760731Y-104370770D01*
X91770781Y-105360720D01*
X90922253Y-104512192D01*
X91912203Y-103522242D01*
X91912203Y-103522242D01*
G37*
D20*
G04 #@! TO.P,Y1,3*
G04 #@! TO.N,/XTAL2*
X92972863Y-105572852D03*
D11*
G04 #@! TD*
G04 #@! TO.N,/XTAL2*
G04 #@! TO.C,Y1*
G36*
X93043574Y-104653613D02*
X93892102Y-105502141D01*
X92902152Y-106492091D01*
X92053624Y-105643563D01*
X93043574Y-104653613D01*
X93043574Y-104653613D01*
G37*
D20*
G04 #@! TO.P,Y1,4*
G04 #@! TO.N,GND*
X94528498Y-104017217D03*
D11*
G04 #@! TD*
G04 #@! TO.N,GND*
G04 #@! TO.C,Y1*
G36*
X94599209Y-103097978D02*
X95447737Y-103946506D01*
X94457787Y-104936456D01*
X93609259Y-104087928D01*
X94599209Y-103097978D01*
X94599209Y-103097978D01*
G37*
D13*
G04 #@! TO.P,J6,1*
G04 #@! TO.N,GND*
X76073000Y-113665000D03*
D14*
G04 #@! TO.P,J6,2*
G04 #@! TO.N,+3V3*
X78613000Y-113665000D03*
G04 #@! TO.P,J6,3*
G04 #@! TO.N,GND*
X81153000Y-113665000D03*
G04 #@! TO.P,J6,4*
G04 #@! TO.N,+3V3*
X83693000Y-113665000D03*
G04 #@! TO.P,J6,5*
G04 #@! TO.N,GND*
X86233000Y-113665000D03*
G04 #@! TO.P,J6,6*
G04 #@! TO.N,+3V3*
X88773000Y-113665000D03*
G04 #@! TO.P,J6,7*
G04 #@! TO.N,GND*
X91313000Y-113665000D03*
G04 #@! TO.P,J6,8*
G04 #@! TO.N,+3V3*
X93853000Y-113665000D03*
G04 #@! TO.P,J6,9*
G04 #@! TO.N,GND*
X96393000Y-113665000D03*
G04 #@! TO.P,J6,10*
G04 #@! TO.N,+5V*
X98933000Y-113665000D03*
G04 #@! TO.P,J6,11*
G04 #@! TO.N,GND*
X101473000Y-113665000D03*
G04 #@! TO.P,J6,12*
G04 #@! TO.N,+5V*
X104013000Y-113665000D03*
G04 #@! TO.P,J6,13*
G04 #@! TO.N,GND*
X106553000Y-113665000D03*
G04 #@! TO.P,J6,14*
G04 #@! TO.N,+5V*
X109093000Y-113665000D03*
G04 #@! TO.P,J6,15*
G04 #@! TO.N,GND*
X111633000Y-113665000D03*
G04 #@! TO.P,J6,16*
G04 #@! TO.N,+5V*
X114173000Y-113665000D03*
G04 #@! TD*
D21*
G04 #@! TO.P,R18,2*
G04 #@! TO.N,/SDA*
X91755000Y-81915000D03*
G04 #@! TO.P,R18,1*
G04 #@! TO.N,+5V*
X89855000Y-81915000D03*
G04 #@! TD*
G04 #@! TO.P,R19,1*
G04 #@! TO.N,+5V*
X85603000Y-83058000D03*
G04 #@! TO.P,R19,2*
G04 #@! TO.N,/SCL*
X87503000Y-83058000D03*
G04 #@! TD*
D19*
G04 #@! TO.P,R20,2*
G04 #@! TO.N,Net-(R20-Pad2)*
X90297000Y-89662000D03*
D11*
G04 #@! TD*
G04 #@! TO.N,Net-(R20-Pad2)*
G04 #@! TO.C,R20*
G36*
X89589893Y-89874132D02*
X90509132Y-88954893D01*
X91004107Y-89449868D01*
X90084868Y-90369107D01*
X89589893Y-89874132D01*
X89589893Y-89874132D01*
G37*
D19*
G04 #@! TO.P,R20,1*
G04 #@! TO.N,/RX*
X88953498Y-88318498D03*
D11*
G04 #@! TD*
G04 #@! TO.N,/RX*
G04 #@! TO.C,R20*
G36*
X88246391Y-88530630D02*
X89165630Y-87611391D01*
X89660605Y-88106366D01*
X88741366Y-89025605D01*
X88246391Y-88530630D01*
X88246391Y-88530630D01*
G37*
D21*
G04 #@! TO.P,R21,1*
G04 #@! TO.N,GND*
X84902000Y-87376000D03*
G04 #@! TO.P,R21,2*
G04 #@! TO.N,/RX*
X86802000Y-87376000D03*
G04 #@! TD*
D22*
G04 #@! TO.P,J1,3*
G04 #@! TO.N,/RX*
X71628000Y-81153000D03*
G04 #@! TO.P,J1,2*
G04 #@! TO.N,/TX*
X71628000Y-78663800D03*
G04 #@! TO.P,J1,1*
G04 #@! TO.N,Net-(J1-Pad1)*
X71628000Y-76174600D03*
G04 #@! TD*
G04 #@! TO.P,J5,1*
G04 #@! TO.N,GND*
X71628000Y-83743800D03*
G04 #@! TO.P,J5,2*
G04 #@! TO.N,+5V*
X71628000Y-86233000D03*
G04 #@! TO.P,J5,3*
G04 #@! TO.N,Net-(J5-Pad3)*
X71628000Y-88722200D03*
G04 #@! TD*
G04 #@! TO.P,J7,3*
G04 #@! TO.N,GND*
X146812001Y-88595200D03*
G04 #@! TO.P,J7,2*
G04 #@! TO.N,+3V3*
X146812001Y-86106000D03*
G04 #@! TO.P,J7,1*
G04 #@! TO.N,+5V*
X146812001Y-83616800D03*
G04 #@! TD*
G04 #@! TO.P,J8,1*
G04 #@! TO.N,/SCL*
X146812000Y-91109800D03*
G04 #@! TO.P,J8,2*
G04 #@! TO.N,/SDA*
X146812000Y-93599000D03*
G04 #@! TO.P,J8,3*
G04 #@! TO.N,Net-(J8-Pad3)*
X146812000Y-96088200D03*
G04 #@! TD*
G04 #@! TO.P,J9,3*
G04 #@! TO.N,Net-(J9-Pad3)*
X146812000Y-103581200D03*
G04 #@! TO.P,J9,2*
G04 #@! TO.N,Net-(J9-Pad2)*
X146812000Y-101092000D03*
G04 #@! TO.P,J9,1*
G04 #@! TO.N,Net-(J9-Pad1)*
X146812000Y-98602800D03*
G04 #@! TD*
D16*
G04 #@! TO.P,J11,6*
G04 #@! TO.N,GND*
X117046000Y-70947000D03*
G04 #@! TO.P,J11,5*
G04 #@! TO.N,/IO1*
X114046000Y-70947000D03*
G04 #@! TO.P,J11,4*
G04 #@! TO.N,+5V*
X111046000Y-70947000D03*
G04 #@! TO.P,J11,3*
G04 #@! TO.N,GND*
X117046000Y-67947000D03*
G04 #@! TO.P,J11,2*
G04 #@! TO.N,/IO2*
X114046000Y-67947000D03*
G04 #@! TO.P,J11,1*
G04 #@! TO.N,+5V*
X111046000Y-67947000D03*
G04 #@! TD*
G04 #@! TO.P,J12,1*
G04 #@! TO.N,+5V*
X102235000Y-67866000D03*
G04 #@! TO.P,J12,2*
G04 #@! TO.N,/IO4*
X105235000Y-67866000D03*
G04 #@! TO.P,J12,3*
G04 #@! TO.N,GND*
X108235000Y-67866000D03*
G04 #@! TO.P,J12,4*
G04 #@! TO.N,+5V*
X102235000Y-70866000D03*
G04 #@! TO.P,J12,5*
G04 #@! TO.N,/IO3*
X105235000Y-70866000D03*
G04 #@! TO.P,J12,6*
G04 #@! TO.N,GND*
X108235000Y-70866000D03*
G04 #@! TD*
G04 #@! TO.P,J13,6*
G04 #@! TO.N,GND*
X99472000Y-70818000D03*
G04 #@! TO.P,J13,5*
G04 #@! TO.N,/IO6*
X96472000Y-70818000D03*
G04 #@! TO.P,J13,4*
G04 #@! TO.N,+5V*
X93472000Y-70818000D03*
G04 #@! TO.P,J13,3*
G04 #@! TO.N,GND*
X99472000Y-67818000D03*
G04 #@! TO.P,J13,2*
G04 #@! TO.N,/IO5*
X96472000Y-67818000D03*
G04 #@! TO.P,J13,1*
G04 #@! TO.N,+5V*
X93472000Y-67818000D03*
G04 #@! TD*
G04 #@! TO.P,J14,1*
G04 #@! TO.N,/SDA*
X84884000Y-67820000D03*
G04 #@! TO.P,J14,2*
G04 #@! TO.N,/SCL*
X87884000Y-67820000D03*
G04 #@! TO.P,J14,3*
G04 #@! TO.N,+5V*
X90884000Y-67820000D03*
G04 #@! TO.P,J14,4*
G04 #@! TO.N,GND*
X84884000Y-70820000D03*
G04 #@! TO.P,J14,5*
G04 #@! TO.N,+3V3*
X87884000Y-70820000D03*
G04 #@! TO.P,J14,6*
G04 #@! TO.N,GND*
X90884000Y-70820000D03*
G04 #@! TD*
D22*
G04 #@! TO.P,U2,1*
G04 #@! TO.N,GND*
X73075800Y-107950000D03*
G04 #@! TO.P,U2,2*
G04 #@! TO.N,+5V*
X75565000Y-107950000D03*
G04 #@! TO.P,U2,3*
G04 #@! TO.N,/VIN_BAT*
X78054200Y-107950000D03*
G04 #@! TD*
G04 #@! TO.P,U3,3*
G04 #@! TO.N,/VIN_BAT*
X78054200Y-104013000D03*
G04 #@! TO.P,U3,2*
G04 #@! TO.N,+3V3*
X75565000Y-104013000D03*
G04 #@! TO.P,U3,1*
G04 #@! TO.N,GND*
X73075800Y-104013000D03*
G04 #@! TD*
D23*
G04 #@! TO.N,+5V*
X93853000Y-77724000D03*
X89027000Y-84328000D03*
X88646000Y-81915000D03*
X85471000Y-81407000D03*
X84328000Y-100838000D03*
X82677000Y-102489000D03*
G04 #@! TO.N,GND*
X89154000Y-106934000D03*
X95758000Y-102870000D03*
X92202000Y-96901000D03*
X85217000Y-85344000D03*
G04 #@! TO.N,/SCL*
X91821000Y-83566000D03*
X138277599Y-82575399D03*
G04 #@! TO.N,/SDA*
X138303000Y-81788000D03*
G04 #@! TO.N,/MISO*
X111887000Y-93218000D03*
G04 #@! TO.N,/SCK*
X112649000Y-92583000D03*
G04 #@! TO.N,/MOSI*
X111379000Y-94361000D03*
X113157000Y-96139000D03*
G04 #@! TO.N,/RESET*
X92837000Y-89027000D03*
X99441000Y-83693000D03*
X112395000Y-91313000D03*
G04 #@! TD*
D24*
G04 #@! TO.N,+5V*
X93548107Y-97717893D02*
X89480107Y-97717893D01*
X95224365Y-96041635D02*
X93548107Y-97717893D01*
D25*
X75565000Y-109027630D02*
X77535370Y-110998000D01*
X75565000Y-107950000D02*
X75565000Y-109027630D01*
X96266000Y-110998000D02*
X98933000Y-113665000D01*
X102604199Y-112256199D02*
X103163001Y-112815001D01*
X100341801Y-112256199D02*
X102604199Y-112256199D01*
X103163001Y-112815001D02*
X104013000Y-113665000D01*
X98933000Y-113665000D02*
X100341801Y-112256199D01*
X108243001Y-112815001D02*
X109093000Y-113665000D01*
X107684199Y-112256199D02*
X108243001Y-112815001D01*
X105421801Y-112256199D02*
X107684199Y-112256199D01*
X104013000Y-113665000D02*
X105421801Y-112256199D01*
X112764199Y-112256199D02*
X113323001Y-112815001D01*
X113323001Y-112815001D02*
X114173000Y-113665000D01*
X110501801Y-112256199D02*
X112764199Y-112256199D01*
X109093000Y-113665000D02*
X110501801Y-112256199D01*
D26*
X93470000Y-67820000D02*
X93472000Y-67818000D01*
X90884000Y-67820000D02*
X93470000Y-67820000D01*
X93472000Y-68807949D02*
X93472000Y-70818000D01*
X93472000Y-67818000D02*
X93472000Y-68807949D01*
X101535001Y-67166001D02*
X102235000Y-67866000D01*
X101207599Y-66838599D02*
X101535001Y-67166001D01*
X94451401Y-66838599D02*
X101207599Y-66838599D01*
X93472000Y-67818000D02*
X94451401Y-66838599D01*
X102235000Y-68855949D02*
X102235000Y-70866000D01*
X102235000Y-67866000D02*
X102235000Y-68855949D01*
X110346001Y-67247001D02*
X111046000Y-67947000D01*
X109985599Y-66886599D02*
X110346001Y-67247001D01*
X103214401Y-66886599D02*
X109985599Y-66886599D01*
X102235000Y-67866000D02*
X103214401Y-66886599D01*
X111046000Y-68936949D02*
X111046000Y-70947000D01*
X111046000Y-67947000D02*
X111046000Y-68936949D01*
X93746000Y-77724000D02*
X93853000Y-77724000D01*
X89855000Y-81915000D02*
X89855000Y-81615000D01*
X89855000Y-81615000D02*
X93746000Y-77724000D01*
X102295434Y-92364679D02*
X98901321Y-92364679D01*
X95860760Y-95405240D02*
X95224365Y-96041635D01*
X102931829Y-91728284D02*
X102295434Y-92364679D01*
X90514249Y-86958249D02*
X90514249Y-85815249D01*
X90514249Y-85815249D02*
X89027000Y-84328000D01*
X88646000Y-81915000D02*
X89855000Y-81915000D01*
X85471000Y-82926000D02*
X85603000Y-83058000D01*
X85471000Y-81407000D02*
X85471000Y-82926000D01*
X120777000Y-95096949D02*
X120777000Y-94107000D01*
X120777000Y-107061000D02*
X120777000Y-95096949D01*
X114173000Y-113665000D02*
X120777000Y-107061000D01*
X131267200Y-83616800D02*
X146812001Y-83616800D01*
X120777000Y-94107000D02*
X131267200Y-83616800D01*
X72389999Y-86994999D02*
X71628000Y-86233000D01*
X79908391Y-94513391D02*
X72389999Y-86994999D01*
X81407000Y-110998000D02*
X79908391Y-109499391D01*
D25*
X81407000Y-110998000D02*
X96266000Y-110998000D01*
X77535370Y-110998000D02*
X81407000Y-110998000D01*
D24*
X89480107Y-97717893D02*
X87448107Y-97717893D01*
X87448107Y-97717893D02*
X84328000Y-100838000D01*
X82245948Y-102489000D02*
X79908391Y-102489000D01*
X82677000Y-102489000D02*
X82245948Y-102489000D01*
D26*
X79908391Y-109499391D02*
X79908391Y-102489000D01*
X79908391Y-102489000D02*
X79908391Y-94513391D01*
X98901321Y-92364679D02*
X95860760Y-95405240D01*
D24*
G04 #@! TO.N,GND*
X91841492Y-104300061D02*
X91841492Y-104441481D01*
X90502231Y-102960800D02*
X91841492Y-104300061D01*
X91558648Y-104441481D02*
X91841492Y-104441481D01*
X90322626Y-105677503D02*
X91558648Y-104441481D01*
X90322626Y-105677503D02*
X89154000Y-106846129D01*
X89154000Y-106846129D02*
X89154000Y-106934000D01*
X94528498Y-104017217D02*
X95675715Y-102870000D01*
X95675715Y-102870000D02*
X95758000Y-102870000D01*
X92329000Y-97028000D02*
X92202000Y-96901000D01*
X94658680Y-95475950D02*
X93106630Y-97028000D01*
X93106630Y-97028000D02*
X92329000Y-97028000D01*
X88065893Y-100524462D02*
X90502231Y-102960800D01*
X88065893Y-99132107D02*
X88065893Y-100524462D01*
X84902000Y-87376000D02*
X84902000Y-85659000D01*
X84902000Y-85659000D02*
X85217000Y-85344000D01*
G04 #@! TO.N,/XTAL1*
X93397127Y-101262986D02*
X96921422Y-97738691D01*
X93397127Y-102885846D02*
X93397127Y-101262986D01*
X93255705Y-102885846D02*
X93397127Y-102885846D01*
X91916445Y-101546586D02*
X93255705Y-102885846D01*
G04 #@! TO.N,/XTAL2*
X97487107Y-98793286D02*
X97487107Y-98304377D01*
X97487107Y-102230442D02*
X97487107Y-98793286D01*
X94144697Y-105572852D02*
X97487107Y-102230442D01*
X92972863Y-105572852D02*
X94144697Y-105572852D01*
X91736840Y-106808875D02*
X91736840Y-107091717D01*
X92972863Y-105572852D02*
X91736840Y-106808875D01*
G04 #@! TO.N,/IO1*
X104517726Y-102271751D02*
X103922751Y-102271751D01*
X105172097Y-102271751D02*
X104517726Y-102271751D01*
X113969809Y-93474039D02*
X105172097Y-102271751D01*
X113969810Y-78548590D02*
X113969809Y-93474039D01*
X116205000Y-76313400D02*
X113969810Y-78548590D01*
X116205000Y-75311000D02*
X116205000Y-76313400D01*
X116205000Y-73106000D02*
X116205000Y-75311000D01*
X114046000Y-70947000D02*
X116205000Y-73106000D01*
G04 #@! TO.N,/IO2*
X113665000Y-76513081D02*
X113665000Y-75311000D01*
X113665000Y-93347782D02*
X113665000Y-76513081D01*
X106138031Y-100874751D02*
X113665000Y-93347782D01*
X105319751Y-100874751D02*
X106138031Y-100874751D01*
X112815001Y-74461001D02*
X113665000Y-75311000D01*
X112649000Y-74295000D02*
X112815001Y-74461001D01*
X112649000Y-69344000D02*
X112649000Y-74295000D01*
X114046000Y-67947000D02*
X112649000Y-69344000D01*
G04 #@! TO.N,/IO3*
X111125000Y-75311000D02*
X113284000Y-77470000D01*
X107388502Y-98806000D02*
X106716751Y-99477751D01*
X107696000Y-98806000D02*
X107388502Y-98806000D01*
X113284000Y-93218000D02*
X107696000Y-98806000D01*
X113284000Y-77470000D02*
X113284000Y-93218000D01*
X106680000Y-70866000D02*
X105235000Y-70866000D01*
X111125000Y-75311000D02*
X106680000Y-70866000D01*
G04 #@! TO.N,/IO4*
X108585000Y-82677000D02*
X108585000Y-75311000D01*
X104975502Y-86286498D02*
X108585000Y-82677000D01*
X104306399Y-68794601D02*
X104535001Y-68565999D01*
X104535001Y-68565999D02*
X105235000Y-67866000D01*
X104306399Y-71311729D02*
X104306399Y-68794601D01*
X107455671Y-74461001D02*
X104306399Y-71311729D01*
X107735001Y-74461001D02*
X107455671Y-74461001D01*
X108585000Y-75311000D02*
X107735001Y-74461001D01*
G04 #@! TO.N,/IO5*
X106045000Y-82296000D02*
X106045000Y-75311000D01*
X103541751Y-84799249D02*
X106045000Y-82296000D01*
X97461949Y-67818000D02*
X96472000Y-67818000D01*
X97846330Y-67818000D02*
X97461949Y-67818000D01*
X104260729Y-74232399D02*
X97846330Y-67818000D01*
X104966399Y-74232399D02*
X104260729Y-74232399D01*
X106045000Y-75311000D02*
X104966399Y-74232399D01*
G04 #@! TO.N,/IO6*
X98117502Y-80698498D02*
X103505000Y-75311000D01*
X96954498Y-80698498D02*
X98117502Y-80698498D01*
X97171999Y-71517999D02*
X96472000Y-70818000D01*
X102426399Y-74232399D02*
X99886399Y-74232399D01*
X99886399Y-74232399D02*
X97171999Y-71517999D01*
X103505000Y-75311000D02*
X102426399Y-74232399D01*
G04 #@! TO.N,/IO7*
X95149052Y-81126948D02*
X100115001Y-76160999D01*
X95149052Y-81941052D02*
X95149052Y-81126948D01*
X100115001Y-76160999D02*
X100965000Y-75311000D01*
X95467249Y-82259249D02*
X95149052Y-81941052D01*
G04 #@! TO.N,/SCL*
X87503000Y-83058000D02*
X90043000Y-83058000D01*
X98425000Y-75311000D02*
X97346399Y-74232399D01*
X90846601Y-68748601D02*
X88812601Y-68748601D01*
X97346399Y-74232399D02*
X95512069Y-74232399D01*
X95512069Y-74232399D02*
X92543399Y-71263729D01*
X92543399Y-71263729D02*
X92543399Y-70445399D01*
X88812601Y-68748601D02*
X87884000Y-67820000D01*
X92543399Y-70445399D02*
X90846601Y-68748601D01*
X91186000Y-84201000D02*
X91821000Y-83566000D01*
X91186000Y-84201000D02*
X92255498Y-85270498D01*
X90043000Y-83058000D02*
X91186000Y-84201000D01*
D26*
X147573999Y-90347801D02*
X146812000Y-91109800D01*
X147853402Y-83116927D02*
X147853402Y-90068398D01*
X147853402Y-90068398D02*
X147573999Y-90347801D01*
X147311874Y-82575399D02*
X147853402Y-83116927D01*
X138277599Y-82575399D02*
X147311874Y-82575399D01*
D24*
G04 #@! TO.N,/SDA*
X93348274Y-83783249D02*
X93943249Y-83783249D01*
X93323249Y-83783249D02*
X93348274Y-83783249D01*
X91755000Y-82215000D02*
X93323249Y-83783249D01*
X91755000Y-81915000D02*
X91755000Y-82215000D01*
X92329000Y-71755000D02*
X95885000Y-75311000D01*
X92075000Y-71501000D02*
X92329000Y-71755000D01*
X90780330Y-69342000D02*
X92075000Y-70636670D01*
X86406000Y-69342000D02*
X90780330Y-69342000D01*
X92075000Y-70636670D02*
X92075000Y-71501000D01*
X84884000Y-67820000D02*
X86406000Y-69342000D01*
X95885000Y-76513081D02*
X95885000Y-75311000D01*
X95885000Y-78287400D02*
X95885000Y-76513081D01*
X92257400Y-81915000D02*
X95885000Y-78287400D01*
X91755000Y-81915000D02*
X92257400Y-81915000D01*
D26*
X148259812Y-82948587D02*
X148259812Y-92151188D01*
X148259812Y-92151188D02*
X147573999Y-92837001D01*
X147099225Y-81788000D02*
X148259812Y-82948587D01*
X147573999Y-92837001D02*
X146812000Y-93599000D01*
X138303000Y-81788000D02*
X147099225Y-81788000D01*
D24*
G04 #@! TO.N,/IO12*
X87415001Y-76160999D02*
X88265000Y-75311000D01*
X84323399Y-79252601D02*
X87415001Y-76160999D01*
X84323399Y-88935424D02*
X84323399Y-79252601D01*
X85942249Y-90554274D02*
X84323399Y-88935424D01*
X85942249Y-91149249D02*
X85942249Y-90554274D01*
G04 #@! TO.N,/IO13*
X84875001Y-76160999D02*
X85725000Y-75311000D01*
X83566000Y-77470000D02*
X84875001Y-76160999D01*
X83566000Y-91821000D02*
X83566000Y-77470000D01*
X84418249Y-92673249D02*
X83566000Y-91821000D01*
G04 #@! TO.N,/IO14*
X81153000Y-77343000D02*
X83185000Y-75311000D01*
X86450249Y-97445751D02*
X81153000Y-92148502D01*
X81153000Y-92148502D02*
X81153000Y-77343000D01*
G04 #@! TO.N,/IO15*
X80645000Y-76513081D02*
X80645000Y-75311000D01*
X101001751Y-105660726D02*
X98546655Y-108115822D01*
X80645000Y-99214434D02*
X80645000Y-76513081D01*
X89546388Y-108115822D02*
X80645000Y-99214434D01*
X98546655Y-108115822D02*
X89546388Y-108115822D01*
X101001751Y-105065751D02*
X101001751Y-105660726D01*
G04 #@! TO.N,/IO16*
X80264000Y-77470000D02*
X78105000Y-75311000D01*
X80264000Y-99264500D02*
X80264000Y-77470000D01*
X89420131Y-108420631D02*
X80264000Y-99264500D01*
X98672911Y-108420632D02*
X89420131Y-108420631D01*
X102435502Y-103705502D02*
X102435502Y-104658041D01*
X102435502Y-104658041D02*
X98672911Y-108420632D01*
D26*
G04 #@! TO.N,/MISO*
X103497515Y-94344579D02*
X104878094Y-92964000D01*
X104878094Y-92964000D02*
X111633000Y-92964000D01*
X111633000Y-92964000D02*
X111887000Y-93218000D01*
G04 #@! TO.N,/SCK*
X103497515Y-92293969D02*
X112359969Y-92293969D01*
X112359969Y-92293969D02*
X112649000Y-92583000D01*
G04 #@! TO.N,/MOSI*
X110193341Y-95546659D02*
X111379000Y-94361000D01*
X102931829Y-94910264D02*
X103568224Y-95546659D01*
X103568224Y-95546659D02*
X110193341Y-95546659D01*
D24*
X116205000Y-96139000D02*
X118237000Y-94107000D01*
X113157000Y-96139000D02*
X116205000Y-96139000D01*
G04 #@! TO.N,/RESET*
X92929203Y-88301751D02*
X91857751Y-88301751D01*
D26*
X93019452Y-88844548D02*
X92837000Y-89027000D01*
X93472000Y-88844548D02*
X93019452Y-88844548D01*
D24*
X93472000Y-88844548D02*
X92929203Y-88301751D01*
X95224365Y-90596913D02*
X93472000Y-88844548D01*
D26*
X101796681Y-83997799D02*
X109492882Y-91694000D01*
X99441000Y-83693000D02*
X99745799Y-83997799D01*
X99745799Y-83997799D02*
X101796681Y-83997799D01*
X109492882Y-91694000D02*
X110744000Y-91694000D01*
X110744000Y-91694000D02*
X112014000Y-91694000D01*
X112014000Y-91694000D02*
X112395000Y-91313000D01*
D25*
G04 #@! TO.N,/VIN_BAT*
X78054200Y-104013000D02*
X78054200Y-107950000D01*
X76522000Y-102480800D02*
X78054200Y-104013000D01*
X76522000Y-97790000D02*
X76522000Y-102480800D01*
D24*
G04 #@! TO.N,Net-(R1-Pad2)*
X102579249Y-97951797D02*
X101234773Y-96607321D01*
X102579249Y-100928249D02*
X102579249Y-97951797D01*
G04 #@! TO.N,Net-(R2-Pad2)*
X103976249Y-98217425D02*
X101800459Y-96041635D01*
X103976249Y-99531249D02*
X103976249Y-98217425D01*
G04 #@! TO.N,Net-(R3-Pad2)*
X102714950Y-95475950D02*
X102366144Y-95475950D01*
X105373249Y-98134249D02*
X102714950Y-95475950D01*
D26*
G04 #@! TO.N,Net-(R4-Pad2)*
X101373259Y-87630000D02*
X100103402Y-88899857D01*
X103632000Y-87630000D02*
X101373259Y-87630000D01*
G04 #@! TO.N,Net-(R5-Pad2)*
X101603274Y-86142751D02*
X99537717Y-88208308D01*
X99537717Y-88208308D02*
X99537717Y-88334171D01*
X102198249Y-86142751D02*
X101603274Y-86142751D01*
D24*
G04 #@! TO.N,Net-(R6-Pad2)*
X97487107Y-88334171D02*
X97487107Y-86408893D01*
X98298000Y-85598000D02*
X98298000Y-82042000D01*
X97487107Y-86408893D02*
X98298000Y-85598000D01*
G04 #@! TO.N,Net-(R7-Pad2)*
X96280422Y-88258857D02*
X96280422Y-86472578D01*
X96921422Y-88899857D02*
X96280422Y-88258857D01*
X96810751Y-85942249D02*
X96810751Y-83602751D01*
X96280422Y-86472578D02*
X96810751Y-85942249D01*
G04 #@! TO.N,Net-(R8-Pad2)*
X95286751Y-88396557D02*
X95286751Y-85126751D01*
X96355736Y-89465542D02*
X95286751Y-88396557D01*
G04 #@! TO.N,Net-(R9-Pad2)*
X93599000Y-87840176D02*
X93599000Y-86614000D01*
X95790051Y-90031227D02*
X93599000Y-87840176D01*
G04 #@! TO.N,Net-(R12-Pad2)*
X88813613Y-91091889D02*
X88809751Y-91095751D01*
X93456600Y-91091889D02*
X88813613Y-91091889D01*
X94092995Y-91728284D02*
X93456600Y-91091889D01*
G04 #@! TO.N,Net-(R13-Pad2)*
X87484533Y-92293969D02*
X87285751Y-92492751D01*
X93527309Y-92293969D02*
X87484533Y-92293969D01*
G04 #@! TO.N,Net-(R14-Pad2)*
X86089579Y-94344579D02*
X85761751Y-94016751D01*
X93527309Y-94344579D02*
X86089579Y-94344579D01*
G04 #@! TO.N,Net-(R15-Pad2)*
X92901010Y-96102249D02*
X87793751Y-96102249D01*
X94092995Y-94910264D02*
X92901010Y-96102249D01*
G04 #@! TO.N,Net-(R16-Pad2)*
X100584000Y-99350660D02*
X99537717Y-98304377D01*
X100584000Y-101219000D02*
X100584000Y-99350660D01*
X99658249Y-103722249D02*
X99658249Y-102144751D01*
X99658249Y-102144751D02*
X100584000Y-101219000D01*
G04 #@! TO.N,Net-(R17-Pad2)*
X101092000Y-98727289D02*
X100103402Y-97738691D01*
X101092000Y-102362000D02*
X101092000Y-98727289D01*
G04 #@! TO.N,/TX*
X86181601Y-79934399D02*
X89955001Y-76160999D01*
X86181601Y-88467601D02*
X86181601Y-79934399D01*
X89955001Y-76160999D02*
X90805000Y-75311000D01*
X87466249Y-89752249D02*
X86181601Y-88467601D01*
D26*
X76758800Y-73533000D02*
X72389999Y-77901801D01*
X89027000Y-73533000D02*
X76758800Y-73533000D01*
X72389999Y-77901801D02*
X71628000Y-78663800D01*
X90805000Y-75311000D02*
X89027000Y-73533000D01*
D24*
G04 #@! TO.N,/RX*
X88011000Y-87376000D02*
X86802000Y-87376000D01*
X88953498Y-88318498D02*
X88011000Y-87376000D01*
X92495001Y-76160999D02*
X93345000Y-75311000D01*
X86924399Y-81731601D02*
X92495001Y-76160999D01*
X86924399Y-86289399D02*
X86924399Y-81731601D01*
X88011000Y-87376000D02*
X86924399Y-86289399D01*
D25*
G04 #@! TO.N,+3V3*
X75565000Y-104013000D02*
X73660000Y-105918000D01*
X73660000Y-105918000D02*
X73153014Y-105918000D01*
X77763001Y-114514999D02*
X78613000Y-113665000D01*
X77204199Y-115073801D02*
X77763001Y-114514999D01*
X74775959Y-115073801D02*
X77204199Y-115073801D01*
X71754999Y-107316015D02*
X71754999Y-112052841D01*
X71754999Y-112052841D02*
X74775959Y-115073801D01*
X73153014Y-105918000D02*
X71754999Y-107316015D01*
X82843001Y-114514999D02*
X83693000Y-113665000D01*
X80021801Y-115073801D02*
X82284199Y-115073801D01*
X82284199Y-115073801D02*
X82843001Y-114514999D01*
X78613000Y-113665000D02*
X80021801Y-115073801D01*
X87923001Y-114514999D02*
X88773000Y-113665000D01*
X87364199Y-115073801D02*
X87923001Y-114514999D01*
X85101801Y-115073801D02*
X87364199Y-115073801D01*
X83693000Y-113665000D02*
X85101801Y-115073801D01*
X93003001Y-114514999D02*
X93853000Y-113665000D01*
X92444199Y-115073801D02*
X93003001Y-114514999D01*
X90181801Y-115073801D02*
X92444199Y-115073801D01*
X88773000Y-113665000D02*
X90181801Y-115073801D01*
D26*
X94702999Y-114514999D02*
X93853000Y-113665000D01*
X96139000Y-115951000D02*
X94702999Y-114514999D01*
X116967001Y-115951000D02*
X96139000Y-115951000D01*
X146812001Y-86106000D02*
X116967001Y-115951000D01*
D24*
X86955399Y-71748601D02*
X87184001Y-71519999D01*
X74587909Y-71748601D02*
X86955399Y-71748601D01*
X70637399Y-75699111D02*
X74587909Y-71748601D01*
X70637399Y-99085399D02*
X70637399Y-75699111D01*
X87184001Y-71519999D02*
X87884000Y-70820000D01*
X75565000Y-104013000D02*
X70637399Y-99085399D01*
G04 #@! TO.N,Net-(R20-Pad2)*
X93158082Y-89662000D02*
X90297000Y-89662000D01*
X94658680Y-91162598D02*
X93158082Y-89662000D01*
G04 #@! TD*
M02*
